<?xml version="1.0" encoding="UTF-8" standalone="no"?>
<!DOCTYPE svg PUBLIC "-//W3C//DTD SVG 1.1//EN" "http://www.w3.org/Graphics/SVG/1.1/DTD/svg11.dtd">
<svg width="100%" height="100%" viewBox="0 0 666 440" version="1.1" xmlns="http://www.w3.org/2000/svg" xmlns:xlink="http://www.w3.org/1999/xlink" xml:space="preserve" xmlns:serif="http://www.serif.com/" style="fill-rule:evenodd;clip-rule:evenodd;">
    <g id="Sketch" transform="matrix(1,0,0,-1,6.51969,455.528)">
        <g>
            <path id="Sketch_w0000" d="M0,28.346L0,443.339C0,446.449 2.559,449.008 5.669,449.008L646.299,449.008C649.409,449.008 651.969,446.449 651.969,443.339L651.969,28.346C651.969,25.236 649.409,22.677 646.299,22.677L5.669,22.677C2.559,22.677 -0,25.236 0,28.346" style="fill:none;stroke:black;stroke-width:0.99px;"/>
        </g>
        <g>
            <g transform="matrix(1.30509e-17,-0.213138,-0.213138,-1.30509e-17,690.451,583.467)">
                <path d="M754.363,450.295L754.363,524.114L690.434,561.024L690.434,575.787L703.219,583.169L767.148,546.26L831.078,583.169L843.863,575.787L843.863,561.024L779.995,524.149L779.934,450.295L767.148,442.913L754.363,450.295Z" style="fill:none;stroke:black;stroke-width:4.69px;stroke-linecap:round;stroke-linejoin:round;stroke-miterlimit:1.5;"/>
            </g>
            <g transform="matrix(1.30509e-17,-0.213138,-0.213138,-1.30509e-17,722.341,565.055)">
                <path d="M754.363,450.295L754.363,524.114L690.434,561.024L690.434,575.787L703.219,583.169L767.148,546.26L831.078,583.169L843.863,575.787L843.863,561.024L779.995,524.149L779.934,450.295L767.148,442.913L754.363,450.295Z" style="fill:none;stroke:black;stroke-width:4.69px;stroke-linecap:round;stroke-linejoin:round;stroke-miterlimit:1.5;"/>
            </g>
            <g transform="matrix(1.30509e-17,-0.213138,-0.213138,-1.30509e-17,722.341,528.232)">
                <path d="M754.363,450.295L754.363,524.114L690.434,561.024L690.434,575.787L703.219,583.169L767.148,546.26L831.078,583.169L843.863,575.787L843.863,561.024L779.995,524.149L779.934,450.295L767.148,442.913L754.363,450.295Z" style="fill:none;stroke:black;stroke-width:4.69px;stroke-linecap:round;stroke-linejoin:round;stroke-miterlimit:1.5;"/>
            </g>
            <g transform="matrix(1.30509e-17,-0.213138,-0.213138,-1.30509e-17,690.451,509.82)">
                <path d="M754.363,450.295L754.363,524.114L690.434,561.024L690.434,575.787L703.219,583.169L767.148,546.26L831.078,583.169L843.863,575.787L843.863,561.024L779.995,524.149L779.934,450.295L767.148,442.913L754.363,450.295Z" style="fill:none;stroke:black;stroke-width:4.69px;stroke-linecap:round;stroke-linejoin:round;stroke-miterlimit:1.5;"/>
            </g>
            <g transform="matrix(1.30509e-17,-0.213138,-0.213138,-1.30509e-17,690.451,472.997)">
                <path d="M754.363,450.295L754.363,524.114L690.434,561.024L690.434,575.787L703.219,583.169L767.148,546.26L831.078,583.169L843.863,575.787L843.863,561.024L779.995,524.149L779.934,450.295L767.148,442.913L754.363,450.295Z" style="fill:none;stroke:black;stroke-width:4.69px;stroke-linecap:round;stroke-linejoin:round;stroke-miterlimit:1.5;"/>
            </g>
            <g transform="matrix(1.30509e-17,-0.213138,-0.213138,-1.30509e-17,722.341,491.409)">
                <path d="M754.363,450.295L754.363,524.114L690.434,561.024L690.434,575.787L703.219,583.169L767.148,546.26L831.078,583.169L843.863,575.787L843.863,561.024L779.995,524.149L779.934,450.295L767.148,442.913L754.363,450.295Z" style="fill:none;stroke:black;stroke-width:4.69px;stroke-linecap:round;stroke-linejoin:round;stroke-miterlimit:1.5;"/>
            </g>
            <g transform="matrix(1.30509e-17,-0.213138,-0.213138,-1.30509e-17,690.451,546.644)">
                <path d="M754.363,450.295L754.363,524.114L690.434,561.024L690.434,575.787L703.219,583.169L767.148,546.26L831.078,583.169L843.863,575.787L843.863,561.024L779.995,524.149L779.934,450.295L767.148,442.913L754.363,450.295Z" style="fill:none;stroke:black;stroke-width:4.69px;stroke-linecap:round;stroke-linejoin:round;stroke-miterlimit:1.5;"/>
            </g>
            <g transform="matrix(1.30509e-17,-0.213138,-0.213138,-1.30509e-17,722.341,454.586)">
                <path d="M754.363,450.295L754.363,524.114L690.434,561.024L690.434,575.787L703.219,583.169L767.148,546.26L831.078,583.169L843.863,575.787L843.863,561.024L779.995,524.149L779.934,450.295L767.148,442.913L754.363,450.295Z" style="fill:none;stroke:black;stroke-width:4.69px;stroke-linecap:round;stroke-linejoin:round;stroke-miterlimit:1.5;"/>
            </g>
            <g transform="matrix(1.30509e-17,-0.213138,-0.213138,-1.30509e-17,690.451,436.174)">
                <path d="M754.363,450.295L754.363,524.114L690.434,561.024L690.434,575.787L703.219,583.169L767.148,546.26L831.078,583.169L843.863,575.787L843.863,561.024L779.995,524.149L779.934,450.295L767.148,442.913L754.363,450.295Z" style="fill:none;stroke:black;stroke-width:4.69px;stroke-linecap:round;stroke-linejoin:round;stroke-miterlimit:1.5;"/>
            </g>
            <g transform="matrix(1.30509e-17,-0.213138,-0.213138,-1.30509e-17,690.451,399.351)">
                <path d="M754.363,450.295L754.363,524.114L690.434,561.024L690.434,575.787L703.219,583.169L767.148,546.26L831.078,583.169L843.863,575.787L843.863,561.024L779.995,524.149L779.934,450.295L767.148,442.913L754.363,450.295Z" style="fill:none;stroke:black;stroke-width:4.69px;stroke-linecap:round;stroke-linejoin:round;stroke-miterlimit:1.5;"/>
            </g>
            <g transform="matrix(1.30509e-17,-0.213138,-0.213138,-1.30509e-17,722.341,417.763)">
                <path d="M754.363,450.295L754.363,524.114L690.434,561.024L690.434,575.787L703.219,583.169L767.148,546.26L831.078,583.169L843.863,575.787L843.863,561.024L779.995,524.149L779.934,450.295L767.148,442.913L754.363,450.295Z" style="fill:none;stroke:black;stroke-width:4.69px;stroke-linecap:round;stroke-linejoin:round;stroke-miterlimit:1.5;"/>
            </g>
            <g transform="matrix(1.30509e-17,-0.213138,-0.213138,-1.30509e-17,722.341,380.939)">
                <path d="M754.363,450.295L754.363,524.114L690.434,561.024L690.434,575.787L703.219,583.169L767.148,546.26L831.078,583.169L843.863,575.787L843.863,561.024L779.995,524.149L779.934,450.295L767.148,442.913L754.363,450.295Z" style="fill:none;stroke:black;stroke-width:4.69px;stroke-linecap:round;stroke-linejoin:round;stroke-miterlimit:1.5;"/>
            </g>
            <g transform="matrix(1.30509e-17,-0.213138,-0.213138,-1.30509e-17,690.451,362.528)">
                <path d="M754.363,450.295L754.363,524.114L690.434,561.024L690.434,575.787L703.219,583.169L767.148,546.26L831.078,583.169L843.863,575.787L843.863,561.024L779.995,524.149L779.934,450.295L767.148,442.913L754.363,450.295Z" style="fill:none;stroke:black;stroke-width:4.69px;stroke-linecap:round;stroke-linejoin:round;stroke-miterlimit:1.5;"/>
            </g>
            <g transform="matrix(1.30509e-17,-0.213138,-0.213138,-1.30509e-17,722.341,344.116)">
                <path d="M754.363,450.295L754.363,524.114L690.434,561.024L690.434,575.787L703.219,583.169L767.148,546.26L831.078,583.169L843.863,575.787L843.863,561.024L779.995,524.149L779.934,450.295L767.148,442.913L754.363,450.295Z" style="fill:none;stroke:black;stroke-width:4.69px;stroke-linecap:round;stroke-linejoin:round;stroke-miterlimit:1.5;"/>
            </g>
            <g transform="matrix(1.30509e-17,-0.213138,-0.213138,-1.30509e-17,722.341,307.293)">
                <path d="M754.363,450.295L754.363,524.114L690.434,561.024L690.434,575.787L703.219,583.169L767.148,546.26L831.078,583.169L843.863,575.787L843.863,561.024L779.995,524.149L779.934,450.295L767.148,442.913L754.363,450.295Z" style="fill:none;stroke:black;stroke-width:4.69px;stroke-linecap:round;stroke-linejoin:round;stroke-miterlimit:1.5;"/>
            </g>
            <g transform="matrix(1.30509e-17,-0.213138,-0.213138,-1.30509e-17,690.451,288.882)">
                <path d="M754.363,450.295L754.363,524.114L690.434,561.024L690.434,575.787L703.219,583.169L767.148,546.26L831.078,583.169L843.863,575.787L843.863,561.024L779.995,524.149L779.934,450.295L767.148,442.913L754.363,450.295Z" style="fill:none;stroke:black;stroke-width:4.69px;stroke-linecap:round;stroke-linejoin:round;stroke-miterlimit:1.5;"/>
            </g>
            <g transform="matrix(1.30509e-17,-0.213138,-0.213138,-1.30509e-17,690.451,252.059)">
                <path d="M754.363,450.295L754.363,524.114L690.434,561.024L690.434,575.787L703.219,583.169L767.148,546.26L831.078,583.169L843.863,575.787L843.863,561.024L779.995,524.149L779.934,450.295L767.148,442.913L754.363,450.295Z" style="fill:none;stroke:black;stroke-width:4.69px;stroke-linecap:round;stroke-linejoin:round;stroke-miterlimit:1.5;"/>
            </g>
            <g transform="matrix(1.30509e-17,-0.213138,-0.213138,-1.30509e-17,722.341,270.47)">
                <path d="M754.363,450.295L754.363,524.114L690.434,561.024L690.434,575.787L703.219,583.169L767.148,546.26L831.078,583.169L843.863,575.787L843.863,561.024L779.995,524.149L779.934,450.295L767.148,442.913L754.363,450.295Z" style="fill:none;stroke:black;stroke-width:4.69px;stroke-linecap:round;stroke-linejoin:round;stroke-miterlimit:1.5;"/>
            </g>
            <g transform="matrix(1.30509e-17,-0.213138,-0.213138,-1.30509e-17,690.451,325.705)">
                <path d="M754.363,450.295L754.363,524.114L690.434,561.024L690.434,575.787L703.219,583.169L767.148,546.26L831.078,583.169L843.863,575.787L843.863,561.024L779.995,524.149L779.934,450.295L767.148,442.913L754.363,450.295Z" style="fill:none;stroke:black;stroke-width:4.69px;stroke-linecap:round;stroke-linejoin:round;stroke-miterlimit:1.5;"/>
            </g>
            <g transform="matrix(1.30509e-17,-0.213138,-0.213138,-1.30509e-17,722.341,233.647)">
                <path d="M754.363,450.295L754.363,524.114L690.434,561.024L690.434,575.787L703.219,583.169L767.148,546.26L831.078,583.169L843.863,575.787L843.863,561.024L779.995,524.149L779.934,450.295L767.148,442.913L754.363,450.295Z" style="fill:none;stroke:black;stroke-width:4.69px;stroke-linecap:round;stroke-linejoin:round;stroke-miterlimit:1.5;"/>
            </g>
            <g transform="matrix(1.30509e-17,-0.213138,-0.213138,-1.30509e-17,690.451,215.235)">
                <path d="M754.363,450.295L754.363,524.114L690.434,561.024L690.434,575.787L703.219,583.169L767.148,546.26L831.078,583.169L843.863,575.787L843.863,561.024L779.995,524.149L779.934,450.295L767.148,442.913L754.363,450.295Z" style="fill:none;stroke:black;stroke-width:4.69px;stroke-linecap:round;stroke-linejoin:round;stroke-miterlimit:1.5;"/>
            </g>
            <g transform="matrix(1.30509e-17,-0.213138,-0.213138,-1.30509e-17,626.671,583.467)">
                <path d="M754.363,450.295L754.363,524.114L690.434,561.024L690.434,575.787L703.219,583.169L767.148,546.26L831.078,583.169L843.863,575.787L843.863,561.024L779.995,524.149L779.934,450.295L767.148,442.913L754.363,450.295Z" style="fill:none;stroke:black;stroke-width:4.69px;stroke-linecap:round;stroke-linejoin:round;stroke-miterlimit:1.5;"/>
            </g>
            <g transform="matrix(1.30509e-17,-0.213138,-0.213138,-1.30509e-17,658.561,565.055)">
                <path d="M754.363,450.295L754.363,524.114L690.434,561.024L690.434,575.787L703.219,583.169L767.148,546.26L831.078,583.169L843.863,575.787L843.863,561.024L779.995,524.149L779.934,450.295L767.148,442.913L754.363,450.295Z" style="fill:none;stroke:black;stroke-width:4.69px;stroke-linecap:round;stroke-linejoin:round;stroke-miterlimit:1.5;"/>
            </g>
            <g transform="matrix(1.30509e-17,-0.213138,-0.213138,-1.30509e-17,658.561,528.232)">
                <path d="M754.363,450.295L754.363,524.114L690.434,561.024L690.434,575.787L703.219,583.169L767.148,546.26L831.078,583.169L843.863,575.787L843.863,561.024L779.995,524.149L779.934,450.295L767.148,442.913L754.363,450.295Z" style="fill:none;stroke:black;stroke-width:4.69px;stroke-linecap:round;stroke-linejoin:round;stroke-miterlimit:1.5;"/>
            </g>
            <g transform="matrix(1.30509e-17,-0.213138,-0.213138,-1.30509e-17,626.671,509.82)">
                <path d="M754.363,450.295L754.363,524.114L690.434,561.024L690.434,575.787L703.219,583.169L767.148,546.26L831.078,583.169L843.863,575.787L843.863,561.024L779.995,524.149L779.934,450.295L767.148,442.913L754.363,450.295Z" style="fill:none;stroke:black;stroke-width:4.69px;stroke-linecap:round;stroke-linejoin:round;stroke-miterlimit:1.5;"/>
            </g>
            <g transform="matrix(1.30509e-17,-0.213138,-0.213138,-1.30509e-17,626.671,472.997)">
                <path d="M754.363,450.295L754.363,524.114L690.434,561.024L690.434,575.787L703.219,583.169L767.148,546.26L831.078,583.169L843.863,575.787L843.863,561.024L779.995,524.149L779.934,450.295L767.148,442.913L754.363,450.295Z" style="fill:none;stroke:black;stroke-width:4.69px;stroke-linecap:round;stroke-linejoin:round;stroke-miterlimit:1.5;"/>
            </g>
            <g transform="matrix(1.30509e-17,-0.213138,-0.213138,-1.30509e-17,658.561,491.409)">
                <path d="M754.363,450.295L754.363,524.114L690.434,561.024L690.434,575.787L703.219,583.169L767.148,546.26L831.078,583.169L843.863,575.787L843.863,561.024L779.995,524.149L779.934,450.295L767.148,442.913L754.363,450.295Z" style="fill:none;stroke:black;stroke-width:4.69px;stroke-linecap:round;stroke-linejoin:round;stroke-miterlimit:1.5;"/>
            </g>
            <g transform="matrix(1.30509e-17,-0.213138,-0.213138,-1.30509e-17,626.671,546.644)">
                <path d="M754.363,450.295L754.363,524.114L690.434,561.024L690.434,575.787L703.219,583.169L767.148,546.26L831.078,583.169L843.863,575.787L843.863,561.024L779.995,524.149L779.934,450.295L767.148,442.913L754.363,450.295Z" style="fill:none;stroke:black;stroke-width:4.69px;stroke-linecap:round;stroke-linejoin:round;stroke-miterlimit:1.5;"/>
            </g>
            <g transform="matrix(1.30509e-17,-0.213138,-0.213138,-1.30509e-17,658.561,454.586)">
                <path d="M754.363,450.295L754.363,524.114L690.434,561.024L690.434,575.787L703.219,583.169L767.148,546.26L831.078,583.169L843.863,575.787L843.863,561.024L779.995,524.149L779.934,450.295L767.148,442.913L754.363,450.295Z" style="fill:none;stroke:black;stroke-width:4.69px;stroke-linecap:round;stroke-linejoin:round;stroke-miterlimit:1.5;"/>
            </g>
            <g transform="matrix(1.30509e-17,-0.213138,-0.213138,-1.30509e-17,626.671,436.174)">
                <path d="M754.363,450.295L754.363,524.114L690.434,561.024L690.434,575.787L703.219,583.169L767.148,546.26L831.078,583.169L843.863,575.787L843.863,561.024L779.995,524.149L779.934,450.295L767.148,442.913L754.363,450.295Z" style="fill:none;stroke:black;stroke-width:4.69px;stroke-linecap:round;stroke-linejoin:round;stroke-miterlimit:1.5;"/>
            </g>
            <g transform="matrix(1.30509e-17,-0.213138,-0.213138,-1.30509e-17,626.671,399.351)">
                <path d="M754.363,450.295L754.363,524.114L690.434,561.024L690.434,575.787L703.219,583.169L767.148,546.26L831.078,583.169L843.863,575.787L843.863,561.024L779.995,524.149L779.934,450.295L767.148,442.913L754.363,450.295Z" style="fill:none;stroke:black;stroke-width:4.69px;stroke-linecap:round;stroke-linejoin:round;stroke-miterlimit:1.5;"/>
            </g>
            <g transform="matrix(1.30509e-17,-0.213138,-0.213138,-1.30509e-17,658.561,417.763)">
                <path d="M754.363,450.295L754.363,524.114L690.434,561.024L690.434,575.787L703.219,583.169L767.148,546.26L831.078,583.169L843.863,575.787L843.863,561.024L779.995,524.149L779.934,450.295L767.148,442.913L754.363,450.295Z" style="fill:none;stroke:black;stroke-width:4.69px;stroke-linecap:round;stroke-linejoin:round;stroke-miterlimit:1.5;"/>
            </g>
            <g transform="matrix(1.30509e-17,-0.213138,-0.213138,-1.30509e-17,658.561,380.939)">
                <path d="M754.363,450.295L754.363,524.114L690.434,561.024L690.434,575.787L703.219,583.169L767.148,546.26L831.078,583.169L843.863,575.787L843.863,561.024L779.995,524.149L779.934,450.295L767.148,442.913L754.363,450.295Z" style="fill:none;stroke:black;stroke-width:4.69px;stroke-linecap:round;stroke-linejoin:round;stroke-miterlimit:1.5;"/>
            </g>
            <g transform="matrix(1.30509e-17,-0.213138,-0.213138,-1.30509e-17,626.671,362.528)">
                <path d="M754.363,450.295L754.363,524.114L690.434,561.024L690.434,575.787L703.219,583.169L767.148,546.26L831.078,583.169L843.863,575.787L843.863,561.024L779.995,524.149L779.934,450.295L767.148,442.913L754.363,450.295Z" style="fill:none;stroke:black;stroke-width:4.69px;stroke-linecap:round;stroke-linejoin:round;stroke-miterlimit:1.5;"/>
            </g>
            <g transform="matrix(1.30509e-17,-0.213138,-0.213138,-1.30509e-17,658.561,344.116)">
                <path d="M754.363,450.295L754.363,524.114L690.434,561.024L690.434,575.787L703.219,583.169L767.148,546.26L831.078,583.169L843.863,575.787L843.863,561.024L779.995,524.149L779.934,450.295L767.148,442.913L754.363,450.295Z" style="fill:none;stroke:black;stroke-width:4.69px;stroke-linecap:round;stroke-linejoin:round;stroke-miterlimit:1.5;"/>
            </g>
            <g transform="matrix(1.30509e-17,-0.213138,-0.213138,-1.30509e-17,658.561,307.293)">
                <path d="M754.363,450.295L754.363,524.114L690.434,561.024L690.434,575.787L703.219,583.169L767.148,546.26L831.078,583.169L843.863,575.787L843.863,561.024L779.995,524.149L779.934,450.295L767.148,442.913L754.363,450.295Z" style="fill:none;stroke:black;stroke-width:4.69px;stroke-linecap:round;stroke-linejoin:round;stroke-miterlimit:1.5;"/>
            </g>
            <g transform="matrix(1.30509e-17,-0.213138,-0.213138,-1.30509e-17,626.671,288.882)">
                <path d="M754.363,450.295L754.363,524.114L690.434,561.024L690.434,575.787L703.219,583.169L767.148,546.26L831.078,583.169L843.863,575.787L843.863,561.024L779.995,524.149L779.934,450.295L767.148,442.913L754.363,450.295Z" style="fill:none;stroke:black;stroke-width:4.69px;stroke-linecap:round;stroke-linejoin:round;stroke-miterlimit:1.5;"/>
            </g>
            <g transform="matrix(1.30509e-17,-0.213138,-0.213138,-1.30509e-17,626.671,252.059)">
                <path d="M754.363,450.295L754.363,524.114L690.434,561.024L690.434,575.787L703.219,583.169L767.148,546.26L831.078,583.169L843.863,575.787L843.863,561.024L779.995,524.149L779.934,450.295L767.148,442.913L754.363,450.295Z" style="fill:none;stroke:black;stroke-width:4.69px;stroke-linecap:round;stroke-linejoin:round;stroke-miterlimit:1.5;"/>
            </g>
            <g transform="matrix(1.30509e-17,-0.213138,-0.213138,-1.30509e-17,658.561,270.47)">
                <path d="M754.363,450.295L754.363,524.114L690.434,561.024L690.434,575.787L703.219,583.169L767.148,546.26L831.078,583.169L843.863,575.787L843.863,561.024L779.995,524.149L779.934,450.295L767.148,442.913L754.363,450.295Z" style="fill:none;stroke:black;stroke-width:4.69px;stroke-linecap:round;stroke-linejoin:round;stroke-miterlimit:1.5;"/>
            </g>
            <g transform="matrix(1.30509e-17,-0.213138,-0.213138,-1.30509e-17,626.671,325.705)">
                <path d="M754.363,450.295L754.363,524.114L690.434,561.024L690.434,575.787L703.219,583.169L767.148,546.26L831.078,583.169L843.863,575.787L843.863,561.024L779.995,524.149L779.934,450.295L767.148,442.913L754.363,450.295Z" style="fill:none;stroke:black;stroke-width:4.69px;stroke-linecap:round;stroke-linejoin:round;stroke-miterlimit:1.5;"/>
            </g>
            <g transform="matrix(1.30509e-17,-0.213138,-0.213138,-1.30509e-17,658.561,233.647)">
                <path d="M754.363,450.295L754.363,524.114L690.434,561.024L690.434,575.787L703.219,583.169L767.148,546.26L831.078,583.169L843.863,575.787L843.863,561.024L779.995,524.149L779.934,450.295L767.148,442.913L754.363,450.295Z" style="fill:none;stroke:black;stroke-width:4.69px;stroke-linecap:round;stroke-linejoin:round;stroke-miterlimit:1.5;"/>
            </g>
            <g transform="matrix(1.30509e-17,-0.213138,-0.213138,-1.30509e-17,626.671,215.235)">
                <path d="M754.363,450.295L754.363,524.114L690.434,561.024L690.434,575.787L703.219,583.169L767.148,546.26L831.078,583.169L843.863,575.787L843.863,561.024L779.995,524.149L779.934,450.295L767.148,442.913L754.363,450.295Z" style="fill:none;stroke:black;stroke-width:4.69px;stroke-linecap:round;stroke-linejoin:round;stroke-miterlimit:1.5;"/>
            </g>
            <g transform="matrix(1.30509e-17,-0.213138,-0.213138,-1.30509e-17,243.994,583.467)">
                <path d="M754.363,450.295L754.363,524.114L690.434,561.024L690.434,575.787L703.219,583.169L767.148,546.26L831.078,583.169L843.863,575.787L843.863,561.024L779.995,524.149L779.934,450.295L767.148,442.913L754.363,450.295Z" style="fill:none;stroke:black;stroke-width:4.69px;stroke-linecap:round;stroke-linejoin:round;stroke-miterlimit:1.5;"/>
            </g>
            <g transform="matrix(1.30509e-17,-0.213138,-0.213138,-1.30509e-17,275.884,565.055)">
                <path d="M754.363,450.295L754.363,524.114L690.434,561.024L690.434,575.787L703.219,583.169L767.148,546.26L831.078,583.169L843.863,575.787L843.863,561.024L779.995,524.149L779.934,450.295L767.148,442.913L754.363,450.295Z" style="fill:none;stroke:black;stroke-width:4.69px;stroke-linecap:round;stroke-linejoin:round;stroke-miterlimit:1.5;"/>
            </g>
            <g transform="matrix(1.30509e-17,-0.213138,-0.213138,-1.30509e-17,275.884,528.232)">
                <path d="M754.363,450.295L754.363,524.114L690.434,561.024L690.434,575.787L703.219,583.169L767.148,546.26L831.078,583.169L843.863,575.787L843.863,561.024L779.995,524.149L779.934,450.295L767.148,442.913L754.363,450.295Z" style="fill:none;stroke:black;stroke-width:4.69px;stroke-linecap:round;stroke-linejoin:round;stroke-miterlimit:1.5;"/>
            </g>
            <g transform="matrix(1.30509e-17,-0.213138,-0.213138,-1.30509e-17,243.994,509.82)">
                <path d="M754.363,450.295L754.363,524.114L690.434,561.024L690.434,575.787L703.219,583.169L767.148,546.26L831.078,583.169L843.863,575.787L843.863,561.024L779.995,524.149L779.934,450.295L767.148,442.913L754.363,450.295Z" style="fill:none;stroke:black;stroke-width:4.69px;stroke-linecap:round;stroke-linejoin:round;stroke-miterlimit:1.5;"/>
            </g>
            <g transform="matrix(1.30509e-17,-0.213138,-0.213138,-1.30509e-17,243.994,472.997)">
                <path d="M754.363,450.295L754.363,524.114L690.434,561.024L690.434,575.787L703.219,583.169L767.148,546.26L831.078,583.169L843.863,575.787L843.863,561.024L779.995,524.149L779.934,450.295L767.148,442.913L754.363,450.295Z" style="fill:none;stroke:black;stroke-width:4.69px;stroke-linecap:round;stroke-linejoin:round;stroke-miterlimit:1.5;"/>
            </g>
            <g transform="matrix(1.30509e-17,-0.213138,-0.213138,-1.30509e-17,275.884,491.409)">
                <path d="M754.363,450.295L754.363,524.114L690.434,561.024L690.434,575.787L703.219,583.169L767.148,546.26L831.078,583.169L843.863,575.787L843.863,561.024L779.995,524.149L779.934,450.295L767.148,442.913L754.363,450.295Z" style="fill:none;stroke:black;stroke-width:4.69px;stroke-linecap:round;stroke-linejoin:round;stroke-miterlimit:1.5;"/>
            </g>
            <g transform="matrix(1.30509e-17,-0.213138,-0.213138,-1.30509e-17,243.994,546.644)">
                <path d="M754.363,450.295L754.363,524.114L690.434,561.024L690.434,575.787L703.219,583.169L767.148,546.26L831.078,583.169L843.863,575.787L843.863,561.024L779.995,524.149L779.934,450.295L767.148,442.913L754.363,450.295Z" style="fill:none;stroke:black;stroke-width:4.69px;stroke-linecap:round;stroke-linejoin:round;stroke-miterlimit:1.5;"/>
            </g>
            <g transform="matrix(1.30509e-17,-0.213138,-0.213138,-1.30509e-17,275.884,454.586)">
                <path d="M754.363,450.295L754.363,524.114L690.434,561.024L690.434,575.787L703.219,583.169L767.148,546.26L831.078,583.169L843.863,575.787L843.863,561.024L779.995,524.149L779.934,450.295L767.148,442.913L754.363,450.295Z" style="fill:none;stroke:black;stroke-width:4.69px;stroke-linecap:round;stroke-linejoin:round;stroke-miterlimit:1.5;"/>
            </g>
            <g transform="matrix(1.30509e-17,-0.213138,-0.213138,-1.30509e-17,243.994,436.174)">
                <path d="M754.363,450.295L754.363,524.114L690.434,561.024L690.434,575.787L703.219,583.169L767.148,546.26L831.078,583.169L843.863,575.787L843.863,561.024L779.995,524.149L779.934,450.295L767.148,442.913L754.363,450.295Z" style="fill:none;stroke:black;stroke-width:4.69px;stroke-linecap:round;stroke-linejoin:round;stroke-miterlimit:1.5;"/>
            </g>
            <g transform="matrix(1.30509e-17,-0.213138,-0.213138,-1.30509e-17,243.994,399.351)">
                <path d="M754.363,450.295L754.363,524.114L690.434,561.024L690.434,575.787L703.219,583.169L767.148,546.26L831.078,583.169L843.863,575.787L843.863,561.024L779.995,524.149L779.934,450.295L767.148,442.913L754.363,450.295Z" style="fill:none;stroke:black;stroke-width:4.69px;stroke-linecap:round;stroke-linejoin:round;stroke-miterlimit:1.5;"/>
            </g>
            <g transform="matrix(1.30509e-17,-0.213138,-0.213138,-1.30509e-17,275.884,417.763)">
                <path d="M754.363,450.295L754.363,524.114L690.434,561.024L690.434,575.787L703.219,583.169L767.148,546.26L831.078,583.169L843.863,575.787L843.863,561.024L779.995,524.149L779.934,450.295L767.148,442.913L754.363,450.295Z" style="fill:none;stroke:black;stroke-width:4.69px;stroke-linecap:round;stroke-linejoin:round;stroke-miterlimit:1.5;"/>
            </g>
            <g transform="matrix(1.30509e-17,-0.213138,-0.213138,-1.30509e-17,275.884,380.939)">
                <path d="M754.363,450.295L754.363,524.114L690.434,561.024L690.434,575.787L703.219,583.169L767.148,546.26L831.078,583.169L843.863,575.787L843.863,561.024L779.995,524.149L779.934,450.295L767.148,442.913L754.363,450.295Z" style="fill:none;stroke:black;stroke-width:4.69px;stroke-linecap:round;stroke-linejoin:round;stroke-miterlimit:1.5;"/>
            </g>
            <g transform="matrix(1.30509e-17,-0.213138,-0.213138,-1.30509e-17,243.994,362.528)">
                <path d="M754.363,450.295L754.363,524.114L690.434,561.024L690.434,575.787L703.219,583.169L767.148,546.26L831.078,583.169L843.863,575.787L843.863,561.024L779.995,524.149L779.934,450.295L767.148,442.913L754.363,450.295Z" style="fill:none;stroke:black;stroke-width:4.69px;stroke-linecap:round;stroke-linejoin:round;stroke-miterlimit:1.5;"/>
            </g>
            <g transform="matrix(1.30509e-17,-0.213138,-0.213138,-1.30509e-17,275.884,344.116)">
                <path d="M754.363,450.295L754.363,524.114L690.434,561.024L690.434,575.787L703.219,583.169L767.148,546.26L831.078,583.169L843.863,575.787L843.863,561.024L779.995,524.149L779.934,450.295L767.148,442.913L754.363,450.295Z" style="fill:none;stroke:black;stroke-width:4.69px;stroke-linecap:round;stroke-linejoin:round;stroke-miterlimit:1.5;"/>
            </g>
            <g transform="matrix(1.30509e-17,-0.213138,-0.213138,-1.30509e-17,275.884,307.293)">
                <path d="M754.363,450.295L754.363,524.114L690.434,561.024L690.434,575.787L703.219,583.169L767.148,546.26L831.078,583.169L843.863,575.787L843.863,561.024L779.995,524.149L779.934,450.295L767.148,442.913L754.363,450.295Z" style="fill:none;stroke:black;stroke-width:4.69px;stroke-linecap:round;stroke-linejoin:round;stroke-miterlimit:1.5;"/>
            </g>
            <g transform="matrix(1.30509e-17,-0.213138,-0.213138,-1.30509e-17,243.994,288.882)">
                <path d="M754.363,450.295L754.363,524.114L690.434,561.024L690.434,575.787L703.219,583.169L767.148,546.26L831.078,583.169L843.863,575.787L843.863,561.024L779.995,524.149L779.934,450.295L767.148,442.913L754.363,450.295Z" style="fill:none;stroke:black;stroke-width:4.69px;stroke-linecap:round;stroke-linejoin:round;stroke-miterlimit:1.5;"/>
            </g>
            <g transform="matrix(1.30509e-17,-0.213138,-0.213138,-1.30509e-17,243.994,252.059)">
                <path d="M754.363,450.295L754.363,524.114L690.434,561.024L690.434,575.787L703.219,583.169L767.148,546.26L831.078,583.169L843.863,575.787L843.863,561.024L779.995,524.149L779.934,450.295L767.148,442.913L754.363,450.295Z" style="fill:none;stroke:black;stroke-width:4.69px;stroke-linecap:round;stroke-linejoin:round;stroke-miterlimit:1.5;"/>
            </g>
            <g transform="matrix(1.30509e-17,-0.213138,-0.213138,-1.30509e-17,275.884,270.47)">
                <path d="M754.363,450.295L754.363,524.114L690.434,561.024L690.434,575.787L703.219,583.169L767.148,546.26L831.078,583.169L843.863,575.787L843.863,561.024L779.995,524.149L779.934,450.295L767.148,442.913L754.363,450.295Z" style="fill:none;stroke:black;stroke-width:4.69px;stroke-linecap:round;stroke-linejoin:round;stroke-miterlimit:1.5;"/>
            </g>
            <g transform="matrix(1.30509e-17,-0.213138,-0.213138,-1.30509e-17,243.994,325.705)">
                <path d="M754.363,450.295L754.363,524.114L690.434,561.024L690.434,575.787L703.219,583.169L767.148,546.26L831.078,583.169L843.863,575.787L843.863,561.024L779.995,524.149L779.934,450.295L767.148,442.913L754.363,450.295Z" style="fill:none;stroke:black;stroke-width:4.69px;stroke-linecap:round;stroke-linejoin:round;stroke-miterlimit:1.5;"/>
            </g>
            <g transform="matrix(1.30509e-17,-0.213138,-0.213138,-1.30509e-17,275.884,233.647)">
                <path d="M754.363,450.295L754.363,524.114L690.434,561.024L690.434,575.787L703.219,583.169L767.148,546.26L831.078,583.169L843.863,575.787L843.863,561.024L779.995,524.149L779.934,450.295L767.148,442.913L754.363,450.295Z" style="fill:none;stroke:black;stroke-width:4.69px;stroke-linecap:round;stroke-linejoin:round;stroke-miterlimit:1.5;"/>
            </g>
            <g transform="matrix(1.30509e-17,-0.213138,-0.213138,-1.30509e-17,243.994,215.235)">
                <path d="M754.363,450.295L754.363,524.114L690.434,561.024L690.434,575.787L703.219,583.169L767.148,546.26L831.078,583.169L843.863,575.787L843.863,561.024L779.995,524.149L779.934,450.295L767.148,442.913L754.363,450.295Z" style="fill:none;stroke:black;stroke-width:4.69px;stroke-linecap:round;stroke-linejoin:round;stroke-miterlimit:1.5;"/>
            </g>
            <g transform="matrix(1.30509e-17,-0.213138,-0.213138,-1.30509e-17,180.215,583.467)">
                <path d="M754.363,450.295L754.363,524.114L690.434,561.024L690.434,575.787L703.219,583.169L767.148,546.26L831.078,583.169L843.863,575.787L843.863,561.024L779.995,524.149L779.934,450.295L767.148,442.913L754.363,450.295Z" style="fill:none;stroke:black;stroke-width:4.69px;stroke-linecap:round;stroke-linejoin:round;stroke-miterlimit:1.5;"/>
            </g>
            <g transform="matrix(1.30509e-17,-0.213138,-0.213138,-1.30509e-17,212.105,565.055)">
                <path d="M754.363,450.295L754.363,524.114L690.434,561.024L690.434,575.787L703.219,583.169L767.148,546.26L831.078,583.169L843.863,575.787L843.863,561.024L779.995,524.149L779.934,450.295L767.148,442.913L754.363,450.295Z" style="fill:none;stroke:black;stroke-width:4.69px;stroke-linecap:round;stroke-linejoin:round;stroke-miterlimit:1.5;"/>
            </g>
            <g transform="matrix(1.30509e-17,-0.213138,-0.213138,-1.30509e-17,212.105,528.232)">
                <path d="M754.363,450.295L754.363,524.114L690.434,561.024L690.434,575.787L703.219,583.169L767.148,546.26L831.078,583.169L843.863,575.787L843.863,561.024L779.995,524.149L779.934,450.295L767.148,442.913L754.363,450.295Z" style="fill:none;stroke:black;stroke-width:4.69px;stroke-linecap:round;stroke-linejoin:round;stroke-miterlimit:1.5;"/>
            </g>
            <g transform="matrix(1.30509e-17,-0.213138,-0.213138,-1.30509e-17,180.215,509.82)">
                <path d="M754.363,450.295L754.363,524.114L690.434,561.024L690.434,575.787L703.219,583.169L767.148,546.26L831.078,583.169L843.863,575.787L843.863,561.024L779.995,524.149L779.934,450.295L767.148,442.913L754.363,450.295Z" style="fill:none;stroke:black;stroke-width:4.69px;stroke-linecap:round;stroke-linejoin:round;stroke-miterlimit:1.5;"/>
            </g>
            <g transform="matrix(1.30509e-17,-0.213138,-0.213138,-1.30509e-17,180.215,472.997)">
                <path d="M754.363,450.295L754.363,524.114L690.434,561.024L690.434,575.787L703.219,583.169L767.148,546.26L831.078,583.169L843.863,575.787L843.863,561.024L779.995,524.149L779.934,450.295L767.148,442.913L754.363,450.295Z" style="fill:none;stroke:black;stroke-width:4.69px;stroke-linecap:round;stroke-linejoin:round;stroke-miterlimit:1.5;"/>
            </g>
            <g transform="matrix(1.30509e-17,-0.213138,-0.213138,-1.30509e-17,212.105,491.409)">
                <path d="M754.363,450.295L754.363,524.114L690.434,561.024L690.434,575.787L703.219,583.169L767.148,546.26L831.078,583.169L843.863,575.787L843.863,561.024L779.995,524.149L779.934,450.295L767.148,442.913L754.363,450.295Z" style="fill:none;stroke:black;stroke-width:4.69px;stroke-linecap:round;stroke-linejoin:round;stroke-miterlimit:1.5;"/>
            </g>
            <g transform="matrix(1.30509e-17,-0.213138,-0.213138,-1.30509e-17,180.215,546.644)">
                <path d="M754.363,450.295L754.363,524.114L690.434,561.024L690.434,575.787L703.219,583.169L767.148,546.26L831.078,583.169L843.863,575.787L843.863,561.024L779.995,524.149L779.934,450.295L767.148,442.913L754.363,450.295Z" style="fill:none;stroke:black;stroke-width:4.69px;stroke-linecap:round;stroke-linejoin:round;stroke-miterlimit:1.5;"/>
            </g>
            <g transform="matrix(1.30509e-17,-0.213138,-0.213138,-1.30509e-17,212.105,454.586)">
                <path d="M754.363,450.295L754.363,524.114L690.434,561.024L690.434,575.787L703.219,583.169L767.148,546.26L831.078,583.169L843.863,575.787L843.863,561.024L779.995,524.149L779.934,450.295L767.148,442.913L754.363,450.295Z" style="fill:none;stroke:black;stroke-width:4.69px;stroke-linecap:round;stroke-linejoin:round;stroke-miterlimit:1.5;"/>
            </g>
            <g transform="matrix(1.30509e-17,-0.213138,-0.213138,-1.30509e-17,180.215,436.174)">
                <path d="M754.363,450.295L754.363,524.114L690.434,561.024L690.434,575.787L703.219,583.169L767.148,546.26L831.078,583.169L843.863,575.787L843.863,561.024L779.995,524.149L779.934,450.295L767.148,442.913L754.363,450.295Z" style="fill:none;stroke:black;stroke-width:4.69px;stroke-linecap:round;stroke-linejoin:round;stroke-miterlimit:1.5;"/>
            </g>
            <g transform="matrix(1.30509e-17,-0.213138,-0.213138,-1.30509e-17,180.215,399.351)">
                <path d="M754.363,450.295L754.363,524.114L690.434,561.024L690.434,575.787L703.219,583.169L767.148,546.26L831.078,583.169L843.863,575.787L843.863,561.024L779.995,524.149L779.934,450.295L767.148,442.913L754.363,450.295Z" style="fill:none;stroke:black;stroke-width:4.69px;stroke-linecap:round;stroke-linejoin:round;stroke-miterlimit:1.5;"/>
            </g>
            <g transform="matrix(1.30509e-17,-0.213138,-0.213138,-1.30509e-17,212.105,417.763)">
                <path d="M754.363,450.295L754.363,524.114L690.434,561.024L690.434,575.787L703.219,583.169L767.148,546.26L831.078,583.169L843.863,575.787L843.863,561.024L779.995,524.149L779.934,450.295L767.148,442.913L754.363,450.295Z" style="fill:none;stroke:black;stroke-width:4.69px;stroke-linecap:round;stroke-linejoin:round;stroke-miterlimit:1.5;"/>
            </g>
            <g transform="matrix(1.30509e-17,-0.213138,-0.213138,-1.30509e-17,212.105,380.939)">
                <path d="M754.363,450.295L754.363,524.114L690.434,561.024L690.434,575.787L703.219,583.169L767.148,546.26L831.078,583.169L843.863,575.787L843.863,561.024L779.995,524.149L779.934,450.295L767.148,442.913L754.363,450.295Z" style="fill:none;stroke:black;stroke-width:4.69px;stroke-linecap:round;stroke-linejoin:round;stroke-miterlimit:1.5;"/>
            </g>
            <g transform="matrix(1.30509e-17,-0.213138,-0.213138,-1.30509e-17,180.215,362.528)">
                <path d="M754.363,450.295L754.363,524.114L690.434,561.024L690.434,575.787L703.219,583.169L767.148,546.26L831.078,583.169L843.863,575.787L843.863,561.024L779.995,524.149L779.934,450.295L767.148,442.913L754.363,450.295Z" style="fill:none;stroke:black;stroke-width:4.69px;stroke-linecap:round;stroke-linejoin:round;stroke-miterlimit:1.5;"/>
            </g>
            <g transform="matrix(1.30509e-17,-0.213138,-0.213138,-1.30509e-17,212.105,344.116)">
                <path d="M754.363,450.295L754.363,524.114L690.434,561.024L690.434,575.787L703.219,583.169L767.148,546.26L831.078,583.169L843.863,575.787L843.863,561.024L779.995,524.149L779.934,450.295L767.148,442.913L754.363,450.295Z" style="fill:none;stroke:black;stroke-width:4.69px;stroke-linecap:round;stroke-linejoin:round;stroke-miterlimit:1.5;"/>
            </g>
            <g transform="matrix(1.30509e-17,-0.213138,-0.213138,-1.30509e-17,212.105,307.293)">
                <path d="M754.363,450.295L754.363,524.114L690.434,561.024L690.434,575.787L703.219,583.169L767.148,546.26L831.078,583.169L843.863,575.787L843.863,561.024L779.995,524.149L779.934,450.295L767.148,442.913L754.363,450.295Z" style="fill:none;stroke:black;stroke-width:4.69px;stroke-linecap:round;stroke-linejoin:round;stroke-miterlimit:1.5;"/>
            </g>
            <g transform="matrix(1.30509e-17,-0.213138,-0.213138,-1.30509e-17,180.215,288.882)">
                <path d="M754.363,450.295L754.363,524.114L690.434,561.024L690.434,575.787L703.219,583.169L767.148,546.26L831.078,583.169L843.863,575.787L843.863,561.024L779.995,524.149L779.934,450.295L767.148,442.913L754.363,450.295Z" style="fill:none;stroke:black;stroke-width:4.69px;stroke-linecap:round;stroke-linejoin:round;stroke-miterlimit:1.5;"/>
            </g>
            <g transform="matrix(1.30509e-17,-0.213138,-0.213138,-1.30509e-17,180.215,252.059)">
                <path d="M754.363,450.295L754.363,524.114L690.434,561.024L690.434,575.787L703.219,583.169L767.148,546.26L831.078,583.169L843.863,575.787L843.863,561.024L779.995,524.149L779.934,450.295L767.148,442.913L754.363,450.295Z" style="fill:none;stroke:black;stroke-width:4.69px;stroke-linecap:round;stroke-linejoin:round;stroke-miterlimit:1.5;"/>
            </g>
            <g transform="matrix(1.30509e-17,-0.213138,-0.213138,-1.30509e-17,212.105,270.47)">
                <path d="M754.363,450.295L754.363,524.114L690.434,561.024L690.434,575.787L703.219,583.169L767.148,546.26L831.078,583.169L843.863,575.787L843.863,561.024L779.995,524.149L779.934,450.295L767.148,442.913L754.363,450.295Z" style="fill:none;stroke:black;stroke-width:4.69px;stroke-linecap:round;stroke-linejoin:round;stroke-miterlimit:1.5;"/>
            </g>
            <g transform="matrix(1.30509e-17,-0.213138,-0.213138,-1.30509e-17,180.215,325.705)">
                <path d="M754.363,450.295L754.363,524.114L690.434,561.024L690.434,575.787L703.219,583.169L767.148,546.26L831.078,583.169L843.863,575.787L843.863,561.024L779.995,524.149L779.934,450.295L767.148,442.913L754.363,450.295Z" style="fill:none;stroke:black;stroke-width:4.69px;stroke-linecap:round;stroke-linejoin:round;stroke-miterlimit:1.5;"/>
            </g>
            <g transform="matrix(1.30509e-17,-0.213138,-0.213138,-1.30509e-17,212.105,233.647)">
                <path d="M754.363,450.295L754.363,524.114L690.434,561.024L690.434,575.787L703.219,583.169L767.148,546.26L831.078,583.169L843.863,575.787L843.863,561.024L779.995,524.149L779.934,450.295L767.148,442.913L754.363,450.295Z" style="fill:none;stroke:black;stroke-width:4.69px;stroke-linecap:round;stroke-linejoin:round;stroke-miterlimit:1.5;"/>
            </g>
            <g transform="matrix(1.30509e-17,-0.213138,-0.213138,-1.30509e-17,180.215,215.235)">
                <path d="M754.363,450.295L754.363,524.114L690.434,561.024L690.434,575.787L703.219,583.169L767.148,546.26L831.078,583.169L843.863,575.787L843.863,561.024L779.995,524.149L779.934,450.295L767.148,442.913L754.363,450.295Z" style="fill:none;stroke:black;stroke-width:4.69px;stroke-linecap:round;stroke-linejoin:round;stroke-miterlimit:1.5;"/>
            </g>
            <g transform="matrix(1.30509e-17,-0.213138,-0.213138,-1.30509e-17,148.325,565.055)">
                <path d="M754.363,450.295L754.363,524.114L690.434,561.024L690.434,575.787L703.219,583.169L767.148,546.26L831.078,583.169L843.863,575.787L843.863,561.024L779.995,524.149L779.934,450.295L767.148,442.913L754.363,450.295Z" style="fill:none;stroke:black;stroke-width:4.69px;stroke-linecap:round;stroke-linejoin:round;stroke-miterlimit:1.5;"/>
            </g>
            <g transform="matrix(1.30509e-17,-0.213138,-0.213138,-1.30509e-17,148.325,528.232)">
                <path d="M754.363,450.295L754.363,524.114L690.434,561.024L690.434,575.787L703.219,583.169L767.148,546.26L831.078,583.169L843.863,575.787L843.863,561.024L779.995,524.149L779.934,450.295L767.148,442.913L754.363,450.295Z" style="fill:none;stroke:black;stroke-width:4.69px;stroke-linecap:round;stroke-linejoin:round;stroke-miterlimit:1.5;"/>
            </g>
            <g transform="matrix(1.30509e-17,-0.213138,-0.213138,-1.30509e-17,148.325,491.409)">
                <path d="M754.363,450.295L754.363,524.114L690.434,561.024L690.434,575.787L703.219,583.169L767.148,546.26L831.078,583.169L843.863,575.787L843.863,561.024L779.995,524.149L779.934,450.295L767.148,442.913L754.363,450.295Z" style="fill:none;stroke:black;stroke-width:4.69px;stroke-linecap:round;stroke-linejoin:round;stroke-miterlimit:1.5;"/>
            </g>
            <g transform="matrix(1.30509e-17,-0.213138,-0.213138,-1.30509e-17,148.325,454.586)">
                <path d="M754.363,450.295L754.363,524.114L690.434,561.024L690.434,575.787L703.219,583.169L767.148,546.26L831.078,583.169L843.863,575.787L843.863,561.024L779.995,524.149L779.934,450.295L767.148,442.913L754.363,450.295Z" style="fill:none;stroke:black;stroke-width:4.69px;stroke-linecap:round;stroke-linejoin:round;stroke-miterlimit:1.5;"/>
            </g>
            <g transform="matrix(1.30509e-17,-0.213138,-0.213138,-1.30509e-17,148.325,417.763)">
                <path d="M754.363,450.295L754.363,524.114L690.434,561.024L690.434,575.787L703.219,583.169L767.148,546.26L831.078,583.169L843.863,575.787L843.863,561.024L779.995,524.149L779.934,450.295L767.148,442.913L754.363,450.295Z" style="fill:none;stroke:black;stroke-width:4.69px;stroke-linecap:round;stroke-linejoin:round;stroke-miterlimit:1.5;"/>
            </g>
            <g transform="matrix(1.30509e-17,-0.213138,-0.213138,-1.30509e-17,148.325,380.939)">
                <path d="M754.363,450.295L754.363,524.114L690.434,561.024L690.434,575.787L703.219,583.169L767.148,546.26L831.078,583.169L843.863,575.787L843.863,561.024L779.995,524.149L779.934,450.295L767.148,442.913L754.363,450.295Z" style="fill:none;stroke:black;stroke-width:4.69px;stroke-linecap:round;stroke-linejoin:round;stroke-miterlimit:1.5;"/>
            </g>
            <g transform="matrix(1.30509e-17,-0.213138,-0.213138,-1.30509e-17,148.325,344.116)">
                <path d="M754.363,450.295L754.363,524.114L690.434,561.024L690.434,575.787L703.219,583.169L767.148,546.26L831.078,583.169L843.863,575.787L843.863,561.024L779.995,524.149L779.934,450.295L767.148,442.913L754.363,450.295Z" style="fill:none;stroke:black;stroke-width:4.69px;stroke-linecap:round;stroke-linejoin:round;stroke-miterlimit:1.5;"/>
            </g>
            <g transform="matrix(1.30509e-17,-0.213138,-0.213138,-1.30509e-17,148.325,307.293)">
                <path d="M754.363,450.295L754.363,524.114L690.434,561.024L690.434,575.787L703.219,583.169L767.148,546.26L831.078,583.169L843.863,575.787L843.863,561.024L779.995,524.149L779.934,450.295L767.148,442.913L754.363,450.295Z" style="fill:none;stroke:black;stroke-width:4.69px;stroke-linecap:round;stroke-linejoin:round;stroke-miterlimit:1.5;"/>
            </g>
            <g transform="matrix(1.30509e-17,-0.213138,-0.213138,-1.30509e-17,148.325,270.47)">
                <path d="M754.363,450.295L754.363,524.114L690.434,561.024L690.434,575.787L703.219,583.169L767.148,546.26L831.078,583.169L843.863,575.787L843.863,561.024L779.995,524.149L779.934,450.295L767.148,442.913L754.363,450.295Z" style="fill:none;stroke:black;stroke-width:4.69px;stroke-linecap:round;stroke-linejoin:round;stroke-miterlimit:1.5;"/>
            </g>
            <g transform="matrix(1.30509e-17,-0.213138,-0.213138,-1.30509e-17,148.325,233.647)">
                <path d="M754.363,450.295L754.363,524.114L690.434,561.024L690.434,575.787L703.219,583.169L767.148,546.26L831.078,583.169L843.863,575.787L843.863,561.024L779.995,524.149L779.934,450.295L767.148,442.913L754.363,450.295Z" style="fill:none;stroke:black;stroke-width:4.69px;stroke-linecap:round;stroke-linejoin:round;stroke-miterlimit:1.5;"/>
            </g>
            <g transform="matrix(1.30509e-17,-0.213138,-0.213138,-1.30509e-17,562.892,583.467)">
                <path d="M754.363,450.295L754.363,524.114L690.434,561.024L690.434,575.787L703.219,583.169L767.148,546.26L831.078,583.169L843.863,575.787L843.863,561.024L779.995,524.149L779.934,450.295L767.148,442.913L754.363,450.295Z" style="fill:none;stroke:black;stroke-width:4.69px;stroke-linecap:round;stroke-linejoin:round;stroke-miterlimit:1.5;"/>
            </g>
            <g transform="matrix(1.30509e-17,-0.213138,-0.213138,-1.30509e-17,594.782,565.055)">
                <path d="M754.363,450.295L754.363,524.114L690.434,561.024L690.434,575.787L703.219,583.169L767.148,546.26L831.078,583.169L843.863,575.787L843.863,561.024L779.995,524.149L779.934,450.295L767.148,442.913L754.363,450.295Z" style="fill:none;stroke:black;stroke-width:4.69px;stroke-linecap:round;stroke-linejoin:round;stroke-miterlimit:1.5;"/>
            </g>
            <g transform="matrix(1.30509e-17,-0.213138,-0.213138,-1.30509e-17,594.782,528.232)">
                <path d="M754.363,450.295L754.363,524.114L690.434,561.024L690.434,575.787L703.219,583.169L767.148,546.26L831.078,583.169L843.863,575.787L843.863,561.024L779.995,524.149L779.934,450.295L767.148,442.913L754.363,450.295Z" style="fill:none;stroke:black;stroke-width:4.69px;stroke-linecap:round;stroke-linejoin:round;stroke-miterlimit:1.5;"/>
            </g>
            <g transform="matrix(1.30509e-17,-0.213138,-0.213138,-1.30509e-17,562.892,509.82)">
                <path d="M754.363,450.295L754.363,524.114L690.434,561.024L690.434,575.787L703.219,583.169L767.148,546.26L831.078,583.169L843.863,575.787L843.863,561.024L779.995,524.149L779.934,450.295L767.148,442.913L754.363,450.295Z" style="fill:none;stroke:black;stroke-width:4.69px;stroke-linecap:round;stroke-linejoin:round;stroke-miterlimit:1.5;"/>
            </g>
            <g transform="matrix(1.30509e-17,-0.213138,-0.213138,-1.30509e-17,562.892,472.997)">
                <path d="M754.363,450.295L754.363,524.114L690.434,561.024L690.434,575.787L703.219,583.169L767.148,546.26L831.078,583.169L843.863,575.787L843.863,561.024L779.995,524.149L779.934,450.295L767.148,442.913L754.363,450.295Z" style="fill:none;stroke:black;stroke-width:4.69px;stroke-linecap:round;stroke-linejoin:round;stroke-miterlimit:1.5;"/>
            </g>
            <g transform="matrix(1.30509e-17,-0.213138,-0.213138,-1.30509e-17,594.782,491.409)">
                <path d="M754.363,450.295L754.363,524.114L690.434,561.024L690.434,575.787L703.219,583.169L767.148,546.26L831.078,583.169L843.863,575.787L843.863,561.024L779.995,524.149L779.934,450.295L767.148,442.913L754.363,450.295Z" style="fill:none;stroke:black;stroke-width:4.69px;stroke-linecap:round;stroke-linejoin:round;stroke-miterlimit:1.5;"/>
            </g>
            <g transform="matrix(1.30509e-17,-0.213138,-0.213138,-1.30509e-17,562.892,546.644)">
                <path d="M754.363,450.295L754.363,524.114L690.434,561.024L690.434,575.787L703.219,583.169L767.148,546.26L831.078,583.169L843.863,575.787L843.863,561.024L779.995,524.149L779.934,450.295L767.148,442.913L754.363,450.295Z" style="fill:none;stroke:black;stroke-width:4.69px;stroke-linecap:round;stroke-linejoin:round;stroke-miterlimit:1.5;"/>
            </g>
            <g transform="matrix(1.30509e-17,-0.213138,-0.213138,-1.30509e-17,594.782,454.586)">
                <path d="M754.363,450.295L754.363,524.114L690.434,561.024L690.434,575.787L703.219,583.169L767.148,546.26L831.078,583.169L843.863,575.787L843.863,561.024L779.995,524.149L779.934,450.295L767.148,442.913L754.363,450.295Z" style="fill:none;stroke:black;stroke-width:4.69px;stroke-linecap:round;stroke-linejoin:round;stroke-miterlimit:1.5;"/>
            </g>
            <g transform="matrix(1.30509e-17,-0.213138,-0.213138,-1.30509e-17,562.892,436.174)">
                <path d="M754.363,450.295L754.363,524.114L690.434,561.024L690.434,575.787L703.219,583.169L767.148,546.26L831.078,583.169L843.863,575.787L843.863,561.024L779.995,524.149L779.934,450.295L767.148,442.913L754.363,450.295Z" style="fill:none;stroke:black;stroke-width:4.69px;stroke-linecap:round;stroke-linejoin:round;stroke-miterlimit:1.5;"/>
            </g>
            <g transform="matrix(1.30509e-17,-0.213138,-0.213138,-1.30509e-17,562.892,399.351)">
                <path d="M754.363,450.295L754.363,524.114L690.434,561.024L690.434,575.787L703.219,583.169L767.148,546.26L831.078,583.169L843.863,575.787L843.863,561.024L779.995,524.149L779.934,450.295L767.148,442.913L754.363,450.295Z" style="fill:none;stroke:black;stroke-width:4.69px;stroke-linecap:round;stroke-linejoin:round;stroke-miterlimit:1.5;"/>
            </g>
            <g transform="matrix(1.30509e-17,-0.213138,-0.213138,-1.30509e-17,594.782,417.763)">
                <path d="M754.363,450.295L754.363,524.114L690.434,561.024L690.434,575.787L703.219,583.169L767.148,546.26L831.078,583.169L843.863,575.787L843.863,561.024L779.995,524.149L779.934,450.295L767.148,442.913L754.363,450.295Z" style="fill:none;stroke:black;stroke-width:4.69px;stroke-linecap:round;stroke-linejoin:round;stroke-miterlimit:1.5;"/>
            </g>
            <g transform="matrix(1.30509e-17,-0.213138,-0.213138,-1.30509e-17,594.782,380.939)">
                <path d="M754.363,450.295L754.363,524.114L690.434,561.024L690.434,575.787L703.219,583.169L767.148,546.26L831.078,583.169L843.863,575.787L843.863,561.024L779.995,524.149L779.934,450.295L767.148,442.913L754.363,450.295Z" style="fill:none;stroke:black;stroke-width:4.69px;stroke-linecap:round;stroke-linejoin:round;stroke-miterlimit:1.5;"/>
            </g>
            <g transform="matrix(1.30509e-17,-0.213138,-0.213138,-1.30509e-17,562.892,362.528)">
                <path d="M754.363,450.295L754.363,524.114L690.434,561.024L690.434,575.787L703.219,583.169L767.148,546.26L831.078,583.169L843.863,575.787L843.863,561.024L779.995,524.149L779.934,450.295L767.148,442.913L754.363,450.295Z" style="fill:none;stroke:black;stroke-width:4.69px;stroke-linecap:round;stroke-linejoin:round;stroke-miterlimit:1.5;"/>
            </g>
            <g transform="matrix(1.30509e-17,-0.213138,-0.213138,-1.30509e-17,594.782,344.116)">
                <path d="M754.363,450.295L754.363,524.114L690.434,561.024L690.434,575.787L703.219,583.169L767.148,546.26L831.078,583.169L843.863,575.787L843.863,561.024L779.995,524.149L779.934,450.295L767.148,442.913L754.363,450.295Z" style="fill:none;stroke:black;stroke-width:4.69px;stroke-linecap:round;stroke-linejoin:round;stroke-miterlimit:1.5;"/>
            </g>
            <g transform="matrix(1.30509e-17,-0.213138,-0.213138,-1.30509e-17,594.782,307.293)">
                <path d="M754.363,450.295L754.363,524.114L690.434,561.024L690.434,575.787L703.219,583.169L767.148,546.26L831.078,583.169L843.863,575.787L843.863,561.024L779.995,524.149L779.934,450.295L767.148,442.913L754.363,450.295Z" style="fill:none;stroke:black;stroke-width:4.69px;stroke-linecap:round;stroke-linejoin:round;stroke-miterlimit:1.5;"/>
            </g>
            <g transform="matrix(1.30509e-17,-0.213138,-0.213138,-1.30509e-17,562.892,288.882)">
                <path d="M754.363,450.295L754.363,524.114L690.434,561.024L690.434,575.787L703.219,583.169L767.148,546.26L831.078,583.169L843.863,575.787L843.863,561.024L779.995,524.149L779.934,450.295L767.148,442.913L754.363,450.295Z" style="fill:none;stroke:black;stroke-width:4.69px;stroke-linecap:round;stroke-linejoin:round;stroke-miterlimit:1.5;"/>
            </g>
            <g transform="matrix(1.30509e-17,-0.213138,-0.213138,-1.30509e-17,562.892,252.059)">
                <path d="M754.363,450.295L754.363,524.114L690.434,561.024L690.434,575.787L703.219,583.169L767.148,546.26L831.078,583.169L843.863,575.787L843.863,561.024L779.995,524.149L779.934,450.295L767.148,442.913L754.363,450.295Z" style="fill:none;stroke:black;stroke-width:4.69px;stroke-linecap:round;stroke-linejoin:round;stroke-miterlimit:1.5;"/>
            </g>
            <g transform="matrix(1.30509e-17,-0.213138,-0.213138,-1.30509e-17,594.782,270.47)">
                <path d="M754.363,450.295L754.363,524.114L690.434,561.024L690.434,575.787L703.219,583.169L767.148,546.26L831.078,583.169L843.863,575.787L843.863,561.024L779.995,524.149L779.934,450.295L767.148,442.913L754.363,450.295Z" style="fill:none;stroke:black;stroke-width:4.69px;stroke-linecap:round;stroke-linejoin:round;stroke-miterlimit:1.5;"/>
            </g>
            <g transform="matrix(1.30509e-17,-0.213138,-0.213138,-1.30509e-17,562.892,325.705)">
                <path d="M754.363,450.295L754.363,524.114L690.434,561.024L690.434,575.787L703.219,583.169L767.148,546.26L831.078,583.169L843.863,575.787L843.863,561.024L779.995,524.149L779.934,450.295L767.148,442.913L754.363,450.295Z" style="fill:none;stroke:black;stroke-width:4.69px;stroke-linecap:round;stroke-linejoin:round;stroke-miterlimit:1.5;"/>
            </g>
            <g transform="matrix(1.30509e-17,-0.213138,-0.213138,-1.30509e-17,594.782,233.647)">
                <path d="M754.363,450.295L754.363,524.114L690.434,561.024L690.434,575.787L703.219,583.169L767.148,546.26L831.078,583.169L843.863,575.787L843.863,561.024L779.995,524.149L779.934,450.295L767.148,442.913L754.363,450.295Z" style="fill:none;stroke:black;stroke-width:4.69px;stroke-linecap:round;stroke-linejoin:round;stroke-miterlimit:1.5;"/>
            </g>
            <g transform="matrix(1.30509e-17,-0.213138,-0.213138,-1.30509e-17,562.892,215.235)">
                <path d="M754.363,450.295L754.363,524.114L690.434,561.024L690.434,575.787L703.219,583.169L767.148,546.26L831.078,583.169L843.863,575.787L843.863,561.024L779.995,524.149L779.934,450.295L767.148,442.913L754.363,450.295Z" style="fill:none;stroke:black;stroke-width:4.69px;stroke-linecap:round;stroke-linejoin:round;stroke-miterlimit:1.5;"/>
            </g>
            <g transform="matrix(1.30509e-17,-0.213138,-0.213138,-1.30509e-17,499.112,583.467)">
                <path d="M754.363,450.295L754.363,524.114L690.434,561.024L690.434,575.787L703.219,583.169L767.148,546.26L831.078,583.169L843.863,575.787L843.863,561.024L779.995,524.149L779.934,450.295L767.148,442.913L754.363,450.295Z" style="fill:none;stroke:black;stroke-width:4.69px;stroke-linecap:round;stroke-linejoin:round;stroke-miterlimit:1.5;"/>
            </g>
            <g transform="matrix(1.30509e-17,-0.213138,-0.213138,-1.30509e-17,531.002,565.055)">
                <path d="M754.363,450.295L754.363,524.114L690.434,561.024L690.434,575.787L703.219,583.169L767.148,546.26L831.078,583.169L843.863,575.787L843.863,561.024L779.995,524.149L779.934,450.295L767.148,442.913L754.363,450.295Z" style="fill:none;stroke:black;stroke-width:4.69px;stroke-linecap:round;stroke-linejoin:round;stroke-miterlimit:1.5;"/>
            </g>
            <g transform="matrix(1.30509e-17,-0.213138,-0.213138,-1.30509e-17,531.002,528.232)">
                <path d="M754.363,450.295L754.363,524.114L690.434,561.024L690.434,575.787L703.219,583.169L767.148,546.26L831.078,583.169L843.863,575.787L843.863,561.024L779.995,524.149L779.934,450.295L767.148,442.913L754.363,450.295Z" style="fill:none;stroke:black;stroke-width:4.69px;stroke-linecap:round;stroke-linejoin:round;stroke-miterlimit:1.5;"/>
            </g>
            <g transform="matrix(1.30509e-17,-0.213138,-0.213138,-1.30509e-17,499.112,509.82)">
                <path d="M754.363,450.295L754.363,524.114L690.434,561.024L690.434,575.787L703.219,583.169L767.148,546.26L831.078,583.169L843.863,575.787L843.863,561.024L779.995,524.149L779.934,450.295L767.148,442.913L754.363,450.295Z" style="fill:none;stroke:black;stroke-width:4.69px;stroke-linecap:round;stroke-linejoin:round;stroke-miterlimit:1.5;"/>
            </g>
            <g transform="matrix(1.30509e-17,-0.213138,-0.213138,-1.30509e-17,499.112,472.997)">
                <path d="M754.363,450.295L754.363,524.114L690.434,561.024L690.434,575.787L703.219,583.169L767.148,546.26L831.078,583.169L843.863,575.787L843.863,561.024L779.995,524.149L779.934,450.295L767.148,442.913L754.363,450.295Z" style="fill:none;stroke:black;stroke-width:4.69px;stroke-linecap:round;stroke-linejoin:round;stroke-miterlimit:1.5;"/>
            </g>
            <g transform="matrix(1.30509e-17,-0.213138,-0.213138,-1.30509e-17,531.002,491.409)">
                <path d="M754.363,450.295L754.363,524.114L690.434,561.024L690.434,575.787L703.219,583.169L767.148,546.26L831.078,583.169L843.863,575.787L843.863,561.024L779.995,524.149L779.934,450.295L767.148,442.913L754.363,450.295Z" style="fill:none;stroke:black;stroke-width:4.69px;stroke-linecap:round;stroke-linejoin:round;stroke-miterlimit:1.5;"/>
            </g>
            <g transform="matrix(1.30509e-17,-0.213138,-0.213138,-1.30509e-17,499.112,546.644)">
                <path d="M754.363,450.295L754.363,524.114L690.434,561.024L690.434,575.787L703.219,583.169L767.148,546.26L831.078,583.169L843.863,575.787L843.863,561.024L779.995,524.149L779.934,450.295L767.148,442.913L754.363,450.295Z" style="fill:none;stroke:black;stroke-width:4.69px;stroke-linecap:round;stroke-linejoin:round;stroke-miterlimit:1.5;"/>
            </g>
            <g transform="matrix(1.30509e-17,-0.213138,-0.213138,-1.30509e-17,531.002,454.586)">
                <path d="M754.363,450.295L754.363,524.114L690.434,561.024L690.434,575.787L703.219,583.169L767.148,546.26L831.078,583.169L843.863,575.787L843.863,561.024L779.995,524.149L779.934,450.295L767.148,442.913L754.363,450.295Z" style="fill:none;stroke:black;stroke-width:4.69px;stroke-linecap:round;stroke-linejoin:round;stroke-miterlimit:1.5;"/>
            </g>
            <g transform="matrix(1.30509e-17,-0.213138,-0.213138,-1.30509e-17,499.112,436.174)">
                <path d="M754.363,450.295L754.363,524.114L690.434,561.024L690.434,575.787L703.219,583.169L767.148,546.26L831.078,583.169L843.863,575.787L843.863,561.024L779.995,524.149L779.934,450.295L767.148,442.913L754.363,450.295Z" style="fill:none;stroke:black;stroke-width:4.69px;stroke-linecap:round;stroke-linejoin:round;stroke-miterlimit:1.5;"/>
            </g>
            <g transform="matrix(1.30509e-17,-0.213138,-0.213138,-1.30509e-17,499.112,399.351)">
                <path d="M754.363,450.295L754.363,524.114L690.434,561.024L690.434,575.787L703.219,583.169L767.148,546.26L831.078,583.169L843.863,575.787L843.863,561.024L779.995,524.149L779.934,450.295L767.148,442.913L754.363,450.295Z" style="fill:none;stroke:black;stroke-width:4.69px;stroke-linecap:round;stroke-linejoin:round;stroke-miterlimit:1.5;"/>
            </g>
            <g transform="matrix(1.30509e-17,-0.213138,-0.213138,-1.30509e-17,531.002,417.763)">
                <path d="M754.363,450.295L754.363,524.114L690.434,561.024L690.434,575.787L703.219,583.169L767.148,546.26L831.078,583.169L843.863,575.787L843.863,561.024L779.995,524.149L779.934,450.295L767.148,442.913L754.363,450.295Z" style="fill:none;stroke:black;stroke-width:4.69px;stroke-linecap:round;stroke-linejoin:round;stroke-miterlimit:1.5;"/>
            </g>
            <g transform="matrix(1.30509e-17,-0.213138,-0.213138,-1.30509e-17,531.002,380.939)">
                <path d="M754.363,450.295L754.363,524.114L690.434,561.024L690.434,575.787L703.219,583.169L767.148,546.26L831.078,583.169L843.863,575.787L843.863,561.024L779.995,524.149L779.934,450.295L767.148,442.913L754.363,450.295Z" style="fill:none;stroke:black;stroke-width:4.69px;stroke-linecap:round;stroke-linejoin:round;stroke-miterlimit:1.5;"/>
            </g>
            <g transform="matrix(1.30509e-17,-0.213138,-0.213138,-1.30509e-17,499.112,362.528)">
                <path d="M754.363,450.295L754.363,524.114L690.434,561.024L690.434,575.787L703.219,583.169L767.148,546.26L831.078,583.169L843.863,575.787L843.863,561.024L779.995,524.149L779.934,450.295L767.148,442.913L754.363,450.295Z" style="fill:none;stroke:black;stroke-width:4.69px;stroke-linecap:round;stroke-linejoin:round;stroke-miterlimit:1.5;"/>
            </g>
            <g transform="matrix(1.30509e-17,-0.213138,-0.213138,-1.30509e-17,531.002,344.116)">
                <path d="M754.363,450.295L754.363,524.114L690.434,561.024L690.434,575.787L703.219,583.169L767.148,546.26L831.078,583.169L843.863,575.787L843.863,561.024L779.995,524.149L779.934,450.295L767.148,442.913L754.363,450.295Z" style="fill:none;stroke:black;stroke-width:4.69px;stroke-linecap:round;stroke-linejoin:round;stroke-miterlimit:1.5;"/>
            </g>
            <g transform="matrix(1.30509e-17,-0.213138,-0.213138,-1.30509e-17,531.002,307.293)">
                <path d="M754.363,450.295L754.363,524.114L690.434,561.024L690.434,575.787L703.219,583.169L767.148,546.26L831.078,583.169L843.863,575.787L843.863,561.024L779.995,524.149L779.934,450.295L767.148,442.913L754.363,450.295Z" style="fill:none;stroke:black;stroke-width:4.69px;stroke-linecap:round;stroke-linejoin:round;stroke-miterlimit:1.5;"/>
            </g>
            <g transform="matrix(1.30509e-17,-0.213138,-0.213138,-1.30509e-17,499.112,288.882)">
                <path d="M754.363,450.295L754.363,524.114L690.434,561.024L690.434,575.787L703.219,583.169L767.148,546.26L831.078,583.169L843.863,575.787L843.863,561.024L779.995,524.149L779.934,450.295L767.148,442.913L754.363,450.295Z" style="fill:none;stroke:black;stroke-width:4.69px;stroke-linecap:round;stroke-linejoin:round;stroke-miterlimit:1.5;"/>
            </g>
            <g transform="matrix(1.30509e-17,-0.213138,-0.213138,-1.30509e-17,499.112,252.059)">
                <path d="M754.363,450.295L754.363,524.114L690.434,561.024L690.434,575.787L703.219,583.169L767.148,546.26L831.078,583.169L843.863,575.787L843.863,561.024L779.995,524.149L779.934,450.295L767.148,442.913L754.363,450.295Z" style="fill:none;stroke:black;stroke-width:4.69px;stroke-linecap:round;stroke-linejoin:round;stroke-miterlimit:1.5;"/>
            </g>
            <g transform="matrix(1.30509e-17,-0.213138,-0.213138,-1.30509e-17,531.002,270.47)">
                <path d="M754.363,450.295L754.363,524.114L690.434,561.024L690.434,575.787L703.219,583.169L767.148,546.26L831.078,583.169L843.863,575.787L843.863,561.024L779.995,524.149L779.934,450.295L767.148,442.913L754.363,450.295Z" style="fill:none;stroke:black;stroke-width:4.69px;stroke-linecap:round;stroke-linejoin:round;stroke-miterlimit:1.5;"/>
            </g>
            <g transform="matrix(1.30509e-17,-0.213138,-0.213138,-1.30509e-17,499.112,325.705)">
                <path d="M754.363,450.295L754.363,524.114L690.434,561.024L690.434,575.787L703.219,583.169L767.148,546.26L831.078,583.169L843.863,575.787L843.863,561.024L779.995,524.149L779.934,450.295L767.148,442.913L754.363,450.295Z" style="fill:none;stroke:black;stroke-width:4.69px;stroke-linecap:round;stroke-linejoin:round;stroke-miterlimit:1.5;"/>
            </g>
            <g transform="matrix(1.30509e-17,-0.213138,-0.213138,-1.30509e-17,531.002,233.647)">
                <path d="M754.363,450.295L754.363,524.114L690.434,561.024L690.434,575.787L703.219,583.169L767.148,546.26L831.078,583.169L843.863,575.787L843.863,561.024L779.995,524.149L779.934,450.295L767.148,442.913L754.363,450.295Z" style="fill:none;stroke:black;stroke-width:4.69px;stroke-linecap:round;stroke-linejoin:round;stroke-miterlimit:1.5;"/>
            </g>
            <g transform="matrix(1.30509e-17,-0.213138,-0.213138,-1.30509e-17,499.112,215.235)">
                <path d="M754.363,450.295L754.363,524.114L690.434,561.024L690.434,575.787L703.219,583.169L767.148,546.26L831.078,583.169L843.863,575.787L843.863,561.024L779.995,524.149L779.934,450.295L767.148,442.913L754.363,450.295Z" style="fill:none;stroke:black;stroke-width:4.69px;stroke-linecap:round;stroke-linejoin:round;stroke-miterlimit:1.5;"/>
            </g>
            <g transform="matrix(1.30509e-17,-0.213138,-0.213138,-1.30509e-17,435.333,583.467)">
                <path d="M754.363,450.295L754.363,524.114L690.434,561.024L690.434,575.787L703.219,583.169L767.148,546.26L831.078,583.169L843.863,575.787L843.863,561.024L779.995,524.149L779.934,450.295L767.148,442.913L754.363,450.295Z" style="fill:none;stroke:black;stroke-width:4.69px;stroke-linecap:round;stroke-linejoin:round;stroke-miterlimit:1.5;"/>
            </g>
            <g transform="matrix(1.30509e-17,-0.213138,-0.213138,-1.30509e-17,467.223,565.055)">
                <path d="M754.363,450.295L754.363,524.114L690.434,561.024L690.434,575.787L703.219,583.169L767.148,546.26L831.078,583.169L843.863,575.787L843.863,561.024L779.995,524.149L779.934,450.295L767.148,442.913L754.363,450.295Z" style="fill:none;stroke:black;stroke-width:4.69px;stroke-linecap:round;stroke-linejoin:round;stroke-miterlimit:1.5;"/>
            </g>
            <g transform="matrix(1.30509e-17,-0.213138,-0.213138,-1.30509e-17,467.223,528.232)">
                <path d="M754.363,450.295L754.363,524.114L690.434,561.024L690.434,575.787L703.219,583.169L767.148,546.26L831.078,583.169L843.863,575.787L843.863,561.024L779.995,524.149L779.934,450.295L767.148,442.913L754.363,450.295Z" style="fill:none;stroke:black;stroke-width:4.69px;stroke-linecap:round;stroke-linejoin:round;stroke-miterlimit:1.5;"/>
            </g>
            <g transform="matrix(1.30509e-17,-0.213138,-0.213138,-1.30509e-17,435.333,509.82)">
                <path d="M754.363,450.295L754.363,524.114L690.434,561.024L690.434,575.787L703.219,583.169L767.148,546.26L831.078,583.169L843.863,575.787L843.863,561.024L779.995,524.149L779.934,450.295L767.148,442.913L754.363,450.295Z" style="fill:none;stroke:black;stroke-width:4.69px;stroke-linecap:round;stroke-linejoin:round;stroke-miterlimit:1.5;"/>
            </g>
            <g transform="matrix(1.30509e-17,-0.213138,-0.213138,-1.30509e-17,435.333,472.997)">
                <path d="M754.363,450.295L754.363,524.114L690.434,561.024L690.434,575.787L703.219,583.169L767.148,546.26L831.078,583.169L843.863,575.787L843.863,561.024L779.995,524.149L779.934,450.295L767.148,442.913L754.363,450.295Z" style="fill:none;stroke:black;stroke-width:4.69px;stroke-linecap:round;stroke-linejoin:round;stroke-miterlimit:1.5;"/>
            </g>
            <g transform="matrix(1.30509e-17,-0.213138,-0.213138,-1.30509e-17,467.223,491.409)">
                <path d="M754.363,450.295L754.363,524.114L690.434,561.024L690.434,575.787L703.219,583.169L767.148,546.26L831.078,583.169L843.863,575.787L843.863,561.024L779.995,524.149L779.934,450.295L767.148,442.913L754.363,450.295Z" style="fill:none;stroke:black;stroke-width:4.69px;stroke-linecap:round;stroke-linejoin:round;stroke-miterlimit:1.5;"/>
            </g>
            <g transform="matrix(1.30509e-17,-0.213138,-0.213138,-1.30509e-17,435.333,546.644)">
                <path d="M754.363,450.295L754.363,524.114L690.434,561.024L690.434,575.787L703.219,583.169L767.148,546.26L831.078,583.169L843.863,575.787L843.863,561.024L779.995,524.149L779.934,450.295L767.148,442.913L754.363,450.295Z" style="fill:none;stroke:black;stroke-width:4.69px;stroke-linecap:round;stroke-linejoin:round;stroke-miterlimit:1.5;"/>
            </g>
            <g transform="matrix(1.30509e-17,-0.213138,-0.213138,-1.30509e-17,467.223,454.586)">
                <path d="M754.363,450.295L754.363,524.114L690.434,561.024L690.434,575.787L703.219,583.169L767.148,546.26L831.078,583.169L843.863,575.787L843.863,561.024L779.995,524.149L779.934,450.295L767.148,442.913L754.363,450.295Z" style="fill:none;stroke:black;stroke-width:4.69px;stroke-linecap:round;stroke-linejoin:round;stroke-miterlimit:1.5;"/>
            </g>
            <g transform="matrix(1.30509e-17,-0.213138,-0.213138,-1.30509e-17,435.333,436.174)">
                <path d="M754.363,450.295L754.363,524.114L690.434,561.024L690.434,575.787L703.219,583.169L767.148,546.26L831.078,583.169L843.863,575.787L843.863,561.024L779.995,524.149L779.934,450.295L767.148,442.913L754.363,450.295Z" style="fill:none;stroke:black;stroke-width:4.69px;stroke-linecap:round;stroke-linejoin:round;stroke-miterlimit:1.5;"/>
            </g>
            <g transform="matrix(1.30509e-17,-0.213138,-0.213138,-1.30509e-17,435.333,399.351)">
                <path d="M754.363,450.295L754.363,524.114L690.434,561.024L690.434,575.787L703.219,583.169L767.148,546.26L831.078,583.169L843.863,575.787L843.863,561.024L779.995,524.149L779.934,450.295L767.148,442.913L754.363,450.295Z" style="fill:none;stroke:black;stroke-width:4.69px;stroke-linecap:round;stroke-linejoin:round;stroke-miterlimit:1.5;"/>
            </g>
            <g transform="matrix(1.30509e-17,-0.213138,-0.213138,-1.30509e-17,467.223,417.763)">
                <path d="M754.363,450.295L754.363,524.114L690.434,561.024L690.434,575.787L703.219,583.169L767.148,546.26L831.078,583.169L843.863,575.787L843.863,561.024L779.995,524.149L779.934,450.295L767.148,442.913L754.363,450.295Z" style="fill:none;stroke:black;stroke-width:4.69px;stroke-linecap:round;stroke-linejoin:round;stroke-miterlimit:1.5;"/>
            </g>
            <g transform="matrix(1.30509e-17,-0.213138,-0.213138,-1.30509e-17,467.223,380.939)">
                <path d="M754.363,450.295L754.363,524.114L690.434,561.024L690.434,575.787L703.219,583.169L767.148,546.26L831.078,583.169L843.863,575.787L843.863,561.024L779.995,524.149L779.934,450.295L767.148,442.913L754.363,450.295Z" style="fill:none;stroke:black;stroke-width:4.69px;stroke-linecap:round;stroke-linejoin:round;stroke-miterlimit:1.5;"/>
            </g>
            <g transform="matrix(1.30509e-17,-0.213138,-0.213138,-1.30509e-17,435.333,362.528)">
                <path d="M754.363,450.295L754.363,524.114L690.434,561.024L690.434,575.787L703.219,583.169L767.148,546.26L831.078,583.169L843.863,575.787L843.863,561.024L779.995,524.149L779.934,450.295L767.148,442.913L754.363,450.295Z" style="fill:none;stroke:black;stroke-width:4.69px;stroke-linecap:round;stroke-linejoin:round;stroke-miterlimit:1.5;"/>
            </g>
            <g transform="matrix(1.30509e-17,-0.213138,-0.213138,-1.30509e-17,467.223,344.116)">
                <path d="M754.363,450.295L754.363,524.114L690.434,561.024L690.434,575.787L703.219,583.169L767.148,546.26L831.078,583.169L843.863,575.787L843.863,561.024L779.995,524.149L779.934,450.295L767.148,442.913L754.363,450.295Z" style="fill:none;stroke:black;stroke-width:4.69px;stroke-linecap:round;stroke-linejoin:round;stroke-miterlimit:1.5;"/>
            </g>
            <g transform="matrix(1.30509e-17,-0.213138,-0.213138,-1.30509e-17,467.223,307.293)">
                <path d="M754.363,450.295L754.363,524.114L690.434,561.024L690.434,575.787L703.219,583.169L767.148,546.26L831.078,583.169L843.863,575.787L843.863,561.024L779.995,524.149L779.934,450.295L767.148,442.913L754.363,450.295Z" style="fill:none;stroke:black;stroke-width:4.69px;stroke-linecap:round;stroke-linejoin:round;stroke-miterlimit:1.5;"/>
            </g>
            <g transform="matrix(1.30509e-17,-0.213138,-0.213138,-1.30509e-17,435.333,288.882)">
                <path d="M754.363,450.295L754.363,524.114L690.434,561.024L690.434,575.787L703.219,583.169L767.148,546.26L831.078,583.169L843.863,575.787L843.863,561.024L779.995,524.149L779.934,450.295L767.148,442.913L754.363,450.295Z" style="fill:none;stroke:black;stroke-width:4.69px;stroke-linecap:round;stroke-linejoin:round;stroke-miterlimit:1.5;"/>
            </g>
            <g transform="matrix(1.30509e-17,-0.213138,-0.213138,-1.30509e-17,435.333,252.059)">
                <path d="M754.363,450.295L754.363,524.114L690.434,561.024L690.434,575.787L703.219,583.169L767.148,546.26L831.078,583.169L843.863,575.787L843.863,561.024L779.995,524.149L779.934,450.295L767.148,442.913L754.363,450.295Z" style="fill:none;stroke:black;stroke-width:4.69px;stroke-linecap:round;stroke-linejoin:round;stroke-miterlimit:1.5;"/>
            </g>
            <g transform="matrix(1.30509e-17,-0.213138,-0.213138,-1.30509e-17,467.223,270.47)">
                <path d="M754.363,450.295L754.363,524.114L690.434,561.024L690.434,575.787L703.219,583.169L767.148,546.26L831.078,583.169L843.863,575.787L843.863,561.024L779.995,524.149L779.934,450.295L767.148,442.913L754.363,450.295Z" style="fill:none;stroke:black;stroke-width:4.69px;stroke-linecap:round;stroke-linejoin:round;stroke-miterlimit:1.5;"/>
            </g>
            <g transform="matrix(1.30509e-17,-0.213138,-0.213138,-1.30509e-17,435.333,325.705)">
                <path d="M754.363,450.295L754.363,524.114L690.434,561.024L690.434,575.787L703.219,583.169L767.148,546.26L831.078,583.169L843.863,575.787L843.863,561.024L779.995,524.149L779.934,450.295L767.148,442.913L754.363,450.295Z" style="fill:none;stroke:black;stroke-width:4.69px;stroke-linecap:round;stroke-linejoin:round;stroke-miterlimit:1.5;"/>
            </g>
            <g transform="matrix(1.30509e-17,-0.213138,-0.213138,-1.30509e-17,467.223,233.647)">
                <path d="M754.363,450.295L754.363,524.114L690.434,561.024L690.434,575.787L703.219,583.169L767.148,546.26L831.078,583.169L843.863,575.787L843.863,561.024L779.995,524.149L779.934,450.295L767.148,442.913L754.363,450.295Z" style="fill:none;stroke:black;stroke-width:4.69px;stroke-linecap:round;stroke-linejoin:round;stroke-miterlimit:1.5;"/>
            </g>
            <g transform="matrix(1.30509e-17,-0.213138,-0.213138,-1.30509e-17,435.333,215.235)">
                <path d="M754.363,450.295L754.363,524.114L690.434,561.024L690.434,575.787L703.219,583.169L767.148,546.26L831.078,583.169L843.863,575.787L843.863,561.024L779.995,524.149L779.934,450.295L767.148,442.913L754.363,450.295Z" style="fill:none;stroke:black;stroke-width:4.69px;stroke-linecap:round;stroke-linejoin:round;stroke-miterlimit:1.5;"/>
            </g>
            <g transform="matrix(1.30509e-17,-0.213138,-0.213138,-1.30509e-17,371.553,583.467)">
                <path d="M754.363,450.295L754.363,524.114L690.434,561.024L690.434,575.787L703.219,583.169L767.148,546.26L831.078,583.169L843.863,575.787L843.863,561.024L779.995,524.149L779.934,450.295L767.148,442.913L754.363,450.295Z" style="fill:none;stroke:black;stroke-width:4.69px;stroke-linecap:round;stroke-linejoin:round;stroke-miterlimit:1.5;"/>
            </g>
            <g transform="matrix(1.30509e-17,-0.213138,-0.213138,-1.30509e-17,403.443,565.055)">
                <path d="M754.363,450.295L754.363,524.114L690.434,561.024L690.434,575.787L703.219,583.169L767.148,546.26L831.078,583.169L843.863,575.787L843.863,561.024L779.995,524.149L779.934,450.295L767.148,442.913L754.363,450.295Z" style="fill:none;stroke:black;stroke-width:4.69px;stroke-linecap:round;stroke-linejoin:round;stroke-miterlimit:1.5;"/>
            </g>
            <g transform="matrix(1.30509e-17,-0.213138,-0.213138,-1.30509e-17,403.443,528.232)">
                <path d="M754.363,450.295L754.363,524.114L690.434,561.024L690.434,575.787L703.219,583.169L767.148,546.26L831.078,583.169L843.863,575.787L843.863,561.024L779.995,524.149L779.934,450.295L767.148,442.913L754.363,450.295Z" style="fill:none;stroke:black;stroke-width:4.69px;stroke-linecap:round;stroke-linejoin:round;stroke-miterlimit:1.5;"/>
            </g>
            <g transform="matrix(1.30509e-17,-0.213138,-0.213138,-1.30509e-17,371.553,509.82)">
                <path d="M754.363,450.295L754.363,524.114L690.434,561.024L690.434,575.787L703.219,583.169L767.148,546.26L831.078,583.169L843.863,575.787L843.863,561.024L779.995,524.149L779.934,450.295L767.148,442.913L754.363,450.295Z" style="fill:none;stroke:black;stroke-width:4.69px;stroke-linecap:round;stroke-linejoin:round;stroke-miterlimit:1.5;"/>
            </g>
            <g transform="matrix(1.30509e-17,-0.213138,-0.213138,-1.30509e-17,371.553,472.997)">
                <path d="M754.363,450.295L754.363,524.114L690.434,561.024L690.434,575.787L703.219,583.169L767.148,546.26L831.078,583.169L843.863,575.787L843.863,561.024L779.995,524.149L779.934,450.295L767.148,442.913L754.363,450.295Z" style="fill:none;stroke:black;stroke-width:4.69px;stroke-linecap:round;stroke-linejoin:round;stroke-miterlimit:1.5;"/>
            </g>
            <g transform="matrix(1.30509e-17,-0.213138,-0.213138,-1.30509e-17,403.443,491.409)">
                <path d="M754.363,450.295L754.363,524.114L690.434,561.024L690.434,575.787L703.219,583.169L767.148,546.26L831.078,583.169L843.863,575.787L843.863,561.024L779.995,524.149L779.934,450.295L767.148,442.913L754.363,450.295Z" style="fill:none;stroke:black;stroke-width:4.69px;stroke-linecap:round;stroke-linejoin:round;stroke-miterlimit:1.5;"/>
            </g>
            <g transform="matrix(1.30509e-17,-0.213138,-0.213138,-1.30509e-17,371.553,546.644)">
                <path d="M754.363,450.295L754.363,524.114L690.434,561.024L690.434,575.787L703.219,583.169L767.148,546.26L831.078,583.169L843.863,575.787L843.863,561.024L779.995,524.149L779.934,450.295L767.148,442.913L754.363,450.295Z" style="fill:none;stroke:black;stroke-width:4.69px;stroke-linecap:round;stroke-linejoin:round;stroke-miterlimit:1.5;"/>
            </g>
            <g transform="matrix(1.30509e-17,-0.213138,-0.213138,-1.30509e-17,403.443,454.586)">
                <path d="M754.363,450.295L754.363,524.114L690.434,561.024L690.434,575.787L703.219,583.169L767.148,546.26L831.078,583.169L843.863,575.787L843.863,561.024L779.995,524.149L779.934,450.295L767.148,442.913L754.363,450.295Z" style="fill:none;stroke:black;stroke-width:4.69px;stroke-linecap:round;stroke-linejoin:round;stroke-miterlimit:1.5;"/>
            </g>
            <g transform="matrix(1.30509e-17,-0.213138,-0.213138,-1.30509e-17,371.553,436.174)">
                <path d="M754.363,450.295L754.363,524.114L690.434,561.024L690.434,575.787L703.219,583.169L767.148,546.26L831.078,583.169L843.863,575.787L843.863,561.024L779.995,524.149L779.934,450.295L767.148,442.913L754.363,450.295Z" style="fill:none;stroke:black;stroke-width:4.69px;stroke-linecap:round;stroke-linejoin:round;stroke-miterlimit:1.5;"/>
            </g>
            <g transform="matrix(1.30509e-17,-0.213138,-0.213138,-1.30509e-17,371.553,399.351)">
                <path d="M754.363,450.295L754.363,524.114L690.434,561.024L690.434,575.787L703.219,583.169L767.148,546.26L831.078,583.169L843.863,575.787L843.863,561.024L779.995,524.149L779.934,450.295L767.148,442.913L754.363,450.295Z" style="fill:none;stroke:black;stroke-width:4.69px;stroke-linecap:round;stroke-linejoin:round;stroke-miterlimit:1.5;"/>
            </g>
            <g transform="matrix(1.30509e-17,-0.213138,-0.213138,-1.30509e-17,403.443,417.763)">
                <path d="M754.363,450.295L754.363,524.114L690.434,561.024L690.434,575.787L703.219,583.169L767.148,546.26L831.078,583.169L843.863,575.787L843.863,561.024L779.995,524.149L779.934,450.295L767.148,442.913L754.363,450.295Z" style="fill:none;stroke:black;stroke-width:4.69px;stroke-linecap:round;stroke-linejoin:round;stroke-miterlimit:1.5;"/>
            </g>
            <g transform="matrix(1.30509e-17,-0.213138,-0.213138,-1.30509e-17,403.443,380.939)">
                <path d="M754.363,450.295L754.363,524.114L690.434,561.024L690.434,575.787L703.219,583.169L767.148,546.26L831.078,583.169L843.863,575.787L843.863,561.024L779.995,524.149L779.934,450.295L767.148,442.913L754.363,450.295Z" style="fill:none;stroke:black;stroke-width:4.69px;stroke-linecap:round;stroke-linejoin:round;stroke-miterlimit:1.5;"/>
            </g>
            <g transform="matrix(1.30509e-17,-0.213138,-0.213138,-1.30509e-17,371.553,362.528)">
                <path d="M754.363,450.295L754.363,524.114L690.434,561.024L690.434,575.787L703.219,583.169L767.148,546.26L831.078,583.169L843.863,575.787L843.863,561.024L779.995,524.149L779.934,450.295L767.148,442.913L754.363,450.295Z" style="fill:none;stroke:black;stroke-width:4.69px;stroke-linecap:round;stroke-linejoin:round;stroke-miterlimit:1.5;"/>
            </g>
            <g transform="matrix(1.30509e-17,-0.213138,-0.213138,-1.30509e-17,403.443,344.116)">
                <path d="M754.363,450.295L754.363,524.114L690.434,561.024L690.434,575.787L703.219,583.169L767.148,546.26L831.078,583.169L843.863,575.787L843.863,561.024L779.995,524.149L779.934,450.295L767.148,442.913L754.363,450.295Z" style="fill:none;stroke:black;stroke-width:4.69px;stroke-linecap:round;stroke-linejoin:round;stroke-miterlimit:1.5;"/>
            </g>
            <g transform="matrix(1.30509e-17,-0.213138,-0.213138,-1.30509e-17,403.443,307.293)">
                <path d="M754.363,450.295L754.363,524.114L690.434,561.024L690.434,575.787L703.219,583.169L767.148,546.26L831.078,583.169L843.863,575.787L843.863,561.024L779.995,524.149L779.934,450.295L767.148,442.913L754.363,450.295Z" style="fill:none;stroke:black;stroke-width:4.69px;stroke-linecap:round;stroke-linejoin:round;stroke-miterlimit:1.5;"/>
            </g>
            <g transform="matrix(1.30509e-17,-0.213138,-0.213138,-1.30509e-17,371.553,288.882)">
                <path d="M754.363,450.295L754.363,524.114L690.434,561.024L690.434,575.787L703.219,583.169L767.148,546.26L831.078,583.169L843.863,575.787L843.863,561.024L779.995,524.149L779.934,450.295L767.148,442.913L754.363,450.295Z" style="fill:none;stroke:black;stroke-width:4.69px;stroke-linecap:round;stroke-linejoin:round;stroke-miterlimit:1.5;"/>
            </g>
            <g transform="matrix(1.30509e-17,-0.213138,-0.213138,-1.30509e-17,371.553,252.059)">
                <path d="M754.363,450.295L754.363,524.114L690.434,561.024L690.434,575.787L703.219,583.169L767.148,546.26L831.078,583.169L843.863,575.787L843.863,561.024L779.995,524.149L779.934,450.295L767.148,442.913L754.363,450.295Z" style="fill:none;stroke:black;stroke-width:4.69px;stroke-linecap:round;stroke-linejoin:round;stroke-miterlimit:1.5;"/>
            </g>
            <g transform="matrix(1.30509e-17,-0.213138,-0.213138,-1.30509e-17,403.443,270.47)">
                <path d="M754.363,450.295L754.363,524.114L690.434,561.024L690.434,575.787L703.219,583.169L767.148,546.26L831.078,583.169L843.863,575.787L843.863,561.024L779.995,524.149L779.934,450.295L767.148,442.913L754.363,450.295Z" style="fill:none;stroke:black;stroke-width:4.69px;stroke-linecap:round;stroke-linejoin:round;stroke-miterlimit:1.5;"/>
            </g>
            <g transform="matrix(1.30509e-17,-0.213138,-0.213138,-1.30509e-17,371.553,325.705)">
                <path d="M754.363,450.295L754.363,524.114L690.434,561.024L690.434,575.787L703.219,583.169L767.148,546.26L831.078,583.169L843.863,575.787L843.863,561.024L779.995,524.149L779.934,450.295L767.148,442.913L754.363,450.295Z" style="fill:none;stroke:black;stroke-width:4.69px;stroke-linecap:round;stroke-linejoin:round;stroke-miterlimit:1.5;"/>
            </g>
            <g transform="matrix(1.30509e-17,-0.213138,-0.213138,-1.30509e-17,403.443,233.647)">
                <path d="M754.363,450.295L754.363,524.114L690.434,561.024L690.434,575.787L703.219,583.169L767.148,546.26L831.078,583.169L843.863,575.787L843.863,561.024L779.995,524.149L779.934,450.295L767.148,442.913L754.363,450.295Z" style="fill:none;stroke:black;stroke-width:4.69px;stroke-linecap:round;stroke-linejoin:round;stroke-miterlimit:1.5;"/>
            </g>
            <g transform="matrix(1.30509e-17,-0.213138,-0.213138,-1.30509e-17,371.553,215.235)">
                <path d="M754.363,450.295L754.363,524.114L690.434,561.024L690.434,575.787L703.219,583.169L767.148,546.26L831.078,583.169L843.863,575.787L843.863,561.024L779.995,524.149L779.934,450.295L767.148,442.913L754.363,450.295Z" style="fill:none;stroke:black;stroke-width:4.69px;stroke-linecap:round;stroke-linejoin:round;stroke-miterlimit:1.5;"/>
            </g>
            <g transform="matrix(1.30509e-17,-0.213138,-0.213138,-1.30509e-17,307.774,583.467)">
                <path d="M754.363,450.295L754.363,524.114L690.434,561.024L690.434,575.787L703.219,583.169L767.148,546.26L831.078,583.169L843.863,575.787L843.863,561.024L779.995,524.149L779.934,450.295L767.148,442.913L754.363,450.295Z" style="fill:none;stroke:black;stroke-width:4.69px;stroke-linecap:round;stroke-linejoin:round;stroke-miterlimit:1.5;"/>
            </g>
            <g transform="matrix(1.30509e-17,-0.213138,-0.213138,-1.30509e-17,339.664,565.055)">
                <path d="M754.363,450.295L754.363,524.114L690.434,561.024L690.434,575.787L703.219,583.169L767.148,546.26L831.078,583.169L843.863,575.787L843.863,561.024L779.995,524.149L779.934,450.295L767.148,442.913L754.363,450.295Z" style="fill:none;stroke:black;stroke-width:4.69px;stroke-linecap:round;stroke-linejoin:round;stroke-miterlimit:1.5;"/>
            </g>
            <g transform="matrix(1.30509e-17,-0.213138,-0.213138,-1.30509e-17,339.664,528.232)">
                <path d="M754.363,450.295L754.363,524.114L690.434,561.024L690.434,575.787L703.219,583.169L767.148,546.26L831.078,583.169L843.863,575.787L843.863,561.024L779.995,524.149L779.934,450.295L767.148,442.913L754.363,450.295Z" style="fill:none;stroke:black;stroke-width:4.69px;stroke-linecap:round;stroke-linejoin:round;stroke-miterlimit:1.5;"/>
            </g>
            <g transform="matrix(1.30509e-17,-0.213138,-0.213138,-1.30509e-17,307.774,509.82)">
                <path d="M754.363,450.295L754.363,524.114L690.434,561.024L690.434,575.787L703.219,583.169L767.148,546.26L831.078,583.169L843.863,575.787L843.863,561.024L779.995,524.149L779.934,450.295L767.148,442.913L754.363,450.295Z" style="fill:none;stroke:black;stroke-width:4.69px;stroke-linecap:round;stroke-linejoin:round;stroke-miterlimit:1.5;"/>
            </g>
            <g transform="matrix(1.30509e-17,-0.213138,-0.213138,-1.30509e-17,307.774,472.997)">
                <path d="M754.363,450.295L754.363,524.114L690.434,561.024L690.434,575.787L703.219,583.169L767.148,546.26L831.078,583.169L843.863,575.787L843.863,561.024L779.995,524.149L779.934,450.295L767.148,442.913L754.363,450.295Z" style="fill:none;stroke:black;stroke-width:4.69px;stroke-linecap:round;stroke-linejoin:round;stroke-miterlimit:1.5;"/>
            </g>
            <g transform="matrix(1.30509e-17,-0.213138,-0.213138,-1.30509e-17,339.664,491.409)">
                <path d="M754.363,450.295L754.363,524.114L690.434,561.024L690.434,575.787L703.219,583.169L767.148,546.26L831.078,583.169L843.863,575.787L843.863,561.024L779.995,524.149L779.934,450.295L767.148,442.913L754.363,450.295Z" style="fill:none;stroke:black;stroke-width:4.69px;stroke-linecap:round;stroke-linejoin:round;stroke-miterlimit:1.5;"/>
            </g>
            <g transform="matrix(1.30509e-17,-0.213138,-0.213138,-1.30509e-17,307.774,546.644)">
                <path d="M754.363,450.295L754.363,524.114L690.434,561.024L690.434,575.787L703.219,583.169L767.148,546.26L831.078,583.169L843.863,575.787L843.863,561.024L779.995,524.149L779.934,450.295L767.148,442.913L754.363,450.295Z" style="fill:none;stroke:black;stroke-width:4.69px;stroke-linecap:round;stroke-linejoin:round;stroke-miterlimit:1.5;"/>
            </g>
            <g transform="matrix(1.30509e-17,-0.213138,-0.213138,-1.30509e-17,339.664,454.586)">
                <path d="M754.363,450.295L754.363,524.114L690.434,561.024L690.434,575.787L703.219,583.169L767.148,546.26L831.078,583.169L843.863,575.787L843.863,561.024L779.995,524.149L779.934,450.295L767.148,442.913L754.363,450.295Z" style="fill:none;stroke:black;stroke-width:4.69px;stroke-linecap:round;stroke-linejoin:round;stroke-miterlimit:1.5;"/>
            </g>
            <g transform="matrix(1.30509e-17,-0.213138,-0.213138,-1.30509e-17,307.774,436.174)">
                <path d="M754.363,450.295L754.363,524.114L690.434,561.024L690.434,575.787L703.219,583.169L767.148,546.26L831.078,583.169L843.863,575.787L843.863,561.024L779.995,524.149L779.934,450.295L767.148,442.913L754.363,450.295Z" style="fill:none;stroke:black;stroke-width:4.69px;stroke-linecap:round;stroke-linejoin:round;stroke-miterlimit:1.5;"/>
            </g>
            <g transform="matrix(1.30509e-17,-0.213138,-0.213138,-1.30509e-17,307.774,399.351)">
                <path d="M754.363,450.295L754.363,524.114L690.434,561.024L690.434,575.787L703.219,583.169L767.148,546.26L831.078,583.169L843.863,575.787L843.863,561.024L779.995,524.149L779.934,450.295L767.148,442.913L754.363,450.295Z" style="fill:none;stroke:black;stroke-width:4.69px;stroke-linecap:round;stroke-linejoin:round;stroke-miterlimit:1.5;"/>
            </g>
            <g transform="matrix(1.30509e-17,-0.213138,-0.213138,-1.30509e-17,339.664,417.763)">
                <path d="M754.363,450.295L754.363,524.114L690.434,561.024L690.434,575.787L703.219,583.169L767.148,546.26L831.078,583.169L843.863,575.787L843.863,561.024L779.995,524.149L779.934,450.295L767.148,442.913L754.363,450.295Z" style="fill:none;stroke:black;stroke-width:4.69px;stroke-linecap:round;stroke-linejoin:round;stroke-miterlimit:1.5;"/>
            </g>
            <g transform="matrix(1.30509e-17,-0.213138,-0.213138,-1.30509e-17,339.664,380.939)">
                <path d="M754.363,450.295L754.363,524.114L690.434,561.024L690.434,575.787L703.219,583.169L767.148,546.26L831.078,583.169L843.863,575.787L843.863,561.024L779.995,524.149L779.934,450.295L767.148,442.913L754.363,450.295Z" style="fill:none;stroke:black;stroke-width:4.69px;stroke-linecap:round;stroke-linejoin:round;stroke-miterlimit:1.5;"/>
            </g>
            <g transform="matrix(1.30509e-17,-0.213138,-0.213138,-1.30509e-17,307.774,362.528)">
                <path d="M754.363,450.295L754.363,524.114L690.434,561.024L690.434,575.787L703.219,583.169L767.148,546.26L831.078,583.169L843.863,575.787L843.863,561.024L779.995,524.149L779.934,450.295L767.148,442.913L754.363,450.295Z" style="fill:none;stroke:black;stroke-width:4.69px;stroke-linecap:round;stroke-linejoin:round;stroke-miterlimit:1.5;"/>
            </g>
            <g transform="matrix(1.30509e-17,-0.213138,-0.213138,-1.30509e-17,339.664,344.116)">
                <path d="M754.363,450.295L754.363,524.114L690.434,561.024L690.434,575.787L703.219,583.169L767.148,546.26L831.078,583.169L843.863,575.787L843.863,561.024L779.995,524.149L779.934,450.295L767.148,442.913L754.363,450.295Z" style="fill:none;stroke:black;stroke-width:4.69px;stroke-linecap:round;stroke-linejoin:round;stroke-miterlimit:1.5;"/>
            </g>
            <g transform="matrix(1.30509e-17,-0.213138,-0.213138,-1.30509e-17,339.664,307.293)">
                <path d="M754.363,450.295L754.363,524.114L690.434,561.024L690.434,575.787L703.219,583.169L767.148,546.26L831.078,583.169L843.863,575.787L843.863,561.024L779.995,524.149L779.934,450.295L767.148,442.913L754.363,450.295Z" style="fill:none;stroke:black;stroke-width:4.69px;stroke-linecap:round;stroke-linejoin:round;stroke-miterlimit:1.5;"/>
            </g>
            <g transform="matrix(1.30509e-17,-0.213138,-0.213138,-1.30509e-17,307.774,288.882)">
                <path d="M754.363,450.295L754.363,524.114L690.434,561.024L690.434,575.787L703.219,583.169L767.148,546.26L831.078,583.169L843.863,575.787L843.863,561.024L779.995,524.149L779.934,450.295L767.148,442.913L754.363,450.295Z" style="fill:none;stroke:black;stroke-width:4.69px;stroke-linecap:round;stroke-linejoin:round;stroke-miterlimit:1.5;"/>
            </g>
            <g transform="matrix(1.30509e-17,-0.213138,-0.213138,-1.30509e-17,307.774,252.059)">
                <path d="M754.363,450.295L754.363,524.114L690.434,561.024L690.434,575.787L703.219,583.169L767.148,546.26L831.078,583.169L843.863,575.787L843.863,561.024L779.995,524.149L779.934,450.295L767.148,442.913L754.363,450.295Z" style="fill:none;stroke:black;stroke-width:4.69px;stroke-linecap:round;stroke-linejoin:round;stroke-miterlimit:1.5;"/>
            </g>
            <g transform="matrix(1.30509e-17,-0.213138,-0.213138,-1.30509e-17,339.664,270.47)">
                <path d="M754.363,450.295L754.363,524.114L690.434,561.024L690.434,575.787L703.219,583.169L767.148,546.26L831.078,583.169L843.863,575.787L843.863,561.024L779.995,524.149L779.934,450.295L767.148,442.913L754.363,450.295Z" style="fill:none;stroke:black;stroke-width:4.69px;stroke-linecap:round;stroke-linejoin:round;stroke-miterlimit:1.5;"/>
            </g>
            <g transform="matrix(1.30509e-17,-0.213138,-0.213138,-1.30509e-17,307.774,325.705)">
                <path d="M754.363,450.295L754.363,524.114L690.434,561.024L690.434,575.787L703.219,583.169L767.148,546.26L831.078,583.169L843.863,575.787L843.863,561.024L779.995,524.149L779.934,450.295L767.148,442.913L754.363,450.295Z" style="fill:none;stroke:black;stroke-width:4.69px;stroke-linecap:round;stroke-linejoin:round;stroke-miterlimit:1.5;"/>
            </g>
            <g transform="matrix(1.30509e-17,-0.213138,-0.213138,-1.30509e-17,339.664,233.647)">
                <path d="M754.363,450.295L754.363,524.114L690.434,561.024L690.434,575.787L703.219,583.169L767.148,546.26L831.078,583.169L843.863,575.787L843.863,561.024L779.995,524.149L779.934,450.295L767.148,442.913L754.363,450.295Z" style="fill:none;stroke:black;stroke-width:4.69px;stroke-linecap:round;stroke-linejoin:round;stroke-miterlimit:1.5;"/>
            </g>
            <g transform="matrix(1.30509e-17,-0.213138,-0.213138,-1.30509e-17,307.774,215.235)">
                <path d="M754.363,450.295L754.363,524.114L690.434,561.024L690.434,575.787L703.219,583.169L767.148,546.26L831.078,583.169L843.863,575.787L843.863,561.024L779.995,524.149L779.934,450.295L767.148,442.913L754.363,450.295Z" style="fill:none;stroke:black;stroke-width:4.69px;stroke-linecap:round;stroke-linejoin:round;stroke-miterlimit:1.5;"/>
            </g>
        </g>
    </g>
</svg>
