<?xml version="1.0" encoding="UTF-8" standalone="no"?>
<!DOCTYPE svg PUBLIC "-//W3C//DTD SVG 1.1//EN" "http://www.w3.org/Graphics/SVG/1.1/DTD/svg11.dtd">
<svg width="100%" height="100%" viewBox="0 0 666 110" version="1.1" xmlns="http://www.w3.org/2000/svg" xmlns:xlink="http://www.w3.org/1999/xlink" xml:space="preserve" xmlns:serif="http://www.serif.com/" style="fill-rule:evenodd;clip-rule:evenodd;">
    <g transform="matrix(1,0,0,-1,6.51969,102.898)">
        <path id="Sketch003_w0000" d="M0,0L651.969,0L651.969,96.378L0,96.378L0,0" style="fill:none;stroke:black;stroke-width:0.99px;"/>
        <circle cx="11.339" cy="48.189" r="5.102" style="fill:none;stroke:black;stroke-width:0.99px;"/>
        <circle cx="640.63" cy="48.189" r="5.102" style="fill:none;stroke:black;stroke-width:0.99px;"/>
    </g>
    <g transform="matrix(1,0,0,1,-15.9449,0)">
        <g transform="matrix(1.22465e-17,0.2,-0.2,1.22465e-17,243.921,-193.847)">
            <path d="M1150.72,664.37L1074.01,708.661L1074.01,797.244L1150.72,841.535L1227.44,797.244L1227.44,708.661L1150.72,664.37Z" style="fill:none;stroke:black;stroke-width:5px;stroke-linecap:round;stroke-linejoin:round;stroke-miterlimit:1.5;"/>
        </g>
        <g transform="matrix(1.22465e-17,0.2,-0.2,1.22465e-17,243.921,-157.024)">
            <path d="M1150.72,664.37L1074.01,708.661L1074.01,797.244L1150.72,841.535L1227.44,797.244L1227.44,708.661L1150.72,664.37Z" style="fill:none;stroke:black;stroke-width:5px;stroke-linecap:round;stroke-linejoin:round;stroke-miterlimit:1.5;"/>
        </g>
        <g transform="matrix(1.22465e-17,0.2,-0.2,1.22465e-17,212.031,-175.436)">
            <path d="M1150.72,664.37L1074.01,708.661L1074.01,797.244L1150.72,841.535L1227.44,797.244L1227.44,708.661L1150.72,664.37Z" style="fill:none;stroke:black;stroke-width:5px;stroke-linecap:round;stroke-linejoin:round;stroke-miterlimit:1.5;"/>
        </g>
        <g transform="matrix(1.22465e-17,0.2,-0.2,1.22465e-17,307.701,-193.847)">
            <path d="M1150.72,664.37L1074.01,708.661L1074.01,797.244L1150.72,841.535L1227.44,797.244L1227.44,708.661L1150.72,664.37Z" style="fill:none;stroke:black;stroke-width:5px;stroke-linecap:round;stroke-linejoin:round;stroke-miterlimit:1.5;"/>
        </g>
        <g transform="matrix(1.22465e-17,0.2,-0.2,1.22465e-17,307.701,-157.024)">
            <path d="M1150.72,664.37L1074.01,708.661L1074.01,797.244L1150.72,841.535L1227.44,797.244L1227.44,708.661L1150.72,664.37Z" style="fill:none;stroke:black;stroke-width:5px;stroke-linecap:round;stroke-linejoin:round;stroke-miterlimit:1.5;"/>
        </g>
        <g transform="matrix(1.22465e-17,0.2,-0.2,1.22465e-17,275.811,-175.436)">
            <path d="M1150.72,664.37L1074.01,708.661L1074.01,797.244L1150.72,841.535L1227.44,797.244L1227.44,708.661L1150.72,664.37Z" style="fill:none;stroke:black;stroke-width:5px;stroke-linecap:round;stroke-linejoin:round;stroke-miterlimit:1.5;"/>
        </g>
        <g transform="matrix(1.22465e-17,0.2,-0.2,1.22465e-17,371.48,-193.847)">
            <path d="M1150.72,664.37L1074.01,708.661L1074.01,797.244L1150.72,841.535L1227.44,797.244L1227.44,708.661L1150.72,664.37Z" style="fill:none;stroke:black;stroke-width:5px;stroke-linecap:round;stroke-linejoin:round;stroke-miterlimit:1.5;"/>
        </g>
        <g transform="matrix(1.22465e-17,0.2,-0.2,1.22465e-17,371.48,-157.024)">
            <path d="M1150.72,664.37L1074.01,708.661L1074.01,797.244L1150.72,841.535L1227.44,797.244L1227.44,708.661L1150.72,664.37Z" style="fill:none;stroke:black;stroke-width:5px;stroke-linecap:round;stroke-linejoin:round;stroke-miterlimit:1.5;"/>
        </g>
        <g transform="matrix(1.22465e-17,0.2,-0.2,1.22465e-17,339.591,-175.436)">
            <path d="M1150.72,664.37L1074.01,708.661L1074.01,797.244L1150.72,841.535L1227.44,797.244L1227.44,708.661L1150.72,664.37Z" style="fill:none;stroke:black;stroke-width:5px;stroke-linecap:round;stroke-linejoin:round;stroke-miterlimit:1.5;"/>
        </g>
        <g transform="matrix(1.22465e-17,0.2,-0.2,1.22465e-17,435.26,-193.847)">
            <path d="M1150.72,664.37L1074.01,708.661L1074.01,797.244L1150.72,841.535L1227.44,797.244L1227.44,708.661L1150.72,664.37Z" style="fill:none;stroke:black;stroke-width:5px;stroke-linecap:round;stroke-linejoin:round;stroke-miterlimit:1.5;"/>
        </g>
        <g transform="matrix(1.22465e-17,0.2,-0.2,1.22465e-17,435.26,-157.024)">
            <path d="M1150.72,664.37L1074.01,708.661L1074.01,797.244L1150.72,841.535L1227.44,797.244L1227.44,708.661L1150.72,664.37Z" style="fill:none;stroke:black;stroke-width:5px;stroke-linecap:round;stroke-linejoin:round;stroke-miterlimit:1.5;"/>
        </g>
        <g transform="matrix(1.22465e-17,0.2,-0.2,1.22465e-17,403.37,-175.436)">
            <path d="M1150.72,664.37L1074.01,708.661L1074.01,797.244L1150.72,841.535L1227.44,797.244L1227.44,708.661L1150.72,664.37Z" style="fill:none;stroke:black;stroke-width:5px;stroke-linecap:round;stroke-linejoin:round;stroke-miterlimit:1.5;"/>
        </g>
        <g transform="matrix(1.22465e-17,0.2,-0.2,1.22465e-17,499.039,-193.847)">
            <path d="M1150.72,664.37L1074.01,708.661L1074.01,797.244L1150.72,841.535L1227.44,797.244L1227.44,708.661L1150.72,664.37Z" style="fill:none;stroke:black;stroke-width:5px;stroke-linecap:round;stroke-linejoin:round;stroke-miterlimit:1.5;"/>
        </g>
        <g transform="matrix(1.22465e-17,0.2,-0.2,1.22465e-17,499.039,-157.024)">
            <path d="M1150.72,664.37L1074.01,708.661L1074.01,797.244L1150.72,841.535L1227.44,797.244L1227.44,708.661L1150.72,664.37Z" style="fill:none;stroke:black;stroke-width:5px;stroke-linecap:round;stroke-linejoin:round;stroke-miterlimit:1.5;"/>
        </g>
        <g transform="matrix(1.22465e-17,0.2,-0.2,1.22465e-17,467.15,-175.436)">
            <path d="M1150.72,664.37L1074.01,708.661L1074.01,797.244L1150.72,841.535L1227.44,797.244L1227.44,708.661L1150.72,664.37Z" style="fill:none;stroke:black;stroke-width:5px;stroke-linecap:round;stroke-linejoin:round;stroke-miterlimit:1.5;"/>
        </g>
        <g transform="matrix(1.22465e-17,0.2,-0.2,1.22465e-17,562.819,-193.847)">
            <path d="M1150.72,664.37L1074.01,708.661L1074.01,797.244L1150.72,841.535L1227.44,797.244L1227.44,708.661L1150.72,664.37Z" style="fill:none;stroke:black;stroke-width:5px;stroke-linecap:round;stroke-linejoin:round;stroke-miterlimit:1.5;"/>
        </g>
        <g transform="matrix(1.22465e-17,0.2,-0.2,1.22465e-17,562.819,-157.024)">
            <path d="M1150.72,664.37L1074.01,708.661L1074.01,797.244L1150.72,841.535L1227.44,797.244L1227.44,708.661L1150.72,664.37Z" style="fill:none;stroke:black;stroke-width:5px;stroke-linecap:round;stroke-linejoin:round;stroke-miterlimit:1.5;"/>
        </g>
        <g transform="matrix(1.22465e-17,0.2,-0.2,1.22465e-17,530.929,-175.436)">
            <path d="M1150.72,664.37L1074.01,708.661L1074.01,797.244L1150.72,841.535L1227.44,797.244L1227.44,708.661L1150.72,664.37Z" style="fill:none;stroke:black;stroke-width:5px;stroke-linecap:round;stroke-linejoin:round;stroke-miterlimit:1.5;"/>
        </g>
        <g transform="matrix(1.22465e-17,0.2,-0.2,1.22465e-17,626.598,-193.847)">
            <path d="M1150.72,664.37L1074.01,708.661L1074.01,797.244L1150.72,841.535L1227.44,797.244L1227.44,708.661L1150.72,664.37Z" style="fill:none;stroke:black;stroke-width:5px;stroke-linecap:round;stroke-linejoin:round;stroke-miterlimit:1.5;"/>
        </g>
        <g transform="matrix(1.22465e-17,0.2,-0.2,1.22465e-17,626.598,-157.024)">
            <path d="M1150.72,664.37L1074.01,708.661L1074.01,797.244L1150.72,841.535L1227.44,797.244L1227.44,708.661L1150.72,664.37Z" style="fill:none;stroke:black;stroke-width:5px;stroke-linecap:round;stroke-linejoin:round;stroke-miterlimit:1.5;"/>
        </g>
        <g transform="matrix(1.22465e-17,0.2,-0.2,1.22465e-17,594.709,-175.436)">
            <path d="M1150.72,664.37L1074.01,708.661L1074.01,797.244L1150.72,841.535L1227.44,797.244L1227.44,708.661L1150.72,664.37Z" style="fill:none;stroke:black;stroke-width:5px;stroke-linecap:round;stroke-linejoin:round;stroke-miterlimit:1.5;"/>
        </g>
        <g transform="matrix(1.22465e-17,0.2,-0.2,1.22465e-17,690.378,-193.847)">
            <path d="M1150.72,664.37L1074.01,708.661L1074.01,797.244L1150.72,841.535L1227.44,797.244L1227.44,708.661L1150.72,664.37Z" style="fill:none;stroke:black;stroke-width:5px;stroke-linecap:round;stroke-linejoin:round;stroke-miterlimit:1.5;"/>
        </g>
        <g transform="matrix(1.22465e-17,0.2,-0.2,1.22465e-17,690.378,-157.024)">
            <path d="M1150.72,664.37L1074.01,708.661L1074.01,797.244L1150.72,841.535L1227.44,797.244L1227.44,708.661L1150.72,664.37Z" style="fill:none;stroke:black;stroke-width:5px;stroke-linecap:round;stroke-linejoin:round;stroke-miterlimit:1.5;"/>
        </g>
        <g transform="matrix(1.22465e-17,0.2,-0.2,1.22465e-17,658.488,-175.436)">
            <path d="M1150.72,664.37L1074.01,708.661L1074.01,797.244L1150.72,841.535L1227.44,797.244L1227.44,708.661L1150.72,664.37Z" style="fill:none;stroke:black;stroke-width:5px;stroke-linecap:round;stroke-linejoin:round;stroke-miterlimit:1.5;"/>
        </g>
        <g transform="matrix(1.22465e-17,0.2,-0.2,1.22465e-17,754.157,-193.847)">
            <path d="M1150.72,664.37L1074.01,708.661L1074.01,797.244L1150.72,841.535L1227.44,797.244L1227.44,708.661L1150.72,664.37Z" style="fill:none;stroke:black;stroke-width:5px;stroke-linecap:round;stroke-linejoin:round;stroke-miterlimit:1.5;"/>
        </g>
        <g transform="matrix(1.22465e-17,0.2,-0.2,1.22465e-17,754.157,-157.024)">
            <path d="M1150.72,664.37L1074.01,708.661L1074.01,797.244L1150.72,841.535L1227.44,797.244L1227.44,708.661L1150.72,664.37Z" style="fill:none;stroke:black;stroke-width:5px;stroke-linecap:round;stroke-linejoin:round;stroke-miterlimit:1.5;"/>
        </g>
        <g transform="matrix(1.22465e-17,0.2,-0.2,1.22465e-17,722.268,-175.436)">
            <path d="M1150.72,664.37L1074.01,708.661L1074.01,797.244L1150.72,841.535L1227.44,797.244L1227.44,708.661L1150.72,664.37Z" style="fill:none;stroke:black;stroke-width:5px;stroke-linecap:round;stroke-linejoin:round;stroke-miterlimit:1.5;"/>
        </g>
        <g transform="matrix(1.22465e-17,0.2,-0.2,1.22465e-17,786.047,-175.436)">
            <path d="M1150.72,664.37L1074.01,708.661L1074.01,797.244L1150.72,841.535L1227.44,797.244L1227.44,708.661L1150.72,664.37Z" style="fill:none;stroke:black;stroke-width:5px;stroke-linecap:round;stroke-linejoin:round;stroke-miterlimit:1.5;"/>
        </g>
    </g>
</svg>
