<?xml version="1.0" encoding="UTF-8" standalone="no"?>
<!DOCTYPE svg PUBLIC "-//W3C//DTD SVG 1.1//EN" "http://www.w3.org/Graphics/SVG/1.1/DTD/svg11.dtd">
<svg width="100%" height="100%" viewBox="0 0 666 440" version="1.1" xmlns="http://www.w3.org/2000/svg" xmlns:xlink="http://www.w3.org/1999/xlink" xml:space="preserve" xmlns:serif="http://www.serif.com/" style="fill-rule:evenodd;clip-rule:evenodd;">
    <g id="Sketch" transform="matrix(1,0,0,-1,6.51969,455.528)">
        <g>
            <path id="Sketch_w0000" d="M0,28.346L0,443.339C0,446.449 2.559,449.008 5.669,449.008L646.299,449.008C649.409,449.008 651.969,446.449 651.969,443.339L651.969,28.346C651.969,25.236 649.409,22.677 646.299,22.677L5.669,22.677C2.559,22.677 -0,25.236 0,28.346" style="fill:none;stroke:black;stroke-width:0.99px;"/>
        </g>
        <g>
            <g transform="matrix(0.2,0,0,-0.2,-189.54,258.874)">
                <path d="M1150.72,664.37L1074.01,708.661L1074.01,797.244L1150.72,841.535L1227.44,797.244L1227.44,708.661L1150.72,664.37Z" style="fill:none;stroke:black;stroke-width:5px;stroke-linecap:round;stroke-linejoin:round;stroke-miterlimit:1.5;"/>
            </g>
            <g transform="matrix(0.2,0,0,-0.2,-152.716,258.874)">
                <path d="M1150.72,664.37L1074.01,708.661L1074.01,797.244L1150.72,841.535L1227.44,797.244L1227.44,708.661L1150.72,664.37Z" style="fill:none;stroke:black;stroke-width:5px;stroke-linecap:round;stroke-linejoin:round;stroke-miterlimit:1.5;"/>
            </g>
            <g transform="matrix(0.2,0,0,-0.2,-115.893,258.874)">
                <path d="M1150.72,664.37L1074.01,708.661L1074.01,797.244L1150.72,841.535L1227.44,797.244L1227.44,708.661L1150.72,664.37Z" style="fill:none;stroke:black;stroke-width:5px;stroke-linecap:round;stroke-linejoin:round;stroke-miterlimit:1.5;"/>
            </g>
            <g transform="matrix(0.2,0,0,-0.2,-79.0701,258.874)">
                <path d="M1150.72,664.37L1074.01,708.661L1074.01,797.244L1150.72,841.535L1227.44,797.244L1227.44,708.661L1150.72,664.37Z" style="fill:none;stroke:black;stroke-width:5px;stroke-linecap:round;stroke-linejoin:round;stroke-miterlimit:1.5;"/>
            </g>
            <g transform="matrix(0.2,0,0,-0.2,-42.247,258.874)">
                <path d="M1150.72,664.37L1074.01,708.661L1074.01,797.244L1150.72,841.535L1227.44,797.244L1227.44,708.661L1150.72,664.37Z" style="fill:none;stroke:black;stroke-width:5px;stroke-linecap:round;stroke-linejoin:round;stroke-miterlimit:1.5;"/>
            </g>
            <g transform="matrix(0.2,0,0,-0.2,-5.42389,258.874)">
                <path d="M1150.72,664.37L1074.01,708.661L1074.01,797.244L1150.72,841.535L1227.44,797.244L1227.44,708.661L1150.72,664.37Z" style="fill:none;stroke:black;stroke-width:5px;stroke-linecap:round;stroke-linejoin:round;stroke-miterlimit:1.5;"/>
            </g>
            <g transform="matrix(0.2,0,0,-0.2,31.3992,258.874)">
                <path d="M1150.72,664.37L1074.01,708.661L1074.01,797.244L1150.72,841.535L1227.44,797.244L1227.44,708.661L1150.72,664.37Z" style="fill:none;stroke:black;stroke-width:5px;stroke-linecap:round;stroke-linejoin:round;stroke-miterlimit:1.5;"/>
            </g>
            <g transform="matrix(0.2,0,0,-0.2,68.2224,258.874)">
                <path d="M1150.72,664.37L1074.01,708.661L1074.01,797.244L1150.72,841.535L1227.44,797.244L1227.44,708.661L1150.72,664.37Z" style="fill:none;stroke:black;stroke-width:5px;stroke-linecap:round;stroke-linejoin:round;stroke-miterlimit:1.5;"/>
            </g>
            <g transform="matrix(0.2,0,0,-0.2,105.045,258.874)">
                <path d="M1150.72,664.37L1074.01,708.661L1074.01,797.244L1150.72,841.535L1227.44,797.244L1227.44,708.661L1150.72,664.37Z" style="fill:none;stroke:black;stroke-width:5px;stroke-linecap:round;stroke-linejoin:round;stroke-miterlimit:1.5;"/>
            </g>
            <g transform="matrix(0.2,0,0,-0.2,141.869,258.874)">
                <path d="M1150.72,664.37L1074.01,708.661L1074.01,797.244L1150.72,841.535L1227.44,797.244L1227.44,708.661L1150.72,664.37Z" style="fill:none;stroke:black;stroke-width:5px;stroke-linecap:round;stroke-linejoin:round;stroke-miterlimit:1.5;"/>
            </g>
            <g transform="matrix(0.2,0,0,-0.2,178.692,258.874)">
                <path d="M1150.72,664.37L1074.01,708.661L1074.01,797.244L1150.72,841.535L1227.44,797.244L1227.44,708.661L1150.72,664.37Z" style="fill:none;stroke:black;stroke-width:5px;stroke-linecap:round;stroke-linejoin:round;stroke-miterlimit:1.5;"/>
            </g>
            <g transform="matrix(0.2,0,0,-0.2,215.515,258.874)">
                <path d="M1150.72,664.37L1074.01,708.661L1074.01,797.244L1150.72,841.535L1227.44,797.244L1227.44,708.661L1150.72,664.37Z" style="fill:none;stroke:black;stroke-width:5px;stroke-linecap:round;stroke-linejoin:round;stroke-miterlimit:1.5;"/>
            </g>
            <g transform="matrix(0.2,0,0,-0.2,252.338,258.874)">
                <path d="M1150.72,664.37L1074.01,708.661L1074.01,797.244L1150.72,841.535L1227.44,797.244L1227.44,708.661L1150.72,664.37Z" style="fill:none;stroke:black;stroke-width:5px;stroke-linecap:round;stroke-linejoin:round;stroke-miterlimit:1.5;"/>
            </g>
            <g transform="matrix(0.2,0,0,-0.2,289.161,258.874)">
                <path d="M1150.72,664.37L1074.01,708.661L1074.01,797.244L1150.72,841.535L1227.44,797.244L1227.44,708.661L1150.72,664.37Z" style="fill:none;stroke:black;stroke-width:5px;stroke-linecap:round;stroke-linejoin:round;stroke-miterlimit:1.5;"/>
            </g>
            <g transform="matrix(0.2,0,0,-0.2,325.984,258.874)">
                <path d="M1150.72,664.37L1074.01,708.661L1074.01,797.244L1150.72,841.535L1227.44,797.244L1227.44,708.661L1150.72,664.37Z" style="fill:none;stroke:black;stroke-width:5px;stroke-linecap:round;stroke-linejoin:round;stroke-miterlimit:1.5;"/>
            </g>
            <g transform="matrix(0.2,0,0,-0.2,362.807,258.874)">
                <path d="M1150.72,664.37L1074.01,708.661L1074.01,797.244L1150.72,841.535L1227.44,797.244L1227.44,708.661L1150.72,664.37Z" style="fill:none;stroke:black;stroke-width:5px;stroke-linecap:round;stroke-linejoin:round;stroke-miterlimit:1.5;"/>
            </g>
            <g transform="matrix(0.2,0,0,-0.2,-171.128,226.984)">
                <path d="M1150.72,664.37L1074.01,708.661L1074.01,797.244L1150.72,841.535L1227.44,797.244L1227.44,708.661L1150.72,664.37Z" style="fill:none;stroke:black;stroke-width:5px;stroke-linecap:round;stroke-linejoin:round;stroke-miterlimit:1.5;"/>
            </g>
            <g transform="matrix(0.2,0,0,-0.2,-134.305,226.984)">
                <path d="M1150.72,664.37L1074.01,708.661L1074.01,797.244L1150.72,841.535L1227.44,797.244L1227.44,708.661L1150.72,664.37Z" style="fill:none;stroke:black;stroke-width:5px;stroke-linecap:round;stroke-linejoin:round;stroke-miterlimit:1.5;"/>
            </g>
            <g transform="matrix(0.2,0,0,-0.2,-97.4817,226.984)">
                <path d="M1150.72,664.37L1074.01,708.661L1074.01,797.244L1150.72,841.535L1227.44,797.244L1227.44,708.661L1150.72,664.37Z" style="fill:none;stroke:black;stroke-width:5px;stroke-linecap:round;stroke-linejoin:round;stroke-miterlimit:1.5;"/>
            </g>
            <g transform="matrix(0.2,0,0,-0.2,-60.6586,226.984)">
                <path d="M1150.72,664.37L1074.01,708.661L1074.01,797.244L1150.72,841.535L1227.44,797.244L1227.44,708.661L1150.72,664.37Z" style="fill:none;stroke:black;stroke-width:5px;stroke-linecap:round;stroke-linejoin:round;stroke-miterlimit:1.5;"/>
            </g>
            <g transform="matrix(0.2,0,0,-0.2,-23.8355,226.984)">
                <path d="M1150.72,664.37L1074.01,708.661L1074.01,797.244L1150.72,841.535L1227.44,797.244L1227.44,708.661L1150.72,664.37Z" style="fill:none;stroke:black;stroke-width:5px;stroke-linecap:round;stroke-linejoin:round;stroke-miterlimit:1.5;"/>
            </g>
            <g transform="matrix(0.2,0,0,-0.2,12.9877,226.984)">
                <path d="M1150.72,664.37L1074.01,708.661L1074.01,797.244L1150.72,841.535L1227.44,797.244L1227.44,708.661L1150.72,664.37Z" style="fill:none;stroke:black;stroke-width:5px;stroke-linecap:round;stroke-linejoin:round;stroke-miterlimit:1.5;"/>
            </g>
            <g transform="matrix(0.2,0,0,-0.2,49.8108,226.984)">
                <path d="M1150.72,664.37L1074.01,708.661L1074.01,797.244L1150.72,841.535L1227.44,797.244L1227.44,708.661L1150.72,664.37Z" style="fill:none;stroke:black;stroke-width:5px;stroke-linecap:round;stroke-linejoin:round;stroke-miterlimit:1.5;"/>
            </g>
            <g transform="matrix(0.2,0,0,-0.2,86.6339,226.984)">
                <path d="M1150.72,664.37L1074.01,708.661L1074.01,797.244L1150.72,841.535L1227.44,797.244L1227.44,708.661L1150.72,664.37Z" style="fill:none;stroke:black;stroke-width:5px;stroke-linecap:round;stroke-linejoin:round;stroke-miterlimit:1.5;"/>
            </g>
            <g transform="matrix(0.2,0,0,-0.2,123.457,226.984)">
                <path d="M1150.72,664.37L1074.01,708.661L1074.01,797.244L1150.72,841.535L1227.44,797.244L1227.44,708.661L1150.72,664.37Z" style="fill:none;stroke:black;stroke-width:5px;stroke-linecap:round;stroke-linejoin:round;stroke-miterlimit:1.5;"/>
            </g>
            <g transform="matrix(0.2,0,0,-0.2,160.28,226.984)">
                <path d="M1150.72,664.37L1074.01,708.661L1074.01,797.244L1150.72,841.535L1227.44,797.244L1227.44,708.661L1150.72,664.37Z" style="fill:none;stroke:black;stroke-width:5px;stroke-linecap:round;stroke-linejoin:round;stroke-miterlimit:1.5;"/>
            </g>
            <g transform="matrix(0.2,0,0,-0.2,197.103,226.984)">
                <path d="M1150.72,664.37L1074.01,708.661L1074.01,797.244L1150.72,841.535L1227.44,797.244L1227.44,708.661L1150.72,664.37Z" style="fill:none;stroke:black;stroke-width:5px;stroke-linecap:round;stroke-linejoin:round;stroke-miterlimit:1.5;"/>
            </g>
            <g transform="matrix(0.2,0,0,-0.2,233.926,226.984)">
                <path d="M1150.72,664.37L1074.01,708.661L1074.01,797.244L1150.72,841.535L1227.44,797.244L1227.44,708.661L1150.72,664.37Z" style="fill:none;stroke:black;stroke-width:5px;stroke-linecap:round;stroke-linejoin:round;stroke-miterlimit:1.5;"/>
            </g>
            <g transform="matrix(0.2,0,0,-0.2,270.75,226.984)">
                <path d="M1150.72,664.37L1074.01,708.661L1074.01,797.244L1150.72,841.535L1227.44,797.244L1227.44,708.661L1150.72,664.37Z" style="fill:none;stroke:black;stroke-width:5px;stroke-linecap:round;stroke-linejoin:round;stroke-miterlimit:1.5;"/>
            </g>
            <g transform="matrix(0.2,0,0,-0.2,307.573,226.984)">
                <path d="M1150.72,664.37L1074.01,708.661L1074.01,797.244L1150.72,841.535L1227.44,797.244L1227.44,708.661L1150.72,664.37Z" style="fill:none;stroke:black;stroke-width:5px;stroke-linecap:round;stroke-linejoin:round;stroke-miterlimit:1.5;"/>
            </g>
            <g transform="matrix(0.2,0,0,-0.2,344.396,226.984)">
                <path d="M1150.72,664.37L1074.01,708.661L1074.01,797.244L1150.72,841.535L1227.44,797.244L1227.44,708.661L1150.72,664.37Z" style="fill:none;stroke:black;stroke-width:5px;stroke-linecap:round;stroke-linejoin:round;stroke-miterlimit:1.5;"/>
            </g>
            <g transform="matrix(0.2,0,0,-0.2,381.219,226.984)">
                <path d="M1150.72,664.37L1074.01,708.661L1074.01,797.244L1150.72,841.535L1227.44,797.244L1227.44,708.661L1150.72,664.37Z" style="fill:none;stroke:black;stroke-width:5px;stroke-linecap:round;stroke-linejoin:round;stroke-miterlimit:1.5;"/>
            </g>
            <g transform="matrix(0.2,0,0,-0.2,-189.54,322.654)">
                <path d="M1150.72,664.37L1074.01,708.661L1074.01,797.244L1150.72,841.535L1227.44,797.244L1227.44,708.661L1150.72,664.37Z" style="fill:none;stroke:black;stroke-width:5px;stroke-linecap:round;stroke-linejoin:round;stroke-miterlimit:1.5;"/>
            </g>
            <g transform="matrix(0.2,0,0,-0.2,-152.716,322.654)">
                <path d="M1150.72,664.37L1074.01,708.661L1074.01,797.244L1150.72,841.535L1227.44,797.244L1227.44,708.661L1150.72,664.37Z" style="fill:none;stroke:black;stroke-width:5px;stroke-linecap:round;stroke-linejoin:round;stroke-miterlimit:1.5;"/>
            </g>
            <g transform="matrix(0.2,0,0,-0.2,-115.893,322.654)">
                <path d="M1150.72,664.37L1074.01,708.661L1074.01,797.244L1150.72,841.535L1227.44,797.244L1227.44,708.661L1150.72,664.37Z" style="fill:none;stroke:black;stroke-width:5px;stroke-linecap:round;stroke-linejoin:round;stroke-miterlimit:1.5;"/>
            </g>
            <g transform="matrix(0.2,0,0,-0.2,-79.0701,322.654)">
                <path d="M1150.72,664.37L1074.01,708.661L1074.01,797.244L1150.72,841.535L1227.44,797.244L1227.44,708.661L1150.72,664.37Z" style="fill:none;stroke:black;stroke-width:5px;stroke-linecap:round;stroke-linejoin:round;stroke-miterlimit:1.5;"/>
            </g>
            <g transform="matrix(0.2,0,0,-0.2,-42.247,322.654)">
                <path d="M1150.72,664.37L1074.01,708.661L1074.01,797.244L1150.72,841.535L1227.44,797.244L1227.44,708.661L1150.72,664.37Z" style="fill:none;stroke:black;stroke-width:5px;stroke-linecap:round;stroke-linejoin:round;stroke-miterlimit:1.5;"/>
            </g>
            <g transform="matrix(0.2,0,0,-0.2,-5.42389,322.654)">
                <path d="M1150.72,664.37L1074.01,708.661L1074.01,797.244L1150.72,841.535L1227.44,797.244L1227.44,708.661L1150.72,664.37Z" style="fill:none;stroke:black;stroke-width:5px;stroke-linecap:round;stroke-linejoin:round;stroke-miterlimit:1.5;"/>
            </g>
            <g transform="matrix(0.2,0,0,-0.2,31.3992,322.654)">
                <path d="M1150.72,664.37L1074.01,708.661L1074.01,797.244L1150.72,841.535L1227.44,797.244L1227.44,708.661L1150.72,664.37Z" style="fill:none;stroke:black;stroke-width:5px;stroke-linecap:round;stroke-linejoin:round;stroke-miterlimit:1.5;"/>
            </g>
            <g transform="matrix(0.2,0,0,-0.2,68.2224,322.654)">
                <path d="M1150.72,664.37L1074.01,708.661L1074.01,797.244L1150.72,841.535L1227.44,797.244L1227.44,708.661L1150.72,664.37Z" style="fill:none;stroke:black;stroke-width:5px;stroke-linecap:round;stroke-linejoin:round;stroke-miterlimit:1.5;"/>
            </g>
            <g transform="matrix(0.2,0,0,-0.2,105.045,322.654)">
                <path d="M1150.72,664.37L1074.01,708.661L1074.01,797.244L1150.72,841.535L1227.44,797.244L1227.44,708.661L1150.72,664.37Z" style="fill:none;stroke:black;stroke-width:5px;stroke-linecap:round;stroke-linejoin:round;stroke-miterlimit:1.5;"/>
            </g>
            <g transform="matrix(0.2,0,0,-0.2,141.869,322.654)">
                <path d="M1150.72,664.37L1074.01,708.661L1074.01,797.244L1150.72,841.535L1227.44,797.244L1227.44,708.661L1150.72,664.37Z" style="fill:none;stroke:black;stroke-width:5px;stroke-linecap:round;stroke-linejoin:round;stroke-miterlimit:1.5;"/>
            </g>
            <g transform="matrix(0.2,0,0,-0.2,178.692,322.654)">
                <path d="M1150.72,664.37L1074.01,708.661L1074.01,797.244L1150.72,841.535L1227.44,797.244L1227.44,708.661L1150.72,664.37Z" style="fill:none;stroke:black;stroke-width:5px;stroke-linecap:round;stroke-linejoin:round;stroke-miterlimit:1.5;"/>
            </g>
            <g transform="matrix(0.2,0,0,-0.2,215.515,322.654)">
                <path d="M1150.72,664.37L1074.01,708.661L1074.01,797.244L1150.72,841.535L1227.44,797.244L1227.44,708.661L1150.72,664.37Z" style="fill:none;stroke:black;stroke-width:5px;stroke-linecap:round;stroke-linejoin:round;stroke-miterlimit:1.5;"/>
            </g>
            <g transform="matrix(0.2,0,0,-0.2,252.338,322.654)">
                <path d="M1150.72,664.37L1074.01,708.661L1074.01,797.244L1150.72,841.535L1227.44,797.244L1227.44,708.661L1150.72,664.37Z" style="fill:none;stroke:black;stroke-width:5px;stroke-linecap:round;stroke-linejoin:round;stroke-miterlimit:1.5;"/>
            </g>
            <g transform="matrix(0.2,0,0,-0.2,289.161,322.654)">
                <path d="M1150.72,664.37L1074.01,708.661L1074.01,797.244L1150.72,841.535L1227.44,797.244L1227.44,708.661L1150.72,664.37Z" style="fill:none;stroke:black;stroke-width:5px;stroke-linecap:round;stroke-linejoin:round;stroke-miterlimit:1.5;"/>
            </g>
            <g transform="matrix(0.2,0,0,-0.2,325.984,322.654)">
                <path d="M1150.72,664.37L1074.01,708.661L1074.01,797.244L1150.72,841.535L1227.44,797.244L1227.44,708.661L1150.72,664.37Z" style="fill:none;stroke:black;stroke-width:5px;stroke-linecap:round;stroke-linejoin:round;stroke-miterlimit:1.5;"/>
            </g>
            <g transform="matrix(0.2,0,0,-0.2,362.807,322.654)">
                <path d="M1150.72,664.37L1074.01,708.661L1074.01,797.244L1150.72,841.535L1227.44,797.244L1227.44,708.661L1150.72,664.37Z" style="fill:none;stroke:black;stroke-width:5px;stroke-linecap:round;stroke-linejoin:round;stroke-miterlimit:1.5;"/>
            </g>
            <g transform="matrix(0.2,0,0,-0.2,-171.128,290.764)">
                <path d="M1150.72,664.37L1074.01,708.661L1074.01,797.244L1150.72,841.535L1227.44,797.244L1227.44,708.661L1150.72,664.37Z" style="fill:none;stroke:black;stroke-width:5px;stroke-linecap:round;stroke-linejoin:round;stroke-miterlimit:1.5;"/>
            </g>
            <g transform="matrix(0.2,0,0,-0.2,-134.305,290.764)">
                <path d="M1150.72,664.37L1074.01,708.661L1074.01,797.244L1150.72,841.535L1227.44,797.244L1227.44,708.661L1150.72,664.37Z" style="fill:none;stroke:black;stroke-width:5px;stroke-linecap:round;stroke-linejoin:round;stroke-miterlimit:1.5;"/>
            </g>
            <g transform="matrix(0.2,0,0,-0.2,-97.4817,290.764)">
                <path d="M1150.72,664.37L1074.01,708.661L1074.01,797.244L1150.72,841.535L1227.44,797.244L1227.44,708.661L1150.72,664.37Z" style="fill:none;stroke:black;stroke-width:5px;stroke-linecap:round;stroke-linejoin:round;stroke-miterlimit:1.5;"/>
            </g>
            <g transform="matrix(0.2,0,0,-0.2,-60.6586,290.764)">
                <path d="M1150.72,664.37L1074.01,708.661L1074.01,797.244L1150.72,841.535L1227.44,797.244L1227.44,708.661L1150.72,664.37Z" style="fill:none;stroke:black;stroke-width:5px;stroke-linecap:round;stroke-linejoin:round;stroke-miterlimit:1.5;"/>
            </g>
            <g transform="matrix(0.2,0,0,-0.2,-23.8355,290.764)">
                <path d="M1150.72,664.37L1074.01,708.661L1074.01,797.244L1150.72,841.535L1227.44,797.244L1227.44,708.661L1150.72,664.37Z" style="fill:none;stroke:black;stroke-width:5px;stroke-linecap:round;stroke-linejoin:round;stroke-miterlimit:1.5;"/>
            </g>
            <g transform="matrix(0.2,0,0,-0.2,12.9877,290.764)">
                <path d="M1150.72,664.37L1074.01,708.661L1074.01,797.244L1150.72,841.535L1227.44,797.244L1227.44,708.661L1150.72,664.37Z" style="fill:none;stroke:black;stroke-width:5px;stroke-linecap:round;stroke-linejoin:round;stroke-miterlimit:1.5;"/>
            </g>
            <g transform="matrix(0.2,0,0,-0.2,49.8108,290.764)">
                <path d="M1150.72,664.37L1074.01,708.661L1074.01,797.244L1150.72,841.535L1227.44,797.244L1227.44,708.661L1150.72,664.37Z" style="fill:none;stroke:black;stroke-width:5px;stroke-linecap:round;stroke-linejoin:round;stroke-miterlimit:1.5;"/>
            </g>
            <g transform="matrix(0.2,0,0,-0.2,86.6339,290.764)">
                <path d="M1150.72,664.37L1074.01,708.661L1074.01,797.244L1150.72,841.535L1227.44,797.244L1227.44,708.661L1150.72,664.37Z" style="fill:none;stroke:black;stroke-width:5px;stroke-linecap:round;stroke-linejoin:round;stroke-miterlimit:1.5;"/>
            </g>
            <g transform="matrix(0.2,0,0,-0.2,123.457,290.764)">
                <path d="M1150.72,664.37L1074.01,708.661L1074.01,797.244L1150.72,841.535L1227.44,797.244L1227.44,708.661L1150.72,664.37Z" style="fill:none;stroke:black;stroke-width:5px;stroke-linecap:round;stroke-linejoin:round;stroke-miterlimit:1.5;"/>
            </g>
            <g transform="matrix(0.2,0,0,-0.2,160.28,290.764)">
                <path d="M1150.72,664.37L1074.01,708.661L1074.01,797.244L1150.72,841.535L1227.44,797.244L1227.44,708.661L1150.72,664.37Z" style="fill:none;stroke:black;stroke-width:5px;stroke-linecap:round;stroke-linejoin:round;stroke-miterlimit:1.5;"/>
            </g>
            <g transform="matrix(0.2,0,0,-0.2,197.103,290.764)">
                <path d="M1150.72,664.37L1074.01,708.661L1074.01,797.244L1150.72,841.535L1227.44,797.244L1227.44,708.661L1150.72,664.37Z" style="fill:none;stroke:black;stroke-width:5px;stroke-linecap:round;stroke-linejoin:round;stroke-miterlimit:1.5;"/>
            </g>
            <g transform="matrix(0.2,0,0,-0.2,233.926,290.764)">
                <path d="M1150.72,664.37L1074.01,708.661L1074.01,797.244L1150.72,841.535L1227.44,797.244L1227.44,708.661L1150.72,664.37Z" style="fill:none;stroke:black;stroke-width:5px;stroke-linecap:round;stroke-linejoin:round;stroke-miterlimit:1.5;"/>
            </g>
            <g transform="matrix(0.2,0,0,-0.2,270.75,290.764)">
                <path d="M1150.72,664.37L1074.01,708.661L1074.01,797.244L1150.72,841.535L1227.44,797.244L1227.44,708.661L1150.72,664.37Z" style="fill:none;stroke:black;stroke-width:5px;stroke-linecap:round;stroke-linejoin:round;stroke-miterlimit:1.5;"/>
            </g>
            <g transform="matrix(0.2,0,0,-0.2,307.573,290.764)">
                <path d="M1150.72,664.37L1074.01,708.661L1074.01,797.244L1150.72,841.535L1227.44,797.244L1227.44,708.661L1150.72,664.37Z" style="fill:none;stroke:black;stroke-width:5px;stroke-linecap:round;stroke-linejoin:round;stroke-miterlimit:1.5;"/>
            </g>
            <g transform="matrix(0.2,0,0,-0.2,344.396,290.764)">
                <path d="M1150.72,664.37L1074.01,708.661L1074.01,797.244L1150.72,841.535L1227.44,797.244L1227.44,708.661L1150.72,664.37Z" style="fill:none;stroke:black;stroke-width:5px;stroke-linecap:round;stroke-linejoin:round;stroke-miterlimit:1.5;"/>
            </g>
            <g transform="matrix(0.2,0,0,-0.2,381.219,290.764)">
                <path d="M1150.72,664.37L1074.01,708.661L1074.01,797.244L1150.72,841.535L1227.44,797.244L1227.44,708.661L1150.72,664.37Z" style="fill:none;stroke:black;stroke-width:5px;stroke-linecap:round;stroke-linejoin:round;stroke-miterlimit:1.5;"/>
            </g>
            <g transform="matrix(0.2,0,0,-0.2,-189.54,386.433)">
                <path d="M1150.72,664.37L1074.01,708.661L1074.01,797.244L1150.72,841.535L1227.44,797.244L1227.44,708.661L1150.72,664.37Z" style="fill:none;stroke:black;stroke-width:5px;stroke-linecap:round;stroke-linejoin:round;stroke-miterlimit:1.5;"/>
            </g>
            <g transform="matrix(0.2,0,0,-0.2,-152.716,386.433)">
                <path d="M1150.72,664.37L1074.01,708.661L1074.01,797.244L1150.72,841.535L1227.44,797.244L1227.44,708.661L1150.72,664.37Z" style="fill:none;stroke:black;stroke-width:5px;stroke-linecap:round;stroke-linejoin:round;stroke-miterlimit:1.5;"/>
            </g>
            <g transform="matrix(0.2,0,0,-0.2,-115.893,386.433)">
                <path d="M1150.72,664.37L1074.01,708.661L1074.01,797.244L1150.72,841.535L1227.44,797.244L1227.44,708.661L1150.72,664.37Z" style="fill:none;stroke:black;stroke-width:5px;stroke-linecap:round;stroke-linejoin:round;stroke-miterlimit:1.5;"/>
            </g>
            <g transform="matrix(0.2,0,0,-0.2,-79.0701,386.433)">
                <path d="M1150.72,664.37L1074.01,708.661L1074.01,797.244L1150.72,841.535L1227.44,797.244L1227.44,708.661L1150.72,664.37Z" style="fill:none;stroke:black;stroke-width:5px;stroke-linecap:round;stroke-linejoin:round;stroke-miterlimit:1.5;"/>
            </g>
            <g transform="matrix(0.2,0,0,-0.2,-42.247,386.433)">
                <path d="M1150.72,664.37L1074.01,708.661L1074.01,797.244L1150.72,841.535L1227.44,797.244L1227.44,708.661L1150.72,664.37Z" style="fill:none;stroke:black;stroke-width:5px;stroke-linecap:round;stroke-linejoin:round;stroke-miterlimit:1.5;"/>
            </g>
            <g transform="matrix(0.2,0,0,-0.2,-5.42389,386.433)">
                <path d="M1150.72,664.37L1074.01,708.661L1074.01,797.244L1150.72,841.535L1227.44,797.244L1227.44,708.661L1150.72,664.37Z" style="fill:none;stroke:black;stroke-width:5px;stroke-linecap:round;stroke-linejoin:round;stroke-miterlimit:1.5;"/>
            </g>
            <g transform="matrix(0.2,0,0,-0.2,31.3992,386.433)">
                <path d="M1150.72,664.37L1074.01,708.661L1074.01,797.244L1150.72,841.535L1227.44,797.244L1227.44,708.661L1150.72,664.37Z" style="fill:none;stroke:black;stroke-width:5px;stroke-linecap:round;stroke-linejoin:round;stroke-miterlimit:1.5;"/>
            </g>
            <g transform="matrix(0.2,0,0,-0.2,68.2224,386.433)">
                <path d="M1150.72,664.37L1074.01,708.661L1074.01,797.244L1150.72,841.535L1227.44,797.244L1227.44,708.661L1150.72,664.37Z" style="fill:none;stroke:black;stroke-width:5px;stroke-linecap:round;stroke-linejoin:round;stroke-miterlimit:1.5;"/>
            </g>
            <g transform="matrix(0.2,0,0,-0.2,105.045,386.433)">
                <path d="M1150.72,664.37L1074.01,708.661L1074.01,797.244L1150.72,841.535L1227.44,797.244L1227.44,708.661L1150.72,664.37Z" style="fill:none;stroke:black;stroke-width:5px;stroke-linecap:round;stroke-linejoin:round;stroke-miterlimit:1.5;"/>
            </g>
            <g transform="matrix(0.2,0,0,-0.2,141.869,386.433)">
                <path d="M1150.72,664.37L1074.01,708.661L1074.01,797.244L1150.72,841.535L1227.44,797.244L1227.44,708.661L1150.72,664.37Z" style="fill:none;stroke:black;stroke-width:5px;stroke-linecap:round;stroke-linejoin:round;stroke-miterlimit:1.5;"/>
            </g>
            <g transform="matrix(0.2,0,0,-0.2,178.692,386.433)">
                <path d="M1150.72,664.37L1074.01,708.661L1074.01,797.244L1150.72,841.535L1227.44,797.244L1227.44,708.661L1150.72,664.37Z" style="fill:none;stroke:black;stroke-width:5px;stroke-linecap:round;stroke-linejoin:round;stroke-miterlimit:1.5;"/>
            </g>
            <g transform="matrix(0.2,0,0,-0.2,215.515,386.433)">
                <path d="M1150.72,664.37L1074.01,708.661L1074.01,797.244L1150.72,841.535L1227.44,797.244L1227.44,708.661L1150.72,664.37Z" style="fill:none;stroke:black;stroke-width:5px;stroke-linecap:round;stroke-linejoin:round;stroke-miterlimit:1.5;"/>
            </g>
            <g transform="matrix(0.2,0,0,-0.2,252.338,386.433)">
                <path d="M1150.72,664.37L1074.01,708.661L1074.01,797.244L1150.72,841.535L1227.44,797.244L1227.44,708.661L1150.72,664.37Z" style="fill:none;stroke:black;stroke-width:5px;stroke-linecap:round;stroke-linejoin:round;stroke-miterlimit:1.5;"/>
            </g>
            <g transform="matrix(0.2,0,0,-0.2,289.161,386.433)">
                <path d="M1150.72,664.37L1074.01,708.661L1074.01,797.244L1150.72,841.535L1227.44,797.244L1227.44,708.661L1150.72,664.37Z" style="fill:none;stroke:black;stroke-width:5px;stroke-linecap:round;stroke-linejoin:round;stroke-miterlimit:1.5;"/>
            </g>
            <g transform="matrix(0.2,0,0,-0.2,325.984,386.433)">
                <path d="M1150.72,664.37L1074.01,708.661L1074.01,797.244L1150.72,841.535L1227.44,797.244L1227.44,708.661L1150.72,664.37Z" style="fill:none;stroke:black;stroke-width:5px;stroke-linecap:round;stroke-linejoin:round;stroke-miterlimit:1.5;"/>
            </g>
            <g transform="matrix(0.2,0,0,-0.2,362.807,386.433)">
                <path d="M1150.72,664.37L1074.01,708.661L1074.01,797.244L1150.72,841.535L1227.44,797.244L1227.44,708.661L1150.72,664.37Z" style="fill:none;stroke:black;stroke-width:5px;stroke-linecap:round;stroke-linejoin:round;stroke-miterlimit:1.5;"/>
            </g>
            <g transform="matrix(0.2,0,0,-0.2,-171.128,354.543)">
                <path d="M1150.72,664.37L1074.01,708.661L1074.01,797.244L1150.72,841.535L1227.44,797.244L1227.44,708.661L1150.72,664.37Z" style="fill:none;stroke:black;stroke-width:5px;stroke-linecap:round;stroke-linejoin:round;stroke-miterlimit:1.5;"/>
            </g>
            <g transform="matrix(0.2,0,0,-0.2,-134.305,354.543)">
                <path d="M1150.72,664.37L1074.01,708.661L1074.01,797.244L1150.72,841.535L1227.44,797.244L1227.44,708.661L1150.72,664.37Z" style="fill:none;stroke:black;stroke-width:5px;stroke-linecap:round;stroke-linejoin:round;stroke-miterlimit:1.5;"/>
            </g>
            <g transform="matrix(0.2,0,0,-0.2,-97.4817,354.543)">
                <path d="M1150.72,664.37L1074.01,708.661L1074.01,797.244L1150.72,841.535L1227.44,797.244L1227.44,708.661L1150.72,664.37Z" style="fill:none;stroke:black;stroke-width:5px;stroke-linecap:round;stroke-linejoin:round;stroke-miterlimit:1.5;"/>
            </g>
            <g transform="matrix(0.2,0,0,-0.2,-60.6586,354.543)">
                <path d="M1150.72,664.37L1074.01,708.661L1074.01,797.244L1150.72,841.535L1227.44,797.244L1227.44,708.661L1150.72,664.37Z" style="fill:none;stroke:black;stroke-width:5px;stroke-linecap:round;stroke-linejoin:round;stroke-miterlimit:1.5;"/>
            </g>
            <g transform="matrix(0.2,0,0,-0.2,-23.8355,354.543)">
                <path d="M1150.72,664.37L1074.01,708.661L1074.01,797.244L1150.72,841.535L1227.44,797.244L1227.44,708.661L1150.72,664.37Z" style="fill:none;stroke:black;stroke-width:5px;stroke-linecap:round;stroke-linejoin:round;stroke-miterlimit:1.5;"/>
            </g>
            <g transform="matrix(0.2,0,0,-0.2,12.9877,354.543)">
                <path d="M1150.72,664.37L1074.01,708.661L1074.01,797.244L1150.72,841.535L1227.44,797.244L1227.44,708.661L1150.72,664.37Z" style="fill:none;stroke:black;stroke-width:5px;stroke-linecap:round;stroke-linejoin:round;stroke-miterlimit:1.5;"/>
            </g>
            <g transform="matrix(0.2,0,0,-0.2,49.8108,354.543)">
                <path d="M1150.72,664.37L1074.01,708.661L1074.01,797.244L1150.72,841.535L1227.44,797.244L1227.44,708.661L1150.72,664.37Z" style="fill:none;stroke:black;stroke-width:5px;stroke-linecap:round;stroke-linejoin:round;stroke-miterlimit:1.5;"/>
            </g>
            <g transform="matrix(0.2,0,0,-0.2,86.6339,354.543)">
                <path d="M1150.72,664.37L1074.01,708.661L1074.01,797.244L1150.72,841.535L1227.44,797.244L1227.44,708.661L1150.72,664.37Z" style="fill:none;stroke:black;stroke-width:5px;stroke-linecap:round;stroke-linejoin:round;stroke-miterlimit:1.5;"/>
            </g>
            <g transform="matrix(0.2,0,0,-0.2,123.457,354.543)">
                <path d="M1150.72,664.37L1074.01,708.661L1074.01,797.244L1150.72,841.535L1227.44,797.244L1227.44,708.661L1150.72,664.37Z" style="fill:none;stroke:black;stroke-width:5px;stroke-linecap:round;stroke-linejoin:round;stroke-miterlimit:1.5;"/>
            </g>
            <g transform="matrix(0.2,0,0,-0.2,160.28,354.543)">
                <path d="M1150.72,664.37L1074.01,708.661L1074.01,797.244L1150.72,841.535L1227.44,797.244L1227.44,708.661L1150.72,664.37Z" style="fill:none;stroke:black;stroke-width:5px;stroke-linecap:round;stroke-linejoin:round;stroke-miterlimit:1.5;"/>
            </g>
            <g transform="matrix(0.2,0,0,-0.2,197.103,354.543)">
                <path d="M1150.72,664.37L1074.01,708.661L1074.01,797.244L1150.72,841.535L1227.44,797.244L1227.44,708.661L1150.72,664.37Z" style="fill:none;stroke:black;stroke-width:5px;stroke-linecap:round;stroke-linejoin:round;stroke-miterlimit:1.5;"/>
            </g>
            <g transform="matrix(0.2,0,0,-0.2,233.926,354.543)">
                <path d="M1150.72,664.37L1074.01,708.661L1074.01,797.244L1150.72,841.535L1227.44,797.244L1227.44,708.661L1150.72,664.37Z" style="fill:none;stroke:black;stroke-width:5px;stroke-linecap:round;stroke-linejoin:round;stroke-miterlimit:1.5;"/>
            </g>
            <g transform="matrix(0.2,0,0,-0.2,270.75,354.543)">
                <path d="M1150.72,664.37L1074.01,708.661L1074.01,797.244L1150.72,841.535L1227.44,797.244L1227.44,708.661L1150.72,664.37Z" style="fill:none;stroke:black;stroke-width:5px;stroke-linecap:round;stroke-linejoin:round;stroke-miterlimit:1.5;"/>
            </g>
            <g transform="matrix(0.2,0,0,-0.2,307.573,354.543)">
                <path d="M1150.72,664.37L1074.01,708.661L1074.01,797.244L1150.72,841.535L1227.44,797.244L1227.44,708.661L1150.72,664.37Z" style="fill:none;stroke:black;stroke-width:5px;stroke-linecap:round;stroke-linejoin:round;stroke-miterlimit:1.5;"/>
            </g>
            <g transform="matrix(0.2,0,0,-0.2,344.396,354.543)">
                <path d="M1150.72,664.37L1074.01,708.661L1074.01,797.244L1150.72,841.535L1227.44,797.244L1227.44,708.661L1150.72,664.37Z" style="fill:none;stroke:black;stroke-width:5px;stroke-linecap:round;stroke-linejoin:round;stroke-miterlimit:1.5;"/>
            </g>
            <g transform="matrix(0.2,0,0,-0.2,381.219,354.543)">
                <path d="M1150.72,664.37L1074.01,708.661L1074.01,797.244L1150.72,841.535L1227.44,797.244L1227.44,708.661L1150.72,664.37Z" style="fill:none;stroke:black;stroke-width:5px;stroke-linecap:round;stroke-linejoin:round;stroke-miterlimit:1.5;"/>
            </g>
            <g transform="matrix(0.2,0,0,-0.2,-189.54,450.213)">
                <path d="M1150.72,664.37L1074.01,708.661L1074.01,797.244L1150.72,841.535L1227.44,797.244L1227.44,708.661L1150.72,664.37Z" style="fill:none;stroke:black;stroke-width:5px;stroke-linecap:round;stroke-linejoin:round;stroke-miterlimit:1.5;"/>
            </g>
            <g transform="matrix(0.2,0,0,-0.2,-152.716,450.213)">
                <path d="M1150.72,664.37L1074.01,708.661L1074.01,797.244L1150.72,841.535L1227.44,797.244L1227.44,708.661L1150.72,664.37Z" style="fill:none;stroke:black;stroke-width:5px;stroke-linecap:round;stroke-linejoin:round;stroke-miterlimit:1.5;"/>
            </g>
            <g transform="matrix(0.2,0,0,-0.2,-115.893,450.213)">
                <path d="M1150.72,664.37L1074.01,708.661L1074.01,797.244L1150.72,841.535L1227.44,797.244L1227.44,708.661L1150.72,664.37Z" style="fill:none;stroke:black;stroke-width:5px;stroke-linecap:round;stroke-linejoin:round;stroke-miterlimit:1.5;"/>
            </g>
            <g transform="matrix(0.2,0,0,-0.2,-79.0701,450.213)">
                <path d="M1150.72,664.37L1074.01,708.661L1074.01,797.244L1150.72,841.535L1227.44,797.244L1227.44,708.661L1150.72,664.37Z" style="fill:none;stroke:black;stroke-width:5px;stroke-linecap:round;stroke-linejoin:round;stroke-miterlimit:1.5;"/>
            </g>
            <g transform="matrix(0.2,0,0,-0.2,-42.247,450.213)">
                <path d="M1150.72,664.37L1074.01,708.661L1074.01,797.244L1150.72,841.535L1227.44,797.244L1227.44,708.661L1150.72,664.37Z" style="fill:none;stroke:black;stroke-width:5px;stroke-linecap:round;stroke-linejoin:round;stroke-miterlimit:1.5;"/>
            </g>
            <g transform="matrix(0.2,0,0,-0.2,-5.42389,450.213)">
                <path d="M1150.72,664.37L1074.01,708.661L1074.01,797.244L1150.72,841.535L1227.44,797.244L1227.44,708.661L1150.72,664.37Z" style="fill:none;stroke:black;stroke-width:5px;stroke-linecap:round;stroke-linejoin:round;stroke-miterlimit:1.5;"/>
            </g>
            <g transform="matrix(0.2,0,0,-0.2,31.3992,450.213)">
                <path d="M1150.72,664.37L1074.01,708.661L1074.01,797.244L1150.72,841.535L1227.44,797.244L1227.44,708.661L1150.72,664.37Z" style="fill:none;stroke:black;stroke-width:5px;stroke-linecap:round;stroke-linejoin:round;stroke-miterlimit:1.5;"/>
            </g>
            <g transform="matrix(0.2,0,0,-0.2,68.2224,450.213)">
                <path d="M1150.72,664.37L1074.01,708.661L1074.01,797.244L1150.72,841.535L1227.44,797.244L1227.44,708.661L1150.72,664.37Z" style="fill:none;stroke:black;stroke-width:5px;stroke-linecap:round;stroke-linejoin:round;stroke-miterlimit:1.5;"/>
            </g>
            <g transform="matrix(0.2,0,0,-0.2,105.045,450.213)">
                <path d="M1150.72,664.37L1074.01,708.661L1074.01,797.244L1150.72,841.535L1227.44,797.244L1227.44,708.661L1150.72,664.37Z" style="fill:none;stroke:black;stroke-width:5px;stroke-linecap:round;stroke-linejoin:round;stroke-miterlimit:1.5;"/>
            </g>
            <g transform="matrix(0.2,0,0,-0.2,141.869,450.213)">
                <path d="M1150.72,664.37L1074.01,708.661L1074.01,797.244L1150.72,841.535L1227.44,797.244L1227.44,708.661L1150.72,664.37Z" style="fill:none;stroke:black;stroke-width:5px;stroke-linecap:round;stroke-linejoin:round;stroke-miterlimit:1.5;"/>
            </g>
            <g transform="matrix(0.2,0,0,-0.2,178.692,450.213)">
                <path d="M1150.72,664.37L1074.01,708.661L1074.01,797.244L1150.72,841.535L1227.44,797.244L1227.44,708.661L1150.72,664.37Z" style="fill:none;stroke:black;stroke-width:5px;stroke-linecap:round;stroke-linejoin:round;stroke-miterlimit:1.5;"/>
            </g>
            <g transform="matrix(0.2,0,0,-0.2,215.515,450.213)">
                <path d="M1150.72,664.37L1074.01,708.661L1074.01,797.244L1150.72,841.535L1227.44,797.244L1227.44,708.661L1150.72,664.37Z" style="fill:none;stroke:black;stroke-width:5px;stroke-linecap:round;stroke-linejoin:round;stroke-miterlimit:1.5;"/>
            </g>
            <g transform="matrix(0.2,0,0,-0.2,252.338,450.213)">
                <path d="M1150.72,664.37L1074.01,708.661L1074.01,797.244L1150.72,841.535L1227.44,797.244L1227.44,708.661L1150.72,664.37Z" style="fill:none;stroke:black;stroke-width:5px;stroke-linecap:round;stroke-linejoin:round;stroke-miterlimit:1.5;"/>
            </g>
            <g transform="matrix(0.2,0,0,-0.2,289.161,450.213)">
                <path d="M1150.72,664.37L1074.01,708.661L1074.01,797.244L1150.72,841.535L1227.44,797.244L1227.44,708.661L1150.72,664.37Z" style="fill:none;stroke:black;stroke-width:5px;stroke-linecap:round;stroke-linejoin:round;stroke-miterlimit:1.5;"/>
            </g>
            <g transform="matrix(0.2,0,0,-0.2,325.984,450.213)">
                <path d="M1150.72,664.37L1074.01,708.661L1074.01,797.244L1150.72,841.535L1227.44,797.244L1227.44,708.661L1150.72,664.37Z" style="fill:none;stroke:black;stroke-width:5px;stroke-linecap:round;stroke-linejoin:round;stroke-miterlimit:1.5;"/>
            </g>
            <g transform="matrix(0.2,0,0,-0.2,362.807,450.213)">
                <path d="M1150.72,664.37L1074.01,708.661L1074.01,797.244L1150.72,841.535L1227.44,797.244L1227.44,708.661L1150.72,664.37Z" style="fill:none;stroke:black;stroke-width:5px;stroke-linecap:round;stroke-linejoin:round;stroke-miterlimit:1.5;"/>
            </g>
            <g transform="matrix(0.2,0,0,-0.2,-171.128,418.323)">
                <path d="M1150.72,664.37L1074.01,708.661L1074.01,797.244L1150.72,841.535L1227.44,797.244L1227.44,708.661L1150.72,664.37Z" style="fill:none;stroke:black;stroke-width:5px;stroke-linecap:round;stroke-linejoin:round;stroke-miterlimit:1.5;"/>
            </g>
            <g transform="matrix(0.2,0,0,-0.2,-134.305,418.323)">
                <path d="M1150.72,664.37L1074.01,708.661L1074.01,797.244L1150.72,841.535L1227.44,797.244L1227.44,708.661L1150.72,664.37Z" style="fill:none;stroke:black;stroke-width:5px;stroke-linecap:round;stroke-linejoin:round;stroke-miterlimit:1.5;"/>
            </g>
            <g transform="matrix(0.2,0,0,-0.2,-97.4817,418.323)">
                <path d="M1150.72,664.37L1074.01,708.661L1074.01,797.244L1150.72,841.535L1227.44,797.244L1227.44,708.661L1150.72,664.37Z" style="fill:none;stroke:black;stroke-width:5px;stroke-linecap:round;stroke-linejoin:round;stroke-miterlimit:1.5;"/>
            </g>
            <g transform="matrix(0.2,0,0,-0.2,-60.6586,418.323)">
                <path d="M1150.72,664.37L1074.01,708.661L1074.01,797.244L1150.72,841.535L1227.44,797.244L1227.44,708.661L1150.72,664.37Z" style="fill:none;stroke:black;stroke-width:5px;stroke-linecap:round;stroke-linejoin:round;stroke-miterlimit:1.5;"/>
            </g>
            <g transform="matrix(0.2,0,0,-0.2,-23.8355,418.323)">
                <path d="M1150.72,664.37L1074.01,708.661L1074.01,797.244L1150.72,841.535L1227.44,797.244L1227.44,708.661L1150.72,664.37Z" style="fill:none;stroke:black;stroke-width:5px;stroke-linecap:round;stroke-linejoin:round;stroke-miterlimit:1.5;"/>
            </g>
            <g transform="matrix(0.2,0,0,-0.2,12.9877,418.323)">
                <path d="M1150.72,664.37L1074.01,708.661L1074.01,797.244L1150.72,841.535L1227.44,797.244L1227.44,708.661L1150.72,664.37Z" style="fill:none;stroke:black;stroke-width:5px;stroke-linecap:round;stroke-linejoin:round;stroke-miterlimit:1.5;"/>
            </g>
            <g transform="matrix(0.2,0,0,-0.2,49.8108,418.323)">
                <path d="M1150.72,664.37L1074.01,708.661L1074.01,797.244L1150.72,841.535L1227.44,797.244L1227.44,708.661L1150.72,664.37Z" style="fill:none;stroke:black;stroke-width:5px;stroke-linecap:round;stroke-linejoin:round;stroke-miterlimit:1.5;"/>
            </g>
            <g transform="matrix(0.2,0,0,-0.2,86.6339,418.323)">
                <path d="M1150.72,664.37L1074.01,708.661L1074.01,797.244L1150.72,841.535L1227.44,797.244L1227.44,708.661L1150.72,664.37Z" style="fill:none;stroke:black;stroke-width:5px;stroke-linecap:round;stroke-linejoin:round;stroke-miterlimit:1.5;"/>
            </g>
            <g transform="matrix(0.2,0,0,-0.2,123.457,418.323)">
                <path d="M1150.72,664.37L1074.01,708.661L1074.01,797.244L1150.72,841.535L1227.44,797.244L1227.44,708.661L1150.72,664.37Z" style="fill:none;stroke:black;stroke-width:5px;stroke-linecap:round;stroke-linejoin:round;stroke-miterlimit:1.5;"/>
            </g>
            <g transform="matrix(0.2,0,0,-0.2,160.28,418.323)">
                <path d="M1150.72,664.37L1074.01,708.661L1074.01,797.244L1150.72,841.535L1227.44,797.244L1227.44,708.661L1150.72,664.37Z" style="fill:none;stroke:black;stroke-width:5px;stroke-linecap:round;stroke-linejoin:round;stroke-miterlimit:1.5;"/>
            </g>
            <g transform="matrix(0.2,0,0,-0.2,197.103,418.323)">
                <path d="M1150.72,664.37L1074.01,708.661L1074.01,797.244L1150.72,841.535L1227.44,797.244L1227.44,708.661L1150.72,664.37Z" style="fill:none;stroke:black;stroke-width:5px;stroke-linecap:round;stroke-linejoin:round;stroke-miterlimit:1.5;"/>
            </g>
            <g transform="matrix(0.2,0,0,-0.2,233.926,418.323)">
                <path d="M1150.72,664.37L1074.01,708.661L1074.01,797.244L1150.72,841.535L1227.44,797.244L1227.44,708.661L1150.72,664.37Z" style="fill:none;stroke:black;stroke-width:5px;stroke-linecap:round;stroke-linejoin:round;stroke-miterlimit:1.5;"/>
            </g>
            <g transform="matrix(0.2,0,0,-0.2,270.75,418.323)">
                <path d="M1150.72,664.37L1074.01,708.661L1074.01,797.244L1150.72,841.535L1227.44,797.244L1227.44,708.661L1150.72,664.37Z" style="fill:none;stroke:black;stroke-width:5px;stroke-linecap:round;stroke-linejoin:round;stroke-miterlimit:1.5;"/>
            </g>
            <g transform="matrix(0.2,0,0,-0.2,307.573,418.323)">
                <path d="M1150.72,664.37L1074.01,708.661L1074.01,797.244L1150.72,841.535L1227.44,797.244L1227.44,708.661L1150.72,664.37Z" style="fill:none;stroke:black;stroke-width:5px;stroke-linecap:round;stroke-linejoin:round;stroke-miterlimit:1.5;"/>
            </g>
            <g transform="matrix(0.2,0,0,-0.2,344.396,418.323)">
                <path d="M1150.72,664.37L1074.01,708.661L1074.01,797.244L1150.72,841.535L1227.44,797.244L1227.44,708.661L1150.72,664.37Z" style="fill:none;stroke:black;stroke-width:5px;stroke-linecap:round;stroke-linejoin:round;stroke-miterlimit:1.5;"/>
            </g>
            <g transform="matrix(0.2,0,0,-0.2,381.219,418.323)">
                <path d="M1150.72,664.37L1074.01,708.661L1074.01,797.244L1150.72,841.535L1227.44,797.244L1227.44,708.661L1150.72,664.37Z" style="fill:none;stroke:black;stroke-width:5px;stroke-linecap:round;stroke-linejoin:round;stroke-miterlimit:1.5;"/>
            </g>
            <g transform="matrix(0.2,0,0,-0.2,-189.54,513.992)">
                <path d="M1150.72,664.37L1074.01,708.661L1074.01,797.244L1150.72,841.535L1227.44,797.244L1227.44,708.661L1150.72,664.37Z" style="fill:none;stroke:black;stroke-width:5px;stroke-linecap:round;stroke-linejoin:round;stroke-miterlimit:1.5;"/>
            </g>
            <g transform="matrix(0.2,0,0,-0.2,-152.716,513.992)">
                <path d="M1150.72,664.37L1074.01,708.661L1074.01,797.244L1150.72,841.535L1227.44,797.244L1227.44,708.661L1150.72,664.37Z" style="fill:none;stroke:black;stroke-width:5px;stroke-linecap:round;stroke-linejoin:round;stroke-miterlimit:1.5;"/>
            </g>
            <g transform="matrix(0.2,0,0,-0.2,-115.893,513.992)">
                <path d="M1150.72,664.37L1074.01,708.661L1074.01,797.244L1150.72,841.535L1227.44,797.244L1227.44,708.661L1150.72,664.37Z" style="fill:none;stroke:black;stroke-width:5px;stroke-linecap:round;stroke-linejoin:round;stroke-miterlimit:1.5;"/>
            </g>
            <g transform="matrix(0.2,0,0,-0.2,-79.0701,513.992)">
                <path d="M1150.72,664.37L1074.01,708.661L1074.01,797.244L1150.72,841.535L1227.44,797.244L1227.44,708.661L1150.72,664.37Z" style="fill:none;stroke:black;stroke-width:5px;stroke-linecap:round;stroke-linejoin:round;stroke-miterlimit:1.5;"/>
            </g>
            <g transform="matrix(0.2,0,0,-0.2,-42.247,513.992)">
                <path d="M1150.72,664.37L1074.01,708.661L1074.01,797.244L1150.72,841.535L1227.44,797.244L1227.44,708.661L1150.72,664.37Z" style="fill:none;stroke:black;stroke-width:5px;stroke-linecap:round;stroke-linejoin:round;stroke-miterlimit:1.5;"/>
            </g>
            <g transform="matrix(0.2,0,0,-0.2,-5.42389,513.992)">
                <path d="M1150.72,664.37L1074.01,708.661L1074.01,797.244L1150.72,841.535L1227.44,797.244L1227.44,708.661L1150.72,664.37Z" style="fill:none;stroke:black;stroke-width:5px;stroke-linecap:round;stroke-linejoin:round;stroke-miterlimit:1.5;"/>
            </g>
            <g transform="matrix(0.2,0,0,-0.2,31.3992,513.992)">
                <path d="M1150.72,664.37L1074.01,708.661L1074.01,797.244L1150.72,841.535L1227.44,797.244L1227.44,708.661L1150.72,664.37Z" style="fill:none;stroke:black;stroke-width:5px;stroke-linecap:round;stroke-linejoin:round;stroke-miterlimit:1.5;"/>
            </g>
            <g transform="matrix(0.2,0,0,-0.2,68.2224,513.992)">
                <path d="M1150.72,664.37L1074.01,708.661L1074.01,797.244L1150.72,841.535L1227.44,797.244L1227.44,708.661L1150.72,664.37Z" style="fill:none;stroke:black;stroke-width:5px;stroke-linecap:round;stroke-linejoin:round;stroke-miterlimit:1.5;"/>
            </g>
            <g transform="matrix(0.2,0,0,-0.2,105.045,513.992)">
                <path d="M1150.72,664.37L1074.01,708.661L1074.01,797.244L1150.72,841.535L1227.44,797.244L1227.44,708.661L1150.72,664.37Z" style="fill:none;stroke:black;stroke-width:5px;stroke-linecap:round;stroke-linejoin:round;stroke-miterlimit:1.5;"/>
            </g>
            <g transform="matrix(0.2,0,0,-0.2,141.869,513.992)">
                <path d="M1150.72,664.37L1074.01,708.661L1074.01,797.244L1150.72,841.535L1227.44,797.244L1227.44,708.661L1150.72,664.37Z" style="fill:none;stroke:black;stroke-width:5px;stroke-linecap:round;stroke-linejoin:round;stroke-miterlimit:1.5;"/>
            </g>
            <g transform="matrix(0.2,0,0,-0.2,178.692,513.992)">
                <path d="M1150.72,664.37L1074.01,708.661L1074.01,797.244L1150.72,841.535L1227.44,797.244L1227.44,708.661L1150.72,664.37Z" style="fill:none;stroke:black;stroke-width:5px;stroke-linecap:round;stroke-linejoin:round;stroke-miterlimit:1.5;"/>
            </g>
            <g transform="matrix(0.2,0,0,-0.2,215.515,513.992)">
                <path d="M1150.72,664.37L1074.01,708.661L1074.01,797.244L1150.72,841.535L1227.44,797.244L1227.44,708.661L1150.72,664.37Z" style="fill:none;stroke:black;stroke-width:5px;stroke-linecap:round;stroke-linejoin:round;stroke-miterlimit:1.5;"/>
            </g>
            <g transform="matrix(0.2,0,0,-0.2,252.338,513.992)">
                <path d="M1150.72,664.37L1074.01,708.661L1074.01,797.244L1150.72,841.535L1227.44,797.244L1227.44,708.661L1150.72,664.37Z" style="fill:none;stroke:black;stroke-width:5px;stroke-linecap:round;stroke-linejoin:round;stroke-miterlimit:1.5;"/>
            </g>
            <g transform="matrix(0.2,0,0,-0.2,289.161,513.992)">
                <path d="M1150.72,664.37L1074.01,708.661L1074.01,797.244L1150.72,841.535L1227.44,797.244L1227.44,708.661L1150.72,664.37Z" style="fill:none;stroke:black;stroke-width:5px;stroke-linecap:round;stroke-linejoin:round;stroke-miterlimit:1.5;"/>
            </g>
            <g transform="matrix(0.2,0,0,-0.2,325.984,513.992)">
                <path d="M1150.72,664.37L1074.01,708.661L1074.01,797.244L1150.72,841.535L1227.44,797.244L1227.44,708.661L1150.72,664.37Z" style="fill:none;stroke:black;stroke-width:5px;stroke-linecap:round;stroke-linejoin:round;stroke-miterlimit:1.5;"/>
            </g>
            <g transform="matrix(0.2,0,0,-0.2,362.807,513.992)">
                <path d="M1150.72,664.37L1074.01,708.661L1074.01,797.244L1150.72,841.535L1227.44,797.244L1227.44,708.661L1150.72,664.37Z" style="fill:none;stroke:black;stroke-width:5px;stroke-linecap:round;stroke-linejoin:round;stroke-miterlimit:1.5;"/>
            </g>
            <g transform="matrix(0.2,0,0,-0.2,-171.128,482.102)">
                <path d="M1150.72,664.37L1074.01,708.661L1074.01,797.244L1150.72,841.535L1227.44,797.244L1227.44,708.661L1150.72,664.37Z" style="fill:none;stroke:black;stroke-width:5px;stroke-linecap:round;stroke-linejoin:round;stroke-miterlimit:1.5;"/>
            </g>
            <g transform="matrix(0.2,0,0,-0.2,-134.305,482.102)">
                <path d="M1150.72,664.37L1074.01,708.661L1074.01,797.244L1150.72,841.535L1227.44,797.244L1227.44,708.661L1150.72,664.37Z" style="fill:none;stroke:black;stroke-width:5px;stroke-linecap:round;stroke-linejoin:round;stroke-miterlimit:1.5;"/>
            </g>
            <g transform="matrix(0.2,0,0,-0.2,-97.4817,482.102)">
                <path d="M1150.72,664.37L1074.01,708.661L1074.01,797.244L1150.72,841.535L1227.44,797.244L1227.44,708.661L1150.72,664.37Z" style="fill:none;stroke:black;stroke-width:5px;stroke-linecap:round;stroke-linejoin:round;stroke-miterlimit:1.5;"/>
            </g>
            <g transform="matrix(0.2,0,0,-0.2,-60.6586,482.102)">
                <path d="M1150.72,664.37L1074.01,708.661L1074.01,797.244L1150.72,841.535L1227.44,797.244L1227.44,708.661L1150.72,664.37Z" style="fill:none;stroke:black;stroke-width:5px;stroke-linecap:round;stroke-linejoin:round;stroke-miterlimit:1.5;"/>
            </g>
            <g transform="matrix(0.2,0,0,-0.2,-23.8355,482.102)">
                <path d="M1150.72,664.37L1074.01,708.661L1074.01,797.244L1150.72,841.535L1227.44,797.244L1227.44,708.661L1150.72,664.37Z" style="fill:none;stroke:black;stroke-width:5px;stroke-linecap:round;stroke-linejoin:round;stroke-miterlimit:1.5;"/>
            </g>
            <g transform="matrix(0.2,0,0,-0.2,12.9877,482.102)">
                <path d="M1150.72,664.37L1074.01,708.661L1074.01,797.244L1150.72,841.535L1227.44,797.244L1227.44,708.661L1150.72,664.37Z" style="fill:none;stroke:black;stroke-width:5px;stroke-linecap:round;stroke-linejoin:round;stroke-miterlimit:1.5;"/>
            </g>
            <g transform="matrix(0.2,0,0,-0.2,49.8108,482.102)">
                <path d="M1150.72,664.37L1074.01,708.661L1074.01,797.244L1150.72,841.535L1227.44,797.244L1227.44,708.661L1150.72,664.37Z" style="fill:none;stroke:black;stroke-width:5px;stroke-linecap:round;stroke-linejoin:round;stroke-miterlimit:1.5;"/>
            </g>
            <g transform="matrix(0.2,0,0,-0.2,86.6339,482.102)">
                <path d="M1150.72,664.37L1074.01,708.661L1074.01,797.244L1150.72,841.535L1227.44,797.244L1227.44,708.661L1150.72,664.37Z" style="fill:none;stroke:black;stroke-width:5px;stroke-linecap:round;stroke-linejoin:round;stroke-miterlimit:1.5;"/>
            </g>
            <g transform="matrix(0.2,0,0,-0.2,123.457,482.102)">
                <path d="M1150.72,664.37L1074.01,708.661L1074.01,797.244L1150.72,841.535L1227.44,797.244L1227.44,708.661L1150.72,664.37Z" style="fill:none;stroke:black;stroke-width:5px;stroke-linecap:round;stroke-linejoin:round;stroke-miterlimit:1.5;"/>
            </g>
            <g transform="matrix(0.2,0,0,-0.2,160.28,482.102)">
                <path d="M1150.72,664.37L1074.01,708.661L1074.01,797.244L1150.72,841.535L1227.44,797.244L1227.44,708.661L1150.72,664.37Z" style="fill:none;stroke:black;stroke-width:5px;stroke-linecap:round;stroke-linejoin:round;stroke-miterlimit:1.5;"/>
            </g>
            <g transform="matrix(0.2,0,0,-0.2,197.103,482.102)">
                <path d="M1150.72,664.37L1074.01,708.661L1074.01,797.244L1150.72,841.535L1227.44,797.244L1227.44,708.661L1150.72,664.37Z" style="fill:none;stroke:black;stroke-width:5px;stroke-linecap:round;stroke-linejoin:round;stroke-miterlimit:1.5;"/>
            </g>
            <g transform="matrix(0.2,0,0,-0.2,233.926,482.102)">
                <path d="M1150.72,664.37L1074.01,708.661L1074.01,797.244L1150.72,841.535L1227.44,797.244L1227.44,708.661L1150.72,664.37Z" style="fill:none;stroke:black;stroke-width:5px;stroke-linecap:round;stroke-linejoin:round;stroke-miterlimit:1.5;"/>
            </g>
            <g transform="matrix(0.2,0,0,-0.2,270.75,482.102)">
                <path d="M1150.72,664.37L1074.01,708.661L1074.01,797.244L1150.72,841.535L1227.44,797.244L1227.44,708.661L1150.72,664.37Z" style="fill:none;stroke:black;stroke-width:5px;stroke-linecap:round;stroke-linejoin:round;stroke-miterlimit:1.5;"/>
            </g>
            <g transform="matrix(0.2,0,0,-0.2,307.573,482.102)">
                <path d="M1150.72,664.37L1074.01,708.661L1074.01,797.244L1150.72,841.535L1227.44,797.244L1227.44,708.661L1150.72,664.37Z" style="fill:none;stroke:black;stroke-width:5px;stroke-linecap:round;stroke-linejoin:round;stroke-miterlimit:1.5;"/>
            </g>
            <g transform="matrix(0.2,0,0,-0.2,344.396,482.102)">
                <path d="M1150.72,664.37L1074.01,708.661L1074.01,797.244L1150.72,841.535L1227.44,797.244L1227.44,708.661L1150.72,664.37Z" style="fill:none;stroke:black;stroke-width:5px;stroke-linecap:round;stroke-linejoin:round;stroke-miterlimit:1.5;"/>
            </g>
            <g transform="matrix(0.2,0,0,-0.2,381.219,482.102)">
                <path d="M1150.72,664.37L1074.01,708.661L1074.01,797.244L1150.72,841.535L1227.44,797.244L1227.44,708.661L1150.72,664.37Z" style="fill:none;stroke:black;stroke-width:5px;stroke-linecap:round;stroke-linejoin:round;stroke-miterlimit:1.5;"/>
            </g>
            <g transform="matrix(0.2,0,0,-0.2,-171.128,545.882)">
                <path d="M1150.72,664.37L1074.01,708.661L1074.01,797.244L1150.72,841.535L1227.44,797.244L1227.44,708.661L1150.72,664.37Z" style="fill:none;stroke:black;stroke-width:5px;stroke-linecap:round;stroke-linejoin:round;stroke-miterlimit:1.5;"/>
            </g>
            <g transform="matrix(0.2,0,0,-0.2,-134.305,545.882)">
                <path d="M1150.72,664.37L1074.01,708.661L1074.01,797.244L1150.72,841.535L1227.44,797.244L1227.44,708.661L1150.72,664.37Z" style="fill:none;stroke:black;stroke-width:5px;stroke-linecap:round;stroke-linejoin:round;stroke-miterlimit:1.5;"/>
            </g>
            <g transform="matrix(0.2,0,0,-0.2,-97.4817,545.882)">
                <path d="M1150.72,664.37L1074.01,708.661L1074.01,797.244L1150.72,841.535L1227.44,797.244L1227.44,708.661L1150.72,664.37Z" style="fill:none;stroke:black;stroke-width:5px;stroke-linecap:round;stroke-linejoin:round;stroke-miterlimit:1.5;"/>
            </g>
            <g transform="matrix(0.2,0,0,-0.2,-60.6586,545.882)">
                <path d="M1150.72,664.37L1074.01,708.661L1074.01,797.244L1150.72,841.535L1227.44,797.244L1227.44,708.661L1150.72,664.37Z" style="fill:none;stroke:black;stroke-width:5px;stroke-linecap:round;stroke-linejoin:round;stroke-miterlimit:1.5;"/>
            </g>
            <g transform="matrix(0.2,0,0,-0.2,-23.8355,545.882)">
                <path d="M1150.72,664.37L1074.01,708.661L1074.01,797.244L1150.72,841.535L1227.44,797.244L1227.44,708.661L1150.72,664.37Z" style="fill:none;stroke:black;stroke-width:5px;stroke-linecap:round;stroke-linejoin:round;stroke-miterlimit:1.5;"/>
            </g>
            <g transform="matrix(0.2,0,0,-0.2,12.9877,545.882)">
                <path d="M1150.72,664.37L1074.01,708.661L1074.01,797.244L1150.72,841.535L1227.44,797.244L1227.44,708.661L1150.72,664.37Z" style="fill:none;stroke:black;stroke-width:5px;stroke-linecap:round;stroke-linejoin:round;stroke-miterlimit:1.5;"/>
            </g>
            <g transform="matrix(0.2,0,0,-0.2,49.8108,545.882)">
                <path d="M1150.72,664.37L1074.01,708.661L1074.01,797.244L1150.72,841.535L1227.44,797.244L1227.44,708.661L1150.72,664.37Z" style="fill:none;stroke:black;stroke-width:5px;stroke-linecap:round;stroke-linejoin:round;stroke-miterlimit:1.5;"/>
            </g>
            <g transform="matrix(0.2,0,0,-0.2,86.6339,545.882)">
                <path d="M1150.72,664.37L1074.01,708.661L1074.01,797.244L1150.72,841.535L1227.44,797.244L1227.44,708.661L1150.72,664.37Z" style="fill:none;stroke:black;stroke-width:5px;stroke-linecap:round;stroke-linejoin:round;stroke-miterlimit:1.5;"/>
            </g>
            <g transform="matrix(0.2,0,0,-0.2,123.457,545.882)">
                <path d="M1150.72,664.37L1074.01,708.661L1074.01,797.244L1150.72,841.535L1227.44,797.244L1227.44,708.661L1150.72,664.37Z" style="fill:none;stroke:black;stroke-width:5px;stroke-linecap:round;stroke-linejoin:round;stroke-miterlimit:1.5;"/>
            </g>
            <g transform="matrix(0.2,0,0,-0.2,160.28,545.882)">
                <path d="M1150.72,664.37L1074.01,708.661L1074.01,797.244L1150.72,841.535L1227.44,797.244L1227.44,708.661L1150.72,664.37Z" style="fill:none;stroke:black;stroke-width:5px;stroke-linecap:round;stroke-linejoin:round;stroke-miterlimit:1.5;"/>
            </g>
            <g transform="matrix(0.2,0,0,-0.2,197.103,545.882)">
                <path d="M1150.72,664.37L1074.01,708.661L1074.01,797.244L1150.72,841.535L1227.44,797.244L1227.44,708.661L1150.72,664.37Z" style="fill:none;stroke:black;stroke-width:5px;stroke-linecap:round;stroke-linejoin:round;stroke-miterlimit:1.5;"/>
            </g>
            <g transform="matrix(0.2,0,0,-0.2,233.926,545.882)">
                <path d="M1150.72,664.37L1074.01,708.661L1074.01,797.244L1150.72,841.535L1227.44,797.244L1227.44,708.661L1150.72,664.37Z" style="fill:none;stroke:black;stroke-width:5px;stroke-linecap:round;stroke-linejoin:round;stroke-miterlimit:1.5;"/>
            </g>
            <g transform="matrix(0.2,0,0,-0.2,270.75,545.882)">
                <path d="M1150.72,664.37L1074.01,708.661L1074.01,797.244L1150.72,841.535L1227.44,797.244L1227.44,708.661L1150.72,664.37Z" style="fill:none;stroke:black;stroke-width:5px;stroke-linecap:round;stroke-linejoin:round;stroke-miterlimit:1.5;"/>
            </g>
            <g transform="matrix(0.2,0,0,-0.2,307.573,545.882)">
                <path d="M1150.72,664.37L1074.01,708.661L1074.01,797.244L1150.72,841.535L1227.44,797.244L1227.44,708.661L1150.72,664.37Z" style="fill:none;stroke:black;stroke-width:5px;stroke-linecap:round;stroke-linejoin:round;stroke-miterlimit:1.5;"/>
            </g>
            <g transform="matrix(0.2,0,0,-0.2,344.396,545.882)">
                <path d="M1150.72,664.37L1074.01,708.661L1074.01,797.244L1150.72,841.535L1227.44,797.244L1227.44,708.661L1150.72,664.37Z" style="fill:none;stroke:black;stroke-width:5px;stroke-linecap:round;stroke-linejoin:round;stroke-miterlimit:1.5;"/>
            </g>
            <g transform="matrix(0.2,0,0,-0.2,381.219,545.882)">
                <path d="M1150.72,664.37L1074.01,708.661L1074.01,797.244L1150.72,841.535L1227.44,797.244L1227.44,708.661L1150.72,664.37Z" style="fill:none;stroke:black;stroke-width:5px;stroke-linecap:round;stroke-linejoin:round;stroke-miterlimit:1.5;"/>
            </g>
        </g>
    </g>
</svg>
