<?xml version="1.0" encoding="UTF-8" standalone="no"?>
<!DOCTYPE svg PUBLIC "-//W3C//DTD SVG 1.1//EN" "http://www.w3.org/Graphics/SVG/1.1/DTD/svg11.dtd">
<svg width="100%" height="100%" viewBox="0 0 666 110" version="1.1" xmlns="http://www.w3.org/2000/svg" xmlns:xlink="http://www.w3.org/1999/xlink" xml:space="preserve" xmlns:serif="http://www.serif.com/" style="fill-rule:evenodd;clip-rule:evenodd;">
    <g transform="matrix(1,0,0,-1,6.51969,102.898)">
        <path id="Sketch003_w0000" d="M0,0L651.969,0L651.969,96.378L0,96.378L0,0" style="fill:none;stroke:black;stroke-width:0.99px;"/>
        <circle cx="11.339" cy="48.189" r="5.102" style="fill:none;stroke:black;stroke-width:0.99px;"/>
        <circle cx="640.63" cy="48.189" r="5.102" style="fill:none;stroke:black;stroke-width:0.99px;"/>
    </g>
    <g transform="matrix(1,0,0,1,9.0961,0)">
        <g transform="matrix(1.30509e-17,0.213138,-0.213138,1.30509e-17,679.796,-127.211)">
            <path d="M754.363,450.295L754.363,524.114L690.434,561.024L690.434,575.787L703.219,583.169L767.148,546.26L831.078,583.169L843.863,575.787L843.863,561.024L779.995,524.149L779.934,450.295L767.148,442.913L754.363,450.295Z" style="fill:none;stroke:black;stroke-width:4.69px;stroke-linecap:round;stroke-linejoin:round;stroke-miterlimit:1.5;"/>
        </g>
        <g transform="matrix(1.30509e-17,0.213138,-0.213138,1.30509e-17,679.796,-90.3883)">
            <path d="M754.363,450.295L754.363,524.114L690.434,561.024L690.434,575.787L703.219,583.169L767.148,546.26L831.078,583.169L843.863,575.787L843.863,561.024L779.995,524.149L779.934,450.295L767.148,442.913L754.363,450.295Z" style="fill:none;stroke:black;stroke-width:4.69px;stroke-linecap:round;stroke-linejoin:round;stroke-miterlimit:1.5;"/>
        </g>
        <g transform="matrix(1.30509e-17,0.213138,-0.213138,1.30509e-17,647.907,-108.8)">
            <path d="M754.363,450.295L754.363,524.114L690.434,561.024L690.434,575.787L703.219,583.169L767.148,546.26L831.078,583.169L843.863,575.787L843.863,561.024L779.995,524.149L779.934,450.295L767.148,442.913L754.363,450.295Z" style="fill:none;stroke:black;stroke-width:4.69px;stroke-linecap:round;stroke-linejoin:round;stroke-miterlimit:1.5;"/>
        </g>
        <g transform="matrix(1.30509e-17,0.213138,-0.213138,1.30509e-17,297.119,-127.211)">
            <path d="M754.363,450.295L754.363,524.114L690.434,561.024L690.434,575.787L703.219,583.169L767.148,546.26L831.078,583.169L843.863,575.787L843.863,561.024L779.995,524.149L779.934,450.295L767.148,442.913L754.363,450.295Z" style="fill:none;stroke:black;stroke-width:4.69px;stroke-linecap:round;stroke-linejoin:round;stroke-miterlimit:1.5;"/>
        </g>
        <g transform="matrix(1.30509e-17,0.213138,-0.213138,1.30509e-17,297.119,-90.3883)">
            <path d="M754.363,450.295L754.363,524.114L690.434,561.024L690.434,575.787L703.219,583.169L767.148,546.26L831.078,583.169L843.863,575.787L843.863,561.024L779.995,524.149L779.934,450.295L767.148,442.913L754.363,450.295Z" style="fill:none;stroke:black;stroke-width:4.69px;stroke-linecap:round;stroke-linejoin:round;stroke-miterlimit:1.5;"/>
        </g>
        <g transform="matrix(1.30509e-17,0.213138,-0.213138,1.30509e-17,265.23,-108.8)">
            <path d="M754.363,450.295L754.363,524.114L690.434,561.024L690.434,575.787L703.219,583.169L767.148,546.26L831.078,583.169L843.863,575.787L843.863,561.024L779.995,524.149L779.934,450.295L767.148,442.913L754.363,450.295Z" style="fill:none;stroke:black;stroke-width:4.69px;stroke-linecap:round;stroke-linejoin:round;stroke-miterlimit:1.5;"/>
        </g>
        <g transform="matrix(1.30509e-17,0.213138,-0.213138,1.30509e-17,201.45,-145.623)">
            <path d="M754.363,450.295L754.363,538.878L831.078,583.169L843.863,575.787L843.863,561.024L779.995,524.149L779.934,450.295L767.148,442.913L754.363,450.295Z" style="fill:none;stroke:black;stroke-width:4.69px;stroke-linecap:round;stroke-linejoin:round;stroke-miterlimit:1.5;"/>
        </g>
        <g transform="matrix(1.30509e-17,0.213138,-0.213138,1.30509e-17,169.56,-127.211)">
            <path d="M754.363,450.295L754.363,538.878L831.078,583.169L843.863,575.787L843.863,561.024L779.995,524.149L779.934,450.295L767.148,442.913L754.363,450.295Z" style="fill:none;stroke:black;stroke-width:4.69px;stroke-linecap:round;stroke-linejoin:round;stroke-miterlimit:1.5;"/>
        </g>
        <g transform="matrix(1.30509e-17,0.213138,-0.213138,1.30509e-17,265.23,-145.623)">
            <path d="M754.363,450.295L754.363,538.878L831.078,583.169L843.863,575.787L843.863,561.024L779.995,524.149L779.934,450.295L767.148,442.913L754.363,450.295Z" style="fill:none;stroke:black;stroke-width:4.69px;stroke-linecap:round;stroke-linejoin:round;stroke-miterlimit:1.5;"/>
        </g>
        <g transform="matrix(1.30509e-17,0.213138,-0.213138,1.30509e-17,329.009,-145.623)">
            <path d="M754.363,450.295L754.363,538.878L831.078,583.169L843.863,575.787L843.863,561.024L779.995,524.149L779.934,450.295L767.148,442.913L754.363,450.295Z" style="fill:none;stroke:black;stroke-width:4.69px;stroke-linecap:round;stroke-linejoin:round;stroke-miterlimit:1.5;"/>
        </g>
        <g transform="matrix(1.30509e-17,0.213138,-0.213138,1.30509e-17,392.789,-145.623)">
            <path d="M754.363,450.295L754.363,538.878L831.078,583.169L843.863,575.787L843.863,561.024L779.995,524.149L779.934,450.295L767.148,442.913L754.363,450.295Z" style="fill:none;stroke:black;stroke-width:4.69px;stroke-linecap:round;stroke-linejoin:round;stroke-miterlimit:1.5;"/>
        </g>
        <g transform="matrix(1.30509e-17,0.213138,-0.213138,1.30509e-17,456.568,-145.623)">
            <path d="M754.363,450.295L754.363,538.878L831.078,583.169L843.863,575.787L843.863,561.024L779.995,524.149L779.934,450.295L767.148,442.913L754.363,450.295Z" style="fill:none;stroke:black;stroke-width:4.69px;stroke-linecap:round;stroke-linejoin:round;stroke-miterlimit:1.5;"/>
        </g>
        <g transform="matrix(1.30509e-17,0.213138,-0.213138,1.30509e-17,520.348,-145.623)">
            <path d="M754.363,450.295L754.363,538.878L831.078,583.169L843.863,575.787L843.863,561.024L779.995,524.149L779.934,450.295L767.148,442.913L754.363,450.295Z" style="fill:none;stroke:black;stroke-width:4.69px;stroke-linecap:round;stroke-linejoin:round;stroke-miterlimit:1.5;"/>
        </g>
        <g transform="matrix(1.30509e-17,0.213138,-0.213138,1.30509e-17,584.127,-145.623)">
            <path d="M754.363,450.295L754.363,538.878L831.078,583.169L843.863,575.787L843.863,561.024L779.995,524.149L779.934,450.295L767.148,442.913L754.363,450.295Z" style="fill:none;stroke:black;stroke-width:4.69px;stroke-linecap:round;stroke-linejoin:round;stroke-miterlimit:1.5;"/>
        </g>
        <g transform="matrix(1.30509e-17,0.213138,-0.213138,1.30509e-17,647.907,-145.623)">
            <path d="M754.363,450.295L754.363,538.878L831.078,583.169L843.863,575.787L843.863,561.024L779.995,524.149L779.934,450.295L767.148,442.913L754.363,450.295Z" style="fill:none;stroke:black;stroke-width:4.69px;stroke-linecap:round;stroke-linejoin:round;stroke-miterlimit:1.5;"/>
        </g>
        <g transform="matrix(-0.184583,-0.106569,0.106569,-0.184583,683.366,234.568)">
            <path d="M754.363,450.295L754.363,538.878L831.078,583.169L843.863,575.787L843.863,561.024L779.995,524.149L779.934,450.295L767.148,442.913L754.363,450.295Z" style="fill:none;stroke:black;stroke-width:4.69px;stroke-linecap:round;stroke-linejoin:round;stroke-miterlimit:1.5;"/>
        </g>
        <g transform="matrix(1.30509e-17,-0.213138,-0.213138,-1.30509e-17,647.907,255.04)">
            <path d="M754.363,450.295L754.363,538.878L831.078,583.169L843.863,575.787L843.863,561.024L779.995,524.149L779.934,450.295L767.148,442.913L754.363,450.295Z" style="fill:none;stroke:black;stroke-width:4.69px;stroke-linecap:round;stroke-linejoin:round;stroke-miterlimit:1.5;"/>
        </g>
        <g transform="matrix(1.30509e-17,-0.213138,-0.213138,-1.30509e-17,584.127,255.04)">
            <path d="M754.363,450.295L754.363,538.878L831.078,583.169L843.863,575.787L843.863,561.024L779.995,524.149L779.934,450.295L767.148,442.913L754.363,450.295Z" style="fill:none;stroke:black;stroke-width:4.69px;stroke-linecap:round;stroke-linejoin:round;stroke-miterlimit:1.5;"/>
        </g>
        <g transform="matrix(1.30509e-17,-0.213138,-0.213138,-1.30509e-17,520.348,255.04)">
            <path d="M754.363,450.295L754.363,538.878L831.078,583.169L843.863,575.787L843.863,561.024L779.995,524.149L779.934,450.295L767.148,442.913L754.363,450.295Z" style="fill:none;stroke:black;stroke-width:4.69px;stroke-linecap:round;stroke-linejoin:round;stroke-miterlimit:1.5;"/>
        </g>
        <g transform="matrix(1.30509e-17,-0.213138,-0.213138,-1.30509e-17,456.568,255.04)">
            <path d="M754.363,450.295L754.363,538.878L831.078,583.169L843.863,575.787L843.863,561.024L779.995,524.149L779.934,450.295L767.148,442.913L754.363,450.295Z" style="fill:none;stroke:black;stroke-width:4.69px;stroke-linecap:round;stroke-linejoin:round;stroke-miterlimit:1.5;"/>
        </g>
        <g transform="matrix(1.30509e-17,-0.213138,-0.213138,-1.30509e-17,392.789,255.04)">
            <path d="M754.363,450.295L754.363,538.878L831.078,583.169L843.863,575.787L843.863,561.024L779.995,524.149L779.934,450.295L767.148,442.913L754.363,450.295Z" style="fill:none;stroke:black;stroke-width:4.69px;stroke-linecap:round;stroke-linejoin:round;stroke-miterlimit:1.5;"/>
        </g>
        <g transform="matrix(1.30509e-17,-0.213138,-0.213138,-1.30509e-17,329.009,255.04)">
            <path d="M754.363,450.295L754.363,538.878L831.078,583.169L843.863,575.787L843.863,561.024L779.995,524.149L779.934,450.295L767.148,442.913L754.363,450.295Z" style="fill:none;stroke:black;stroke-width:4.69px;stroke-linecap:round;stroke-linejoin:round;stroke-miterlimit:1.5;"/>
        </g>
        <g transform="matrix(1.30509e-17,-0.213138,-0.213138,-1.30509e-17,265.23,255.04)">
            <path d="M754.363,450.295L754.363,538.878L831.078,583.169L843.863,575.787L843.863,561.024L779.995,524.149L779.934,450.295L767.148,442.913L754.363,450.295Z" style="fill:none;stroke:black;stroke-width:4.69px;stroke-linecap:round;stroke-linejoin:round;stroke-miterlimit:1.5;"/>
        </g>
        <g transform="matrix(1.30509e-17,-0.213138,-0.213138,-1.30509e-17,201.45,255.04)">
            <path d="M754.363,450.295L754.363,538.878L831.078,583.169L843.863,575.787L843.863,561.024L779.995,524.149L779.934,450.295L767.148,442.913L754.363,450.295Z" style="fill:none;stroke:black;stroke-width:4.69px;stroke-linecap:round;stroke-linejoin:round;stroke-miterlimit:1.5;"/>
        </g>
        <g transform="matrix(1.30509e-17,-0.213138,-0.213138,-1.30509e-17,169.56,236.629)">
            <path d="M754.363,450.295L754.363,538.878L831.078,583.169L843.863,575.787L843.863,561.024L779.995,524.149L779.934,450.295L767.148,442.913L754.363,450.295Z" style="fill:none;stroke:black;stroke-width:4.69px;stroke-linecap:round;stroke-linejoin:round;stroke-miterlimit:1.5;"/>
        </g>
        <g transform="matrix(1.30509e-17,0.213138,-0.213138,1.30509e-17,233.34,-127.211)">
            <path d="M754.363,450.295L754.363,524.114L690.434,561.024L690.434,575.787L703.219,583.169L767.148,546.26L831.078,583.169L843.863,575.787L843.863,561.024L779.995,524.149L779.934,450.295L767.148,442.913L754.363,450.295Z" style="fill:none;stroke:black;stroke-width:4.69px;stroke-linecap:round;stroke-linejoin:round;stroke-miterlimit:1.5;"/>
        </g>
        <g transform="matrix(1.30509e-17,0.213138,-0.213138,1.30509e-17,233.34,-90.3883)">
            <path d="M754.363,450.295L754.363,524.114L690.434,561.024L690.434,575.787L703.219,583.169L767.148,546.26L831.078,583.169L843.863,575.787L843.863,561.024L779.995,524.149L779.934,450.295L767.148,442.913L754.363,450.295Z" style="fill:none;stroke:black;stroke-width:4.69px;stroke-linecap:round;stroke-linejoin:round;stroke-miterlimit:1.5;"/>
        </g>
        <g transform="matrix(1.30509e-17,0.213138,-0.213138,1.30509e-17,201.45,-108.8)">
            <path d="M754.363,450.295L754.363,524.114L690.434,561.024L690.434,575.787L703.219,583.169L767.148,546.26L831.078,583.169L843.863,575.787L843.863,561.024L779.995,524.149L779.934,450.295L767.148,442.913L754.363,450.295Z" style="fill:none;stroke:black;stroke-width:4.69px;stroke-linecap:round;stroke-linejoin:round;stroke-miterlimit:1.5;"/>
        </g>
        <g transform="matrix(1.30509e-17,0.213138,-0.213138,1.30509e-17,616.017,-127.211)">
            <path d="M754.363,450.295L754.363,524.114L690.434,561.024L690.434,575.787L703.219,583.169L767.148,546.26L831.078,583.169L843.863,575.787L843.863,561.024L779.995,524.149L779.934,450.295L767.148,442.913L754.363,450.295Z" style="fill:none;stroke:black;stroke-width:4.69px;stroke-linecap:round;stroke-linejoin:round;stroke-miterlimit:1.5;"/>
        </g>
        <g transform="matrix(1.30509e-17,0.213138,-0.213138,1.30509e-17,616.017,-90.3883)">
            <path d="M754.363,450.295L754.363,524.114L690.434,561.024L690.434,575.787L703.219,583.169L767.148,546.26L831.078,583.169L843.863,575.787L843.863,561.024L779.995,524.149L779.934,450.295L767.148,442.913L754.363,450.295Z" style="fill:none;stroke:black;stroke-width:4.69px;stroke-linecap:round;stroke-linejoin:round;stroke-miterlimit:1.5;"/>
        </g>
        <g transform="matrix(1.30509e-17,0.213138,-0.213138,1.30509e-17,584.127,-108.8)">
            <path d="M754.363,450.295L754.363,524.114L690.434,561.024L690.434,575.787L703.219,583.169L767.148,546.26L831.078,583.169L843.863,575.787L843.863,561.024L779.995,524.149L779.934,450.295L767.148,442.913L754.363,450.295Z" style="fill:none;stroke:black;stroke-width:4.69px;stroke-linecap:round;stroke-linejoin:round;stroke-miterlimit:1.5;"/>
        </g>
        <g transform="matrix(1.30509e-17,0.213138,-0.213138,1.30509e-17,552.237,-127.211)">
            <path d="M754.363,450.295L754.363,524.114L690.434,561.024L690.434,575.787L703.219,583.169L767.148,546.26L831.078,583.169L843.863,575.787L843.863,561.024L779.995,524.149L779.934,450.295L767.148,442.913L754.363,450.295Z" style="fill:none;stroke:black;stroke-width:4.69px;stroke-linecap:round;stroke-linejoin:round;stroke-miterlimit:1.5;"/>
        </g>
        <g transform="matrix(1.30509e-17,0.213138,-0.213138,1.30509e-17,552.237,-90.3883)">
            <path d="M754.363,450.295L754.363,524.114L690.434,561.024L690.434,575.787L703.219,583.169L767.148,546.26L831.078,583.169L843.863,575.787L843.863,561.024L779.995,524.149L779.934,450.295L767.148,442.913L754.363,450.295Z" style="fill:none;stroke:black;stroke-width:4.69px;stroke-linecap:round;stroke-linejoin:round;stroke-miterlimit:1.5;"/>
        </g>
        <g transform="matrix(1.30509e-17,0.213138,-0.213138,1.30509e-17,520.348,-108.8)">
            <path d="M754.363,450.295L754.363,524.114L690.434,561.024L690.434,575.787L703.219,583.169L767.148,546.26L831.078,583.169L843.863,575.787L843.863,561.024L779.995,524.149L779.934,450.295L767.148,442.913L754.363,450.295Z" style="fill:none;stroke:black;stroke-width:4.69px;stroke-linecap:round;stroke-linejoin:round;stroke-miterlimit:1.5;"/>
        </g>
        <g transform="matrix(1.30509e-17,0.213138,-0.213138,1.30509e-17,488.458,-127.211)">
            <path d="M754.363,450.295L754.363,524.114L690.434,561.024L690.434,575.787L703.219,583.169L767.148,546.26L831.078,583.169L843.863,575.787L843.863,561.024L779.995,524.149L779.934,450.295L767.148,442.913L754.363,450.295Z" style="fill:none;stroke:black;stroke-width:4.69px;stroke-linecap:round;stroke-linejoin:round;stroke-miterlimit:1.5;"/>
        </g>
        <g transform="matrix(1.30509e-17,0.213138,-0.213138,1.30509e-17,488.458,-90.3883)">
            <path d="M754.363,450.295L754.363,524.114L690.434,561.024L690.434,575.787L703.219,583.169L767.148,546.26L831.078,583.169L843.863,575.787L843.863,561.024L779.995,524.149L779.934,450.295L767.148,442.913L754.363,450.295Z" style="fill:none;stroke:black;stroke-width:4.69px;stroke-linecap:round;stroke-linejoin:round;stroke-miterlimit:1.5;"/>
        </g>
        <g transform="matrix(1.30509e-17,0.213138,-0.213138,1.30509e-17,456.568,-108.8)">
            <path d="M754.363,450.295L754.363,524.114L690.434,561.024L690.434,575.787L703.219,583.169L767.148,546.26L831.078,583.169L843.863,575.787L843.863,561.024L779.995,524.149L779.934,450.295L767.148,442.913L754.363,450.295Z" style="fill:none;stroke:black;stroke-width:4.69px;stroke-linecap:round;stroke-linejoin:round;stroke-miterlimit:1.5;"/>
        </g>
        <g transform="matrix(1.30509e-17,0.213138,-0.213138,1.30509e-17,424.678,-127.211)">
            <path d="M754.363,450.295L754.363,524.114L690.434,561.024L690.434,575.787L703.219,583.169L767.148,546.26L831.078,583.169L843.863,575.787L843.863,561.024L779.995,524.149L779.934,450.295L767.148,442.913L754.363,450.295Z" style="fill:none;stroke:black;stroke-width:4.69px;stroke-linecap:round;stroke-linejoin:round;stroke-miterlimit:1.5;"/>
        </g>
        <g transform="matrix(1.30509e-17,0.213138,-0.213138,1.30509e-17,424.678,-90.3883)">
            <path d="M754.363,450.295L754.363,524.114L690.434,561.024L690.434,575.787L703.219,583.169L767.148,546.26L831.078,583.169L843.863,575.787L843.863,561.024L779.995,524.149L779.934,450.295L767.148,442.913L754.363,450.295Z" style="fill:none;stroke:black;stroke-width:4.69px;stroke-linecap:round;stroke-linejoin:round;stroke-miterlimit:1.5;"/>
        </g>
        <g transform="matrix(1.30509e-17,0.213138,-0.213138,1.30509e-17,392.789,-108.8)">
            <path d="M754.363,450.295L754.363,524.114L690.434,561.024L690.434,575.787L703.219,583.169L767.148,546.26L831.078,583.169L843.863,575.787L843.863,561.024L779.995,524.149L779.934,450.295L767.148,442.913L754.363,450.295Z" style="fill:none;stroke:black;stroke-width:4.69px;stroke-linecap:round;stroke-linejoin:round;stroke-miterlimit:1.5;"/>
        </g>
        <g transform="matrix(1.30509e-17,0.213138,-0.213138,1.30509e-17,360.899,-127.211)">
            <path d="M754.363,450.295L754.363,524.114L690.434,561.024L690.434,575.787L703.219,583.169L767.148,546.26L831.078,583.169L843.863,575.787L843.863,561.024L779.995,524.149L779.934,450.295L767.148,442.913L754.363,450.295Z" style="fill:none;stroke:black;stroke-width:4.69px;stroke-linecap:round;stroke-linejoin:round;stroke-miterlimit:1.5;"/>
        </g>
        <g transform="matrix(1.30509e-17,0.213138,-0.213138,1.30509e-17,360.899,-90.3883)">
            <path d="M754.363,450.295L754.363,524.114L690.434,561.024L690.434,575.787L703.219,583.169L767.148,546.26L831.078,583.169L843.863,575.787L843.863,561.024L779.995,524.149L779.934,450.295L767.148,442.913L754.363,450.295Z" style="fill:none;stroke:black;stroke-width:4.69px;stroke-linecap:round;stroke-linejoin:round;stroke-miterlimit:1.5;"/>
        </g>
        <g transform="matrix(1.30509e-17,0.213138,-0.213138,1.30509e-17,329.009,-108.8)">
            <path d="M754.363,450.295L754.363,524.114L690.434,561.024L690.434,575.787L703.219,583.169L767.148,546.26L831.078,583.169L843.863,575.787L843.863,561.024L779.995,524.149L779.934,450.295L767.148,442.913L754.363,450.295Z" style="fill:none;stroke:black;stroke-width:4.69px;stroke-linecap:round;stroke-linejoin:round;stroke-miterlimit:1.5;"/>
        </g>
    </g>
</svg>
