<?xml version="1.0" encoding="UTF-8" standalone="no"?>
<!DOCTYPE svg PUBLIC "-//W3C//DTD SVG 1.1//EN" "http://www.w3.org/Graphics/SVG/1.1/DTD/svg11.dtd">
<svg width="100%" height="100%" viewBox="0 0 666 440" version="1.1" xmlns="http://www.w3.org/2000/svg" xmlns:xlink="http://www.w3.org/1999/xlink" xml:space="preserve" xmlns:serif="http://www.serif.com/" style="fill-rule:evenodd;clip-rule:evenodd;">
    <g id="Sketch" transform="matrix(1,0,0,-1,6.51969,455.528)">
        <g>
            <path id="Sketch_w0000" d="M0,28.346L0,443.339C0,446.449 2.559,449.008 5.669,449.008L646.299,449.008C649.409,449.008 651.969,446.449 651.969,443.339L651.969,28.346C651.969,25.236 649.409,22.677 646.299,22.677L5.669,22.677C2.559,22.677 -0,25.236 0,28.346" style="fill:none;stroke:black;stroke-width:0.99px;"/>
        </g>
        <g transform="matrix(1,0,0,1,-31.8898,0)">
            <g transform="matrix(1.22465e-17,-0.2,-0.2,-1.22465e-17,253.346,594.868)">
                <path d="M1150.72,664.37L1074.01,708.661L1074.01,797.244L1150.72,841.535L1227.44,797.244L1227.44,708.661L1150.72,664.37Z" style="fill:none;stroke:black;stroke-width:5px;stroke-linecap:round;stroke-linejoin:round;stroke-miterlimit:1.5;"/>
            </g>
            <g transform="matrix(1.22465e-17,-0.2,-0.2,-1.22465e-17,253.346,558.045)">
                <path d="M1150.72,664.37L1074.01,708.661L1074.01,797.244L1150.72,841.535L1227.44,797.244L1227.44,708.661L1150.72,664.37Z" style="fill:none;stroke:black;stroke-width:5px;stroke-linecap:round;stroke-linejoin:round;stroke-miterlimit:1.5;"/>
            </g>
            <g transform="matrix(1.22465e-17,-0.2,-0.2,-1.22465e-17,253.346,521.222)">
                <path d="M1150.72,664.37L1074.01,708.661L1074.01,797.244L1150.72,841.535L1227.44,797.244L1227.44,708.661L1150.72,664.37Z" style="fill:none;stroke:black;stroke-width:5px;stroke-linecap:round;stroke-linejoin:round;stroke-miterlimit:1.5;"/>
            </g>
            <g transform="matrix(1.22465e-17,-0.2,-0.2,-1.22465e-17,253.346,484.399)">
                <path d="M1150.72,664.37L1074.01,708.661L1074.01,797.244L1150.72,841.535L1227.44,797.244L1227.44,708.661L1150.72,664.37Z" style="fill:none;stroke:black;stroke-width:5px;stroke-linecap:round;stroke-linejoin:round;stroke-miterlimit:1.5;"/>
            </g>
            <g transform="matrix(1.22465e-17,-0.2,-0.2,-1.22465e-17,253.346,447.576)">
                <path d="M1150.72,664.37L1074.01,708.661L1074.01,797.244L1150.72,841.535L1227.44,797.244L1227.44,708.661L1150.72,664.37Z" style="fill:none;stroke:black;stroke-width:5px;stroke-linecap:round;stroke-linejoin:round;stroke-miterlimit:1.5;"/>
            </g>
            <g transform="matrix(1.22465e-17,-0.2,-0.2,-1.22465e-17,253.346,410.752)">
                <path d="M1150.72,664.37L1074.01,708.661L1074.01,797.244L1150.72,841.535L1227.44,797.244L1227.44,708.661L1150.72,664.37Z" style="fill:none;stroke:black;stroke-width:5px;stroke-linecap:round;stroke-linejoin:round;stroke-miterlimit:1.5;"/>
            </g>
            <g transform="matrix(1.22465e-17,-0.2,-0.2,-1.22465e-17,253.346,373.929)">
                <path d="M1150.72,664.37L1074.01,708.661L1074.01,797.244L1150.72,841.535L1227.44,797.244L1227.44,708.661L1150.72,664.37Z" style="fill:none;stroke:black;stroke-width:5px;stroke-linecap:round;stroke-linejoin:round;stroke-miterlimit:1.5;"/>
            </g>
            <g transform="matrix(1.22465e-17,-0.2,-0.2,-1.22465e-17,253.346,337.106)">
                <path d="M1150.72,664.37L1074.01,708.661L1074.01,797.244L1150.72,841.535L1227.44,797.244L1227.44,708.661L1150.72,664.37Z" style="fill:none;stroke:black;stroke-width:5px;stroke-linecap:round;stroke-linejoin:round;stroke-miterlimit:1.5;"/>
            </g>
            <g transform="matrix(1.22465e-17,-0.2,-0.2,-1.22465e-17,221.457,539.633)">
                <path d="M1150.72,664.37L1074.01,708.661L1074.01,797.244L1150.72,841.535L1227.44,797.244L1227.44,708.661L1150.72,664.37Z" style="fill:none;stroke:black;stroke-width:5px;stroke-linecap:round;stroke-linejoin:round;stroke-miterlimit:1.5;"/>
            </g>
            <g transform="matrix(1.22465e-17,-0.2,-0.2,-1.22465e-17,221.457,502.81)">
                <path d="M1150.72,664.37L1074.01,708.661L1074.01,797.244L1150.72,841.535L1227.44,797.244L1227.44,708.661L1150.72,664.37Z" style="fill:none;stroke:black;stroke-width:5px;stroke-linecap:round;stroke-linejoin:round;stroke-miterlimit:1.5;"/>
            </g>
            <g transform="matrix(1.22465e-17,-0.2,-0.2,-1.22465e-17,221.457,465.987)">
                <path d="M1150.72,664.37L1074.01,708.661L1074.01,797.244L1150.72,841.535L1227.44,797.244L1227.44,708.661L1150.72,664.37Z" style="fill:none;stroke:black;stroke-width:5px;stroke-linecap:round;stroke-linejoin:round;stroke-miterlimit:1.5;"/>
            </g>
            <g transform="matrix(1.22465e-17,-0.2,-0.2,-1.22465e-17,221.457,429.164)">
                <path d="M1150.72,664.37L1074.01,708.661L1074.01,797.244L1150.72,841.535L1227.44,797.244L1227.44,708.661L1150.72,664.37Z" style="fill:none;stroke:black;stroke-width:5px;stroke-linecap:round;stroke-linejoin:round;stroke-miterlimit:1.5;"/>
            </g>
            <g transform="matrix(1.22465e-17,-0.2,-0.2,-1.22465e-17,221.457,392.341)">
                <path d="M1150.72,664.37L1074.01,708.661L1074.01,797.244L1150.72,841.535L1227.44,797.244L1227.44,708.661L1150.72,664.37Z" style="fill:none;stroke:black;stroke-width:5px;stroke-linecap:round;stroke-linejoin:round;stroke-miterlimit:1.5;"/>
            </g>
            <g transform="matrix(1.22465e-17,-0.2,-0.2,-1.22465e-17,317.126,631.691)">
                <path d="M1150.72,664.37L1074.01,708.661L1074.01,797.244L1150.72,841.535L1227.44,797.244L1227.44,708.661L1150.72,664.37Z" style="fill:none;stroke:black;stroke-width:5px;stroke-linecap:round;stroke-linejoin:round;stroke-miterlimit:1.5;"/>
            </g>
            <g transform="matrix(1.22465e-17,-0.2,-0.2,-1.22465e-17,317.126,594.868)">
                <path d="M1150.72,664.37L1074.01,708.661L1074.01,797.244L1150.72,841.535L1227.44,797.244L1227.44,708.661L1150.72,664.37Z" style="fill:none;stroke:black;stroke-width:5px;stroke-linecap:round;stroke-linejoin:round;stroke-miterlimit:1.5;"/>
            </g>
            <g transform="matrix(1.22465e-17,-0.2,-0.2,-1.22465e-17,317.126,558.045)">
                <path d="M1150.72,664.37L1074.01,708.661L1074.01,797.244L1150.72,841.535L1227.44,797.244L1227.44,708.661L1150.72,664.37Z" style="fill:none;stroke:black;stroke-width:5px;stroke-linecap:round;stroke-linejoin:round;stroke-miterlimit:1.5;"/>
            </g>
            <g transform="matrix(1.22465e-17,-0.2,-0.2,-1.22465e-17,317.126,521.222)">
                <path d="M1150.72,664.37L1074.01,708.661L1074.01,797.244L1150.72,841.535L1227.44,797.244L1227.44,708.661L1150.72,664.37Z" style="fill:none;stroke:black;stroke-width:5px;stroke-linecap:round;stroke-linejoin:round;stroke-miterlimit:1.5;"/>
            </g>
            <g transform="matrix(1.22465e-17,-0.2,-0.2,-1.22465e-17,317.126,484.399)">
                <path d="M1150.72,664.37L1074.01,708.661L1074.01,797.244L1150.72,841.535L1227.44,797.244L1227.44,708.661L1150.72,664.37Z" style="fill:none;stroke:black;stroke-width:5px;stroke-linecap:round;stroke-linejoin:round;stroke-miterlimit:1.5;"/>
            </g>
            <g transform="matrix(1.22465e-17,-0.2,-0.2,-1.22465e-17,317.126,447.576)">
                <path d="M1150.72,664.37L1074.01,708.661L1074.01,797.244L1150.72,841.535L1227.44,797.244L1227.44,708.661L1150.72,664.37Z" style="fill:none;stroke:black;stroke-width:5px;stroke-linecap:round;stroke-linejoin:round;stroke-miterlimit:1.5;"/>
            </g>
            <g transform="matrix(1.22465e-17,-0.2,-0.2,-1.22465e-17,317.126,410.752)">
                <path d="M1150.72,664.37L1074.01,708.661L1074.01,797.244L1150.72,841.535L1227.44,797.244L1227.44,708.661L1150.72,664.37Z" style="fill:none;stroke:black;stroke-width:5px;stroke-linecap:round;stroke-linejoin:round;stroke-miterlimit:1.5;"/>
            </g>
            <g transform="matrix(1.22465e-17,-0.2,-0.2,-1.22465e-17,317.126,373.929)">
                <path d="M1150.72,664.37L1074.01,708.661L1074.01,797.244L1150.72,841.535L1227.44,797.244L1227.44,708.661L1150.72,664.37Z" style="fill:none;stroke:black;stroke-width:5px;stroke-linecap:round;stroke-linejoin:round;stroke-miterlimit:1.5;"/>
            </g>
            <g transform="matrix(1.22465e-17,-0.2,-0.2,-1.22465e-17,317.126,337.106)">
                <path d="M1150.72,664.37L1074.01,708.661L1074.01,797.244L1150.72,841.535L1227.44,797.244L1227.44,708.661L1150.72,664.37Z" style="fill:none;stroke:black;stroke-width:5px;stroke-linecap:round;stroke-linejoin:round;stroke-miterlimit:1.5;"/>
            </g>
            <g transform="matrix(1.22465e-17,-0.2,-0.2,-1.22465e-17,317.126,300.283)">
                <path d="M1150.72,664.37L1074.01,708.661L1074.01,797.244L1150.72,841.535L1227.44,797.244L1227.44,708.661L1150.72,664.37Z" style="fill:none;stroke:black;stroke-width:5px;stroke-linecap:round;stroke-linejoin:round;stroke-miterlimit:1.5;"/>
            </g>
            <g transform="matrix(1.22465e-17,-0.2,-0.2,-1.22465e-17,285.236,576.456)">
                <path d="M1150.72,664.37L1074.01,708.661L1074.01,797.244L1150.72,841.535L1227.44,797.244L1227.44,708.661L1150.72,664.37Z" style="fill:none;stroke:black;stroke-width:5px;stroke-linecap:round;stroke-linejoin:round;stroke-miterlimit:1.5;"/>
            </g>
            <g transform="matrix(1.22465e-17,-0.2,-0.2,-1.22465e-17,285.236,539.633)">
                <path d="M1150.72,664.37L1074.01,708.661L1074.01,797.244L1150.72,841.535L1227.44,797.244L1227.44,708.661L1150.72,664.37Z" style="fill:none;stroke:black;stroke-width:5px;stroke-linecap:round;stroke-linejoin:round;stroke-miterlimit:1.5;"/>
            </g>
            <g transform="matrix(1.22465e-17,-0.2,-0.2,-1.22465e-17,285.236,502.81)">
                <path d="M1150.72,664.37L1074.01,708.661L1074.01,797.244L1150.72,841.535L1227.44,797.244L1227.44,708.661L1150.72,664.37Z" style="fill:none;stroke:black;stroke-width:5px;stroke-linecap:round;stroke-linejoin:round;stroke-miterlimit:1.5;"/>
            </g>
            <g transform="matrix(1.22465e-17,-0.2,-0.2,-1.22465e-17,285.236,465.987)">
                <path d="M1150.72,664.37L1074.01,708.661L1074.01,797.244L1150.72,841.535L1227.44,797.244L1227.44,708.661L1150.72,664.37Z" style="fill:none;stroke:black;stroke-width:5px;stroke-linecap:round;stroke-linejoin:round;stroke-miterlimit:1.5;"/>
            </g>
            <g transform="matrix(1.22465e-17,-0.2,-0.2,-1.22465e-17,285.236,429.164)">
                <path d="M1150.72,664.37L1074.01,708.661L1074.01,797.244L1150.72,841.535L1227.44,797.244L1227.44,708.661L1150.72,664.37Z" style="fill:none;stroke:black;stroke-width:5px;stroke-linecap:round;stroke-linejoin:round;stroke-miterlimit:1.5;"/>
            </g>
            <g transform="matrix(1.22465e-17,-0.2,-0.2,-1.22465e-17,285.236,392.341)">
                <path d="M1150.72,664.37L1074.01,708.661L1074.01,797.244L1150.72,841.535L1227.44,797.244L1227.44,708.661L1150.72,664.37Z" style="fill:none;stroke:black;stroke-width:5px;stroke-linecap:round;stroke-linejoin:round;stroke-miterlimit:1.5;"/>
            </g>
            <g transform="matrix(1.22465e-17,-0.2,-0.2,-1.22465e-17,285.236,355.518)">
                <path d="M1150.72,664.37L1074.01,708.661L1074.01,797.244L1150.72,841.535L1227.44,797.244L1227.44,708.661L1150.72,664.37Z" style="fill:none;stroke:black;stroke-width:5px;stroke-linecap:round;stroke-linejoin:round;stroke-miterlimit:1.5;"/>
            </g>
            <g transform="matrix(1.22465e-17,-0.2,-0.2,-1.22465e-17,380.906,631.691)">
                <path d="M1150.72,664.37L1074.01,708.661L1074.01,797.244L1150.72,841.535L1227.44,797.244L1227.44,708.661L1150.72,664.37Z" style="fill:none;stroke:black;stroke-width:5px;stroke-linecap:round;stroke-linejoin:round;stroke-miterlimit:1.5;"/>
            </g>
            <g transform="matrix(1.22465e-17,-0.2,-0.2,-1.22465e-17,380.906,594.868)">
                <path d="M1150.72,664.37L1074.01,708.661L1074.01,797.244L1150.72,841.535L1227.44,797.244L1227.44,708.661L1150.72,664.37Z" style="fill:none;stroke:black;stroke-width:5px;stroke-linecap:round;stroke-linejoin:round;stroke-miterlimit:1.5;"/>
            </g>
            <g transform="matrix(1.22465e-17,-0.2,-0.2,-1.22465e-17,380.906,558.045)">
                <path d="M1150.72,664.37L1074.01,708.661L1074.01,797.244L1150.72,841.535L1227.44,797.244L1227.44,708.661L1150.72,664.37Z" style="fill:none;stroke:black;stroke-width:5px;stroke-linecap:round;stroke-linejoin:round;stroke-miterlimit:1.5;"/>
            </g>
            <g transform="matrix(1.22465e-17,-0.2,-0.2,-1.22465e-17,380.906,521.222)">
                <path d="M1150.72,664.37L1074.01,708.661L1074.01,797.244L1150.72,841.535L1227.44,797.244L1227.44,708.661L1150.72,664.37Z" style="fill:none;stroke:black;stroke-width:5px;stroke-linecap:round;stroke-linejoin:round;stroke-miterlimit:1.5;"/>
            </g>
            <g transform="matrix(1.22465e-17,-0.2,-0.2,-1.22465e-17,380.906,484.399)">
                <path d="M1150.72,664.37L1074.01,708.661L1074.01,797.244L1150.72,841.535L1227.44,797.244L1227.44,708.661L1150.72,664.37Z" style="fill:none;stroke:black;stroke-width:5px;stroke-linecap:round;stroke-linejoin:round;stroke-miterlimit:1.5;"/>
            </g>
            <g transform="matrix(1.22465e-17,-0.2,-0.2,-1.22465e-17,380.906,447.576)">
                <path d="M1150.72,664.37L1074.01,708.661L1074.01,797.244L1150.72,841.535L1227.44,797.244L1227.44,708.661L1150.72,664.37Z" style="fill:none;stroke:black;stroke-width:5px;stroke-linecap:round;stroke-linejoin:round;stroke-miterlimit:1.5;"/>
            </g>
            <g transform="matrix(1.22465e-17,-0.2,-0.2,-1.22465e-17,380.906,410.752)">
                <path d="M1150.72,664.37L1074.01,708.661L1074.01,797.244L1150.72,841.535L1227.44,797.244L1227.44,708.661L1150.72,664.37Z" style="fill:none;stroke:black;stroke-width:5px;stroke-linecap:round;stroke-linejoin:round;stroke-miterlimit:1.5;"/>
            </g>
            <g transform="matrix(1.22465e-17,-0.2,-0.2,-1.22465e-17,380.906,373.929)">
                <path d="M1150.72,664.37L1074.01,708.661L1074.01,797.244L1150.72,841.535L1227.44,797.244L1227.44,708.661L1150.72,664.37Z" style="fill:none;stroke:black;stroke-width:5px;stroke-linecap:round;stroke-linejoin:round;stroke-miterlimit:1.5;"/>
            </g>
            <g transform="matrix(1.22465e-17,-0.2,-0.2,-1.22465e-17,380.906,337.106)">
                <path d="M1150.72,664.37L1074.01,708.661L1074.01,797.244L1150.72,841.535L1227.44,797.244L1227.44,708.661L1150.72,664.37Z" style="fill:none;stroke:black;stroke-width:5px;stroke-linecap:round;stroke-linejoin:round;stroke-miterlimit:1.5;"/>
            </g>
            <g transform="matrix(1.22465e-17,-0.2,-0.2,-1.22465e-17,380.906,300.283)">
                <path d="M1150.72,664.37L1074.01,708.661L1074.01,797.244L1150.72,841.535L1227.44,797.244L1227.44,708.661L1150.72,664.37Z" style="fill:none;stroke:black;stroke-width:5px;stroke-linecap:round;stroke-linejoin:round;stroke-miterlimit:1.5;"/>
            </g>
            <g transform="matrix(1.22465e-17,-0.2,-0.2,-1.22465e-17,349.016,613.28)">
                <path d="M1150.72,664.37L1074.01,708.661L1074.01,797.244L1150.72,841.535L1227.44,797.244L1227.44,708.661L1150.72,664.37Z" style="fill:none;stroke:black;stroke-width:5px;stroke-linecap:round;stroke-linejoin:round;stroke-miterlimit:1.5;"/>
            </g>
            <g transform="matrix(1.22465e-17,-0.2,-0.2,-1.22465e-17,349.016,576.456)">
                <path d="M1150.72,664.37L1074.01,708.661L1074.01,797.244L1150.72,841.535L1227.44,797.244L1227.44,708.661L1150.72,664.37Z" style="fill:none;stroke:black;stroke-width:5px;stroke-linecap:round;stroke-linejoin:round;stroke-miterlimit:1.5;"/>
            </g>
            <g transform="matrix(1.22465e-17,-0.2,-0.2,-1.22465e-17,349.016,539.633)">
                <path d="M1150.72,664.37L1074.01,708.661L1074.01,797.244L1150.72,841.535L1227.44,797.244L1227.44,708.661L1150.72,664.37Z" style="fill:none;stroke:black;stroke-width:5px;stroke-linecap:round;stroke-linejoin:round;stroke-miterlimit:1.5;"/>
            </g>
            <g transform="matrix(1.22465e-17,-0.2,-0.2,-1.22465e-17,349.016,502.81)">
                <path d="M1150.72,664.37L1074.01,708.661L1074.01,797.244L1150.72,841.535L1227.44,797.244L1227.44,708.661L1150.72,664.37Z" style="fill:none;stroke:black;stroke-width:5px;stroke-linecap:round;stroke-linejoin:round;stroke-miterlimit:1.5;"/>
            </g>
            <g transform="matrix(1.22465e-17,-0.2,-0.2,-1.22465e-17,349.016,465.987)">
                <path d="M1150.72,664.37L1074.01,708.661L1074.01,797.244L1150.72,841.535L1227.44,797.244L1227.44,708.661L1150.72,664.37Z" style="fill:none;stroke:black;stroke-width:5px;stroke-linecap:round;stroke-linejoin:round;stroke-miterlimit:1.5;"/>
            </g>
            <g transform="matrix(1.22465e-17,-0.2,-0.2,-1.22465e-17,349.016,429.164)">
                <path d="M1150.72,664.37L1074.01,708.661L1074.01,797.244L1150.72,841.535L1227.44,797.244L1227.44,708.661L1150.72,664.37Z" style="fill:none;stroke:black;stroke-width:5px;stroke-linecap:round;stroke-linejoin:round;stroke-miterlimit:1.5;"/>
            </g>
            <g transform="matrix(1.22465e-17,-0.2,-0.2,-1.22465e-17,349.016,392.341)">
                <path d="M1150.72,664.37L1074.01,708.661L1074.01,797.244L1150.72,841.535L1227.44,797.244L1227.44,708.661L1150.72,664.37Z" style="fill:none;stroke:black;stroke-width:5px;stroke-linecap:round;stroke-linejoin:round;stroke-miterlimit:1.5;"/>
            </g>
            <g transform="matrix(1.22465e-17,-0.2,-0.2,-1.22465e-17,349.016,355.518)">
                <path d="M1150.72,664.37L1074.01,708.661L1074.01,797.244L1150.72,841.535L1227.44,797.244L1227.44,708.661L1150.72,664.37Z" style="fill:none;stroke:black;stroke-width:5px;stroke-linecap:round;stroke-linejoin:round;stroke-miterlimit:1.5;"/>
            </g>
            <g transform="matrix(1.22465e-17,-0.2,-0.2,-1.22465e-17,349.016,318.695)">
                <path d="M1150.72,664.37L1074.01,708.661L1074.01,797.244L1150.72,841.535L1227.44,797.244L1227.44,708.661L1150.72,664.37Z" style="fill:none;stroke:black;stroke-width:5px;stroke-linecap:round;stroke-linejoin:round;stroke-miterlimit:1.5;"/>
            </g>
            <g transform="matrix(1.22465e-17,-0.2,-0.2,-1.22465e-17,444.685,631.691)">
                <path d="M1150.72,664.37L1074.01,708.661L1074.01,797.244L1150.72,841.535L1227.44,797.244L1227.44,708.661L1150.72,664.37Z" style="fill:none;stroke:black;stroke-width:5px;stroke-linecap:round;stroke-linejoin:round;stroke-miterlimit:1.5;"/>
            </g>
            <g transform="matrix(1.22465e-17,-0.2,-0.2,-1.22465e-17,444.685,594.868)">
                <path d="M1150.72,664.37L1074.01,708.661L1074.01,797.244L1150.72,841.535L1227.44,797.244L1227.44,708.661L1150.72,664.37Z" style="fill:none;stroke:black;stroke-width:5px;stroke-linecap:round;stroke-linejoin:round;stroke-miterlimit:1.5;"/>
            </g>
            <g transform="matrix(1.22465e-17,-0.2,-0.2,-1.22465e-17,444.685,558.045)">
                <path d="M1150.72,664.37L1074.01,708.661L1074.01,797.244L1150.72,841.535L1227.44,797.244L1227.44,708.661L1150.72,664.37Z" style="fill:none;stroke:black;stroke-width:5px;stroke-linecap:round;stroke-linejoin:round;stroke-miterlimit:1.5;"/>
            </g>
            <g transform="matrix(1.22465e-17,-0.2,-0.2,-1.22465e-17,444.685,521.222)">
                <path d="M1150.72,664.37L1074.01,708.661L1074.01,797.244L1150.72,841.535L1227.44,797.244L1227.44,708.661L1150.72,664.37Z" style="fill:none;stroke:black;stroke-width:5px;stroke-linecap:round;stroke-linejoin:round;stroke-miterlimit:1.5;"/>
            </g>
            <g transform="matrix(1.22465e-17,-0.2,-0.2,-1.22465e-17,444.685,484.399)">
                <path d="M1150.72,664.37L1074.01,708.661L1074.01,797.244L1150.72,841.535L1227.44,797.244L1227.44,708.661L1150.72,664.37Z" style="fill:none;stroke:black;stroke-width:5px;stroke-linecap:round;stroke-linejoin:round;stroke-miterlimit:1.5;"/>
            </g>
            <g transform="matrix(1.22465e-17,-0.2,-0.2,-1.22465e-17,444.685,447.576)">
                <path d="M1150.72,664.37L1074.01,708.661L1074.01,797.244L1150.72,841.535L1227.44,797.244L1227.44,708.661L1150.72,664.37Z" style="fill:none;stroke:black;stroke-width:5px;stroke-linecap:round;stroke-linejoin:round;stroke-miterlimit:1.5;"/>
            </g>
            <g transform="matrix(1.22465e-17,-0.2,-0.2,-1.22465e-17,444.685,410.752)">
                <path d="M1150.72,664.37L1074.01,708.661L1074.01,797.244L1150.72,841.535L1227.44,797.244L1227.44,708.661L1150.72,664.37Z" style="fill:none;stroke:black;stroke-width:5px;stroke-linecap:round;stroke-linejoin:round;stroke-miterlimit:1.5;"/>
            </g>
            <g transform="matrix(1.22465e-17,-0.2,-0.2,-1.22465e-17,444.685,373.929)">
                <path d="M1150.72,664.37L1074.01,708.661L1074.01,797.244L1150.72,841.535L1227.44,797.244L1227.44,708.661L1150.72,664.37Z" style="fill:none;stroke:black;stroke-width:5px;stroke-linecap:round;stroke-linejoin:round;stroke-miterlimit:1.5;"/>
            </g>
            <g transform="matrix(1.22465e-17,-0.2,-0.2,-1.22465e-17,444.685,337.106)">
                <path d="M1150.72,664.37L1074.01,708.661L1074.01,797.244L1150.72,841.535L1227.44,797.244L1227.44,708.661L1150.72,664.37Z" style="fill:none;stroke:black;stroke-width:5px;stroke-linecap:round;stroke-linejoin:round;stroke-miterlimit:1.5;"/>
            </g>
            <g transform="matrix(1.22465e-17,-0.2,-0.2,-1.22465e-17,444.685,300.283)">
                <path d="M1150.72,664.37L1074.01,708.661L1074.01,797.244L1150.72,841.535L1227.44,797.244L1227.44,708.661L1150.72,664.37Z" style="fill:none;stroke:black;stroke-width:5px;stroke-linecap:round;stroke-linejoin:round;stroke-miterlimit:1.5;"/>
            </g>
            <g transform="matrix(1.22465e-17,-0.2,-0.2,-1.22465e-17,412.795,613.28)">
                <path d="M1150.72,664.37L1074.01,708.661L1074.01,797.244L1150.72,841.535L1227.44,797.244L1227.44,708.661L1150.72,664.37Z" style="fill:none;stroke:black;stroke-width:5px;stroke-linecap:round;stroke-linejoin:round;stroke-miterlimit:1.5;"/>
            </g>
            <g transform="matrix(1.22465e-17,-0.2,-0.2,-1.22465e-17,412.795,576.456)">
                <path d="M1150.72,664.37L1074.01,708.661L1074.01,797.244L1150.72,841.535L1227.44,797.244L1227.44,708.661L1150.72,664.37Z" style="fill:none;stroke:black;stroke-width:5px;stroke-linecap:round;stroke-linejoin:round;stroke-miterlimit:1.5;"/>
            </g>
            <g transform="matrix(1.22465e-17,-0.2,-0.2,-1.22465e-17,412.795,539.633)">
                <path d="M1150.72,664.37L1074.01,708.661L1074.01,797.244L1150.72,841.535L1227.44,797.244L1227.44,708.661L1150.72,664.37Z" style="fill:none;stroke:black;stroke-width:5px;stroke-linecap:round;stroke-linejoin:round;stroke-miterlimit:1.5;"/>
            </g>
            <g transform="matrix(1.22465e-17,-0.2,-0.2,-1.22465e-17,412.795,502.81)">
                <path d="M1150.72,664.37L1074.01,708.661L1074.01,797.244L1150.72,841.535L1227.44,797.244L1227.44,708.661L1150.72,664.37Z" style="fill:none;stroke:black;stroke-width:5px;stroke-linecap:round;stroke-linejoin:round;stroke-miterlimit:1.5;"/>
            </g>
            <g transform="matrix(1.22465e-17,-0.2,-0.2,-1.22465e-17,412.795,465.987)">
                <path d="M1150.72,664.37L1074.01,708.661L1074.01,797.244L1150.72,841.535L1227.44,797.244L1227.44,708.661L1150.72,664.37Z" style="fill:none;stroke:black;stroke-width:5px;stroke-linecap:round;stroke-linejoin:round;stroke-miterlimit:1.5;"/>
            </g>
            <g transform="matrix(1.22465e-17,-0.2,-0.2,-1.22465e-17,412.795,429.164)">
                <path d="M1150.72,664.37L1074.01,708.661L1074.01,797.244L1150.72,841.535L1227.44,797.244L1227.44,708.661L1150.72,664.37Z" style="fill:none;stroke:black;stroke-width:5px;stroke-linecap:round;stroke-linejoin:round;stroke-miterlimit:1.5;"/>
            </g>
            <g transform="matrix(1.22465e-17,-0.2,-0.2,-1.22465e-17,412.795,392.341)">
                <path d="M1150.72,664.37L1074.01,708.661L1074.01,797.244L1150.72,841.535L1227.44,797.244L1227.44,708.661L1150.72,664.37Z" style="fill:none;stroke:black;stroke-width:5px;stroke-linecap:round;stroke-linejoin:round;stroke-miterlimit:1.5;"/>
            </g>
            <g transform="matrix(1.22465e-17,-0.2,-0.2,-1.22465e-17,412.795,355.518)">
                <path d="M1150.72,664.37L1074.01,708.661L1074.01,797.244L1150.72,841.535L1227.44,797.244L1227.44,708.661L1150.72,664.37Z" style="fill:none;stroke:black;stroke-width:5px;stroke-linecap:round;stroke-linejoin:round;stroke-miterlimit:1.5;"/>
            </g>
            <g transform="matrix(1.22465e-17,-0.2,-0.2,-1.22465e-17,412.795,318.695)">
                <path d="M1150.72,664.37L1074.01,708.661L1074.01,797.244L1150.72,841.535L1227.44,797.244L1227.44,708.661L1150.72,664.37Z" style="fill:none;stroke:black;stroke-width:5px;stroke-linecap:round;stroke-linejoin:round;stroke-miterlimit:1.5;"/>
            </g>
            <g transform="matrix(1.22465e-17,-0.2,-0.2,-1.22465e-17,508.465,631.691)">
                <path d="M1150.72,664.37L1074.01,708.661L1074.01,797.244L1150.72,841.535L1227.44,797.244L1227.44,708.661L1150.72,664.37Z" style="fill:none;stroke:black;stroke-width:5px;stroke-linecap:round;stroke-linejoin:round;stroke-miterlimit:1.5;"/>
            </g>
            <g transform="matrix(1.22465e-17,-0.2,-0.2,-1.22465e-17,508.465,594.868)">
                <path d="M1150.72,664.37L1074.01,708.661L1074.01,797.244L1150.72,841.535L1227.44,797.244L1227.44,708.661L1150.72,664.37Z" style="fill:none;stroke:black;stroke-width:5px;stroke-linecap:round;stroke-linejoin:round;stroke-miterlimit:1.5;"/>
            </g>
            <g transform="matrix(1.22465e-17,-0.2,-0.2,-1.22465e-17,508.465,558.045)">
                <path d="M1150.72,664.37L1074.01,708.661L1074.01,797.244L1150.72,841.535L1227.44,797.244L1227.44,708.661L1150.72,664.37Z" style="fill:none;stroke:black;stroke-width:5px;stroke-linecap:round;stroke-linejoin:round;stroke-miterlimit:1.5;"/>
            </g>
            <g transform="matrix(1.22465e-17,-0.2,-0.2,-1.22465e-17,508.465,521.222)">
                <path d="M1150.72,664.37L1074.01,708.661L1074.01,797.244L1150.72,841.535L1227.44,797.244L1227.44,708.661L1150.72,664.37Z" style="fill:none;stroke:black;stroke-width:5px;stroke-linecap:round;stroke-linejoin:round;stroke-miterlimit:1.5;"/>
            </g>
            <g transform="matrix(1.22465e-17,-0.2,-0.2,-1.22465e-17,508.465,484.399)">
                <path d="M1150.72,664.37L1074.01,708.661L1074.01,797.244L1150.72,841.535L1227.44,797.244L1227.44,708.661L1150.72,664.37Z" style="fill:none;stroke:black;stroke-width:5px;stroke-linecap:round;stroke-linejoin:round;stroke-miterlimit:1.5;"/>
            </g>
            <g transform="matrix(1.22465e-17,-0.2,-0.2,-1.22465e-17,508.465,447.576)">
                <path d="M1150.72,664.37L1074.01,708.661L1074.01,797.244L1150.72,841.535L1227.44,797.244L1227.44,708.661L1150.72,664.37Z" style="fill:none;stroke:black;stroke-width:5px;stroke-linecap:round;stroke-linejoin:round;stroke-miterlimit:1.5;"/>
            </g>
            <g transform="matrix(1.22465e-17,-0.2,-0.2,-1.22465e-17,508.465,410.752)">
                <path d="M1150.72,664.37L1074.01,708.661L1074.01,797.244L1150.72,841.535L1227.44,797.244L1227.44,708.661L1150.72,664.37Z" style="fill:none;stroke:black;stroke-width:5px;stroke-linecap:round;stroke-linejoin:round;stroke-miterlimit:1.5;"/>
            </g>
            <g transform="matrix(1.22465e-17,-0.2,-0.2,-1.22465e-17,508.465,373.929)">
                <path d="M1150.72,664.37L1074.01,708.661L1074.01,797.244L1150.72,841.535L1227.44,797.244L1227.44,708.661L1150.72,664.37Z" style="fill:none;stroke:black;stroke-width:5px;stroke-linecap:round;stroke-linejoin:round;stroke-miterlimit:1.5;"/>
            </g>
            <g transform="matrix(1.22465e-17,-0.2,-0.2,-1.22465e-17,508.465,337.106)">
                <path d="M1150.72,664.37L1074.01,708.661L1074.01,797.244L1150.72,841.535L1227.44,797.244L1227.44,708.661L1150.72,664.37Z" style="fill:none;stroke:black;stroke-width:5px;stroke-linecap:round;stroke-linejoin:round;stroke-miterlimit:1.5;"/>
            </g>
            <g transform="matrix(1.22465e-17,-0.2,-0.2,-1.22465e-17,508.465,300.283)">
                <path d="M1150.72,664.37L1074.01,708.661L1074.01,797.244L1150.72,841.535L1227.44,797.244L1227.44,708.661L1150.72,664.37Z" style="fill:none;stroke:black;stroke-width:5px;stroke-linecap:round;stroke-linejoin:round;stroke-miterlimit:1.5;"/>
            </g>
            <g transform="matrix(1.22465e-17,-0.2,-0.2,-1.22465e-17,476.575,613.28)">
                <path d="M1150.72,664.37L1074.01,708.661L1074.01,797.244L1150.72,841.535L1227.44,797.244L1227.44,708.661L1150.72,664.37Z" style="fill:none;stroke:black;stroke-width:5px;stroke-linecap:round;stroke-linejoin:round;stroke-miterlimit:1.5;"/>
            </g>
            <g transform="matrix(1.22465e-17,-0.2,-0.2,-1.22465e-17,476.575,576.456)">
                <path d="M1150.72,664.37L1074.01,708.661L1074.01,797.244L1150.72,841.535L1227.44,797.244L1227.44,708.661L1150.72,664.37Z" style="fill:none;stroke:black;stroke-width:5px;stroke-linecap:round;stroke-linejoin:round;stroke-miterlimit:1.5;"/>
            </g>
            <g transform="matrix(1.22465e-17,-0.2,-0.2,-1.22465e-17,476.575,539.633)">
                <path d="M1150.72,664.37L1074.01,708.661L1074.01,797.244L1150.72,841.535L1227.44,797.244L1227.44,708.661L1150.72,664.37Z" style="fill:none;stroke:black;stroke-width:5px;stroke-linecap:round;stroke-linejoin:round;stroke-miterlimit:1.5;"/>
            </g>
            <g transform="matrix(1.22465e-17,-0.2,-0.2,-1.22465e-17,476.575,502.81)">
                <path d="M1150.72,664.37L1074.01,708.661L1074.01,797.244L1150.72,841.535L1227.44,797.244L1227.44,708.661L1150.72,664.37Z" style="fill:none;stroke:black;stroke-width:5px;stroke-linecap:round;stroke-linejoin:round;stroke-miterlimit:1.5;"/>
            </g>
            <g transform="matrix(1.22465e-17,-0.2,-0.2,-1.22465e-17,476.575,465.987)">
                <path d="M1150.72,664.37L1074.01,708.661L1074.01,797.244L1150.72,841.535L1227.44,797.244L1227.44,708.661L1150.72,664.37Z" style="fill:none;stroke:black;stroke-width:5px;stroke-linecap:round;stroke-linejoin:round;stroke-miterlimit:1.5;"/>
            </g>
            <g transform="matrix(1.22465e-17,-0.2,-0.2,-1.22465e-17,476.575,429.164)">
                <path d="M1150.72,664.37L1074.01,708.661L1074.01,797.244L1150.72,841.535L1227.44,797.244L1227.44,708.661L1150.72,664.37Z" style="fill:none;stroke:black;stroke-width:5px;stroke-linecap:round;stroke-linejoin:round;stroke-miterlimit:1.5;"/>
            </g>
            <g transform="matrix(1.22465e-17,-0.2,-0.2,-1.22465e-17,476.575,392.341)">
                <path d="M1150.72,664.37L1074.01,708.661L1074.01,797.244L1150.72,841.535L1227.44,797.244L1227.44,708.661L1150.72,664.37Z" style="fill:none;stroke:black;stroke-width:5px;stroke-linecap:round;stroke-linejoin:round;stroke-miterlimit:1.5;"/>
            </g>
            <g transform="matrix(1.22465e-17,-0.2,-0.2,-1.22465e-17,476.575,355.518)">
                <path d="M1150.72,664.37L1074.01,708.661L1074.01,797.244L1150.72,841.535L1227.44,797.244L1227.44,708.661L1150.72,664.37Z" style="fill:none;stroke:black;stroke-width:5px;stroke-linecap:round;stroke-linejoin:round;stroke-miterlimit:1.5;"/>
            </g>
            <g transform="matrix(1.22465e-17,-0.2,-0.2,-1.22465e-17,476.575,318.695)">
                <path d="M1150.72,664.37L1074.01,708.661L1074.01,797.244L1150.72,841.535L1227.44,797.244L1227.44,708.661L1150.72,664.37Z" style="fill:none;stroke:black;stroke-width:5px;stroke-linecap:round;stroke-linejoin:round;stroke-miterlimit:1.5;"/>
            </g>
            <g transform="matrix(1.22465e-17,-0.2,-0.2,-1.22465e-17,572.244,631.691)">
                <path d="M1150.72,664.37L1074.01,708.661L1074.01,797.244L1150.72,841.535L1227.44,797.244L1227.44,708.661L1150.72,664.37Z" style="fill:none;stroke:black;stroke-width:5px;stroke-linecap:round;stroke-linejoin:round;stroke-miterlimit:1.5;"/>
            </g>
            <g transform="matrix(1.22465e-17,-0.2,-0.2,-1.22465e-17,572.244,594.868)">
                <path d="M1150.72,664.37L1074.01,708.661L1074.01,797.244L1150.72,841.535L1227.44,797.244L1227.44,708.661L1150.72,664.37Z" style="fill:none;stroke:black;stroke-width:5px;stroke-linecap:round;stroke-linejoin:round;stroke-miterlimit:1.5;"/>
            </g>
            <g transform="matrix(1.22465e-17,-0.2,-0.2,-1.22465e-17,572.244,558.045)">
                <path d="M1150.72,664.37L1074.01,708.661L1074.01,797.244L1150.72,841.535L1227.44,797.244L1227.44,708.661L1150.72,664.37Z" style="fill:none;stroke:black;stroke-width:5px;stroke-linecap:round;stroke-linejoin:round;stroke-miterlimit:1.5;"/>
            </g>
            <g transform="matrix(1.22465e-17,-0.2,-0.2,-1.22465e-17,572.244,521.222)">
                <path d="M1150.72,664.37L1074.01,708.661L1074.01,797.244L1150.72,841.535L1227.44,797.244L1227.44,708.661L1150.72,664.37Z" style="fill:none;stroke:black;stroke-width:5px;stroke-linecap:round;stroke-linejoin:round;stroke-miterlimit:1.5;"/>
            </g>
            <g transform="matrix(1.22465e-17,-0.2,-0.2,-1.22465e-17,572.244,484.399)">
                <path d="M1150.72,664.37L1074.01,708.661L1074.01,797.244L1150.72,841.535L1227.44,797.244L1227.44,708.661L1150.72,664.37Z" style="fill:none;stroke:black;stroke-width:5px;stroke-linecap:round;stroke-linejoin:round;stroke-miterlimit:1.5;"/>
            </g>
            <g transform="matrix(1.22465e-17,-0.2,-0.2,-1.22465e-17,572.244,447.576)">
                <path d="M1150.72,664.37L1074.01,708.661L1074.01,797.244L1150.72,841.535L1227.44,797.244L1227.44,708.661L1150.72,664.37Z" style="fill:none;stroke:black;stroke-width:5px;stroke-linecap:round;stroke-linejoin:round;stroke-miterlimit:1.5;"/>
            </g>
            <g transform="matrix(1.22465e-17,-0.2,-0.2,-1.22465e-17,572.244,410.752)">
                <path d="M1150.72,664.37L1074.01,708.661L1074.01,797.244L1150.72,841.535L1227.44,797.244L1227.44,708.661L1150.72,664.37Z" style="fill:none;stroke:black;stroke-width:5px;stroke-linecap:round;stroke-linejoin:round;stroke-miterlimit:1.5;"/>
            </g>
            <g transform="matrix(1.22465e-17,-0.2,-0.2,-1.22465e-17,572.244,373.929)">
                <path d="M1150.72,664.37L1074.01,708.661L1074.01,797.244L1150.72,841.535L1227.44,797.244L1227.44,708.661L1150.72,664.37Z" style="fill:none;stroke:black;stroke-width:5px;stroke-linecap:round;stroke-linejoin:round;stroke-miterlimit:1.5;"/>
            </g>
            <g transform="matrix(1.22465e-17,-0.2,-0.2,-1.22465e-17,572.244,337.106)">
                <path d="M1150.72,664.37L1074.01,708.661L1074.01,797.244L1150.72,841.535L1227.44,797.244L1227.44,708.661L1150.72,664.37Z" style="fill:none;stroke:black;stroke-width:5px;stroke-linecap:round;stroke-linejoin:round;stroke-miterlimit:1.5;"/>
            </g>
            <g transform="matrix(1.22465e-17,-0.2,-0.2,-1.22465e-17,572.244,300.283)">
                <path d="M1150.72,664.37L1074.01,708.661L1074.01,797.244L1150.72,841.535L1227.44,797.244L1227.44,708.661L1150.72,664.37Z" style="fill:none;stroke:black;stroke-width:5px;stroke-linecap:round;stroke-linejoin:round;stroke-miterlimit:1.5;"/>
            </g>
            <g transform="matrix(1.22465e-17,-0.2,-0.2,-1.22465e-17,540.354,613.28)">
                <path d="M1150.72,664.37L1074.01,708.661L1074.01,797.244L1150.72,841.535L1227.44,797.244L1227.44,708.661L1150.72,664.37Z" style="fill:none;stroke:black;stroke-width:5px;stroke-linecap:round;stroke-linejoin:round;stroke-miterlimit:1.5;"/>
            </g>
            <g transform="matrix(1.22465e-17,-0.2,-0.2,-1.22465e-17,540.354,576.456)">
                <path d="M1150.72,664.37L1074.01,708.661L1074.01,797.244L1150.72,841.535L1227.44,797.244L1227.44,708.661L1150.72,664.37Z" style="fill:none;stroke:black;stroke-width:5px;stroke-linecap:round;stroke-linejoin:round;stroke-miterlimit:1.5;"/>
            </g>
            <g transform="matrix(1.22465e-17,-0.2,-0.2,-1.22465e-17,540.354,539.633)">
                <path d="M1150.72,664.37L1074.01,708.661L1074.01,797.244L1150.72,841.535L1227.44,797.244L1227.44,708.661L1150.72,664.37Z" style="fill:none;stroke:black;stroke-width:5px;stroke-linecap:round;stroke-linejoin:round;stroke-miterlimit:1.5;"/>
            </g>
            <g transform="matrix(1.22465e-17,-0.2,-0.2,-1.22465e-17,540.354,502.81)">
                <path d="M1150.72,664.37L1074.01,708.661L1074.01,797.244L1150.72,841.535L1227.44,797.244L1227.44,708.661L1150.72,664.37Z" style="fill:none;stroke:black;stroke-width:5px;stroke-linecap:round;stroke-linejoin:round;stroke-miterlimit:1.5;"/>
            </g>
            <g transform="matrix(1.22465e-17,-0.2,-0.2,-1.22465e-17,540.354,465.987)">
                <path d="M1150.72,664.37L1074.01,708.661L1074.01,797.244L1150.72,841.535L1227.44,797.244L1227.44,708.661L1150.72,664.37Z" style="fill:none;stroke:black;stroke-width:5px;stroke-linecap:round;stroke-linejoin:round;stroke-miterlimit:1.5;"/>
            </g>
            <g transform="matrix(1.22465e-17,-0.2,-0.2,-1.22465e-17,540.354,429.164)">
                <path d="M1150.72,664.37L1074.01,708.661L1074.01,797.244L1150.72,841.535L1227.44,797.244L1227.44,708.661L1150.72,664.37Z" style="fill:none;stroke:black;stroke-width:5px;stroke-linecap:round;stroke-linejoin:round;stroke-miterlimit:1.5;"/>
            </g>
            <g transform="matrix(1.22465e-17,-0.2,-0.2,-1.22465e-17,540.354,392.341)">
                <path d="M1150.72,664.37L1074.01,708.661L1074.01,797.244L1150.72,841.535L1227.44,797.244L1227.44,708.661L1150.72,664.37Z" style="fill:none;stroke:black;stroke-width:5px;stroke-linecap:round;stroke-linejoin:round;stroke-miterlimit:1.5;"/>
            </g>
            <g transform="matrix(1.22465e-17,-0.2,-0.2,-1.22465e-17,540.354,355.518)">
                <path d="M1150.72,664.37L1074.01,708.661L1074.01,797.244L1150.72,841.535L1227.44,797.244L1227.44,708.661L1150.72,664.37Z" style="fill:none;stroke:black;stroke-width:5px;stroke-linecap:round;stroke-linejoin:round;stroke-miterlimit:1.5;"/>
            </g>
            <g transform="matrix(1.22465e-17,-0.2,-0.2,-1.22465e-17,540.354,318.695)">
                <path d="M1150.72,664.37L1074.01,708.661L1074.01,797.244L1150.72,841.535L1227.44,797.244L1227.44,708.661L1150.72,664.37Z" style="fill:none;stroke:black;stroke-width:5px;stroke-linecap:round;stroke-linejoin:round;stroke-miterlimit:1.5;"/>
            </g>
            <g transform="matrix(1.22465e-17,-0.2,-0.2,-1.22465e-17,636.024,631.691)">
                <path d="M1150.72,664.37L1074.01,708.661L1074.01,797.244L1150.72,841.535L1227.44,797.244L1227.44,708.661L1150.72,664.37Z" style="fill:none;stroke:black;stroke-width:5px;stroke-linecap:round;stroke-linejoin:round;stroke-miterlimit:1.5;"/>
            </g>
            <g transform="matrix(1.22465e-17,-0.2,-0.2,-1.22465e-17,636.024,594.868)">
                <path d="M1150.72,664.37L1074.01,708.661L1074.01,797.244L1150.72,841.535L1227.44,797.244L1227.44,708.661L1150.72,664.37Z" style="fill:none;stroke:black;stroke-width:5px;stroke-linecap:round;stroke-linejoin:round;stroke-miterlimit:1.5;"/>
            </g>
            <g transform="matrix(1.22465e-17,-0.2,-0.2,-1.22465e-17,636.024,558.045)">
                <path d="M1150.72,664.37L1074.01,708.661L1074.01,797.244L1150.72,841.535L1227.44,797.244L1227.44,708.661L1150.72,664.37Z" style="fill:none;stroke:black;stroke-width:5px;stroke-linecap:round;stroke-linejoin:round;stroke-miterlimit:1.5;"/>
            </g>
            <g transform="matrix(1.22465e-17,-0.2,-0.2,-1.22465e-17,636.024,521.222)">
                <path d="M1150.72,664.37L1074.01,708.661L1074.01,797.244L1150.72,841.535L1227.44,797.244L1227.44,708.661L1150.72,664.37Z" style="fill:none;stroke:black;stroke-width:5px;stroke-linecap:round;stroke-linejoin:round;stroke-miterlimit:1.5;"/>
            </g>
            <g transform="matrix(1.22465e-17,-0.2,-0.2,-1.22465e-17,636.024,484.399)">
                <path d="M1150.72,664.37L1074.01,708.661L1074.01,797.244L1150.72,841.535L1227.44,797.244L1227.44,708.661L1150.72,664.37Z" style="fill:none;stroke:black;stroke-width:5px;stroke-linecap:round;stroke-linejoin:round;stroke-miterlimit:1.5;"/>
            </g>
            <g transform="matrix(1.22465e-17,-0.2,-0.2,-1.22465e-17,636.024,447.576)">
                <path d="M1150.72,664.37L1074.01,708.661L1074.01,797.244L1150.72,841.535L1227.44,797.244L1227.44,708.661L1150.72,664.37Z" style="fill:none;stroke:black;stroke-width:5px;stroke-linecap:round;stroke-linejoin:round;stroke-miterlimit:1.5;"/>
            </g>
            <g transform="matrix(1.22465e-17,-0.2,-0.2,-1.22465e-17,636.024,410.752)">
                <path d="M1150.72,664.37L1074.01,708.661L1074.01,797.244L1150.72,841.535L1227.44,797.244L1227.44,708.661L1150.72,664.37Z" style="fill:none;stroke:black;stroke-width:5px;stroke-linecap:round;stroke-linejoin:round;stroke-miterlimit:1.5;"/>
            </g>
            <g transform="matrix(1.22465e-17,-0.2,-0.2,-1.22465e-17,636.024,373.929)">
                <path d="M1150.72,664.37L1074.01,708.661L1074.01,797.244L1150.72,841.535L1227.44,797.244L1227.44,708.661L1150.72,664.37Z" style="fill:none;stroke:black;stroke-width:5px;stroke-linecap:round;stroke-linejoin:round;stroke-miterlimit:1.5;"/>
            </g>
            <g transform="matrix(1.22465e-17,-0.2,-0.2,-1.22465e-17,636.024,337.106)">
                <path d="M1150.72,664.37L1074.01,708.661L1074.01,797.244L1150.72,841.535L1227.44,797.244L1227.44,708.661L1150.72,664.37Z" style="fill:none;stroke:black;stroke-width:5px;stroke-linecap:round;stroke-linejoin:round;stroke-miterlimit:1.5;"/>
            </g>
            <g transform="matrix(1.22465e-17,-0.2,-0.2,-1.22465e-17,636.024,300.283)">
                <path d="M1150.72,664.37L1074.01,708.661L1074.01,797.244L1150.72,841.535L1227.44,797.244L1227.44,708.661L1150.72,664.37Z" style="fill:none;stroke:black;stroke-width:5px;stroke-linecap:round;stroke-linejoin:round;stroke-miterlimit:1.5;"/>
            </g>
            <g transform="matrix(1.22465e-17,-0.2,-0.2,-1.22465e-17,604.134,613.28)">
                <path d="M1150.72,664.37L1074.01,708.661L1074.01,797.244L1150.72,841.535L1227.44,797.244L1227.44,708.661L1150.72,664.37Z" style="fill:none;stroke:black;stroke-width:5px;stroke-linecap:round;stroke-linejoin:round;stroke-miterlimit:1.5;"/>
            </g>
            <g transform="matrix(1.22465e-17,-0.2,-0.2,-1.22465e-17,604.134,576.456)">
                <path d="M1150.72,664.37L1074.01,708.661L1074.01,797.244L1150.72,841.535L1227.44,797.244L1227.44,708.661L1150.72,664.37Z" style="fill:none;stroke:black;stroke-width:5px;stroke-linecap:round;stroke-linejoin:round;stroke-miterlimit:1.5;"/>
            </g>
            <g transform="matrix(1.22465e-17,-0.2,-0.2,-1.22465e-17,604.134,539.633)">
                <path d="M1150.72,664.37L1074.01,708.661L1074.01,797.244L1150.72,841.535L1227.44,797.244L1227.44,708.661L1150.72,664.37Z" style="fill:none;stroke:black;stroke-width:5px;stroke-linecap:round;stroke-linejoin:round;stroke-miterlimit:1.5;"/>
            </g>
            <g transform="matrix(1.22465e-17,-0.2,-0.2,-1.22465e-17,604.134,502.81)">
                <path d="M1150.72,664.37L1074.01,708.661L1074.01,797.244L1150.72,841.535L1227.44,797.244L1227.44,708.661L1150.72,664.37Z" style="fill:none;stroke:black;stroke-width:5px;stroke-linecap:round;stroke-linejoin:round;stroke-miterlimit:1.5;"/>
            </g>
            <g transform="matrix(1.22465e-17,-0.2,-0.2,-1.22465e-17,604.134,465.987)">
                <path d="M1150.72,664.37L1074.01,708.661L1074.01,797.244L1150.72,841.535L1227.44,797.244L1227.44,708.661L1150.72,664.37Z" style="fill:none;stroke:black;stroke-width:5px;stroke-linecap:round;stroke-linejoin:round;stroke-miterlimit:1.5;"/>
            </g>
            <g transform="matrix(1.22465e-17,-0.2,-0.2,-1.22465e-17,604.134,429.164)">
                <path d="M1150.72,664.37L1074.01,708.661L1074.01,797.244L1150.72,841.535L1227.44,797.244L1227.44,708.661L1150.72,664.37Z" style="fill:none;stroke:black;stroke-width:5px;stroke-linecap:round;stroke-linejoin:round;stroke-miterlimit:1.5;"/>
            </g>
            <g transform="matrix(1.22465e-17,-0.2,-0.2,-1.22465e-17,604.134,392.341)">
                <path d="M1150.72,664.37L1074.01,708.661L1074.01,797.244L1150.72,841.535L1227.44,797.244L1227.44,708.661L1150.72,664.37Z" style="fill:none;stroke:black;stroke-width:5px;stroke-linecap:round;stroke-linejoin:round;stroke-miterlimit:1.5;"/>
            </g>
            <g transform="matrix(1.22465e-17,-0.2,-0.2,-1.22465e-17,604.134,355.518)">
                <path d="M1150.72,664.37L1074.01,708.661L1074.01,797.244L1150.72,841.535L1227.44,797.244L1227.44,708.661L1150.72,664.37Z" style="fill:none;stroke:black;stroke-width:5px;stroke-linecap:round;stroke-linejoin:round;stroke-miterlimit:1.5;"/>
            </g>
            <g transform="matrix(1.22465e-17,-0.2,-0.2,-1.22465e-17,604.134,318.695)">
                <path d="M1150.72,664.37L1074.01,708.661L1074.01,797.244L1150.72,841.535L1227.44,797.244L1227.44,708.661L1150.72,664.37Z" style="fill:none;stroke:black;stroke-width:5px;stroke-linecap:round;stroke-linejoin:round;stroke-miterlimit:1.5;"/>
            </g>
            <g transform="matrix(1.22465e-17,-0.2,-0.2,-1.22465e-17,699.803,631.691)">
                <path d="M1150.72,664.37L1074.01,708.661L1074.01,797.244L1150.72,841.535L1227.44,797.244L1227.44,708.661L1150.72,664.37Z" style="fill:none;stroke:black;stroke-width:5px;stroke-linecap:round;stroke-linejoin:round;stroke-miterlimit:1.5;"/>
            </g>
            <g transform="matrix(1.22465e-17,-0.2,-0.2,-1.22465e-17,699.803,594.868)">
                <path d="M1150.72,664.37L1074.01,708.661L1074.01,797.244L1150.72,841.535L1227.44,797.244L1227.44,708.661L1150.72,664.37Z" style="fill:none;stroke:black;stroke-width:5px;stroke-linecap:round;stroke-linejoin:round;stroke-miterlimit:1.5;"/>
            </g>
            <g transform="matrix(1.22465e-17,-0.2,-0.2,-1.22465e-17,699.803,558.045)">
                <path d="M1150.72,664.37L1074.01,708.661L1074.01,797.244L1150.72,841.535L1227.44,797.244L1227.44,708.661L1150.72,664.37Z" style="fill:none;stroke:black;stroke-width:5px;stroke-linecap:round;stroke-linejoin:round;stroke-miterlimit:1.5;"/>
            </g>
            <g transform="matrix(1.22465e-17,-0.2,-0.2,-1.22465e-17,699.803,521.222)">
                <path d="M1150.72,664.37L1074.01,708.661L1074.01,797.244L1150.72,841.535L1227.44,797.244L1227.44,708.661L1150.72,664.37Z" style="fill:none;stroke:black;stroke-width:5px;stroke-linecap:round;stroke-linejoin:round;stroke-miterlimit:1.5;"/>
            </g>
            <g transform="matrix(1.22465e-17,-0.2,-0.2,-1.22465e-17,699.803,484.399)">
                <path d="M1150.72,664.37L1074.01,708.661L1074.01,797.244L1150.72,841.535L1227.44,797.244L1227.44,708.661L1150.72,664.37Z" style="fill:none;stroke:black;stroke-width:5px;stroke-linecap:round;stroke-linejoin:round;stroke-miterlimit:1.5;"/>
            </g>
            <g transform="matrix(1.22465e-17,-0.2,-0.2,-1.22465e-17,699.803,447.576)">
                <path d="M1150.72,664.37L1074.01,708.661L1074.01,797.244L1150.72,841.535L1227.44,797.244L1227.44,708.661L1150.72,664.37Z" style="fill:none;stroke:black;stroke-width:5px;stroke-linecap:round;stroke-linejoin:round;stroke-miterlimit:1.5;"/>
            </g>
            <g transform="matrix(1.22465e-17,-0.2,-0.2,-1.22465e-17,699.803,410.752)">
                <path d="M1150.72,664.37L1074.01,708.661L1074.01,797.244L1150.72,841.535L1227.44,797.244L1227.44,708.661L1150.72,664.37Z" style="fill:none;stroke:black;stroke-width:5px;stroke-linecap:round;stroke-linejoin:round;stroke-miterlimit:1.5;"/>
            </g>
            <g transform="matrix(1.22465e-17,-0.2,-0.2,-1.22465e-17,699.803,373.929)">
                <path d="M1150.72,664.37L1074.01,708.661L1074.01,797.244L1150.72,841.535L1227.44,797.244L1227.44,708.661L1150.72,664.37Z" style="fill:none;stroke:black;stroke-width:5px;stroke-linecap:round;stroke-linejoin:round;stroke-miterlimit:1.5;"/>
            </g>
            <g transform="matrix(1.22465e-17,-0.2,-0.2,-1.22465e-17,699.803,337.106)">
                <path d="M1150.72,664.37L1074.01,708.661L1074.01,797.244L1150.72,841.535L1227.44,797.244L1227.44,708.661L1150.72,664.37Z" style="fill:none;stroke:black;stroke-width:5px;stroke-linecap:round;stroke-linejoin:round;stroke-miterlimit:1.5;"/>
            </g>
            <g transform="matrix(1.22465e-17,-0.2,-0.2,-1.22465e-17,699.803,300.283)">
                <path d="M1150.72,664.37L1074.01,708.661L1074.01,797.244L1150.72,841.535L1227.44,797.244L1227.44,708.661L1150.72,664.37Z" style="fill:none;stroke:black;stroke-width:5px;stroke-linecap:round;stroke-linejoin:round;stroke-miterlimit:1.5;"/>
            </g>
            <g transform="matrix(1.22465e-17,-0.2,-0.2,-1.22465e-17,667.913,613.28)">
                <path d="M1150.72,664.37L1074.01,708.661L1074.01,797.244L1150.72,841.535L1227.44,797.244L1227.44,708.661L1150.72,664.37Z" style="fill:none;stroke:black;stroke-width:5px;stroke-linecap:round;stroke-linejoin:round;stroke-miterlimit:1.5;"/>
            </g>
            <g transform="matrix(1.22465e-17,-0.2,-0.2,-1.22465e-17,667.913,576.456)">
                <path d="M1150.72,664.37L1074.01,708.661L1074.01,797.244L1150.72,841.535L1227.44,797.244L1227.44,708.661L1150.72,664.37Z" style="fill:none;stroke:black;stroke-width:5px;stroke-linecap:round;stroke-linejoin:round;stroke-miterlimit:1.5;"/>
            </g>
            <g transform="matrix(1.22465e-17,-0.2,-0.2,-1.22465e-17,667.913,539.633)">
                <path d="M1150.72,664.37L1074.01,708.661L1074.01,797.244L1150.72,841.535L1227.44,797.244L1227.44,708.661L1150.72,664.37Z" style="fill:none;stroke:black;stroke-width:5px;stroke-linecap:round;stroke-linejoin:round;stroke-miterlimit:1.5;"/>
            </g>
            <g transform="matrix(1.22465e-17,-0.2,-0.2,-1.22465e-17,667.913,502.81)">
                <path d="M1150.72,664.37L1074.01,708.661L1074.01,797.244L1150.72,841.535L1227.44,797.244L1227.44,708.661L1150.72,664.37Z" style="fill:none;stroke:black;stroke-width:5px;stroke-linecap:round;stroke-linejoin:round;stroke-miterlimit:1.5;"/>
            </g>
            <g transform="matrix(1.22465e-17,-0.2,-0.2,-1.22465e-17,667.913,465.987)">
                <path d="M1150.72,664.37L1074.01,708.661L1074.01,797.244L1150.72,841.535L1227.44,797.244L1227.44,708.661L1150.72,664.37Z" style="fill:none;stroke:black;stroke-width:5px;stroke-linecap:round;stroke-linejoin:round;stroke-miterlimit:1.5;"/>
            </g>
            <g transform="matrix(1.22465e-17,-0.2,-0.2,-1.22465e-17,667.913,429.164)">
                <path d="M1150.72,664.37L1074.01,708.661L1074.01,797.244L1150.72,841.535L1227.44,797.244L1227.44,708.661L1150.72,664.37Z" style="fill:none;stroke:black;stroke-width:5px;stroke-linecap:round;stroke-linejoin:round;stroke-miterlimit:1.5;"/>
            </g>
            <g transform="matrix(1.22465e-17,-0.2,-0.2,-1.22465e-17,667.913,392.341)">
                <path d="M1150.72,664.37L1074.01,708.661L1074.01,797.244L1150.72,841.535L1227.44,797.244L1227.44,708.661L1150.72,664.37Z" style="fill:none;stroke:black;stroke-width:5px;stroke-linecap:round;stroke-linejoin:round;stroke-miterlimit:1.5;"/>
            </g>
            <g transform="matrix(1.22465e-17,-0.2,-0.2,-1.22465e-17,667.913,355.518)">
                <path d="M1150.72,664.37L1074.01,708.661L1074.01,797.244L1150.72,841.535L1227.44,797.244L1227.44,708.661L1150.72,664.37Z" style="fill:none;stroke:black;stroke-width:5px;stroke-linecap:round;stroke-linejoin:round;stroke-miterlimit:1.5;"/>
            </g>
            <g transform="matrix(1.22465e-17,-0.2,-0.2,-1.22465e-17,667.913,318.695)">
                <path d="M1150.72,664.37L1074.01,708.661L1074.01,797.244L1150.72,841.535L1227.44,797.244L1227.44,708.661L1150.72,664.37Z" style="fill:none;stroke:black;stroke-width:5px;stroke-linecap:round;stroke-linejoin:round;stroke-miterlimit:1.5;"/>
            </g>
            <g transform="matrix(1.22465e-17,-0.2,-0.2,-1.22465e-17,763.583,594.868)">
                <path d="M1150.72,664.37L1074.01,708.661L1074.01,797.244L1150.72,841.535L1227.44,797.244L1227.44,708.661L1150.72,664.37Z" style="fill:none;stroke:black;stroke-width:5px;stroke-linecap:round;stroke-linejoin:round;stroke-miterlimit:1.5;"/>
            </g>
            <g transform="matrix(1.22465e-17,-0.2,-0.2,-1.22465e-17,763.583,558.045)">
                <path d="M1150.72,664.37L1074.01,708.661L1074.01,797.244L1150.72,841.535L1227.44,797.244L1227.44,708.661L1150.72,664.37Z" style="fill:none;stroke:black;stroke-width:5px;stroke-linecap:round;stroke-linejoin:round;stroke-miterlimit:1.5;"/>
            </g>
            <g transform="matrix(1.22465e-17,-0.2,-0.2,-1.22465e-17,763.583,521.222)">
                <path d="M1150.72,664.37L1074.01,708.661L1074.01,797.244L1150.72,841.535L1227.44,797.244L1227.44,708.661L1150.72,664.37Z" style="fill:none;stroke:black;stroke-width:5px;stroke-linecap:round;stroke-linejoin:round;stroke-miterlimit:1.5;"/>
            </g>
            <g transform="matrix(1.22465e-17,-0.2,-0.2,-1.22465e-17,763.583,484.399)">
                <path d="M1150.72,664.37L1074.01,708.661L1074.01,797.244L1150.72,841.535L1227.44,797.244L1227.44,708.661L1150.72,664.37Z" style="fill:none;stroke:black;stroke-width:5px;stroke-linecap:round;stroke-linejoin:round;stroke-miterlimit:1.5;"/>
            </g>
            <g transform="matrix(1.22465e-17,-0.2,-0.2,-1.22465e-17,763.583,447.576)">
                <path d="M1150.72,664.37L1074.01,708.661L1074.01,797.244L1150.72,841.535L1227.44,797.244L1227.44,708.661L1150.72,664.37Z" style="fill:none;stroke:black;stroke-width:5px;stroke-linecap:round;stroke-linejoin:round;stroke-miterlimit:1.5;"/>
            </g>
            <g transform="matrix(1.22465e-17,-0.2,-0.2,-1.22465e-17,763.583,410.752)">
                <path d="M1150.72,664.37L1074.01,708.661L1074.01,797.244L1150.72,841.535L1227.44,797.244L1227.44,708.661L1150.72,664.37Z" style="fill:none;stroke:black;stroke-width:5px;stroke-linecap:round;stroke-linejoin:round;stroke-miterlimit:1.5;"/>
            </g>
            <g transform="matrix(1.22465e-17,-0.2,-0.2,-1.22465e-17,763.583,373.929)">
                <path d="M1150.72,664.37L1074.01,708.661L1074.01,797.244L1150.72,841.535L1227.44,797.244L1227.44,708.661L1150.72,664.37Z" style="fill:none;stroke:black;stroke-width:5px;stroke-linecap:round;stroke-linejoin:round;stroke-miterlimit:1.5;"/>
            </g>
            <g transform="matrix(1.22465e-17,-0.2,-0.2,-1.22465e-17,763.583,337.106)">
                <path d="M1150.72,664.37L1074.01,708.661L1074.01,797.244L1150.72,841.535L1227.44,797.244L1227.44,708.661L1150.72,664.37Z" style="fill:none;stroke:black;stroke-width:5px;stroke-linecap:round;stroke-linejoin:round;stroke-miterlimit:1.5;"/>
            </g>
            <g transform="matrix(1.22465e-17,-0.2,-0.2,-1.22465e-17,731.693,576.456)">
                <path d="M1150.72,664.37L1074.01,708.661L1074.01,797.244L1150.72,841.535L1227.44,797.244L1227.44,708.661L1150.72,664.37Z" style="fill:none;stroke:black;stroke-width:5px;stroke-linecap:round;stroke-linejoin:round;stroke-miterlimit:1.5;"/>
            </g>
            <g transform="matrix(1.22465e-17,-0.2,-0.2,-1.22465e-17,731.693,539.633)">
                <path d="M1150.72,664.37L1074.01,708.661L1074.01,797.244L1150.72,841.535L1227.44,797.244L1227.44,708.661L1150.72,664.37Z" style="fill:none;stroke:black;stroke-width:5px;stroke-linecap:round;stroke-linejoin:round;stroke-miterlimit:1.5;"/>
            </g>
            <g transform="matrix(1.22465e-17,-0.2,-0.2,-1.22465e-17,731.693,502.81)">
                <path d="M1150.72,664.37L1074.01,708.661L1074.01,797.244L1150.72,841.535L1227.44,797.244L1227.44,708.661L1150.72,664.37Z" style="fill:none;stroke:black;stroke-width:5px;stroke-linecap:round;stroke-linejoin:round;stroke-miterlimit:1.5;"/>
            </g>
            <g transform="matrix(1.22465e-17,-0.2,-0.2,-1.22465e-17,731.693,465.987)">
                <path d="M1150.72,664.37L1074.01,708.661L1074.01,797.244L1150.72,841.535L1227.44,797.244L1227.44,708.661L1150.72,664.37Z" style="fill:none;stroke:black;stroke-width:5px;stroke-linecap:round;stroke-linejoin:round;stroke-miterlimit:1.5;"/>
            </g>
            <g transform="matrix(1.22465e-17,-0.2,-0.2,-1.22465e-17,731.693,429.164)">
                <path d="M1150.72,664.37L1074.01,708.661L1074.01,797.244L1150.72,841.535L1227.44,797.244L1227.44,708.661L1150.72,664.37Z" style="fill:none;stroke:black;stroke-width:5px;stroke-linecap:round;stroke-linejoin:round;stroke-miterlimit:1.5;"/>
            </g>
            <g transform="matrix(1.22465e-17,-0.2,-0.2,-1.22465e-17,731.693,392.341)">
                <path d="M1150.72,664.37L1074.01,708.661L1074.01,797.244L1150.72,841.535L1227.44,797.244L1227.44,708.661L1150.72,664.37Z" style="fill:none;stroke:black;stroke-width:5px;stroke-linecap:round;stroke-linejoin:round;stroke-miterlimit:1.5;"/>
            </g>
            <g transform="matrix(1.22465e-17,-0.2,-0.2,-1.22465e-17,731.693,355.518)">
                <path d="M1150.72,664.37L1074.01,708.661L1074.01,797.244L1150.72,841.535L1227.44,797.244L1227.44,708.661L1150.72,664.37Z" style="fill:none;stroke:black;stroke-width:5px;stroke-linecap:round;stroke-linejoin:round;stroke-miterlimit:1.5;"/>
            </g>
            <g transform="matrix(1.22465e-17,-0.2,-0.2,-1.22465e-17,795.472,539.633)">
                <path d="M1150.72,664.37L1074.01,708.661L1074.01,797.244L1150.72,841.535L1227.44,797.244L1227.44,708.661L1150.72,664.37Z" style="fill:none;stroke:black;stroke-width:5px;stroke-linecap:round;stroke-linejoin:round;stroke-miterlimit:1.5;"/>
            </g>
            <g transform="matrix(1.22465e-17,-0.2,-0.2,-1.22465e-17,795.472,502.81)">
                <path d="M1150.72,664.37L1074.01,708.661L1074.01,797.244L1150.72,841.535L1227.44,797.244L1227.44,708.661L1150.72,664.37Z" style="fill:none;stroke:black;stroke-width:5px;stroke-linecap:round;stroke-linejoin:round;stroke-miterlimit:1.5;"/>
            </g>
            <g transform="matrix(1.22465e-17,-0.2,-0.2,-1.22465e-17,795.472,465.987)">
                <path d="M1150.72,664.37L1074.01,708.661L1074.01,797.244L1150.72,841.535L1227.44,797.244L1227.44,708.661L1150.72,664.37Z" style="fill:none;stroke:black;stroke-width:5px;stroke-linecap:round;stroke-linejoin:round;stroke-miterlimit:1.5;"/>
            </g>
            <g transform="matrix(1.22465e-17,-0.2,-0.2,-1.22465e-17,795.472,429.164)">
                <path d="M1150.72,664.37L1074.01,708.661L1074.01,797.244L1150.72,841.535L1227.44,797.244L1227.44,708.661L1150.72,664.37Z" style="fill:none;stroke:black;stroke-width:5px;stroke-linecap:round;stroke-linejoin:round;stroke-miterlimit:1.5;"/>
            </g>
            <g transform="matrix(1.22465e-17,-0.2,-0.2,-1.22465e-17,795.472,392.341)">
                <path d="M1150.72,664.37L1074.01,708.661L1074.01,797.244L1150.72,841.535L1227.44,797.244L1227.44,708.661L1150.72,664.37Z" style="fill:none;stroke:black;stroke-width:5px;stroke-linecap:round;stroke-linejoin:round;stroke-miterlimit:1.5;"/>
            </g>
        </g>
    </g>
</svg>
