<?xml version="1.0" encoding="UTF-8" standalone="no"?>
<!DOCTYPE svg PUBLIC "-//W3C//DTD SVG 1.1//EN" "http://www.w3.org/Graphics/SVG/1.1/DTD/svg11.dtd">
<svg width="100%" height="100%" viewBox="0 0 666 440" version="1.1" xmlns="http://www.w3.org/2000/svg" xmlns:xlink="http://www.w3.org/1999/xlink" xml:space="preserve" xmlns:serif="http://www.serif.com/" style="fill-rule:evenodd;clip-rule:evenodd;">
    <g id="Sketch" transform="matrix(1,0,0,-1,6.51969,455.528)">
        <g>
            <path id="Sketch_w0000" d="M0,28.346L0,443.339C0,446.449 2.559,449.008 5.669,449.008L646.299,449.008C649.409,449.008 651.969,446.449 651.969,443.339L651.969,28.346C651.969,25.236 649.409,22.677 646.299,22.677L5.669,22.677C2.559,22.677 -0,25.236 0,28.346" style="fill:none;stroke:black;stroke-width:0.99px;"/>
        </g>
        <g transform="matrix(1.30509e-17,-0.213138,-0.213138,-1.30509e-17,698.318,509.82)">
            <path d="M754.363,450.295L754.363,524.114L690.434,561.024L690.434,575.787L703.219,583.169L767.148,546.26L831.078,583.169L843.863,575.787L843.863,561.024L779.995,524.149L779.934,450.295L767.148,442.913L754.363,450.295Z" style="fill:none;stroke:black;stroke-width:4.69px;stroke-linecap:round;stroke-linejoin:round;stroke-miterlimit:1.5;"/>
        </g>
        <g transform="matrix(1.30509e-17,-0.213138,-0.213138,-1.30509e-17,698.318,472.997)">
            <path d="M754.363,450.295L754.363,524.114L690.434,561.024L690.434,575.787L703.219,583.169L767.148,546.26L831.078,583.169L843.863,575.787L843.863,561.024L779.995,524.149L779.934,450.295L767.148,442.913L754.363,450.295Z" style="fill:none;stroke:black;stroke-width:4.69px;stroke-linecap:round;stroke-linejoin:round;stroke-miterlimit:1.5;"/>
        </g>
        <g transform="matrix(1.30509e-17,-0.213138,-0.213138,-1.30509e-17,698.318,546.644)">
            <path d="M754.363,450.295L754.363,524.114L690.434,561.024L690.434,575.787L703.219,583.169L767.148,546.26L831.078,583.169L843.863,575.787L843.863,561.024L779.995,524.149L779.934,450.295L767.148,442.913L754.363,450.295Z" style="fill:none;stroke:black;stroke-width:4.69px;stroke-linecap:round;stroke-linejoin:round;stroke-miterlimit:1.5;"/>
        </g>
        <g transform="matrix(1.30509e-17,-0.213138,-0.213138,-1.30509e-17,698.318,436.174)">
            <path d="M754.363,450.295L754.363,524.114L690.434,561.024L690.434,575.787L703.219,583.169L767.148,546.26L831.078,583.169L843.863,575.787L843.863,561.024L779.995,524.149L779.934,450.295L767.148,442.913L754.363,450.295Z" style="fill:none;stroke:black;stroke-width:4.69px;stroke-linecap:round;stroke-linejoin:round;stroke-miterlimit:1.5;"/>
        </g>
        <g transform="matrix(1.30509e-17,-0.213138,-0.213138,-1.30509e-17,698.318,399.351)">
            <path d="M754.363,450.295L754.363,524.114L690.434,561.024L690.434,575.787L703.219,583.169L767.148,546.26L831.078,583.169L843.863,575.787L843.863,561.024L779.995,524.149L779.934,450.295L767.148,442.913L754.363,450.295Z" style="fill:none;stroke:black;stroke-width:4.69px;stroke-linecap:round;stroke-linejoin:round;stroke-miterlimit:1.5;"/>
        </g>
        <g transform="matrix(1.30509e-17,-0.213138,-0.213138,-1.30509e-17,698.318,362.528)">
            <path d="M754.363,450.295L754.363,524.114L690.434,561.024L690.434,575.787L703.219,583.169L767.148,546.26L831.078,583.169L843.863,575.787L843.863,561.024L779.995,524.149L779.934,450.295L767.148,442.913L754.363,450.295Z" style="fill:none;stroke:black;stroke-width:4.69px;stroke-linecap:round;stroke-linejoin:round;stroke-miterlimit:1.5;"/>
        </g>
        <g transform="matrix(1.30509e-17,-0.213138,-0.213138,-1.30509e-17,698.318,288.882)">
            <path d="M754.363,450.295L754.363,524.114L690.434,561.024L690.434,575.787L703.219,583.169L767.148,546.26L831.078,583.169L843.863,575.787L843.863,561.024L779.995,524.149L779.934,450.295L767.148,442.913L754.363,450.295Z" style="fill:none;stroke:black;stroke-width:4.69px;stroke-linecap:round;stroke-linejoin:round;stroke-miterlimit:1.5;"/>
        </g>
        <g transform="matrix(1.30509e-17,-0.213138,-0.213138,-1.30509e-17,698.318,252.059)">
            <path d="M754.363,450.295L754.363,524.114L690.434,561.024L690.434,575.787L703.219,583.169L767.148,546.26L831.078,583.169L843.863,575.787L843.863,561.024L779.995,524.149L779.934,450.295L767.148,442.913L754.363,450.295Z" style="fill:none;stroke:black;stroke-width:4.69px;stroke-linecap:round;stroke-linejoin:round;stroke-miterlimit:1.5;"/>
        </g>
        <g transform="matrix(1.30509e-17,-0.213138,-0.213138,-1.30509e-17,698.318,325.705)">
            <path d="M754.363,450.295L754.363,524.114L690.434,561.024L690.434,575.787L703.219,583.169L767.148,546.26L831.078,583.169L843.863,575.787L843.863,561.024L779.995,524.149L779.934,450.295L767.148,442.913L754.363,450.295Z" style="fill:none;stroke:black;stroke-width:4.69px;stroke-linecap:round;stroke-linejoin:round;stroke-miterlimit:1.5;"/>
        </g>
        <g transform="matrix(1.30509e-17,-0.213138,-0.213138,-1.30509e-17,666.428,565.055)">
            <path d="M754.363,450.295L754.363,524.114L690.434,561.024L690.434,575.787L703.219,583.169L767.148,546.26L831.078,583.169L843.863,575.787L843.863,561.024L779.995,524.149L779.934,450.295L767.148,442.913L754.363,450.295Z" style="fill:none;stroke:black;stroke-width:4.69px;stroke-linecap:round;stroke-linejoin:round;stroke-miterlimit:1.5;"/>
        </g>
        <g transform="matrix(1.30509e-17,-0.213138,-0.213138,-1.30509e-17,666.428,528.232)">
            <path d="M754.363,450.295L754.363,524.114L690.434,561.024L690.434,575.787L703.219,583.169L767.148,546.26L831.078,583.169L843.863,575.787L843.863,561.024L779.995,524.149L779.934,450.295L767.148,442.913L754.363,450.295Z" style="fill:none;stroke:black;stroke-width:4.69px;stroke-linecap:round;stroke-linejoin:round;stroke-miterlimit:1.5;"/>
        </g>
        <g transform="matrix(1.30509e-17,-0.213138,-0.213138,-1.30509e-17,634.538,509.82)">
            <path d="M754.363,450.295L754.363,524.114L690.434,561.024L690.434,575.787L703.219,583.169L767.148,546.26L831.078,583.169L843.863,575.787L843.863,561.024L779.995,524.149L779.934,450.295L767.148,442.913L754.363,450.295Z" style="fill:none;stroke:black;stroke-width:4.69px;stroke-linecap:round;stroke-linejoin:round;stroke-miterlimit:1.5;"/>
        </g>
        <g transform="matrix(1.30509e-17,-0.213138,-0.213138,-1.30509e-17,634.538,472.997)">
            <path d="M754.363,450.295L754.363,524.114L690.434,561.024L690.434,575.787L703.219,583.169L767.148,546.26L831.078,583.169L843.863,575.787L843.863,561.024L779.995,524.149L779.934,450.295L767.148,442.913L754.363,450.295Z" style="fill:none;stroke:black;stroke-width:4.69px;stroke-linecap:round;stroke-linejoin:round;stroke-miterlimit:1.5;"/>
        </g>
        <g transform="matrix(1.30509e-17,-0.213138,-0.213138,-1.30509e-17,666.428,491.409)">
            <path d="M754.363,450.295L754.363,524.114L690.434,561.024L690.434,575.787L703.219,583.169L767.148,546.26L831.078,583.169L843.863,575.787L843.863,561.024L779.995,524.149L779.934,450.295L767.148,442.913L754.363,450.295Z" style="fill:none;stroke:black;stroke-width:4.69px;stroke-linecap:round;stroke-linejoin:round;stroke-miterlimit:1.5;"/>
        </g>
        <g transform="matrix(1.30509e-17,-0.213138,-0.213138,-1.30509e-17,634.538,546.644)">
            <path d="M754.363,450.295L754.363,524.114L690.434,561.024L690.434,575.787L703.219,583.169L767.148,546.26L831.078,583.169L843.863,575.787L843.863,561.024L779.995,524.149L779.934,450.295L767.148,442.913L754.363,450.295Z" style="fill:none;stroke:black;stroke-width:4.69px;stroke-linecap:round;stroke-linejoin:round;stroke-miterlimit:1.5;"/>
        </g>
        <g transform="matrix(1.30509e-17,-0.213138,-0.213138,-1.30509e-17,666.428,454.586)">
            <path d="M754.363,450.295L754.363,524.114L690.434,561.024L690.434,575.787L703.219,583.169L767.148,546.26L831.078,583.169L843.863,575.787L843.863,561.024L779.995,524.149L779.934,450.295L767.148,442.913L754.363,450.295Z" style="fill:none;stroke:black;stroke-width:4.69px;stroke-linecap:round;stroke-linejoin:round;stroke-miterlimit:1.5;"/>
        </g>
        <g transform="matrix(1.30509e-17,-0.213138,-0.213138,-1.30509e-17,634.538,436.174)">
            <path d="M754.363,450.295L754.363,524.114L690.434,561.024L690.434,575.787L703.219,583.169L767.148,546.26L831.078,583.169L843.863,575.787L843.863,561.024L779.995,524.149L779.934,450.295L767.148,442.913L754.363,450.295Z" style="fill:none;stroke:black;stroke-width:4.69px;stroke-linecap:round;stroke-linejoin:round;stroke-miterlimit:1.5;"/>
        </g>
        <g transform="matrix(1.30509e-17,-0.213138,-0.213138,-1.30509e-17,634.538,399.351)">
            <path d="M754.363,450.295L754.363,524.114L690.434,561.024L690.434,575.787L703.219,583.169L767.148,546.26L831.078,583.169L843.863,575.787L843.863,561.024L779.995,524.149L779.934,450.295L767.148,442.913L754.363,450.295Z" style="fill:none;stroke:black;stroke-width:4.69px;stroke-linecap:round;stroke-linejoin:round;stroke-miterlimit:1.5;"/>
        </g>
        <g transform="matrix(1.30509e-17,-0.213138,-0.213138,-1.30509e-17,666.428,417.763)">
            <path d="M754.363,450.295L754.363,524.114L690.434,561.024L690.434,575.787L703.219,583.169L767.148,546.26L831.078,583.169L843.863,575.787L843.863,561.024L779.995,524.149L779.934,450.295L767.148,442.913L754.363,450.295Z" style="fill:none;stroke:black;stroke-width:4.69px;stroke-linecap:round;stroke-linejoin:round;stroke-miterlimit:1.5;"/>
        </g>
        <g transform="matrix(1.30509e-17,-0.213138,-0.213138,-1.30509e-17,666.428,380.939)">
            <path d="M754.363,450.295L754.363,524.114L690.434,561.024L690.434,575.787L703.219,583.169L767.148,546.26L831.078,583.169L843.863,575.787L843.863,561.024L779.995,524.149L779.934,450.295L767.148,442.913L754.363,450.295Z" style="fill:none;stroke:black;stroke-width:4.69px;stroke-linecap:round;stroke-linejoin:round;stroke-miterlimit:1.5;"/>
        </g>
        <g transform="matrix(1.30509e-17,-0.213138,-0.213138,-1.30509e-17,634.538,362.528)">
            <path d="M754.363,450.295L754.363,524.114L690.434,561.024L690.434,575.787L703.219,583.169L767.148,546.26L831.078,583.169L843.863,575.787L843.863,561.024L779.995,524.149L779.934,450.295L767.148,442.913L754.363,450.295Z" style="fill:none;stroke:black;stroke-width:4.69px;stroke-linecap:round;stroke-linejoin:round;stroke-miterlimit:1.5;"/>
        </g>
        <g transform="matrix(1.30509e-17,-0.213138,-0.213138,-1.30509e-17,666.428,344.116)">
            <path d="M754.363,450.295L754.363,524.114L690.434,561.024L690.434,575.787L703.219,583.169L767.148,546.26L831.078,583.169L843.863,575.787L843.863,561.024L779.995,524.149L779.934,450.295L767.148,442.913L754.363,450.295Z" style="fill:none;stroke:black;stroke-width:4.69px;stroke-linecap:round;stroke-linejoin:round;stroke-miterlimit:1.5;"/>
        </g>
        <g transform="matrix(1.30509e-17,-0.213138,-0.213138,-1.30509e-17,666.428,307.293)">
            <path d="M754.363,450.295L754.363,524.114L690.434,561.024L690.434,575.787L703.219,583.169L767.148,546.26L831.078,583.169L843.863,575.787L843.863,561.024L779.995,524.149L779.934,450.295L767.148,442.913L754.363,450.295Z" style="fill:none;stroke:black;stroke-width:4.69px;stroke-linecap:round;stroke-linejoin:round;stroke-miterlimit:1.5;"/>
        </g>
        <g transform="matrix(1.30509e-17,-0.213138,-0.213138,-1.30509e-17,634.538,288.882)">
            <path d="M754.363,450.295L754.363,524.114L690.434,561.024L690.434,575.787L703.219,583.169L767.148,546.26L831.078,583.169L843.863,575.787L843.863,561.024L779.995,524.149L779.934,450.295L767.148,442.913L754.363,450.295Z" style="fill:none;stroke:black;stroke-width:4.69px;stroke-linecap:round;stroke-linejoin:round;stroke-miterlimit:1.5;"/>
        </g>
        <g transform="matrix(1.30509e-17,-0.213138,-0.213138,-1.30509e-17,634.538,252.059)">
            <path d="M754.363,450.295L754.363,524.114L690.434,561.024L690.434,575.787L703.219,583.169L767.148,546.26L831.078,583.169L843.863,575.787L843.863,561.024L779.995,524.149L779.934,450.295L767.148,442.913L754.363,450.295Z" style="fill:none;stroke:black;stroke-width:4.69px;stroke-linecap:round;stroke-linejoin:round;stroke-miterlimit:1.5;"/>
        </g>
        <g transform="matrix(1.30509e-17,-0.213138,-0.213138,-1.30509e-17,666.428,270.47)">
            <path d="M754.363,450.295L754.363,524.114L690.434,561.024L690.434,575.787L703.219,583.169L767.148,546.26L831.078,583.169L843.863,575.787L843.863,561.024L779.995,524.149L779.934,450.295L767.148,442.913L754.363,450.295Z" style="fill:none;stroke:black;stroke-width:4.69px;stroke-linecap:round;stroke-linejoin:round;stroke-miterlimit:1.5;"/>
        </g>
        <g transform="matrix(1.30509e-17,-0.213138,-0.213138,-1.30509e-17,634.538,325.705)">
            <path d="M754.363,450.295L754.363,524.114L690.434,561.024L690.434,575.787L703.219,583.169L767.148,546.26L831.078,583.169L843.863,575.787L843.863,561.024L779.995,524.149L779.934,450.295L767.148,442.913L754.363,450.295Z" style="fill:none;stroke:black;stroke-width:4.69px;stroke-linecap:round;stroke-linejoin:round;stroke-miterlimit:1.5;"/>
        </g>
        <g transform="matrix(1.30509e-17,-0.213138,-0.213138,-1.30509e-17,666.428,233.647)">
            <path d="M754.363,450.295L754.363,524.114L690.434,561.024L690.434,575.787L703.219,583.169L767.148,546.26L831.078,583.169L843.863,575.787L843.863,561.024L779.995,524.149L779.934,450.295L767.148,442.913L754.363,450.295Z" style="fill:none;stroke:black;stroke-width:4.69px;stroke-linecap:round;stroke-linejoin:round;stroke-miterlimit:1.5;"/>
        </g>
        <g transform="matrix(1.30509e-17,-0.213138,-0.213138,-1.30509e-17,283.751,565.055)">
            <path d="M754.363,450.295L754.363,524.114L690.434,561.024L690.434,575.787L703.219,583.169L767.148,546.26L831.078,583.169L843.863,575.787L843.863,561.024L779.995,524.149L779.934,450.295L767.148,442.913L754.363,450.295Z" style="fill:none;stroke:black;stroke-width:4.69px;stroke-linecap:round;stroke-linejoin:round;stroke-miterlimit:1.5;"/>
        </g>
        <g transform="matrix(1.30509e-17,-0.213138,-0.213138,-1.30509e-17,283.751,528.232)">
            <path d="M754.363,450.295L754.363,524.114L690.434,561.024L690.434,575.787L703.219,583.169L767.148,546.26L831.078,583.169L843.863,575.787L843.863,561.024L779.995,524.149L779.934,450.295L767.148,442.913L754.363,450.295Z" style="fill:none;stroke:black;stroke-width:4.69px;stroke-linecap:round;stroke-linejoin:round;stroke-miterlimit:1.5;"/>
        </g>
        <g transform="matrix(1.30509e-17,-0.213138,-0.213138,-1.30509e-17,251.861,509.82)">
            <path d="M754.363,450.295L754.363,524.114L690.434,561.024L690.434,575.787L703.219,583.169L767.148,546.26L831.078,583.169L843.863,575.787L843.863,561.024L779.995,524.149L779.934,450.295L767.148,442.913L754.363,450.295Z" style="fill:none;stroke:black;stroke-width:4.69px;stroke-linecap:round;stroke-linejoin:round;stroke-miterlimit:1.5;"/>
        </g>
        <g transform="matrix(1.30509e-17,-0.213138,-0.213138,-1.30509e-17,251.861,472.997)">
            <path d="M754.363,450.295L754.363,524.114L690.434,561.024L690.434,575.787L703.219,583.169L767.148,546.26L831.078,583.169L843.863,575.787L843.863,561.024L779.995,524.149L779.934,450.295L767.148,442.913L754.363,450.295Z" style="fill:none;stroke:black;stroke-width:4.69px;stroke-linecap:round;stroke-linejoin:round;stroke-miterlimit:1.5;"/>
        </g>
        <g transform="matrix(1.30509e-17,-0.213138,-0.213138,-1.30509e-17,283.751,491.409)">
            <path d="M754.363,450.295L754.363,524.114L690.434,561.024L690.434,575.787L703.219,583.169L767.148,546.26L831.078,583.169L843.863,575.787L843.863,561.024L779.995,524.149L779.934,450.295L767.148,442.913L754.363,450.295Z" style="fill:none;stroke:black;stroke-width:4.69px;stroke-linecap:round;stroke-linejoin:round;stroke-miterlimit:1.5;"/>
        </g>
        <g transform="matrix(1.30509e-17,-0.213138,-0.213138,-1.30509e-17,251.861,546.644)">
            <path d="M754.363,450.295L754.363,524.114L690.434,561.024L690.434,575.787L703.219,583.169L767.148,546.26L831.078,583.169L843.863,575.787L843.863,561.024L779.995,524.149L779.934,450.295L767.148,442.913L754.363,450.295Z" style="fill:none;stroke:black;stroke-width:4.69px;stroke-linecap:round;stroke-linejoin:round;stroke-miterlimit:1.5;"/>
        </g>
        <g transform="matrix(1.30509e-17,-0.213138,-0.213138,-1.30509e-17,283.751,454.586)">
            <path d="M754.363,450.295L754.363,524.114L690.434,561.024L690.434,575.787L703.219,583.169L767.148,546.26L831.078,583.169L843.863,575.787L843.863,561.024L779.995,524.149L779.934,450.295L767.148,442.913L754.363,450.295Z" style="fill:none;stroke:black;stroke-width:4.69px;stroke-linecap:round;stroke-linejoin:round;stroke-miterlimit:1.5;"/>
        </g>
        <g transform="matrix(1.30509e-17,-0.213138,-0.213138,-1.30509e-17,251.861,436.174)">
            <path d="M754.363,450.295L754.363,524.114L690.434,561.024L690.434,575.787L703.219,583.169L767.148,546.26L831.078,583.169L843.863,575.787L843.863,561.024L779.995,524.149L779.934,450.295L767.148,442.913L754.363,450.295Z" style="fill:none;stroke:black;stroke-width:4.69px;stroke-linecap:round;stroke-linejoin:round;stroke-miterlimit:1.5;"/>
        </g>
        <g transform="matrix(1.30509e-17,-0.213138,-0.213138,-1.30509e-17,251.861,399.351)">
            <path d="M754.363,450.295L754.363,524.114L690.434,561.024L690.434,575.787L703.219,583.169L767.148,546.26L831.078,583.169L843.863,575.787L843.863,561.024L779.995,524.149L779.934,450.295L767.148,442.913L754.363,450.295Z" style="fill:none;stroke:black;stroke-width:4.69px;stroke-linecap:round;stroke-linejoin:round;stroke-miterlimit:1.5;"/>
        </g>
        <g transform="matrix(1.30509e-17,-0.213138,-0.213138,-1.30509e-17,283.751,417.763)">
            <path d="M754.363,450.295L754.363,524.114L690.434,561.024L690.434,575.787L703.219,583.169L767.148,546.26L831.078,583.169L843.863,575.787L843.863,561.024L779.995,524.149L779.934,450.295L767.148,442.913L754.363,450.295Z" style="fill:none;stroke:black;stroke-width:4.69px;stroke-linecap:round;stroke-linejoin:round;stroke-miterlimit:1.5;"/>
        </g>
        <g transform="matrix(1.30509e-17,-0.213138,-0.213138,-1.30509e-17,283.751,380.939)">
            <path d="M754.363,450.295L754.363,524.114L690.434,561.024L690.434,575.787L703.219,583.169L767.148,546.26L831.078,583.169L843.863,575.787L843.863,561.024L779.995,524.149L779.934,450.295L767.148,442.913L754.363,450.295Z" style="fill:none;stroke:black;stroke-width:4.69px;stroke-linecap:round;stroke-linejoin:round;stroke-miterlimit:1.5;"/>
        </g>
        <g transform="matrix(1.30509e-17,-0.213138,-0.213138,-1.30509e-17,251.861,362.528)">
            <path d="M754.363,450.295L754.363,524.114L690.434,561.024L690.434,575.787L703.219,583.169L767.148,546.26L831.078,583.169L843.863,575.787L843.863,561.024L779.995,524.149L779.934,450.295L767.148,442.913L754.363,450.295Z" style="fill:none;stroke:black;stroke-width:4.69px;stroke-linecap:round;stroke-linejoin:round;stroke-miterlimit:1.5;"/>
        </g>
        <g transform="matrix(1.30509e-17,-0.213138,-0.213138,-1.30509e-17,283.751,344.116)">
            <path d="M754.363,450.295L754.363,524.114L690.434,561.024L690.434,575.787L703.219,583.169L767.148,546.26L831.078,583.169L843.863,575.787L843.863,561.024L779.995,524.149L779.934,450.295L767.148,442.913L754.363,450.295Z" style="fill:none;stroke:black;stroke-width:4.69px;stroke-linecap:round;stroke-linejoin:round;stroke-miterlimit:1.5;"/>
        </g>
        <g transform="matrix(1.30509e-17,-0.213138,-0.213138,-1.30509e-17,283.751,307.293)">
            <path d="M754.363,450.295L754.363,524.114L690.434,561.024L690.434,575.787L703.219,583.169L767.148,546.26L831.078,583.169L843.863,575.787L843.863,561.024L779.995,524.149L779.934,450.295L767.148,442.913L754.363,450.295Z" style="fill:none;stroke:black;stroke-width:4.69px;stroke-linecap:round;stroke-linejoin:round;stroke-miterlimit:1.5;"/>
        </g>
        <g transform="matrix(1.30509e-17,-0.213138,-0.213138,-1.30509e-17,251.861,288.882)">
            <path d="M754.363,450.295L754.363,524.114L690.434,561.024L690.434,575.787L703.219,583.169L767.148,546.26L831.078,583.169L843.863,575.787L843.863,561.024L779.995,524.149L779.934,450.295L767.148,442.913L754.363,450.295Z" style="fill:none;stroke:black;stroke-width:4.69px;stroke-linecap:round;stroke-linejoin:round;stroke-miterlimit:1.5;"/>
        </g>
        <g transform="matrix(1.30509e-17,-0.213138,-0.213138,-1.30509e-17,251.861,252.059)">
            <path d="M754.363,450.295L754.363,524.114L690.434,561.024L690.434,575.787L703.219,583.169L767.148,546.26L831.078,583.169L843.863,575.787L843.863,561.024L779.995,524.149L779.934,450.295L767.148,442.913L754.363,450.295Z" style="fill:none;stroke:black;stroke-width:4.69px;stroke-linecap:round;stroke-linejoin:round;stroke-miterlimit:1.5;"/>
        </g>
        <g transform="matrix(1.30509e-17,-0.213138,-0.213138,-1.30509e-17,283.751,270.47)">
            <path d="M754.363,450.295L754.363,524.114L690.434,561.024L690.434,575.787L703.219,583.169L767.148,546.26L831.078,583.169L843.863,575.787L843.863,561.024L779.995,524.149L779.934,450.295L767.148,442.913L754.363,450.295Z" style="fill:none;stroke:black;stroke-width:4.69px;stroke-linecap:round;stroke-linejoin:round;stroke-miterlimit:1.5;"/>
        </g>
        <g transform="matrix(1.30509e-17,-0.213138,-0.213138,-1.30509e-17,251.861,325.705)">
            <path d="M754.363,450.295L754.363,524.114L690.434,561.024L690.434,575.787L703.219,583.169L767.148,546.26L831.078,583.169L843.863,575.787L843.863,561.024L779.995,524.149L779.934,450.295L767.148,442.913L754.363,450.295Z" style="fill:none;stroke:black;stroke-width:4.69px;stroke-linecap:round;stroke-linejoin:round;stroke-miterlimit:1.5;"/>
        </g>
        <g transform="matrix(1.30509e-17,-0.213138,-0.213138,-1.30509e-17,283.751,233.647)">
            <path d="M754.363,450.295L754.363,524.114L690.434,561.024L690.434,575.787L703.219,583.169L767.148,546.26L831.078,583.169L843.863,575.787L843.863,561.024L779.995,524.149L779.934,450.295L767.148,442.913L754.363,450.295Z" style="fill:none;stroke:black;stroke-width:4.69px;stroke-linecap:round;stroke-linejoin:round;stroke-miterlimit:1.5;"/>
        </g>
        <g transform="matrix(1.30509e-17,-0.213138,-0.213138,-1.30509e-17,219.971,565.055)">
            <path d="M754.363,450.295L754.363,524.114L690.434,561.024L690.434,575.787L703.219,583.169L767.148,546.26L831.078,583.169L843.863,575.787L843.863,561.024L779.995,524.149L779.934,450.295L767.148,442.913L754.363,450.295Z" style="fill:none;stroke:black;stroke-width:4.69px;stroke-linecap:round;stroke-linejoin:round;stroke-miterlimit:1.5;"/>
        </g>
        <g transform="matrix(1.30509e-17,-0.213138,-0.213138,-1.30509e-17,219.971,528.232)">
            <path d="M754.363,450.295L754.363,524.114L690.434,561.024L690.434,575.787L703.219,583.169L767.148,546.26L831.078,583.169L843.863,575.787L843.863,561.024L779.995,524.149L779.934,450.295L767.148,442.913L754.363,450.295Z" style="fill:none;stroke:black;stroke-width:4.69px;stroke-linecap:round;stroke-linejoin:round;stroke-miterlimit:1.5;"/>
        </g>
        <g transform="matrix(1.30509e-17,-0.213138,-0.213138,-1.30509e-17,188.082,509.82)">
            <path d="M754.363,450.295L754.363,524.114L690.434,561.024L690.434,575.787L703.219,583.169L767.148,546.26L831.078,583.169L843.863,575.787L843.863,561.024L779.995,524.149L779.934,450.295L767.148,442.913L754.363,450.295Z" style="fill:none;stroke:black;stroke-width:4.69px;stroke-linecap:round;stroke-linejoin:round;stroke-miterlimit:1.5;"/>
        </g>
        <g transform="matrix(1.30509e-17,-0.213138,-0.213138,-1.30509e-17,188.082,472.997)">
            <path d="M754.363,450.295L754.363,524.114L690.434,561.024L690.434,575.787L703.219,583.169L767.148,546.26L831.078,583.169L843.863,575.787L843.863,561.024L779.995,524.149L779.934,450.295L767.148,442.913L754.363,450.295Z" style="fill:none;stroke:black;stroke-width:4.69px;stroke-linecap:round;stroke-linejoin:round;stroke-miterlimit:1.5;"/>
        </g>
        <g transform="matrix(1.30509e-17,-0.213138,-0.213138,-1.30509e-17,219.971,491.409)">
            <path d="M754.363,450.295L754.363,524.114L690.434,561.024L690.434,575.787L703.219,583.169L767.148,546.26L831.078,583.169L843.863,575.787L843.863,561.024L779.995,524.149L779.934,450.295L767.148,442.913L754.363,450.295Z" style="fill:none;stroke:black;stroke-width:4.69px;stroke-linecap:round;stroke-linejoin:round;stroke-miterlimit:1.5;"/>
        </g>
        <g transform="matrix(1.30509e-17,-0.213138,-0.213138,-1.30509e-17,188.082,546.644)">
            <path d="M754.363,450.295L754.363,524.114L690.434,561.024L690.434,575.787L703.219,583.169L767.148,546.26L831.078,583.169L843.863,575.787L843.863,561.024L779.995,524.149L779.934,450.295L767.148,442.913L754.363,450.295Z" style="fill:none;stroke:black;stroke-width:4.69px;stroke-linecap:round;stroke-linejoin:round;stroke-miterlimit:1.5;"/>
        </g>
        <g transform="matrix(1.30509e-17,-0.213138,-0.213138,-1.30509e-17,219.971,454.586)">
            <path d="M754.363,450.295L754.363,524.114L690.434,561.024L690.434,575.787L703.219,583.169L767.148,546.26L831.078,583.169L843.863,575.787L843.863,561.024L779.995,524.149L779.934,450.295L767.148,442.913L754.363,450.295Z" style="fill:none;stroke:black;stroke-width:4.69px;stroke-linecap:round;stroke-linejoin:round;stroke-miterlimit:1.5;"/>
        </g>
        <g transform="matrix(1.30509e-17,-0.213138,-0.213138,-1.30509e-17,188.082,436.174)">
            <path d="M754.363,450.295L754.363,524.114L690.434,561.024L690.434,575.787L703.219,583.169L767.148,546.26L831.078,583.169L843.863,575.787L843.863,561.024L779.995,524.149L779.934,450.295L767.148,442.913L754.363,450.295Z" style="fill:none;stroke:black;stroke-width:4.69px;stroke-linecap:round;stroke-linejoin:round;stroke-miterlimit:1.5;"/>
        </g>
        <g transform="matrix(1.30509e-17,-0.213138,-0.213138,-1.30509e-17,188.082,399.351)">
            <path d="M754.363,450.295L754.363,524.114L690.434,561.024L690.434,575.787L703.219,583.169L767.148,546.26L831.078,583.169L843.863,575.787L843.863,561.024L779.995,524.149L779.934,450.295L767.148,442.913L754.363,450.295Z" style="fill:none;stroke:black;stroke-width:4.69px;stroke-linecap:round;stroke-linejoin:round;stroke-miterlimit:1.5;"/>
        </g>
        <g transform="matrix(1.30509e-17,-0.213138,-0.213138,-1.30509e-17,219.971,417.763)">
            <path d="M754.363,450.295L754.363,524.114L690.434,561.024L690.434,575.787L703.219,583.169L767.148,546.26L831.078,583.169L843.863,575.787L843.863,561.024L779.995,524.149L779.934,450.295L767.148,442.913L754.363,450.295Z" style="fill:none;stroke:black;stroke-width:4.69px;stroke-linecap:round;stroke-linejoin:round;stroke-miterlimit:1.5;"/>
        </g>
        <g transform="matrix(1.30509e-17,-0.213138,-0.213138,-1.30509e-17,219.971,380.939)">
            <path d="M754.363,450.295L754.363,524.114L690.434,561.024L690.434,575.787L703.219,583.169L767.148,546.26L831.078,583.169L843.863,575.787L843.863,561.024L779.995,524.149L779.934,450.295L767.148,442.913L754.363,450.295Z" style="fill:none;stroke:black;stroke-width:4.69px;stroke-linecap:round;stroke-linejoin:round;stroke-miterlimit:1.5;"/>
        </g>
        <g transform="matrix(1.30509e-17,-0.213138,-0.213138,-1.30509e-17,188.082,362.528)">
            <path d="M754.363,450.295L754.363,524.114L690.434,561.024L690.434,575.787L703.219,583.169L767.148,546.26L831.078,583.169L843.863,575.787L843.863,561.024L779.995,524.149L779.934,450.295L767.148,442.913L754.363,450.295Z" style="fill:none;stroke:black;stroke-width:4.69px;stroke-linecap:round;stroke-linejoin:round;stroke-miterlimit:1.5;"/>
        </g>
        <g transform="matrix(1.30509e-17,-0.213138,-0.213138,-1.30509e-17,219.971,344.116)">
            <path d="M754.363,450.295L754.363,524.114L690.434,561.024L690.434,575.787L703.219,583.169L767.148,546.26L831.078,583.169L843.863,575.787L843.863,561.024L779.995,524.149L779.934,450.295L767.148,442.913L754.363,450.295Z" style="fill:none;stroke:black;stroke-width:4.69px;stroke-linecap:round;stroke-linejoin:round;stroke-miterlimit:1.5;"/>
        </g>
        <g transform="matrix(1.30509e-17,-0.213138,-0.213138,-1.30509e-17,219.971,307.293)">
            <path d="M754.363,450.295L754.363,524.114L690.434,561.024L690.434,575.787L703.219,583.169L767.148,546.26L831.078,583.169L843.863,575.787L843.863,561.024L779.995,524.149L779.934,450.295L767.148,442.913L754.363,450.295Z" style="fill:none;stroke:black;stroke-width:4.69px;stroke-linecap:round;stroke-linejoin:round;stroke-miterlimit:1.5;"/>
        </g>
        <g transform="matrix(1.30509e-17,-0.213138,-0.213138,-1.30509e-17,188.082,288.882)">
            <path d="M754.363,450.295L754.363,524.114L690.434,561.024L690.434,575.787L703.219,583.169L767.148,546.26L831.078,583.169L843.863,575.787L843.863,561.024L779.995,524.149L779.934,450.295L767.148,442.913L754.363,450.295Z" style="fill:none;stroke:black;stroke-width:4.69px;stroke-linecap:round;stroke-linejoin:round;stroke-miterlimit:1.5;"/>
        </g>
        <g transform="matrix(1.30509e-17,-0.213138,-0.213138,-1.30509e-17,188.082,252.059)">
            <path d="M754.363,450.295L754.363,524.114L690.434,561.024L690.434,575.787L703.219,583.169L767.148,546.26L831.078,583.169L843.863,575.787L843.863,561.024L779.995,524.149L779.934,450.295L767.148,442.913L754.363,450.295Z" style="fill:none;stroke:black;stroke-width:4.69px;stroke-linecap:round;stroke-linejoin:round;stroke-miterlimit:1.5;"/>
        </g>
        <g transform="matrix(1.30509e-17,-0.213138,-0.213138,-1.30509e-17,219.971,270.47)">
            <path d="M754.363,450.295L754.363,524.114L690.434,561.024L690.434,575.787L703.219,583.169L767.148,546.26L831.078,583.169L843.863,575.787L843.863,561.024L779.995,524.149L779.934,450.295L767.148,442.913L754.363,450.295Z" style="fill:none;stroke:black;stroke-width:4.69px;stroke-linecap:round;stroke-linejoin:round;stroke-miterlimit:1.5;"/>
        </g>
        <g transform="matrix(1.30509e-17,-0.213138,-0.213138,-1.30509e-17,188.082,325.705)">
            <path d="M754.363,450.295L754.363,524.114L690.434,561.024L690.434,575.787L703.219,583.169L767.148,546.26L831.078,583.169L843.863,575.787L843.863,561.024L779.995,524.149L779.934,450.295L767.148,442.913L754.363,450.295Z" style="fill:none;stroke:black;stroke-width:4.69px;stroke-linecap:round;stroke-linejoin:round;stroke-miterlimit:1.5;"/>
        </g>
        <g transform="matrix(1.30509e-17,-0.213138,-0.213138,-1.30509e-17,219.971,233.647)">
            <path d="M754.363,450.295L754.363,524.114L690.434,561.024L690.434,575.787L703.219,583.169L767.148,546.26L831.078,583.169L843.863,575.787L843.863,561.024L779.995,524.149L779.934,450.295L767.148,442.913L754.363,450.295Z" style="fill:none;stroke:black;stroke-width:4.69px;stroke-linecap:round;stroke-linejoin:round;stroke-miterlimit:1.5;"/>
        </g>
        <g transform="matrix(1.30509e-17,-0.213138,-0.213138,-1.30509e-17,156.192,528.232)">
            <path d="M754.363,450.295L754.363,524.114L690.434,561.024L690.434,575.787L703.219,583.169L767.148,546.26L831.078,583.169L843.863,575.787L843.863,561.024L779.995,524.149L779.934,450.295L767.148,442.913L754.363,450.295Z" style="fill:none;stroke:black;stroke-width:4.69px;stroke-linecap:round;stroke-linejoin:round;stroke-miterlimit:1.5;"/>
        </g>
        <g transform="matrix(1.30509e-17,-0.213138,-0.213138,-1.30509e-17,156.192,491.409)">
            <path d="M754.363,450.295L754.363,524.114L690.434,561.024L690.434,575.787L703.219,583.169L767.148,546.26L831.078,583.169L843.863,575.787L843.863,561.024L779.995,524.149L779.934,450.295L767.148,442.913L754.363,450.295Z" style="fill:none;stroke:black;stroke-width:4.69px;stroke-linecap:round;stroke-linejoin:round;stroke-miterlimit:1.5;"/>
        </g>
        <g transform="matrix(1.30509e-17,-0.213138,-0.213138,-1.30509e-17,156.192,454.586)">
            <path d="M754.363,450.295L754.363,524.114L690.434,561.024L690.434,575.787L703.219,583.169L767.148,546.26L831.078,583.169L843.863,575.787L843.863,561.024L779.995,524.149L779.934,450.295L767.148,442.913L754.363,450.295Z" style="fill:none;stroke:black;stroke-width:4.69px;stroke-linecap:round;stroke-linejoin:round;stroke-miterlimit:1.5;"/>
        </g>
        <g transform="matrix(1.30509e-17,-0.213138,-0.213138,-1.30509e-17,156.192,417.763)">
            <path d="M754.363,450.295L754.363,524.114L690.434,561.024L690.434,575.787L703.219,583.169L767.148,546.26L831.078,583.169L843.863,575.787L843.863,561.024L779.995,524.149L779.934,450.295L767.148,442.913L754.363,450.295Z" style="fill:none;stroke:black;stroke-width:4.69px;stroke-linecap:round;stroke-linejoin:round;stroke-miterlimit:1.5;"/>
        </g>
        <g transform="matrix(1.30509e-17,-0.213138,-0.213138,-1.30509e-17,156.192,380.939)">
            <path d="M754.363,450.295L754.363,524.114L690.434,561.024L690.434,575.787L703.219,583.169L767.148,546.26L831.078,583.169L843.863,575.787L843.863,561.024L779.995,524.149L779.934,450.295L767.148,442.913L754.363,450.295Z" style="fill:none;stroke:black;stroke-width:4.69px;stroke-linecap:round;stroke-linejoin:round;stroke-miterlimit:1.5;"/>
        </g>
        <g transform="matrix(1.30509e-17,-0.213138,-0.213138,-1.30509e-17,156.192,344.116)">
            <path d="M754.363,450.295L754.363,524.114L690.434,561.024L690.434,575.787L703.219,583.169L767.148,546.26L831.078,583.169L843.863,575.787L843.863,561.024L779.995,524.149L779.934,450.295L767.148,442.913L754.363,450.295Z" style="fill:none;stroke:black;stroke-width:4.69px;stroke-linecap:round;stroke-linejoin:round;stroke-miterlimit:1.5;"/>
        </g>
        <g transform="matrix(1.30509e-17,-0.213138,-0.213138,-1.30509e-17,156.192,307.293)">
            <path d="M754.363,450.295L754.363,524.114L690.434,561.024L690.434,575.787L703.219,583.169L767.148,546.26L831.078,583.169L843.863,575.787L843.863,561.024L779.995,524.149L779.934,450.295L767.148,442.913L754.363,450.295Z" style="fill:none;stroke:black;stroke-width:4.69px;stroke-linecap:round;stroke-linejoin:round;stroke-miterlimit:1.5;"/>
        </g>
        <g transform="matrix(1.30509e-17,-0.213138,-0.213138,-1.30509e-17,156.192,270.47)">
            <path d="M754.363,450.295L754.363,524.114L690.434,561.024L690.434,575.787L703.219,583.169L767.148,546.26L831.078,583.169L843.863,575.787L843.863,561.024L779.995,524.149L779.934,450.295L767.148,442.913L754.363,450.295Z" style="fill:none;stroke:black;stroke-width:4.69px;stroke-linecap:round;stroke-linejoin:round;stroke-miterlimit:1.5;"/>
        </g>
        <g transform="matrix(1.30509e-17,-0.213138,-0.213138,-1.30509e-17,602.649,565.055)">
            <path d="M754.363,450.295L754.363,524.114L690.434,561.024L690.434,575.787L703.219,583.169L767.148,546.26L831.078,583.169L843.863,575.787L843.863,561.024L779.995,524.149L779.934,450.295L767.148,442.913L754.363,450.295Z" style="fill:none;stroke:black;stroke-width:4.69px;stroke-linecap:round;stroke-linejoin:round;stroke-miterlimit:1.5;"/>
        </g>
        <g transform="matrix(1.30509e-17,-0.213138,-0.213138,-1.30509e-17,602.649,528.232)">
            <path d="M754.363,450.295L754.363,524.114L690.434,561.024L690.434,575.787L703.219,583.169L767.148,546.26L831.078,583.169L843.863,575.787L843.863,561.024L779.995,524.149L779.934,450.295L767.148,442.913L754.363,450.295Z" style="fill:none;stroke:black;stroke-width:4.69px;stroke-linecap:round;stroke-linejoin:round;stroke-miterlimit:1.5;"/>
        </g>
        <g transform="matrix(1.30509e-17,-0.213138,-0.213138,-1.30509e-17,570.759,509.82)">
            <path d="M754.363,450.295L754.363,524.114L690.434,561.024L690.434,575.787L703.219,583.169L767.148,546.26L831.078,583.169L843.863,575.787L843.863,561.024L779.995,524.149L779.934,450.295L767.148,442.913L754.363,450.295Z" style="fill:none;stroke:black;stroke-width:4.69px;stroke-linecap:round;stroke-linejoin:round;stroke-miterlimit:1.5;"/>
        </g>
        <g transform="matrix(1.30509e-17,-0.213138,-0.213138,-1.30509e-17,570.759,472.997)">
            <path d="M754.363,450.295L754.363,524.114L690.434,561.024L690.434,575.787L703.219,583.169L767.148,546.26L831.078,583.169L843.863,575.787L843.863,561.024L779.995,524.149L779.934,450.295L767.148,442.913L754.363,450.295Z" style="fill:none;stroke:black;stroke-width:4.69px;stroke-linecap:round;stroke-linejoin:round;stroke-miterlimit:1.5;"/>
        </g>
        <g transform="matrix(1.30509e-17,-0.213138,-0.213138,-1.30509e-17,602.649,491.409)">
            <path d="M754.363,450.295L754.363,524.114L690.434,561.024L690.434,575.787L703.219,583.169L767.148,546.26L831.078,583.169L843.863,575.787L843.863,561.024L779.995,524.149L779.934,450.295L767.148,442.913L754.363,450.295Z" style="fill:none;stroke:black;stroke-width:4.69px;stroke-linecap:round;stroke-linejoin:round;stroke-miterlimit:1.5;"/>
        </g>
        <g transform="matrix(1.30509e-17,-0.213138,-0.213138,-1.30509e-17,570.759,546.644)">
            <path d="M754.363,450.295L754.363,524.114L690.434,561.024L690.434,575.787L703.219,583.169L767.148,546.26L831.078,583.169L843.863,575.787L843.863,561.024L779.995,524.149L779.934,450.295L767.148,442.913L754.363,450.295Z" style="fill:none;stroke:black;stroke-width:4.69px;stroke-linecap:round;stroke-linejoin:round;stroke-miterlimit:1.5;"/>
        </g>
        <g transform="matrix(1.30509e-17,-0.213138,-0.213138,-1.30509e-17,602.649,454.586)">
            <path d="M754.363,450.295L754.363,524.114L690.434,561.024L690.434,575.787L703.219,583.169L767.148,546.26L831.078,583.169L843.863,575.787L843.863,561.024L779.995,524.149L779.934,450.295L767.148,442.913L754.363,450.295Z" style="fill:none;stroke:black;stroke-width:4.69px;stroke-linecap:round;stroke-linejoin:round;stroke-miterlimit:1.5;"/>
        </g>
        <g transform="matrix(1.30509e-17,-0.213138,-0.213138,-1.30509e-17,570.759,436.174)">
            <path d="M754.363,450.295L754.363,524.114L690.434,561.024L690.434,575.787L703.219,583.169L767.148,546.26L831.078,583.169L843.863,575.787L843.863,561.024L779.995,524.149L779.934,450.295L767.148,442.913L754.363,450.295Z" style="fill:none;stroke:black;stroke-width:4.69px;stroke-linecap:round;stroke-linejoin:round;stroke-miterlimit:1.5;"/>
        </g>
        <g transform="matrix(1.30509e-17,-0.213138,-0.213138,-1.30509e-17,570.759,399.351)">
            <path d="M754.363,450.295L754.363,524.114L690.434,561.024L690.434,575.787L703.219,583.169L767.148,546.26L831.078,583.169L843.863,575.787L843.863,561.024L779.995,524.149L779.934,450.295L767.148,442.913L754.363,450.295Z" style="fill:none;stroke:black;stroke-width:4.69px;stroke-linecap:round;stroke-linejoin:round;stroke-miterlimit:1.5;"/>
        </g>
        <g transform="matrix(1.30509e-17,-0.213138,-0.213138,-1.30509e-17,602.649,417.763)">
            <path d="M754.363,450.295L754.363,524.114L690.434,561.024L690.434,575.787L703.219,583.169L767.148,546.26L831.078,583.169L843.863,575.787L843.863,561.024L779.995,524.149L779.934,450.295L767.148,442.913L754.363,450.295Z" style="fill:none;stroke:black;stroke-width:4.69px;stroke-linecap:round;stroke-linejoin:round;stroke-miterlimit:1.5;"/>
        </g>
        <g transform="matrix(1.30509e-17,-0.213138,-0.213138,-1.30509e-17,602.649,380.939)">
            <path d="M754.363,450.295L754.363,524.114L690.434,561.024L690.434,575.787L703.219,583.169L767.148,546.26L831.078,583.169L843.863,575.787L843.863,561.024L779.995,524.149L779.934,450.295L767.148,442.913L754.363,450.295Z" style="fill:none;stroke:black;stroke-width:4.69px;stroke-linecap:round;stroke-linejoin:round;stroke-miterlimit:1.5;"/>
        </g>
        <g transform="matrix(1.30509e-17,-0.213138,-0.213138,-1.30509e-17,570.759,362.528)">
            <path d="M754.363,450.295L754.363,524.114L690.434,561.024L690.434,575.787L703.219,583.169L767.148,546.26L831.078,583.169L843.863,575.787L843.863,561.024L779.995,524.149L779.934,450.295L767.148,442.913L754.363,450.295Z" style="fill:none;stroke:black;stroke-width:4.69px;stroke-linecap:round;stroke-linejoin:round;stroke-miterlimit:1.5;"/>
        </g>
        <g transform="matrix(1.30509e-17,-0.213138,-0.213138,-1.30509e-17,602.649,344.116)">
            <path d="M754.363,450.295L754.363,524.114L690.434,561.024L690.434,575.787L703.219,583.169L767.148,546.26L831.078,583.169L843.863,575.787L843.863,561.024L779.995,524.149L779.934,450.295L767.148,442.913L754.363,450.295Z" style="fill:none;stroke:black;stroke-width:4.69px;stroke-linecap:round;stroke-linejoin:round;stroke-miterlimit:1.5;"/>
        </g>
        <g transform="matrix(1.30509e-17,-0.213138,-0.213138,-1.30509e-17,602.649,307.293)">
            <path d="M754.363,450.295L754.363,524.114L690.434,561.024L690.434,575.787L703.219,583.169L767.148,546.26L831.078,583.169L843.863,575.787L843.863,561.024L779.995,524.149L779.934,450.295L767.148,442.913L754.363,450.295Z" style="fill:none;stroke:black;stroke-width:4.69px;stroke-linecap:round;stroke-linejoin:round;stroke-miterlimit:1.5;"/>
        </g>
        <g transform="matrix(1.30509e-17,-0.213138,-0.213138,-1.30509e-17,570.759,288.882)">
            <path d="M754.363,450.295L754.363,524.114L690.434,561.024L690.434,575.787L703.219,583.169L767.148,546.26L831.078,583.169L843.863,575.787L843.863,561.024L779.995,524.149L779.934,450.295L767.148,442.913L754.363,450.295Z" style="fill:none;stroke:black;stroke-width:4.69px;stroke-linecap:round;stroke-linejoin:round;stroke-miterlimit:1.5;"/>
        </g>
        <g transform="matrix(1.30509e-17,-0.213138,-0.213138,-1.30509e-17,570.759,252.059)">
            <path d="M754.363,450.295L754.363,524.114L690.434,561.024L690.434,575.787L703.219,583.169L767.148,546.26L831.078,583.169L843.863,575.787L843.863,561.024L779.995,524.149L779.934,450.295L767.148,442.913L754.363,450.295Z" style="fill:none;stroke:black;stroke-width:4.69px;stroke-linecap:round;stroke-linejoin:round;stroke-miterlimit:1.5;"/>
        </g>
        <g transform="matrix(1.30509e-17,-0.213138,-0.213138,-1.30509e-17,602.649,270.47)">
            <path d="M754.363,450.295L754.363,524.114L690.434,561.024L690.434,575.787L703.219,583.169L767.148,546.26L831.078,583.169L843.863,575.787L843.863,561.024L779.995,524.149L779.934,450.295L767.148,442.913L754.363,450.295Z" style="fill:none;stroke:black;stroke-width:4.69px;stroke-linecap:round;stroke-linejoin:round;stroke-miterlimit:1.5;"/>
        </g>
        <g transform="matrix(1.30509e-17,-0.213138,-0.213138,-1.30509e-17,570.759,325.705)">
            <path d="M754.363,450.295L754.363,524.114L690.434,561.024L690.434,575.787L703.219,583.169L767.148,546.26L831.078,583.169L843.863,575.787L843.863,561.024L779.995,524.149L779.934,450.295L767.148,442.913L754.363,450.295Z" style="fill:none;stroke:black;stroke-width:4.69px;stroke-linecap:round;stroke-linejoin:round;stroke-miterlimit:1.5;"/>
        </g>
        <g transform="matrix(1.30509e-17,-0.213138,-0.213138,-1.30509e-17,602.649,233.647)">
            <path d="M754.363,450.295L754.363,524.114L690.434,561.024L690.434,575.787L703.219,583.169L767.148,546.26L831.078,583.169L843.863,575.787L843.863,561.024L779.995,524.149L779.934,450.295L767.148,442.913L754.363,450.295Z" style="fill:none;stroke:black;stroke-width:4.69px;stroke-linecap:round;stroke-linejoin:round;stroke-miterlimit:1.5;"/>
        </g>
        <g transform="matrix(1.30509e-17,-0.213138,-0.213138,-1.30509e-17,538.869,565.055)">
            <path d="M754.363,450.295L754.363,524.114L690.434,561.024L690.434,575.787L703.219,583.169L767.148,546.26L831.078,583.169L843.863,575.787L843.863,561.024L779.995,524.149L779.934,450.295L767.148,442.913L754.363,450.295Z" style="fill:none;stroke:black;stroke-width:4.69px;stroke-linecap:round;stroke-linejoin:round;stroke-miterlimit:1.5;"/>
        </g>
        <g transform="matrix(1.30509e-17,-0.213138,-0.213138,-1.30509e-17,538.869,528.232)">
            <path d="M754.363,450.295L754.363,524.114L690.434,561.024L690.434,575.787L703.219,583.169L767.148,546.26L831.078,583.169L843.863,575.787L843.863,561.024L779.995,524.149L779.934,450.295L767.148,442.913L754.363,450.295Z" style="fill:none;stroke:black;stroke-width:4.69px;stroke-linecap:round;stroke-linejoin:round;stroke-miterlimit:1.5;"/>
        </g>
        <g transform="matrix(1.30509e-17,-0.213138,-0.213138,-1.30509e-17,506.979,509.82)">
            <path d="M754.363,450.295L754.363,524.114L690.434,561.024L690.434,575.787L703.219,583.169L767.148,546.26L831.078,583.169L843.863,575.787L843.863,561.024L779.995,524.149L779.934,450.295L767.148,442.913L754.363,450.295Z" style="fill:none;stroke:black;stroke-width:4.69px;stroke-linecap:round;stroke-linejoin:round;stroke-miterlimit:1.5;"/>
        </g>
        <g transform="matrix(1.30509e-17,-0.213138,-0.213138,-1.30509e-17,506.979,472.997)">
            <path d="M754.363,450.295L754.363,524.114L690.434,561.024L690.434,575.787L703.219,583.169L767.148,546.26L831.078,583.169L843.863,575.787L843.863,561.024L779.995,524.149L779.934,450.295L767.148,442.913L754.363,450.295Z" style="fill:none;stroke:black;stroke-width:4.69px;stroke-linecap:round;stroke-linejoin:round;stroke-miterlimit:1.5;"/>
        </g>
        <g transform="matrix(1.30509e-17,-0.213138,-0.213138,-1.30509e-17,538.869,491.409)">
            <path d="M754.363,450.295L754.363,524.114L690.434,561.024L690.434,575.787L703.219,583.169L767.148,546.26L831.078,583.169L843.863,575.787L843.863,561.024L779.995,524.149L779.934,450.295L767.148,442.913L754.363,450.295Z" style="fill:none;stroke:black;stroke-width:4.69px;stroke-linecap:round;stroke-linejoin:round;stroke-miterlimit:1.5;"/>
        </g>
        <g transform="matrix(1.30509e-17,-0.213138,-0.213138,-1.30509e-17,506.979,546.644)">
            <path d="M754.363,450.295L754.363,524.114L690.434,561.024L690.434,575.787L703.219,583.169L767.148,546.26L831.078,583.169L843.863,575.787L843.863,561.024L779.995,524.149L779.934,450.295L767.148,442.913L754.363,450.295Z" style="fill:none;stroke:black;stroke-width:4.69px;stroke-linecap:round;stroke-linejoin:round;stroke-miterlimit:1.5;"/>
        </g>
        <g transform="matrix(1.30509e-17,-0.213138,-0.213138,-1.30509e-17,538.869,454.586)">
            <path d="M754.363,450.295L754.363,524.114L690.434,561.024L690.434,575.787L703.219,583.169L767.148,546.26L831.078,583.169L843.863,575.787L843.863,561.024L779.995,524.149L779.934,450.295L767.148,442.913L754.363,450.295Z" style="fill:none;stroke:black;stroke-width:4.69px;stroke-linecap:round;stroke-linejoin:round;stroke-miterlimit:1.5;"/>
        </g>
        <g transform="matrix(1.30509e-17,-0.213138,-0.213138,-1.30509e-17,506.979,436.174)">
            <path d="M754.363,450.295L754.363,524.114L690.434,561.024L690.434,575.787L703.219,583.169L767.148,546.26L831.078,583.169L843.863,575.787L843.863,561.024L779.995,524.149L779.934,450.295L767.148,442.913L754.363,450.295Z" style="fill:none;stroke:black;stroke-width:4.69px;stroke-linecap:round;stroke-linejoin:round;stroke-miterlimit:1.5;"/>
        </g>
        <g transform="matrix(1.30509e-17,-0.213138,-0.213138,-1.30509e-17,506.979,399.351)">
            <path d="M754.363,450.295L754.363,524.114L690.434,561.024L690.434,575.787L703.219,583.169L767.148,546.26L831.078,583.169L843.863,575.787L843.863,561.024L779.995,524.149L779.934,450.295L767.148,442.913L754.363,450.295Z" style="fill:none;stroke:black;stroke-width:4.69px;stroke-linecap:round;stroke-linejoin:round;stroke-miterlimit:1.5;"/>
        </g>
        <g transform="matrix(1.30509e-17,-0.213138,-0.213138,-1.30509e-17,538.869,417.763)">
            <path d="M754.363,450.295L754.363,524.114L690.434,561.024L690.434,575.787L703.219,583.169L767.148,546.26L831.078,583.169L843.863,575.787L843.863,561.024L779.995,524.149L779.934,450.295L767.148,442.913L754.363,450.295Z" style="fill:none;stroke:black;stroke-width:4.69px;stroke-linecap:round;stroke-linejoin:round;stroke-miterlimit:1.5;"/>
        </g>
        <g transform="matrix(1.30509e-17,-0.213138,-0.213138,-1.30509e-17,538.869,380.939)">
            <path d="M754.363,450.295L754.363,524.114L690.434,561.024L690.434,575.787L703.219,583.169L767.148,546.26L831.078,583.169L843.863,575.787L843.863,561.024L779.995,524.149L779.934,450.295L767.148,442.913L754.363,450.295Z" style="fill:none;stroke:black;stroke-width:4.69px;stroke-linecap:round;stroke-linejoin:round;stroke-miterlimit:1.5;"/>
        </g>
        <g transform="matrix(1.30509e-17,-0.213138,-0.213138,-1.30509e-17,506.979,362.528)">
            <path d="M754.363,450.295L754.363,524.114L690.434,561.024L690.434,575.787L703.219,583.169L767.148,546.26L831.078,583.169L843.863,575.787L843.863,561.024L779.995,524.149L779.934,450.295L767.148,442.913L754.363,450.295Z" style="fill:none;stroke:black;stroke-width:4.69px;stroke-linecap:round;stroke-linejoin:round;stroke-miterlimit:1.5;"/>
        </g>
        <g transform="matrix(1.30509e-17,-0.213138,-0.213138,-1.30509e-17,538.869,344.116)">
            <path d="M754.363,450.295L754.363,524.114L690.434,561.024L690.434,575.787L703.219,583.169L767.148,546.26L831.078,583.169L843.863,575.787L843.863,561.024L779.995,524.149L779.934,450.295L767.148,442.913L754.363,450.295Z" style="fill:none;stroke:black;stroke-width:4.69px;stroke-linecap:round;stroke-linejoin:round;stroke-miterlimit:1.5;"/>
        </g>
        <g transform="matrix(1.30509e-17,-0.213138,-0.213138,-1.30509e-17,538.869,307.293)">
            <path d="M754.363,450.295L754.363,524.114L690.434,561.024L690.434,575.787L703.219,583.169L767.148,546.26L831.078,583.169L843.863,575.787L843.863,561.024L779.995,524.149L779.934,450.295L767.148,442.913L754.363,450.295Z" style="fill:none;stroke:black;stroke-width:4.69px;stroke-linecap:round;stroke-linejoin:round;stroke-miterlimit:1.5;"/>
        </g>
        <g transform="matrix(1.30509e-17,-0.213138,-0.213138,-1.30509e-17,506.979,288.882)">
            <path d="M754.363,450.295L754.363,524.114L690.434,561.024L690.434,575.787L703.219,583.169L767.148,546.26L831.078,583.169L843.863,575.787L843.863,561.024L779.995,524.149L779.934,450.295L767.148,442.913L754.363,450.295Z" style="fill:none;stroke:black;stroke-width:4.69px;stroke-linecap:round;stroke-linejoin:round;stroke-miterlimit:1.5;"/>
        </g>
        <g transform="matrix(1.30509e-17,-0.213138,-0.213138,-1.30509e-17,506.979,252.059)">
            <path d="M754.363,450.295L754.363,524.114L690.434,561.024L690.434,575.787L703.219,583.169L767.148,546.26L831.078,583.169L843.863,575.787L843.863,561.024L779.995,524.149L779.934,450.295L767.148,442.913L754.363,450.295Z" style="fill:none;stroke:black;stroke-width:4.69px;stroke-linecap:round;stroke-linejoin:round;stroke-miterlimit:1.5;"/>
        </g>
        <g transform="matrix(1.30509e-17,-0.213138,-0.213138,-1.30509e-17,538.869,270.47)">
            <path d="M754.363,450.295L754.363,524.114L690.434,561.024L690.434,575.787L703.219,583.169L767.148,546.26L831.078,583.169L843.863,575.787L843.863,561.024L779.995,524.149L779.934,450.295L767.148,442.913L754.363,450.295Z" style="fill:none;stroke:black;stroke-width:4.69px;stroke-linecap:round;stroke-linejoin:round;stroke-miterlimit:1.5;"/>
        </g>
        <g transform="matrix(1.30509e-17,-0.213138,-0.213138,-1.30509e-17,506.979,325.705)">
            <path d="M754.363,450.295L754.363,524.114L690.434,561.024L690.434,575.787L703.219,583.169L767.148,546.26L831.078,583.169L843.863,575.787L843.863,561.024L779.995,524.149L779.934,450.295L767.148,442.913L754.363,450.295Z" style="fill:none;stroke:black;stroke-width:4.69px;stroke-linecap:round;stroke-linejoin:round;stroke-miterlimit:1.5;"/>
        </g>
        <g transform="matrix(1.30509e-17,-0.213138,-0.213138,-1.30509e-17,538.869,233.647)">
            <path d="M754.363,450.295L754.363,524.114L690.434,561.024L690.434,575.787L703.219,583.169L767.148,546.26L831.078,583.169L843.863,575.787L843.863,561.024L779.995,524.149L779.934,450.295L767.148,442.913L754.363,450.295Z" style="fill:none;stroke:black;stroke-width:4.69px;stroke-linecap:round;stroke-linejoin:round;stroke-miterlimit:1.5;"/>
        </g>
        <g transform="matrix(1.30509e-17,-0.213138,-0.213138,-1.30509e-17,475.089,565.055)">
            <path d="M754.363,450.295L754.363,524.114L690.434,561.024L690.434,575.787L703.219,583.169L767.148,546.26L831.078,583.169L843.863,575.787L843.863,561.024L779.995,524.149L779.934,450.295L767.148,442.913L754.363,450.295Z" style="fill:none;stroke:black;stroke-width:4.69px;stroke-linecap:round;stroke-linejoin:round;stroke-miterlimit:1.5;"/>
        </g>
        <g transform="matrix(1.30509e-17,-0.213138,-0.213138,-1.30509e-17,475.089,528.232)">
            <path d="M754.363,450.295L754.363,524.114L690.434,561.024L690.434,575.787L703.219,583.169L767.148,546.26L831.078,583.169L843.863,575.787L843.863,561.024L779.995,524.149L779.934,450.295L767.148,442.913L754.363,450.295Z" style="fill:none;stroke:black;stroke-width:4.69px;stroke-linecap:round;stroke-linejoin:round;stroke-miterlimit:1.5;"/>
        </g>
        <g transform="matrix(1.30509e-17,-0.213138,-0.213138,-1.30509e-17,443.2,509.82)">
            <path d="M754.363,450.295L754.363,524.114L690.434,561.024L690.434,575.787L703.219,583.169L767.148,546.26L831.078,583.169L843.863,575.787L843.863,561.024L779.995,524.149L779.934,450.295L767.148,442.913L754.363,450.295Z" style="fill:none;stroke:black;stroke-width:4.69px;stroke-linecap:round;stroke-linejoin:round;stroke-miterlimit:1.5;"/>
        </g>
        <g transform="matrix(1.30509e-17,-0.213138,-0.213138,-1.30509e-17,443.2,472.997)">
            <path d="M754.363,450.295L754.363,524.114L690.434,561.024L690.434,575.787L703.219,583.169L767.148,546.26L831.078,583.169L843.863,575.787L843.863,561.024L779.995,524.149L779.934,450.295L767.148,442.913L754.363,450.295Z" style="fill:none;stroke:black;stroke-width:4.69px;stroke-linecap:round;stroke-linejoin:round;stroke-miterlimit:1.5;"/>
        </g>
        <g transform="matrix(1.30509e-17,-0.213138,-0.213138,-1.30509e-17,475.089,491.409)">
            <path d="M754.363,450.295L754.363,524.114L690.434,561.024L690.434,575.787L703.219,583.169L767.148,546.26L831.078,583.169L843.863,575.787L843.863,561.024L779.995,524.149L779.934,450.295L767.148,442.913L754.363,450.295Z" style="fill:none;stroke:black;stroke-width:4.69px;stroke-linecap:round;stroke-linejoin:round;stroke-miterlimit:1.5;"/>
        </g>
        <g transform="matrix(1.30509e-17,-0.213138,-0.213138,-1.30509e-17,443.2,546.644)">
            <path d="M754.363,450.295L754.363,524.114L690.434,561.024L690.434,575.787L703.219,583.169L767.148,546.26L831.078,583.169L843.863,575.787L843.863,561.024L779.995,524.149L779.934,450.295L767.148,442.913L754.363,450.295Z" style="fill:none;stroke:black;stroke-width:4.69px;stroke-linecap:round;stroke-linejoin:round;stroke-miterlimit:1.5;"/>
        </g>
        <g transform="matrix(1.30509e-17,-0.213138,-0.213138,-1.30509e-17,475.089,454.586)">
            <path d="M754.363,450.295L754.363,524.114L690.434,561.024L690.434,575.787L703.219,583.169L767.148,546.26L831.078,583.169L843.863,575.787L843.863,561.024L779.995,524.149L779.934,450.295L767.148,442.913L754.363,450.295Z" style="fill:none;stroke:black;stroke-width:4.69px;stroke-linecap:round;stroke-linejoin:round;stroke-miterlimit:1.5;"/>
        </g>
        <g transform="matrix(1.30509e-17,-0.213138,-0.213138,-1.30509e-17,443.2,436.174)">
            <path d="M754.363,450.295L754.363,524.114L690.434,561.024L690.434,575.787L703.219,583.169L767.148,546.26L831.078,583.169L843.863,575.787L843.863,561.024L779.995,524.149L779.934,450.295L767.148,442.913L754.363,450.295Z" style="fill:none;stroke:black;stroke-width:4.69px;stroke-linecap:round;stroke-linejoin:round;stroke-miterlimit:1.5;"/>
        </g>
        <g transform="matrix(1.30509e-17,-0.213138,-0.213138,-1.30509e-17,443.2,399.351)">
            <path d="M754.363,450.295L754.363,524.114L690.434,561.024L690.434,575.787L703.219,583.169L767.148,546.26L831.078,583.169L843.863,575.787L843.863,561.024L779.995,524.149L779.934,450.295L767.148,442.913L754.363,450.295Z" style="fill:none;stroke:black;stroke-width:4.69px;stroke-linecap:round;stroke-linejoin:round;stroke-miterlimit:1.5;"/>
        </g>
        <g transform="matrix(1.30509e-17,-0.213138,-0.213138,-1.30509e-17,475.089,417.763)">
            <path d="M754.363,450.295L754.363,524.114L690.434,561.024L690.434,575.787L703.219,583.169L767.148,546.26L831.078,583.169L843.863,575.787L843.863,561.024L779.995,524.149L779.934,450.295L767.148,442.913L754.363,450.295Z" style="fill:none;stroke:black;stroke-width:4.69px;stroke-linecap:round;stroke-linejoin:round;stroke-miterlimit:1.5;"/>
        </g>
        <g transform="matrix(1.30509e-17,-0.213138,-0.213138,-1.30509e-17,475.089,380.939)">
            <path d="M754.363,450.295L754.363,524.114L690.434,561.024L690.434,575.787L703.219,583.169L767.148,546.26L831.078,583.169L843.863,575.787L843.863,561.024L779.995,524.149L779.934,450.295L767.148,442.913L754.363,450.295Z" style="fill:none;stroke:black;stroke-width:4.69px;stroke-linecap:round;stroke-linejoin:round;stroke-miterlimit:1.5;"/>
        </g>
        <g transform="matrix(1.30509e-17,-0.213138,-0.213138,-1.30509e-17,443.2,362.528)">
            <path d="M754.363,450.295L754.363,524.114L690.434,561.024L690.434,575.787L703.219,583.169L767.148,546.26L831.078,583.169L843.863,575.787L843.863,561.024L779.995,524.149L779.934,450.295L767.148,442.913L754.363,450.295Z" style="fill:none;stroke:black;stroke-width:4.69px;stroke-linecap:round;stroke-linejoin:round;stroke-miterlimit:1.5;"/>
        </g>
        <g transform="matrix(1.30509e-17,-0.213138,-0.213138,-1.30509e-17,475.089,344.116)">
            <path d="M754.363,450.295L754.363,524.114L690.434,561.024L690.434,575.787L703.219,583.169L767.148,546.26L831.078,583.169L843.863,575.787L843.863,561.024L779.995,524.149L779.934,450.295L767.148,442.913L754.363,450.295Z" style="fill:none;stroke:black;stroke-width:4.69px;stroke-linecap:round;stroke-linejoin:round;stroke-miterlimit:1.5;"/>
        </g>
        <g transform="matrix(1.30509e-17,-0.213138,-0.213138,-1.30509e-17,475.089,307.293)">
            <path d="M754.363,450.295L754.363,524.114L690.434,561.024L690.434,575.787L703.219,583.169L767.148,546.26L831.078,583.169L843.863,575.787L843.863,561.024L779.995,524.149L779.934,450.295L767.148,442.913L754.363,450.295Z" style="fill:none;stroke:black;stroke-width:4.69px;stroke-linecap:round;stroke-linejoin:round;stroke-miterlimit:1.5;"/>
        </g>
        <g transform="matrix(1.30509e-17,-0.213138,-0.213138,-1.30509e-17,443.2,288.882)">
            <path d="M754.363,450.295L754.363,524.114L690.434,561.024L690.434,575.787L703.219,583.169L767.148,546.26L831.078,583.169L843.863,575.787L843.863,561.024L779.995,524.149L779.934,450.295L767.148,442.913L754.363,450.295Z" style="fill:none;stroke:black;stroke-width:4.69px;stroke-linecap:round;stroke-linejoin:round;stroke-miterlimit:1.5;"/>
        </g>
        <g transform="matrix(1.30509e-17,-0.213138,-0.213138,-1.30509e-17,443.2,252.059)">
            <path d="M754.363,450.295L754.363,524.114L690.434,561.024L690.434,575.787L703.219,583.169L767.148,546.26L831.078,583.169L843.863,575.787L843.863,561.024L779.995,524.149L779.934,450.295L767.148,442.913L754.363,450.295Z" style="fill:none;stroke:black;stroke-width:4.69px;stroke-linecap:round;stroke-linejoin:round;stroke-miterlimit:1.5;"/>
        </g>
        <g transform="matrix(1.30509e-17,-0.213138,-0.213138,-1.30509e-17,475.089,270.47)">
            <path d="M754.363,450.295L754.363,524.114L690.434,561.024L690.434,575.787L703.219,583.169L767.148,546.26L831.078,583.169L843.863,575.787L843.863,561.024L779.995,524.149L779.934,450.295L767.148,442.913L754.363,450.295Z" style="fill:none;stroke:black;stroke-width:4.69px;stroke-linecap:round;stroke-linejoin:round;stroke-miterlimit:1.5;"/>
        </g>
        <g transform="matrix(1.30509e-17,-0.213138,-0.213138,-1.30509e-17,443.2,325.705)">
            <path d="M754.363,450.295L754.363,524.114L690.434,561.024L690.434,575.787L703.219,583.169L767.148,546.26L831.078,583.169L843.863,575.787L843.863,561.024L779.995,524.149L779.934,450.295L767.148,442.913L754.363,450.295Z" style="fill:none;stroke:black;stroke-width:4.69px;stroke-linecap:round;stroke-linejoin:round;stroke-miterlimit:1.5;"/>
        </g>
        <g transform="matrix(1.30509e-17,-0.213138,-0.213138,-1.30509e-17,475.089,233.647)">
            <path d="M754.363,450.295L754.363,524.114L690.434,561.024L690.434,575.787L703.219,583.169L767.148,546.26L831.078,583.169L843.863,575.787L843.863,561.024L779.995,524.149L779.934,450.295L767.148,442.913L754.363,450.295Z" style="fill:none;stroke:black;stroke-width:4.69px;stroke-linecap:round;stroke-linejoin:round;stroke-miterlimit:1.5;"/>
        </g>
        <g transform="matrix(1.30509e-17,-0.213138,-0.213138,-1.30509e-17,411.31,565.055)">
            <path d="M754.363,450.295L754.363,524.114L690.434,561.024L690.434,575.787L703.219,583.169L767.148,546.26L831.078,583.169L843.863,575.787L843.863,561.024L779.995,524.149L779.934,450.295L767.148,442.913L754.363,450.295Z" style="fill:none;stroke:black;stroke-width:4.69px;stroke-linecap:round;stroke-linejoin:round;stroke-miterlimit:1.5;"/>
        </g>
        <g transform="matrix(1.30509e-17,-0.213138,-0.213138,-1.30509e-17,411.31,528.232)">
            <path d="M754.363,450.295L754.363,524.114L690.434,561.024L690.434,575.787L703.219,583.169L767.148,546.26L831.078,583.169L843.863,575.787L843.863,561.024L779.995,524.149L779.934,450.295L767.148,442.913L754.363,450.295Z" style="fill:none;stroke:black;stroke-width:4.69px;stroke-linecap:round;stroke-linejoin:round;stroke-miterlimit:1.5;"/>
        </g>
        <g transform="matrix(1.30509e-17,-0.213138,-0.213138,-1.30509e-17,379.42,509.82)">
            <path d="M754.363,450.295L754.363,524.114L690.434,561.024L690.434,575.787L703.219,583.169L767.148,546.26L831.078,583.169L843.863,575.787L843.863,561.024L779.995,524.149L779.934,450.295L767.148,442.913L754.363,450.295Z" style="fill:none;stroke:black;stroke-width:4.69px;stroke-linecap:round;stroke-linejoin:round;stroke-miterlimit:1.5;"/>
        </g>
        <g transform="matrix(1.30509e-17,-0.213138,-0.213138,-1.30509e-17,379.42,472.997)">
            <path d="M754.363,450.295L754.363,524.114L690.434,561.024L690.434,575.787L703.219,583.169L767.148,546.26L831.078,583.169L843.863,575.787L843.863,561.024L779.995,524.149L779.934,450.295L767.148,442.913L754.363,450.295Z" style="fill:none;stroke:black;stroke-width:4.69px;stroke-linecap:round;stroke-linejoin:round;stroke-miterlimit:1.5;"/>
        </g>
        <g transform="matrix(1.30509e-17,-0.213138,-0.213138,-1.30509e-17,411.31,491.409)">
            <path d="M754.363,450.295L754.363,524.114L690.434,561.024L690.434,575.787L703.219,583.169L767.148,546.26L831.078,583.169L843.863,575.787L843.863,561.024L779.995,524.149L779.934,450.295L767.148,442.913L754.363,450.295Z" style="fill:none;stroke:black;stroke-width:4.69px;stroke-linecap:round;stroke-linejoin:round;stroke-miterlimit:1.5;"/>
        </g>
        <g transform="matrix(1.30509e-17,-0.213138,-0.213138,-1.30509e-17,379.42,546.644)">
            <path d="M754.363,450.295L754.363,524.114L690.434,561.024L690.434,575.787L703.219,583.169L767.148,546.26L831.078,583.169L843.863,575.787L843.863,561.024L779.995,524.149L779.934,450.295L767.148,442.913L754.363,450.295Z" style="fill:none;stroke:black;stroke-width:4.69px;stroke-linecap:round;stroke-linejoin:round;stroke-miterlimit:1.5;"/>
        </g>
        <g transform="matrix(1.30509e-17,-0.213138,-0.213138,-1.30509e-17,411.31,454.586)">
            <path d="M754.363,450.295L754.363,524.114L690.434,561.024L690.434,575.787L703.219,583.169L767.148,546.26L831.078,583.169L843.863,575.787L843.863,561.024L779.995,524.149L779.934,450.295L767.148,442.913L754.363,450.295Z" style="fill:none;stroke:black;stroke-width:4.69px;stroke-linecap:round;stroke-linejoin:round;stroke-miterlimit:1.5;"/>
        </g>
        <g transform="matrix(1.30509e-17,-0.213138,-0.213138,-1.30509e-17,379.42,436.174)">
            <path d="M754.363,450.295L754.363,524.114L690.434,561.024L690.434,575.787L703.219,583.169L767.148,546.26L831.078,583.169L843.863,575.787L843.863,561.024L779.995,524.149L779.934,450.295L767.148,442.913L754.363,450.295Z" style="fill:none;stroke:black;stroke-width:4.69px;stroke-linecap:round;stroke-linejoin:round;stroke-miterlimit:1.5;"/>
        </g>
        <g transform="matrix(1.30509e-17,-0.213138,-0.213138,-1.30509e-17,379.42,399.351)">
            <path d="M754.363,450.295L754.363,524.114L690.434,561.024L690.434,575.787L703.219,583.169L767.148,546.26L831.078,583.169L843.863,575.787L843.863,561.024L779.995,524.149L779.934,450.295L767.148,442.913L754.363,450.295Z" style="fill:none;stroke:black;stroke-width:4.69px;stroke-linecap:round;stroke-linejoin:round;stroke-miterlimit:1.5;"/>
        </g>
        <g transform="matrix(1.30509e-17,-0.213138,-0.213138,-1.30509e-17,411.31,417.763)">
            <path d="M754.363,450.295L754.363,524.114L690.434,561.024L690.434,575.787L703.219,583.169L767.148,546.26L831.078,583.169L843.863,575.787L843.863,561.024L779.995,524.149L779.934,450.295L767.148,442.913L754.363,450.295Z" style="fill:none;stroke:black;stroke-width:4.69px;stroke-linecap:round;stroke-linejoin:round;stroke-miterlimit:1.5;"/>
        </g>
        <g transform="matrix(1.30509e-17,-0.213138,-0.213138,-1.30509e-17,411.31,380.939)">
            <path d="M754.363,450.295L754.363,524.114L690.434,561.024L690.434,575.787L703.219,583.169L767.148,546.26L831.078,583.169L843.863,575.787L843.863,561.024L779.995,524.149L779.934,450.295L767.148,442.913L754.363,450.295Z" style="fill:none;stroke:black;stroke-width:4.69px;stroke-linecap:round;stroke-linejoin:round;stroke-miterlimit:1.5;"/>
        </g>
        <g transform="matrix(1.30509e-17,-0.213138,-0.213138,-1.30509e-17,379.42,362.528)">
            <path d="M754.363,450.295L754.363,524.114L690.434,561.024L690.434,575.787L703.219,583.169L767.148,546.26L831.078,583.169L843.863,575.787L843.863,561.024L779.995,524.149L779.934,450.295L767.148,442.913L754.363,450.295Z" style="fill:none;stroke:black;stroke-width:4.69px;stroke-linecap:round;stroke-linejoin:round;stroke-miterlimit:1.5;"/>
        </g>
        <g transform="matrix(1.30509e-17,-0.213138,-0.213138,-1.30509e-17,411.31,344.116)">
            <path d="M754.363,450.295L754.363,524.114L690.434,561.024L690.434,575.787L703.219,583.169L767.148,546.26L831.078,583.169L843.863,575.787L843.863,561.024L779.995,524.149L779.934,450.295L767.148,442.913L754.363,450.295Z" style="fill:none;stroke:black;stroke-width:4.69px;stroke-linecap:round;stroke-linejoin:round;stroke-miterlimit:1.5;"/>
        </g>
        <g transform="matrix(1.30509e-17,-0.213138,-0.213138,-1.30509e-17,411.31,307.293)">
            <path d="M754.363,450.295L754.363,524.114L690.434,561.024L690.434,575.787L703.219,583.169L767.148,546.26L831.078,583.169L843.863,575.787L843.863,561.024L779.995,524.149L779.934,450.295L767.148,442.913L754.363,450.295Z" style="fill:none;stroke:black;stroke-width:4.69px;stroke-linecap:round;stroke-linejoin:round;stroke-miterlimit:1.5;"/>
        </g>
        <g transform="matrix(1.30509e-17,-0.213138,-0.213138,-1.30509e-17,379.42,288.882)">
            <path d="M754.363,450.295L754.363,524.114L690.434,561.024L690.434,575.787L703.219,583.169L767.148,546.26L831.078,583.169L843.863,575.787L843.863,561.024L779.995,524.149L779.934,450.295L767.148,442.913L754.363,450.295Z" style="fill:none;stroke:black;stroke-width:4.69px;stroke-linecap:round;stroke-linejoin:round;stroke-miterlimit:1.5;"/>
        </g>
        <g transform="matrix(1.30509e-17,-0.213138,-0.213138,-1.30509e-17,379.42,252.059)">
            <path d="M754.363,450.295L754.363,524.114L690.434,561.024L690.434,575.787L703.219,583.169L767.148,546.26L831.078,583.169L843.863,575.787L843.863,561.024L779.995,524.149L779.934,450.295L767.148,442.913L754.363,450.295Z" style="fill:none;stroke:black;stroke-width:4.69px;stroke-linecap:round;stroke-linejoin:round;stroke-miterlimit:1.5;"/>
        </g>
        <g transform="matrix(1.30509e-17,-0.213138,-0.213138,-1.30509e-17,411.31,270.47)">
            <path d="M754.363,450.295L754.363,524.114L690.434,561.024L690.434,575.787L703.219,583.169L767.148,546.26L831.078,583.169L843.863,575.787L843.863,561.024L779.995,524.149L779.934,450.295L767.148,442.913L754.363,450.295Z" style="fill:none;stroke:black;stroke-width:4.69px;stroke-linecap:round;stroke-linejoin:round;stroke-miterlimit:1.5;"/>
        </g>
        <g transform="matrix(1.30509e-17,-0.213138,-0.213138,-1.30509e-17,379.42,325.705)">
            <path d="M754.363,450.295L754.363,524.114L690.434,561.024L690.434,575.787L703.219,583.169L767.148,546.26L831.078,583.169L843.863,575.787L843.863,561.024L779.995,524.149L779.934,450.295L767.148,442.913L754.363,450.295Z" style="fill:none;stroke:black;stroke-width:4.69px;stroke-linecap:round;stroke-linejoin:round;stroke-miterlimit:1.5;"/>
        </g>
        <g transform="matrix(1.30509e-17,-0.213138,-0.213138,-1.30509e-17,411.31,233.647)">
            <path d="M754.363,450.295L754.363,524.114L690.434,561.024L690.434,575.787L703.219,583.169L767.148,546.26L831.078,583.169L843.863,575.787L843.863,561.024L779.995,524.149L779.934,450.295L767.148,442.913L754.363,450.295Z" style="fill:none;stroke:black;stroke-width:4.69px;stroke-linecap:round;stroke-linejoin:round;stroke-miterlimit:1.5;"/>
        </g>
        <g transform="matrix(1.30509e-17,-0.213138,-0.213138,-1.30509e-17,347.53,565.055)">
            <path d="M754.363,450.295L754.363,524.114L690.434,561.024L690.434,575.787L703.219,583.169L767.148,546.26L831.078,583.169L843.863,575.787L843.863,561.024L779.995,524.149L779.934,450.295L767.148,442.913L754.363,450.295Z" style="fill:none;stroke:black;stroke-width:4.69px;stroke-linecap:round;stroke-linejoin:round;stroke-miterlimit:1.5;"/>
        </g>
        <g transform="matrix(1.30509e-17,-0.213138,-0.213138,-1.30509e-17,347.53,528.232)">
            <path d="M754.363,450.295L754.363,524.114L690.434,561.024L690.434,575.787L703.219,583.169L767.148,546.26L831.078,583.169L843.863,575.787L843.863,561.024L779.995,524.149L779.934,450.295L767.148,442.913L754.363,450.295Z" style="fill:none;stroke:black;stroke-width:4.69px;stroke-linecap:round;stroke-linejoin:round;stroke-miterlimit:1.5;"/>
        </g>
        <g transform="matrix(1.30509e-17,-0.213138,-0.213138,-1.30509e-17,315.641,509.82)">
            <path d="M754.363,450.295L754.363,524.114L690.434,561.024L690.434,575.787L703.219,583.169L767.148,546.26L831.078,583.169L843.863,575.787L843.863,561.024L779.995,524.149L779.934,450.295L767.148,442.913L754.363,450.295Z" style="fill:none;stroke:black;stroke-width:4.69px;stroke-linecap:round;stroke-linejoin:round;stroke-miterlimit:1.5;"/>
        </g>
        <g transform="matrix(1.30509e-17,-0.213138,-0.213138,-1.30509e-17,315.641,472.997)">
            <path d="M754.363,450.295L754.363,524.114L690.434,561.024L690.434,575.787L703.219,583.169L767.148,546.26L831.078,583.169L843.863,575.787L843.863,561.024L779.995,524.149L779.934,450.295L767.148,442.913L754.363,450.295Z" style="fill:none;stroke:black;stroke-width:4.69px;stroke-linecap:round;stroke-linejoin:round;stroke-miterlimit:1.5;"/>
        </g>
        <g transform="matrix(1.30509e-17,-0.213138,-0.213138,-1.30509e-17,347.53,491.409)">
            <path d="M754.363,450.295L754.363,524.114L690.434,561.024L690.434,575.787L703.219,583.169L767.148,546.26L831.078,583.169L843.863,575.787L843.863,561.024L779.995,524.149L779.934,450.295L767.148,442.913L754.363,450.295Z" style="fill:none;stroke:black;stroke-width:4.69px;stroke-linecap:round;stroke-linejoin:round;stroke-miterlimit:1.5;"/>
        </g>
        <g transform="matrix(1.30509e-17,-0.213138,-0.213138,-1.30509e-17,315.641,546.644)">
            <path d="M754.363,450.295L754.363,524.114L690.434,561.024L690.434,575.787L703.219,583.169L767.148,546.26L831.078,583.169L843.863,575.787L843.863,561.024L779.995,524.149L779.934,450.295L767.148,442.913L754.363,450.295Z" style="fill:none;stroke:black;stroke-width:4.69px;stroke-linecap:round;stroke-linejoin:round;stroke-miterlimit:1.5;"/>
        </g>
        <g transform="matrix(1.30509e-17,-0.213138,-0.213138,-1.30509e-17,347.53,454.586)">
            <path d="M754.363,450.295L754.363,524.114L690.434,561.024L690.434,575.787L703.219,583.169L767.148,546.26L831.078,583.169L843.863,575.787L843.863,561.024L779.995,524.149L779.934,450.295L767.148,442.913L754.363,450.295Z" style="fill:none;stroke:black;stroke-width:4.69px;stroke-linecap:round;stroke-linejoin:round;stroke-miterlimit:1.5;"/>
        </g>
        <g transform="matrix(1.30509e-17,-0.213138,-0.213138,-1.30509e-17,315.641,436.174)">
            <path d="M754.363,450.295L754.363,524.114L690.434,561.024L690.434,575.787L703.219,583.169L767.148,546.26L831.078,583.169L843.863,575.787L843.863,561.024L779.995,524.149L779.934,450.295L767.148,442.913L754.363,450.295Z" style="fill:none;stroke:black;stroke-width:4.69px;stroke-linecap:round;stroke-linejoin:round;stroke-miterlimit:1.5;"/>
        </g>
        <g transform="matrix(1.30509e-17,-0.213138,-0.213138,-1.30509e-17,315.641,399.351)">
            <path d="M754.363,450.295L754.363,524.114L690.434,561.024L690.434,575.787L703.219,583.169L767.148,546.26L831.078,583.169L843.863,575.787L843.863,561.024L779.995,524.149L779.934,450.295L767.148,442.913L754.363,450.295Z" style="fill:none;stroke:black;stroke-width:4.69px;stroke-linecap:round;stroke-linejoin:round;stroke-miterlimit:1.5;"/>
        </g>
        <g transform="matrix(1.30509e-17,-0.213138,-0.213138,-1.30509e-17,347.53,417.763)">
            <path d="M754.363,450.295L754.363,524.114L690.434,561.024L690.434,575.787L703.219,583.169L767.148,546.26L831.078,583.169L843.863,575.787L843.863,561.024L779.995,524.149L779.934,450.295L767.148,442.913L754.363,450.295Z" style="fill:none;stroke:black;stroke-width:4.69px;stroke-linecap:round;stroke-linejoin:round;stroke-miterlimit:1.5;"/>
        </g>
        <g transform="matrix(1.30509e-17,-0.213138,-0.213138,-1.30509e-17,347.53,380.939)">
            <path d="M754.363,450.295L754.363,524.114L690.434,561.024L690.434,575.787L703.219,583.169L767.148,546.26L831.078,583.169L843.863,575.787L843.863,561.024L779.995,524.149L779.934,450.295L767.148,442.913L754.363,450.295Z" style="fill:none;stroke:black;stroke-width:4.69px;stroke-linecap:round;stroke-linejoin:round;stroke-miterlimit:1.5;"/>
        </g>
        <g transform="matrix(1.30509e-17,-0.213138,-0.213138,-1.30509e-17,315.641,362.528)">
            <path d="M754.363,450.295L754.363,524.114L690.434,561.024L690.434,575.787L703.219,583.169L767.148,546.26L831.078,583.169L843.863,575.787L843.863,561.024L779.995,524.149L779.934,450.295L767.148,442.913L754.363,450.295Z" style="fill:none;stroke:black;stroke-width:4.69px;stroke-linecap:round;stroke-linejoin:round;stroke-miterlimit:1.5;"/>
        </g>
        <g transform="matrix(1.30509e-17,-0.213138,-0.213138,-1.30509e-17,347.53,344.116)">
            <path d="M754.363,450.295L754.363,524.114L690.434,561.024L690.434,575.787L703.219,583.169L767.148,546.26L831.078,583.169L843.863,575.787L843.863,561.024L779.995,524.149L779.934,450.295L767.148,442.913L754.363,450.295Z" style="fill:none;stroke:black;stroke-width:4.69px;stroke-linecap:round;stroke-linejoin:round;stroke-miterlimit:1.5;"/>
        </g>
        <g transform="matrix(1.30509e-17,-0.213138,-0.213138,-1.30509e-17,347.53,307.293)">
            <path d="M754.363,450.295L754.363,524.114L690.434,561.024L690.434,575.787L703.219,583.169L767.148,546.26L831.078,583.169L843.863,575.787L843.863,561.024L779.995,524.149L779.934,450.295L767.148,442.913L754.363,450.295Z" style="fill:none;stroke:black;stroke-width:4.69px;stroke-linecap:round;stroke-linejoin:round;stroke-miterlimit:1.5;"/>
        </g>
        <g transform="matrix(1.30509e-17,-0.213138,-0.213138,-1.30509e-17,315.641,288.882)">
            <path d="M754.363,450.295L754.363,524.114L690.434,561.024L690.434,575.787L703.219,583.169L767.148,546.26L831.078,583.169L843.863,575.787L843.863,561.024L779.995,524.149L779.934,450.295L767.148,442.913L754.363,450.295Z" style="fill:none;stroke:black;stroke-width:4.69px;stroke-linecap:round;stroke-linejoin:round;stroke-miterlimit:1.5;"/>
        </g>
        <g transform="matrix(1.30509e-17,-0.213138,-0.213138,-1.30509e-17,315.641,252.059)">
            <path d="M754.363,450.295L754.363,524.114L690.434,561.024L690.434,575.787L703.219,583.169L767.148,546.26L831.078,583.169L843.863,575.787L843.863,561.024L779.995,524.149L779.934,450.295L767.148,442.913L754.363,450.295Z" style="fill:none;stroke:black;stroke-width:4.69px;stroke-linecap:round;stroke-linejoin:round;stroke-miterlimit:1.5;"/>
        </g>
        <g transform="matrix(1.30509e-17,-0.213138,-0.213138,-1.30509e-17,347.53,270.47)">
            <path d="M754.363,450.295L754.363,524.114L690.434,561.024L690.434,575.787L703.219,583.169L767.148,546.26L831.078,583.169L843.863,575.787L843.863,561.024L779.995,524.149L779.934,450.295L767.148,442.913L754.363,450.295Z" style="fill:none;stroke:black;stroke-width:4.69px;stroke-linecap:round;stroke-linejoin:round;stroke-miterlimit:1.5;"/>
        </g>
        <g transform="matrix(1.30509e-17,-0.213138,-0.213138,-1.30509e-17,315.641,325.705)">
            <path d="M754.363,450.295L754.363,524.114L690.434,561.024L690.434,575.787L703.219,583.169L767.148,546.26L831.078,583.169L843.863,575.787L843.863,561.024L779.995,524.149L779.934,450.295L767.148,442.913L754.363,450.295Z" style="fill:none;stroke:black;stroke-width:4.69px;stroke-linecap:round;stroke-linejoin:round;stroke-miterlimit:1.5;"/>
        </g>
        <g transform="matrix(1.30509e-17,-0.213138,-0.213138,-1.30509e-17,347.53,233.647)">
            <path d="M754.363,450.295L754.363,524.114L690.434,561.024L690.434,575.787L703.219,583.169L767.148,546.26L831.078,583.169L843.863,575.787L843.863,561.024L779.995,524.149L779.934,450.295L767.148,442.913L754.363,450.295Z" style="fill:none;stroke:black;stroke-width:4.69px;stroke-linecap:round;stroke-linejoin:round;stroke-miterlimit:1.5;"/>
        </g>
        <g transform="matrix(0.184583,0.106569,0.106569,-0.184583,-123.444,436.309)">
            <path d="M767.148,516.732L690.434,561.024L690.434,575.787L703.219,583.169L767.148,546.26L831.078,583.169L843.863,575.787L843.863,561.024L767.148,516.732Z" style="fill:none;stroke:black;stroke-width:4.69px;stroke-linecap:round;stroke-linejoin:round;stroke-miterlimit:1.5;"/>
        </g>
        <g transform="matrix(0.184583,0.106569,0.106569,-0.184583,-155.334,417.897)">
            <path d="M767.148,516.732L690.434,561.024L690.434,575.787L703.219,583.169L767.148,546.26L831.078,583.169L843.863,575.787L843.863,561.024L767.148,516.732Z" style="fill:none;stroke:black;stroke-width:4.69px;stroke-linecap:round;stroke-linejoin:round;stroke-miterlimit:1.5;"/>
        </g>
        <g transform="matrix(0.184583,0.106569,0.106569,-0.184583,-59.6645,436.309)">
            <path d="M767.148,516.732L690.434,561.024L690.434,575.787L703.219,583.169L767.148,546.26L831.078,583.169L843.863,575.787L843.863,561.024L767.148,516.732Z" style="fill:none;stroke:black;stroke-width:4.69px;stroke-linecap:round;stroke-linejoin:round;stroke-miterlimit:1.5;"/>
        </g>
        <g transform="matrix(0.184583,0.106569,0.106569,-0.184583,4.11505,436.309)">
            <path d="M767.148,516.732L690.434,561.024L690.434,575.787L703.219,583.169L767.148,546.26L831.078,583.169L843.863,575.787L843.863,561.024L767.148,516.732Z" style="fill:none;stroke:black;stroke-width:4.69px;stroke-linecap:round;stroke-linejoin:round;stroke-miterlimit:1.5;"/>
        </g>
        <g transform="matrix(0.184583,0.106569,0.106569,-0.184583,67.8946,436.309)">
            <path d="M767.148,516.732L690.434,561.024L690.434,575.787L703.219,583.169L767.148,546.26L831.078,583.169L843.863,575.787L843.863,561.024L767.148,516.732Z" style="fill:none;stroke:black;stroke-width:4.69px;stroke-linecap:round;stroke-linejoin:round;stroke-miterlimit:1.5;"/>
        </g>
        <g transform="matrix(0.184583,0.106569,0.106569,-0.184583,131.674,436.309)">
            <path d="M767.148,516.732L690.434,561.024L690.434,575.787L703.219,583.169L767.148,546.26L831.078,583.169L843.863,575.787L843.863,561.024L767.148,516.732Z" style="fill:none;stroke:black;stroke-width:4.69px;stroke-linecap:round;stroke-linejoin:round;stroke-miterlimit:1.5;"/>
        </g>
        <g transform="matrix(0.184583,0.106569,0.106569,-0.184583,195.454,436.309)">
            <path d="M767.148,516.732L690.434,561.024L690.434,575.787L703.219,583.169L767.148,546.26L831.078,583.169L843.863,575.787L843.863,561.024L767.148,516.732Z" style="fill:none;stroke:black;stroke-width:4.69px;stroke-linecap:round;stroke-linejoin:round;stroke-miterlimit:1.5;"/>
        </g>
        <g transform="matrix(0.184583,0.106569,0.106569,-0.184583,259.233,436.309)">
            <path d="M767.148,516.732L690.434,561.024L690.434,575.787L703.219,583.169L767.148,546.26L831.078,583.169L843.863,575.787L843.863,561.024L767.148,516.732Z" style="fill:none;stroke:black;stroke-width:4.69px;stroke-linecap:round;stroke-linejoin:round;stroke-miterlimit:1.5;"/>
        </g>
        <g transform="matrix(0.184583,0.106569,0.106569,-0.184583,323.013,436.309)">
            <path d="M767.148,516.732L690.434,561.024L690.434,575.787L703.219,583.169L767.148,546.26L831.078,583.169L843.863,575.787L843.863,561.024L767.148,516.732Z" style="fill:none;stroke:black;stroke-width:4.69px;stroke-linecap:round;stroke-linejoin:round;stroke-miterlimit:1.5;"/>
        </g>
        <g transform="matrix(0.184583,0.106569,0.106569,-0.184583,386.792,436.309)">
            <path d="M767.148,516.732L690.434,561.024L690.434,575.787L703.219,583.169L767.148,546.26L831.078,583.169L843.863,575.787L843.863,561.024L767.148,516.732Z" style="fill:none;stroke:black;stroke-width:4.69px;stroke-linecap:round;stroke-linejoin:round;stroke-miterlimit:1.5;"/>
        </g>
        <g transform="matrix(2.77556e-17,-0.213138,-0.213138,-2.77556e-17,730.208,565.055)">
            <path d="M767.148,516.732L690.434,561.024L690.434,575.787L703.219,583.169L767.148,546.26L831.078,583.169L843.863,575.787L843.863,561.024L767.148,516.732Z" style="fill:none;stroke:black;stroke-width:4.69px;stroke-linecap:round;stroke-linejoin:round;stroke-miterlimit:1.5;"/>
        </g>
        <g transform="matrix(2.77556e-17,-0.213138,-0.213138,-2.77556e-17,730.208,528.232)">
            <path d="M767.148,516.732L690.434,561.024L690.434,575.787L703.219,583.169L767.148,546.26L831.078,583.169L843.863,575.787L843.863,561.024L767.148,516.732Z" style="fill:none;stroke:black;stroke-width:4.69px;stroke-linecap:round;stroke-linejoin:round;stroke-miterlimit:1.5;"/>
        </g>
        <g transform="matrix(2.77556e-17,-0.213138,-0.213138,-2.77556e-17,730.208,491.409)">
            <path d="M767.148,516.732L690.434,561.024L690.434,575.787L703.219,583.169L767.148,546.26L831.078,583.169L843.863,575.787L843.863,561.024L767.148,516.732Z" style="fill:none;stroke:black;stroke-width:4.69px;stroke-linecap:round;stroke-linejoin:round;stroke-miterlimit:1.5;"/>
        </g>
        <g transform="matrix(2.77556e-17,-0.213138,-0.213138,-2.77556e-17,730.208,454.586)">
            <path d="M767.148,516.732L690.434,561.024L690.434,575.787L703.219,583.169L767.148,546.26L831.078,583.169L843.863,575.787L843.863,561.024L767.148,516.732Z" style="fill:none;stroke:black;stroke-width:4.69px;stroke-linecap:round;stroke-linejoin:round;stroke-miterlimit:1.5;"/>
        </g>
        <g transform="matrix(2.77556e-17,-0.213138,-0.213138,-2.77556e-17,730.208,417.763)">
            <path d="M767.148,516.732L690.434,561.024L690.434,575.787L703.219,583.169L767.148,546.26L831.078,583.169L843.863,575.787L843.863,561.024L767.148,516.732Z" style="fill:none;stroke:black;stroke-width:4.69px;stroke-linecap:round;stroke-linejoin:round;stroke-miterlimit:1.5;"/>
        </g>
        <g transform="matrix(2.77556e-17,-0.213138,-0.213138,-2.77556e-17,730.208,380.939)">
            <path d="M767.148,516.732L690.434,561.024L690.434,575.787L703.219,583.169L767.148,546.26L831.078,583.169L843.863,575.787L843.863,561.024L767.148,516.732Z" style="fill:none;stroke:black;stroke-width:4.69px;stroke-linecap:round;stroke-linejoin:round;stroke-miterlimit:1.5;"/>
        </g>
        <g transform="matrix(2.77556e-17,-0.213138,-0.213138,-2.77556e-17,730.208,344.116)">
            <path d="M767.148,516.732L690.434,561.024L690.434,575.787L703.219,583.169L767.148,546.26L831.078,583.169L843.863,575.787L843.863,561.024L767.148,516.732Z" style="fill:none;stroke:black;stroke-width:4.69px;stroke-linecap:round;stroke-linejoin:round;stroke-miterlimit:1.5;"/>
        </g>
        <g transform="matrix(2.77556e-17,-0.213138,-0.213138,-2.77556e-17,730.208,307.293)">
            <path d="M767.148,516.732L690.434,561.024L690.434,575.787L703.219,583.169L767.148,546.26L831.078,583.169L843.863,575.787L843.863,561.024L767.148,516.732Z" style="fill:none;stroke:black;stroke-width:4.69px;stroke-linecap:round;stroke-linejoin:round;stroke-miterlimit:1.5;"/>
        </g>
        <g transform="matrix(2.77556e-17,-0.213138,-0.213138,-2.77556e-17,730.208,270.47)">
            <path d="M767.148,516.732L690.434,561.024L690.434,575.787L703.219,583.169L767.148,546.26L831.078,583.169L843.863,575.787L843.863,561.024L767.148,516.732Z" style="fill:none;stroke:black;stroke-width:4.69px;stroke-linecap:round;stroke-linejoin:round;stroke-miterlimit:1.5;"/>
        </g>
        <g transform="matrix(2.77556e-17,-0.213138,-0.213138,-2.77556e-17,730.208,233.647)">
            <path d="M767.148,516.732L690.434,561.024L690.434,575.787L703.219,583.169L767.148,546.26L831.078,583.169L843.863,575.787L843.863,561.024L767.148,516.732Z" style="fill:none;stroke:black;stroke-width:4.69px;stroke-linecap:round;stroke-linejoin:round;stroke-miterlimit:1.5;"/>
        </g>
        <g transform="matrix(0.184583,-0.106569,0.106569,0.184583,-123.444,35.376)">
            <path d="M767.148,516.732L690.434,561.024L690.434,575.787L703.219,583.169L767.148,546.26L831.078,583.169L843.863,575.787L843.863,561.024L767.148,516.732Z" style="fill:none;stroke:black;stroke-width:4.69px;stroke-linecap:round;stroke-linejoin:round;stroke-miterlimit:1.5;"/>
        </g>
        <g transform="matrix(0.184583,-0.106569,0.106569,0.184583,-155.334,53.7876)">
            <path d="M767.148,516.732L690.434,561.024L690.434,575.787L703.219,583.169L767.148,546.26L831.078,583.169L843.863,575.787L843.863,561.024L767.148,516.732Z" style="fill:none;stroke:black;stroke-width:4.69px;stroke-linecap:round;stroke-linejoin:round;stroke-miterlimit:1.5;"/>
        </g>
        <g transform="matrix(0.184583,-0.106569,0.106569,0.184583,-59.6645,35.376)">
            <path d="M767.148,516.732L690.434,561.024L690.434,575.787L703.219,583.169L767.148,546.26L831.078,583.169L843.863,575.787L843.863,561.024L767.148,516.732Z" style="fill:none;stroke:black;stroke-width:4.69px;stroke-linecap:round;stroke-linejoin:round;stroke-miterlimit:1.5;"/>
        </g>
        <g transform="matrix(0.184583,-0.106569,0.106569,0.184583,4.11505,35.376)">
            <path d="M767.148,516.732L690.434,561.024L690.434,575.787L703.219,583.169L767.148,546.26L831.078,583.169L843.863,575.787L843.863,561.024L767.148,516.732Z" style="fill:none;stroke:black;stroke-width:4.69px;stroke-linecap:round;stroke-linejoin:round;stroke-miterlimit:1.5;"/>
        </g>
        <g transform="matrix(0.184583,-0.106569,0.106569,0.184583,67.8946,35.376)">
            <path d="M767.148,516.732L690.434,561.024L690.434,575.787L703.219,583.169L767.148,546.26L831.078,583.169L843.863,575.787L843.863,561.024L767.148,516.732Z" style="fill:none;stroke:black;stroke-width:4.69px;stroke-linecap:round;stroke-linejoin:round;stroke-miterlimit:1.5;"/>
        </g>
        <g transform="matrix(0.184583,-0.106569,0.106569,0.184583,131.674,35.376)">
            <path d="M767.148,516.732L690.434,561.024L690.434,575.787L703.219,583.169L767.148,546.26L831.078,583.169L843.863,575.787L843.863,561.024L767.148,516.732Z" style="fill:none;stroke:black;stroke-width:4.69px;stroke-linecap:round;stroke-linejoin:round;stroke-miterlimit:1.5;"/>
        </g>
        <g transform="matrix(0.184583,-0.106569,0.106569,0.184583,195.454,35.376)">
            <path d="M767.148,516.732L690.434,561.024L690.434,575.787L703.219,583.169L767.148,546.26L831.078,583.169L843.863,575.787L843.863,561.024L767.148,516.732Z" style="fill:none;stroke:black;stroke-width:4.69px;stroke-linecap:round;stroke-linejoin:round;stroke-miterlimit:1.5;"/>
        </g>
        <g transform="matrix(0.184583,-0.106569,0.106569,0.184583,259.233,35.376)">
            <path d="M767.148,516.732L690.434,561.024L690.434,575.787L703.219,583.169L767.148,546.26L831.078,583.169L843.863,575.787L843.863,561.024L767.148,516.732Z" style="fill:none;stroke:black;stroke-width:4.69px;stroke-linecap:round;stroke-linejoin:round;stroke-miterlimit:1.5;"/>
        </g>
        <g transform="matrix(0.184583,-0.106569,0.106569,0.184583,323.013,35.376)">
            <path d="M767.148,516.732L690.434,561.024L690.434,575.787L703.219,583.169L767.148,546.26L831.078,583.169L843.863,575.787L843.863,561.024L767.148,516.732Z" style="fill:none;stroke:black;stroke-width:4.69px;stroke-linecap:round;stroke-linejoin:round;stroke-miterlimit:1.5;"/>
        </g>
        <g transform="matrix(0.184583,-0.106569,0.106569,0.184583,386.792,35.376)">
            <path d="M767.148,516.732L690.434,561.024L690.434,575.787L703.219,583.169L767.148,546.26L831.078,583.169L843.863,575.787L843.863,561.024L767.148,516.732Z" style="fill:none;stroke:black;stroke-width:4.69px;stroke-linecap:round;stroke-linejoin:round;stroke-miterlimit:1.5;"/>
        </g>
    </g>
</svg>
