<?xml version="1.0" encoding="UTF-8" standalone="no"?>
<!DOCTYPE svg PUBLIC "-//W3C//DTD SVG 1.1//EN" "http://www.w3.org/Graphics/SVG/1.1/DTD/svg11.dtd">
<svg width="100%" height="100%" viewBox="0 0 722 486" version="1.1" xmlns="http://www.w3.org/2000/svg" xmlns:xlink="http://www.w3.org/1999/xlink" xml:space="preserve" xmlns:serif="http://www.serif.com/" style="fill-rule:evenodd;clip-rule:evenodd;">
    <g id="Sketch004" transform="matrix(1,0,0,-1,7.07244,478.757)">
        <g>
            <path id="Sketch004_w0000" d="M0,2.835L0,468.85C0,470.405 1.28,471.685 2.835,471.685L704.409,471.685C705.964,471.685 707.244,470.405 707.244,468.85L707.244,2.835C707.244,1.28 705.964,-0 704.409,0L2.835,0C1.28,0 -0,1.28 0,2.835" style="fill:none;stroke:black;stroke-width:0.99px;"/>
            <path id="Sketch004_w0001" d="M42.52,48.189L42.52,423.496C42.52,426.606 45.079,429.165 48.189,429.165L644.882,429.165C647.992,429.165 650.551,426.606 650.551,423.496L650.551,48.189C650.551,45.079 647.992,42.52 644.882,42.52L48.189,42.52C45.079,42.52 42.52,45.079 42.52,48.189" style="fill:none;stroke:black;stroke-width:0.99px;"/>
            <circle cx="12.189" cy="15.874" r="5.102" style="fill:none;stroke:black;stroke-width:0.99px;"/>
            <circle cx="682.299" cy="15.874" r="5.102" style="fill:none;stroke:black;stroke-width:0.99px;"/>
            <circle cx="682.299" cy="455.811" r="5.102" style="fill:none;stroke:black;stroke-width:0.99px;"/>
            <circle cx="12.189" cy="455.811" r="5.102" style="fill:none;stroke:black;stroke-width:0.99px;"/>
        </g>
    </g>
</svg>
