<?xml version="1.0"?>
<!DOCTYPE svg PUBLIC "-//W3C//DTD SVG 1.1//EN" "http://www.w3.org/Graphics/SVG/1.1/DTD/svg11.dtd">
<svg width="252.96mm" height="31.960000000000008mm" viewBox="0 0 252.96 31.960000000000008" xmlns="http://www.w3.org/2000/svg" version="1.1">
<g id="Sketch001" transform="translate(-39.108470,127.118390) scale(1,-1)">
<path id="Sketch001_w0000"  d="M 150.08846999999997 99.63839 L 150.08846999999997 107.63839 A 2 2 0 0 1 148.088 109.638L 63.58846999999997 109.63839 A 2 2 0 0 1 61.5885 107.638L 61.58846999999998 99.63839 A 2 2 0 0 0 59.5885 97.6384L 43.58846999999998 97.63839 A 2 2 0 0 0 41.5885 99.6384L 41.58846999999998 122.63839 A 2 2 0 0 0 43.5885 124.638L 287.58847 124.63839 A 2 2 0 0 0 289.588 122.638L 289.58847 99.63839 A 2 2 0 0 0 287.588 97.6384L 271.58847 97.63839 A 2 2 0 0 0 269.588 99.6384L 269.58847 107.63839 A 2 2 0 0 1 267.588 109.638L 183.08846999999997 109.63839 A 2 2 0 0 1 181.088 107.638L 181.08846999999997 99.63839 A 2 2 0 0 0 179.088 97.6384L 152.08846999999997 97.63839 A 2 2 0 0 0 150.088 99.6384" stroke="#000000" stroke-width="0.35 px" style="stroke-width:0.35;stroke-miterlimit:4;stroke-dasharray:none;fill:none;fill-opacity:1;fill-rule: evenodd"/>
<path id="Sketch001_w0001"  d="M 155.58846999999997 107.13839 A 2.25 2.25 0 0 1 155.588 102.638L 175.58846999999997 102.63839 A 2.25 2.25 0 0 1 175.588 107.138L 155.58846999999997 107.13839 " stroke="#000000" stroke-width="0.35 px" style="stroke-width:0.35;stroke-miterlimit:4;stroke-dasharray:none;fill:none;fill-opacity:1;fill-rule: evenodd"/>
<path id="Sketch001_w0002"  d="M 48.58846999999998 107.13839 A 2.25 2.25 0 1 1 48.5885 102.638L 54.58846999999999 102.63839 A 2.25 2.25 0 0 1 54.5885 107.138L 48.58846999999998 107.13839 " stroke="#000000" stroke-width="0.35 px" style="stroke-width:0.35;stroke-miterlimit:4;stroke-dasharray:none;fill:none;fill-opacity:1;fill-rule: evenodd"/>
<path id="Sketch001_w0003"  d="M 276.58847 107.13839 A 2.25 2.25 0 1 1 276.588 102.638L 282.58847 102.63839 A 2.25 2.25 0 1 1 282.588 107.138L 276.58847 107.13839 " stroke="#000000" stroke-width="0.35 px" style="stroke-width:0.35;stroke-miterlimit:4;stroke-dasharray:none;fill:none;fill-opacity:1;fill-rule: evenodd"/>
<circle cx="47.58846999999998" cy="114.63839" r="1.35" stroke="#000000" stroke-width="0.35 px" style="stroke-width:0.35;stroke-miterlimit:4;stroke-dasharray:none;fill:none"/>
<circle cx="117.58846999999999" cy="114.63839" r="1.35" stroke="#000000" stroke-width="0.35 px" style="stroke-width:0.35;stroke-miterlimit:4;stroke-dasharray:none;fill:none"/>
<circle cx="82.58846999999999" cy="114.63839" r="1.35" stroke="#000000" stroke-width="0.35 px" style="stroke-width:0.35;stroke-miterlimit:4;stroke-dasharray:none;fill:none"/>
<circle cx="156.58846999999997" cy="114.63839" r="1.35" stroke="#000000" stroke-width="0.35 px" style="stroke-width:0.35;stroke-miterlimit:4;stroke-dasharray:none;fill:none"/>
<circle cx="174.58846999999997" cy="114.63839" r="1.35" stroke="#000000" stroke-width="0.35 px" style="stroke-width:0.35;stroke-miterlimit:4;stroke-dasharray:none;fill:none"/>
<circle cx="248.58846999999997" cy="114.63839" r="1.35" stroke="#000000" stroke-width="0.35 px" style="stroke-width:0.35;stroke-miterlimit:4;stroke-dasharray:none;fill:none"/>
<circle cx="285.58847" cy="114.63839" r="1.35" stroke="#000000" stroke-width="0.35 px" style="stroke-width:0.35;stroke-miterlimit:4;stroke-dasharray:none;fill:none"/>
<circle cx="213.58846999999997" cy="114.63839" r="1.35" stroke="#000000" stroke-width="0.35 px" style="stroke-width:0.35;stroke-miterlimit:4;stroke-dasharray:none;fill:none"/>
<circle cx="165.58846999999997" cy="111.13839" r="1.35" stroke="#000000" stroke-width="0.35 px" style="stroke-width:0.35;stroke-miterlimit:4;stroke-dasharray:none;fill:none"/>
<circle cx="280.08847" cy="111.13839" r="1.35" stroke="#000000" stroke-width="0.35 px" style="stroke-width:0.35;stroke-miterlimit:4;stroke-dasharray:none;fill:none"/>
<circle cx="53.08846999999998" cy="111.13839" r="1.35" stroke="#000000" stroke-width="0.35 px" style="stroke-width:0.35;stroke-miterlimit:4;stroke-dasharray:none;fill:none"/>
<circle cx="53.08846999999998" cy="118.13839" r="1.35" stroke="#000000" stroke-width="0.35 px" style="stroke-width:0.35;stroke-miterlimit:4;stroke-dasharray:none;fill:none"/>
<circle cx="100.08846999999999" cy="118.13839" r="1.35" stroke="#000000" stroke-width="0.35 px" style="stroke-width:0.35;stroke-miterlimit:4;stroke-dasharray:none;fill:none"/>
<circle cx="231.08846999999997" cy="118.13839" r="1.35" stroke="#000000" stroke-width="0.35 px" style="stroke-width:0.35;stroke-miterlimit:4;stroke-dasharray:none;fill:none"/>
<circle cx="280.08847" cy="118.13839" r="1.35" stroke="#000000" stroke-width="0.35 px" style="stroke-width:0.35;stroke-miterlimit:4;stroke-dasharray:none;fill:none"/>
<circle cx="185.58846999999997" cy="118.13839" r="1.375" stroke="#000000" stroke-width="0.35 px" style="stroke-width:0.35;stroke-miterlimit:4;stroke-dasharray:none;fill:none"/>
<circle cx="145.58846999999997" cy="118.13839" r="1.375" stroke="#000000" stroke-width="0.35 px" style="stroke-width:0.35;stroke-miterlimit:4;stroke-dasharray:none;fill:none"/>
<title>b'Sketch001'</title>
</g>
</svg>