<?xml version="1.0"?>
<!DOCTYPE svg PUBLIC "-//W3C//DTD SVG 1.1//EN" "http://www.w3.org/Graphics/SVG/1.1/DTD/svg11.dtd">
<svg width="362.1mm" height="172.85000000000002mm" viewBox="0 0 362.1 172.85000000000002" xmlns="http://www.w3.org/2000/svg" version="1.1">
<g id="Sketch" transform="translate(3.550000,169.300000) scale(1,-1)">
<path id="Sketch_w0000"  d="M 185.0 147.0 A 5 5 0 0 1 190 152L 190.0 165.75 L 227.0 165.75 L 227.0 152.0 A 5 5 0 0 1 232 147L 346.0 147.0 L 346.0 124.5 A 2 2 0 0 1 348 122.5L 355.0 122.5 L 355.0 0.0 L 0.0 0.0 L 0.0 122.5 L 7.0 122.5 A 2 2 0 0 1 9 124.5L 9.0 128.0 L 9.0 147.0 L 185.0 147.0 " stroke="#000000" stroke-width="0.35 px" style="stroke-width:0.35;stroke-miterlimit:4;stroke-dasharray:none;fill:none;fill-opacity:1;fill-rule: evenodd"/>
<path id="Sketch_w0001"  d="M 18.0 10.875 A 2 2 0 1 1 18 6.875L 44.0 6.875 A 2 2 0 0 1 44 10.875L 18.0 10.875 " stroke="#000000" stroke-width="0.35 px" style="stroke-width:0.35;stroke-miterlimit:4;stroke-dasharray:none;fill:none;fill-opacity:1;fill-rule: evenodd"/>
<path id="Sketch_w0002"  d="M 17.5 18.075 L 17.5 124.17500000000001 A 4.2 4.2 0 0 0 21.7 128.375L 330.0 128.375 A 4.2 4.2 0 0 0 334.2 124.175L 334.2 18.075000000000003 A 4.2 4.2 0 0 0 330 13.875L 21.699999999999996 13.875 A 4.2 4.2 0 0 0 17.5 18.075" stroke="#000000" stroke-width="0.35 px" style="stroke-width:0.35;stroke-miterlimit:4;stroke-dasharray:none;fill:none;fill-opacity:1;fill-rule: evenodd"/>
<path id="Sketch_w0003"  d="M 18.0 135.375 A 2 2 0 1 1 18 131.375L 44.0 131.375 A 2 2 0 0 1 44 135.375L 18.0 135.375 " stroke="#000000" stroke-width="0.35 px" style="stroke-width:0.35;stroke-miterlimit:4;stroke-dasharray:none;fill:none;fill-opacity:1;fill-rule: evenodd"/>
<path id="Sketch_w0004"  d="M 59.0 135.375 A 2 2 0 0 1 59 131.375L 77.0 131.375 A 2 2 0 1 1 77 135.375L 59.0 135.375 " stroke="#000000" stroke-width="0.35 px" style="stroke-width:0.35;stroke-miterlimit:4;stroke-dasharray:none;fill:none;fill-opacity:1;fill-rule: evenodd"/>
<path id="Sketch_w0005"  d="M 278.0 135.375 A 2 2 0 0 1 278 131.375L 308.0 131.375 A 2 2 0 1 1 308 135.375L 278.0 135.375 " stroke="#000000" stroke-width="0.35 px" style="stroke-width:0.35;stroke-miterlimit:4;stroke-dasharray:none;fill:none;fill-opacity:1;fill-rule: evenodd"/>
<path id="Sketch_w0006"  d="M 322.99999999999153 135.3749999999877 A 2 2 0 0 1 323 131.375L 336.9999999999984 131.37499999999386 A 2 2 0 1 1 337 135.375L 322.99999999999153 135.3749999999877 " stroke="#000000" stroke-width="0.35 px" style="stroke-width:0.35;stroke-miterlimit:4;stroke-dasharray:none;fill:none;fill-opacity:1;fill-rule: evenodd"/>
<path id="Sketch_w0007"  d="M 137.0 135.375 A 2 2 0 0 1 137 131.375L 218.0 131.375 A 2 2 0 0 1 218 135.375L 137.0 135.375 " stroke="#000000" stroke-width="0.35 px" style="stroke-width:0.35;stroke-miterlimit:4;stroke-dasharray:none;fill:none;fill-opacity:1;fill-rule: evenodd"/>
<path id="Sketch_w0008"  d="M 59.0 10.875 A 2 2 0 0 1 59 6.875L 77.0 6.875 A 2 2 0 0 1 77 10.875L 59.0 10.875 " stroke="#000000" stroke-width="0.35 px" style="stroke-width:0.35;stroke-miterlimit:4;stroke-dasharray:none;fill:none;fill-opacity:1;fill-rule: evenodd"/>
<path id="Sketch_w0009"  d="M 137.0 10.875 A 2 2 0 0 1 137 6.875L 218.0 6.875 A 2 2 0 1 1 218 10.875L 137.0 10.875 " stroke="#000000" stroke-width="0.35 px" style="stroke-width:0.35;stroke-miterlimit:4;stroke-dasharray:none;fill:none;fill-opacity:1;fill-rule: evenodd"/>
<path id="Sketch_w0010"  d="M 278.0 10.875 A 2 2 0 0 1 278 6.875L 308.0 6.875 A 2 2 0 0 1 308 10.875L 278.0 10.875 " stroke="#000000" stroke-width="0.35 px" style="stroke-width:0.35;stroke-miterlimit:4;stroke-dasharray:none;fill:none;fill-opacity:1;fill-rule: evenodd"/>
<path id="Sketch_w0011"  d="M 322.99999999999153 10.874999999987674 A 2 2 0 0 1 323 6.875L 336.9999999999984 6.875 A 2 2 0 1 1 337 10.875L 322.99999999999153 10.874999999987674 " stroke="#000000" stroke-width="0.35 px" style="stroke-width:0.35;stroke-miterlimit:4;stroke-dasharray:none;fill:none;fill-opacity:1;fill-rule: evenodd"/>
<circle cx="3.25" cy="101.5" r="1.35" stroke="#000000" stroke-width="0.35 px" style="stroke-width:0.35;stroke-miterlimit:4;stroke-dasharray:none;fill:none"/>
<circle cx="205.0" cy="162.15" r="1.35" stroke="#000000" stroke-width="0.35 px" style="stroke-width:0.35;stroke-miterlimit:4;stroke-dasharray:none;fill:none"/>
<circle cx="349.0" cy="25.0" r="1.35" stroke="#000000" stroke-width="0.35 px" style="stroke-width:0.35;stroke-miterlimit:4;stroke-dasharray:none;fill:none"/>
<path id="Sketch_w0015"  d="M 97.0 135.375 A 2 2 0 1 1 97 131.375L 112.0 131.375 A 2 2 0 1 1 112 135.375L 97.0 135.375 " stroke="#000000" stroke-width="0.35 px" style="stroke-width:0.35;stroke-miterlimit:4;stroke-dasharray:none;fill:none;fill-opacity:1;fill-rule: evenodd"/>
<path id="Sketch_w0016"  d="M 97.0 10.875 A 2 2 0 1 1 97 6.875L 112.0 6.875 A 2 2 0 1 1 112 10.875L 97.0 10.875 " stroke="#000000" stroke-width="0.35 px" style="stroke-width:0.35;stroke-miterlimit:4;stroke-dasharray:none;fill:none;fill-opacity:1;fill-rule: evenodd"/>
<path id="Sketch_w0017"  d="M 243.0 10.875 A 2 2 0 0 1 243 6.875L 258.0 6.875 A 2 2 0 0 1 258 10.875L 243.0 10.875 " stroke="#000000" stroke-width="0.35 px" style="stroke-width:0.35;stroke-miterlimit:4;stroke-dasharray:none;fill:none;fill-opacity:1;fill-rule: evenodd"/>
<path id="Sketch_w0018"  d="M 243.0 135.375 A 2 2 0 0 1 243 131.375L 258.0 131.375 A 2 2 0 0 1 258 135.375L 243.0 135.375 " stroke="#000000" stroke-width="0.35 px" style="stroke-width:0.35;stroke-miterlimit:4;stroke-dasharray:none;fill:none;fill-opacity:1;fill-rule: evenodd"/>
<title>b'Sketch'</title>
</g>
</svg>